0
SECTION
2
HEADER
9
$INSUNITS
70
4
0
ENDSEC
0
SECTION
2
TABLES
0
TABLE
2
LTYPE
0
LTYPE
72
65
70
64
2
CONTINUOUS
3
______
73
0
40
0
0
ENDTAB
0
TABLE
2
LAYER
0
ENDTAB
0
ENDSEC
0
SECTION
2
ENTITIES
0
LINE
8
0
10
12.05
20
-21.2875
11
26.05
21
-21.2875
0
LINE
8
0
10
26.05
20
-7.2875
11
12.05
21
-7.2875
0
LINE
8
0
10
26.05
20
-21.2875
11
26.05
21
-7.2875
0
LINE
8
0
10
12.05
20
-7.2875
11
12.05
21
-21.2875
0
LINE
8
0
10
50.15
20
-21.2875
11
64.15
21
-21.2875
0
LINE
8
0
10
64.15
20
-7.2875
11
50.15
21
-7.2875
0
LINE
8
0
10
64.15
20
-21.2875
11
64.15
21
-7.2875
0
LINE
8
0
10
50.15
20
-7.2875
11
50.15
21
-21.2875
0
LINE
8
0
10
69.2
20
-21.2875
11
83.2
21
-21.2875
0
LINE
8
0
10
83.2
20
-7.2875
11
69.2
21
-7.2875
0
LINE
8
0
10
83.2
20
-21.2875
11
83.2
21
-7.2875
0
LINE
8
0
10
69.2
20
-7.2875
11
69.2
21
-21.2875
0
LINE
8
0
10
7.2875
20
-40.3375
11
21.2875
21
-40.3375
0
LINE
8
0
10
21.2875
20
-26.3375
11
7.2875
21
-26.3375
0
LINE
8
0
10
21.2875
20
-40.3375
11
21.2875
21
-26.3375
0
LINE
8
0
10
7.2875
20
-26.3375
11
7.2875
21
-40.3375
0
LINE
8
0
10
40.625
20
-40.3375
11
54.625
21
-40.3375
0
LINE
8
0
10
54.625
20
-26.3375
11
40.625
21
-26.3375
0
LINE
8
0
10
54.625
20
-40.3375
11
54.625
21
-26.3375
0
LINE
8
0
10
40.625
20
-26.3375
11
40.625
21
-40.3375
0
LINE
8
0
10
64.4375
20
-40.3375
11
78.4375
21
-40.3375
0
LINE
8
0
10
78.4375
20
-26.3375
11
64.4375
21
-26.3375
0
LINE
8
0
10
78.4375
20
-40.3375
11
78.4375
21
-26.3375
0
LINE
8
0
10
64.4375
20
-26.3375
11
64.4375
21
-40.3375
0
LINE
8
0
10
2.525
20
-59.3875
11
16.525
21
-59.3875
0
LINE
8
0
10
16.525
20
-45.3875
11
2.525
21
-45.3875
0
LINE
8
0
10
16.525
20
-59.3875
11
16.525
21
-45.3875
0
LINE
8
0
10
2.525
20
-45.3875
11
2.525
21
-59.3875
0
LINE
8
0
10
33.48125
20
-59.3875
11
47.48125
21
-59.3875
0
LINE
8
0
10
47.48125
20
-45.3875
11
33.48125
21
-45.3875
0
LINE
8
0
10
47.48125
20
-59.3875
11
47.48125
21
-45.3875
0
LINE
8
0
10
33.48125
20
-45.3875
11
33.48125
21
-59.3875
0
LINE
8
0
10
59.675
20
-59.3875
11
73.675
21
-59.3875
0
LINE
8
0
10
73.675
20
-45.3875
11
59.675
21
-45.3875
0
LINE
8
0
10
73.675
20
-59.3875
11
73.675
21
-45.3875
0
LINE
8
0
10
59.675
20
-45.3875
11
59.675
21
-59.3875
0
LINE
8
0
10
26.3375
20
-78.4375
11
40.3375
21
-78.4375
0
LINE
8
0
10
40.3375
20
-64.4375
11
26.3375
21
-64.4375
0
LINE
8
0
10
40.3375
20
-78.4375
11
40.3375
21
-64.4375
0
LINE
8
0
10
26.3375
20
-64.4375
11
26.3375
21
-78.4375
0
LINE
8
0
10
17.8995
20
-79.4375
11
24.8995
21
-79.4375
0
LINE
8
0
10
24.8995
20
-64.4375
11
17.8995
21
-64.4375
0
LINE
8
0
10
24.8995
20
-79.4375
11
24.8995
21
-64.4375
0
LINE
8
0
10
17.8995
20
-64.4375
11
17.8995
21
-79.4375
0
LINE
8
0
10
41.7755
20
-79.4375
11
48.7755
21
-79.4375
0
LINE
8
0
10
48.7755
20
-64.4375
11
41.7755
21
-64.4375
0
LINE
8
0
10
48.7755
20
-79.4375
11
48.7755
21
-64.4375
0
LINE
8
0
10
41.7755
20
-64.4375
11
41.7755
21
-79.4375
0
LINE
8
0
10
54.9125
20
-78.4375
11
68.9125
21
-78.4375
0
LINE
8
0
10
68.9125
20
-64.4375
11
54.9125
21
-64.4375
0
LINE
8
0
10
68.9125
20
-78.4375
11
68.9125
21
-64.4375
0
LINE
8
0
10
54.9125
20
-64.4375
11
54.9125
21
-78.4375
0
LINE
8
0
10
28.71875
20
-97.4875
11
42.71875
21
-97.4875
0
LINE
8
0
10
42.71875
20
-83.4875
11
28.71875
21
-83.4875
0
LINE
8
0
10
42.71875
20
-97.4875
11
42.71875
21
-83.4875
0
LINE
8
0
10
28.71875
20
-83.4875
11
28.71875
21
-97.4875
0
LINE
8
0
10
107.823017
20
-24.363872
11
121.407157
21
-27.750779
0
LINE
8
0
10
124.794064
20
-14.166639
11
111.209924
21
-10.779732
0
LINE
8
0
10
121.407157
20
-27.750779
11
124.794064
21
-14.166639
0
LINE
8
0
10
111.209924
20
-10.779732
11
107.823017
21
-24.363872
0
LINE
8
0
10
88.785849
20
-21.973356
11
102.369989
21
-25.360263
0
LINE
8
0
10
105.756896
20
-11.776123
11
92.172756
21
-8.389216
0
LINE
8
0
10
102.369989
20
-25.360263
11
105.756896
21
-11.776123
0
LINE
8
0
10
92.172756
20
-8.389216
11
88.785849
21
-21.973356
0
LINE
8
0
10
125.754117
20
-31.190581
11
139.338258
21
-34.577487
0
LINE
8
0
10
142.725164
20
-20.993347
11
129.141024
21
-17.606441
0
LINE
8
0
10
139.338258
20
-34.577487
11
142.725164
21
-20.993347
0
LINE
8
0
10
129.141024
20
-17.606441
11
125.754117
21
-31.190581
0
LINE
8
0
10
143.63913
20
-38.202129
11
157.22327
21
-41.589036
0
LINE
8
0
10
160.610177
20
-28.004896
11
147.026036
21
-24.617989
0
LINE
8
0
10
157.22327
20
-41.589036
11
160.610177
21
-28.004896
0
LINE
8
0
10
147.026036
20
-24.617989
11
143.63913
21
-38.202129
0
LINE
8
0
10
103.214405
20
-42.848005
11
116.798545
21
-46.234912
0
LINE
8
0
10
120.185452
20
-32.650772
11
106.601312
21
-29.263865
0
LINE
8
0
10
116.798545
20
-46.234912
11
120.185452
21
-32.650772
0
LINE
8
0
10
106.601312
20
-29.263865
11
103.214405
21
-42.848005
0
LINE
8
0
10
84.177237
20
-40.457489
11
97.761377
21
-43.844396
0
LINE
8
0
10
101.148284
20
-30.260256
11
87.564144
21
-26.873349
0
LINE
8
0
10
97.761377
20
-43.844396
11
101.148284
21
-30.260256
0
LINE
8
0
10
87.564144
20
-26.873349
11
84.177237
21
-40.457489
0
LINE
8
0
10
121.145505
20
-49.674714
11
134.729645
21
-53.06162
0
LINE
8
0
10
138.116552
20
-39.47748
11
124.532412
21
-36.090574
0
LINE
8
0
10
134.729645
20
-53.06162
11
138.116552
21
-39.47748
0
LINE
8
0
10
124.532412
20
-36.090574
11
121.145505
21
-49.674714
0
LINE
8
0
10
139.030518
20
-56.686263
11
152.614658
21
-60.073169
0
LINE
8
0
10
156.001564
20
-46.489029
11
142.417424
21
-43.102122
0
LINE
8
0
10
152.614658
20
-60.073169
11
156.001564
21
-46.489029
0
LINE
8
0
10
142.417424
20
-43.102122
11
139.030518
21
-56.686263
0
LINE
8
0
10
98.605793
20
-61.332138
11
112.189933
21
-64.719045
0
LINE
8
0
10
115.57684
20
-51.134905
11
101.992699
21
-47.747998
0
LINE
8
0
10
112.189933
20
-64.719045
11
115.57684
21
-51.134905
0
LINE
8
0
10
101.992699
20
-47.747998
11
98.605793
21
-61.332138
0
LINE
8
0
10
79.568625
20
-58.941623
11
93.152765
21
-62.328529
0
LINE
8
0
10
96.539672
20
-48.744389
11
82.955531
21
-45.357482
0
LINE
8
0
10
93.152765
20
-62.328529
11
96.539672
21
-48.744389
0
LINE
8
0
10
82.955531
20
-45.357482
11
79.568625
21
-58.941623
0
LINE
8
0
10
116.536893
20
-68.158847
11
130.121033
21
-71.545754
0
LINE
8
0
10
133.50794
20
-57.961613
11
119.9238
21
-54.574707
0
LINE
8
0
10
130.121033
20
-71.545754
11
133.50794
21
-57.961613
0
LINE
8
0
10
119.9238
20
-54.574707
11
116.536893
21
-68.158847
0
LINE
8
0
10
134.421907
20
-75.170398
11
148.006048
21
-78.557304
0
LINE
8
0
10
151.392954
20
-64.973164
11
137.808814
21
-61.586257
0
LINE
8
0
10
148.006048
20
-78.557304
11
151.392954
21
-64.973164
0
LINE
8
0
10
137.808814
20
-61.586257
11
134.421907
21
-75.170398
0
LINE
8
0
10
93.997181
20
-79.816273
11
107.581321
21
-83.20318
0
LINE
8
0
10
110.968227
20
-69.61904
11
97.384087
21
-66.232133
0
LINE
8
0
10
107.581321
20
-83.20318
11
110.968227
21
-69.61904
0
LINE
8
0
10
97.384087
20
-66.232133
11
93.997181
21
-79.816273
0
LINE
8
0
10
74.960013
20
-77.425758
11
88.544153
21
-80.812664
0
LINE
8
0
10
91.931059
20
-67.228524
11
78.346919
21
-63.841617
0
LINE
8
0
10
88.544153
20
-80.812664
11
91.931059
21
-67.228524
0
LINE
8
0
10
78.346919
20
-63.841617
11
74.960013
21
-77.425758
0
LINE
8
0
10
111.928281
20
-86.642982
11
125.512421
21
-90.029889
0
LINE
8
0
10
128.899328
20
-76.445748
11
115.315187
21
-73.058842
0
LINE
8
0
10
125.512421
20
-90.029889
11
128.899328
21
-76.445748
0
LINE
8
0
10
115.315187
20
-73.058842
11
111.928281
21
-86.642982
0
LINE
8
0
10
129.813295
20
-93.654531
11
143.397435
21
-97.041437
0
LINE
8
0
10
146.784342
20
-83.457297
11
133.200202
21
-80.07039
0
LINE
8
0
10
143.397435
20
-97.041437
11
146.784342
21
-83.457297
0
LINE
8
0
10
133.200202
20
-80.07039
11
129.813295
21
-93.654531
0
LINE
8
0
10
148.297428
20
-98.263143
11
161.881568
21
-101.650049
0
LINE
8
0
10
165.268475
20
-88.065909
11
151.684335
21
-84.679003
0
LINE
8
0
10
161.881568
20
-101.650049
11
165.268475
21
-88.065909
0
LINE
8
0
10
151.684335
20
-84.679003
11
148.297428
21
-98.263143
0
LINE
8
0
10
81.903985
20
-98.790273
11
95.488126
21
-102.17718
0
LINE
8
0
10
98.875032
20
-88.59304
11
85.290892
21
-85.206133
0
LINE
8
0
10
95.488126
20
-102.17718
11
98.875032
21
-88.59304
0
LINE
8
0
10
85.290892
20
-85.206133
11
81.903985
21
-98.790273
0
LINE
8
0
10
105.009151
20
-104.551037
11
118.593291
21
-107.937944
0
LINE
8
0
10
121.980198
20
-94.353804
11
108.396058
21
-90.966897
0
LINE
8
0
10
118.593291
20
-107.937944
11
121.980198
21
-94.353804
0
LINE
8
0
10
108.396058
20
-90.966897
11
105.009151
21
-104.551037
0
LINE
8
0
10
134.446749
20
-114.442971
11
148.030889
21
-117.829877
0
LINE
8
0
10
151.417795
20
-104.245737
11
137.833655
21
-100.858831
0
LINE
8
0
10
148.030889
20
-117.829877
11
151.417795
21
-104.245737
0
LINE
8
0
10
137.833655
20
-100.858831
11
134.446749
21
-114.442971
0
LINE
8
0
10
126.017471
20
-113.37193
11
132.809541
21
-115.065383
0
LINE
8
0
10
136.43837
20
-100.510947
11
129.6463
21
-98.817494
0
LINE
8
0
10
132.809541
20
-115.065383
11
136.43837
21
-100.510947
0
LINE
8
0
10
129.6463
20
-98.817494
11
126.017471
21
-113.37193
0
LINE
8
0
10
149.184252
20
-119.148057
11
155.976322
21
-120.84151
0
LINE
8
0
10
159.605151
20
-106.287074
11
152.813081
21
-104.593621
0
LINE
8
0
10
155.976322
20
-120.84151
11
159.605151
21
-106.287074
0
LINE
8
0
10
152.813081
20
-104.593621
11
149.184252
21
-119.148057
0
ENDSEC
0
EOF