0
SECTION
2
HEADER
9
$INSUNITS
70
4
0
ENDSEC
0
SECTION
2
TABLES
0
TABLE
2
LTYPE
0
LTYPE
72
65
70
64
2
CONTINUOUS
3
______
73
0
40
0
0
ENDTAB
0
TABLE
2
LAYER
0
ENDTAB
0
ENDSEC
0
SECTION
2
ENTITIES
0
LINE
8
0
10
116.825
20
-21.2875
11
130.825
21
-21.2875
0
LINE
8
0
10
130.825
20
-7.2875
11
116.825
21
-7.2875
0
LINE
8
0
10
130.825
20
-21.2875
11
130.825
21
-7.2875
0
LINE
8
0
10
116.825
20
-7.2875
11
116.825
21
-21.2875
0
LINE
8
0
10
135.875
20
-21.2875
11
149.875
21
-21.2875
0
LINE
8
0
10
149.875
20
-7.2875
11
135.875
21
-7.2875
0
LINE
8
0
10
149.875
20
-21.2875
11
149.875
21
-7.2875
0
LINE
8
0
10
135.875
20
-7.2875
11
135.875
21
-21.2875
0
LINE
8
0
10
164.45
20
-21.2875
11
178.45
21
-21.2875
0
LINE
8
0
10
178.45
20
-7.2875
11
164.45
21
-7.2875
0
LINE
8
0
10
178.45
20
-21.2875
11
178.45
21
-7.2875
0
LINE
8
0
10
164.45
20
-7.2875
11
164.45
21
-21.2875
0
LINE
8
0
10
156.012
20
-22.2875
11
163.012
21
-22.2875
0
LINE
8
0
10
163.012
20
-7.2875
11
156.012
21
-7.2875
0
LINE
8
0
10
163.012
20
-22.2875
11
163.012
21
-7.2875
0
LINE
8
0
10
156.012
20
-7.2875
11
156.012
21
-22.2875
0
LINE
8
0
10
179.888
20
-22.2875
11
186.888
21
-22.2875
0
LINE
8
0
10
186.888
20
-7.2875
11
179.888
21
-7.2875
0
LINE
8
0
10
186.888
20
-22.2875
11
186.888
21
-7.2875
0
LINE
8
0
10
179.888
20
-7.2875
11
179.888
21
-22.2875
0
LINE
8
0
10
102.5375
20
-40.3375
11
116.5375
21
-40.3375
0
LINE
8
0
10
116.5375
20
-26.3375
11
102.5375
21
-26.3375
0
LINE
8
0
10
116.5375
20
-40.3375
11
116.5375
21
-26.3375
0
LINE
8
0
10
102.5375
20
-26.3375
11
102.5375
21
-40.3375
0
LINE
8
0
10
121.5875
20
-40.3375
11
135.5875
21
-40.3375
0
LINE
8
0
10
135.5875
20
-26.3375
11
121.5875
21
-26.3375
0
LINE
8
0
10
135.5875
20
-40.3375
11
135.5875
21
-26.3375
0
LINE
8
0
10
121.5875
20
-26.3375
11
121.5875
21
-40.3375
0
LINE
8
0
10
140.6375
20
-40.3375
11
154.6375
21
-40.3375
0
LINE
8
0
10
154.6375
20
-26.3375
11
140.6375
21
-26.3375
0
LINE
8
0
10
154.6375
20
-40.3375
11
154.6375
21
-26.3375
0
LINE
8
0
10
140.6375
20
-26.3375
11
140.6375
21
-40.3375
0
LINE
8
0
10
164.45
20
-40.3375
11
178.45
21
-40.3375
0
LINE
8
0
10
178.45
20
-26.3375
11
164.45
21
-26.3375
0
LINE
8
0
10
178.45
20
-40.3375
11
178.45
21
-26.3375
0
LINE
8
0
10
164.45
20
-26.3375
11
164.45
21
-40.3375
0
LINE
8
0
10
107.3
20
-59.3875
11
121.3
21
-59.3875
0
LINE
8
0
10
121.3
20
-45.3875
11
107.3
21
-45.3875
0
LINE
8
0
10
121.3
20
-59.3875
11
121.3
21
-45.3875
0
LINE
8
0
10
107.3
20
-45.3875
11
107.3
21
-59.3875
0
LINE
8
0
10
126.35
20
-59.3875
11
140.35
21
-59.3875
0
LINE
8
0
10
140.35
20
-45.3875
11
126.35
21
-45.3875
0
LINE
8
0
10
140.35
20
-59.3875
11
140.35
21
-45.3875
0
LINE
8
0
10
126.35
20
-45.3875
11
126.35
21
-59.3875
0
LINE
8
0
10
157.30625
20
-59.3875
11
171.30625
21
-59.3875
0
LINE
8
0
10
171.30625
20
-45.3875
11
157.30625
21
-45.3875
0
LINE
8
0
10
171.30625
20
-59.3875
11
171.30625
21
-45.3875
0
LINE
8
0
10
157.30625
20
-45.3875
11
157.30625
21
-59.3875
0
LINE
8
0
10
148.86825
20
-60.3875
11
155.86825
21
-60.3875
0
LINE
8
0
10
155.86825
20
-45.3875
11
148.86825
21
-45.3875
0
LINE
8
0
10
155.86825
20
-60.3875
11
155.86825
21
-45.3875
0
LINE
8
0
10
148.86825
20
-45.3875
11
148.86825
21
-60.3875
0
LINE
8
0
10
172.74425
20
-60.3875
11
179.74425
21
-60.3875
0
LINE
8
0
10
179.74425
20
-45.3875
11
172.74425
21
-45.3875
0
LINE
8
0
10
179.74425
20
-60.3875
11
179.74425
21
-45.3875
0
LINE
8
0
10
172.74425
20
-45.3875
11
172.74425
21
-60.3875
0
LINE
8
0
10
112.0625
20
-78.4375
11
126.0625
21
-78.4375
0
LINE
8
0
10
126.0625
20
-64.4375
11
112.0625
21
-64.4375
0
LINE
8
0
10
126.0625
20
-78.4375
11
126.0625
21
-64.4375
0
LINE
8
0
10
112.0625
20
-64.4375
11
112.0625
21
-78.4375
0
LINE
8
0
10
138.25625
20
-78.4375
11
152.25625
21
-78.4375
0
LINE
8
0
10
152.25625
20
-64.4375
11
138.25625
21
-64.4375
0
LINE
8
0
10
152.25625
20
-78.4375
11
152.25625
21
-64.4375
0
LINE
8
0
10
138.25625
20
-64.4375
11
138.25625
21
-78.4375
0
LINE
8
0
10
169.2125
20
-83.2
11
183.2125
21
-83.2
0
LINE
8
0
10
183.2125
20
-69.2
11
169.2125
21
-69.2
0
LINE
8
0
10
183.2125
20
-83.2
11
183.2125
21
-69.2
0
LINE
8
0
10
169.2125
20
-69.2
11
169.2125
21
-83.2
0
LINE
8
0
10
123.96875
20
-97.4875
11
137.96875
21
-97.4875
0
LINE
8
0
10
137.96875
20
-83.4875
11
123.96875
21
-83.4875
0
LINE
8
0
10
137.96875
20
-97.4875
11
137.96875
21
-83.4875
0
LINE
8
0
10
123.96875
20
-83.4875
11
123.96875
21
-97.4875
0
LINE
8
0
10
150.1625
20
-102.25
11
164.1625
21
-102.25
0
LINE
8
0
10
164.1625
20
-88.25
11
150.1625
21
-88.25
0
LINE
8
0
10
164.1625
20
-102.25
11
164.1625
21
-88.25
0
LINE
8
0
10
150.1625
20
-88.25
11
150.1625
21
-102.25
0
LINE
8
0
10
169.2125
20
-102.25
11
183.2125
21
-102.25
0
LINE
8
0
10
183.2125
20
-88.25
11
169.2125
21
-88.25
0
LINE
8
0
10
183.2125
20
-102.25
11
183.2125
21
-88.25
0
LINE
8
0
10
169.2125
20
-88.25
11
169.2125
21
-102.25
0
LINE
8
0
10
188.2625
20
-102.25
11
202.2625
21
-102.25
0
LINE
8
0
10
202.2625
20
-88.25
11
188.2625
21
-88.25
0
LINE
8
0
10
202.2625
20
-102.25
11
202.2625
21
-88.25
0
LINE
8
0
10
188.2625
20
-88.25
11
188.2625
21
-102.25
0
LINE
8
0
10
97.775
20
-21.2875
11
111.775
21
-21.2875
0
LINE
8
0
10
111.775
20
-7.2875
11
97.775
21
-7.2875
0
LINE
8
0
10
111.775
20
-21.2875
11
111.775
21
-7.2875
0
LINE
8
0
10
97.775
20
-7.2875
11
97.775
21
-21.2875
0
LINE
8
0
10
59.567843
20
-27.750779
11
73.151983
21
-24.363872
0
LINE
8
0
10
69.765076
20
-10.779732
11
56.180936
21
-14.166639
0
LINE
8
0
10
73.151983
20
-24.363872
11
69.765076
21
-10.779732
0
LINE
8
0
10
56.180936
20
-14.166639
11
59.567843
21
-27.750779
0
LINE
8
0
10
41.636742
20
-34.577487
11
55.220883
21
-31.190581
0
LINE
8
0
10
51.833976
20
-17.606441
11
38.249836
21
-20.993347
0
LINE
8
0
10
55.220883
20
-31.190581
11
51.833976
21
-17.606441
0
LINE
8
0
10
38.249836
20
-20.993347
11
41.636742
21
-34.577487
0
LINE
8
0
10
78.605011
20
-25.360263
11
92.189151
21
-21.973356
0
LINE
8
0
10
88.802244
20
-8.389216
11
75.218104
21
-11.776123
0
LINE
8
0
10
92.189151
20
-21.973356
11
88.802244
21
-8.389216
0
LINE
8
0
10
75.218104
20
-11.776123
11
78.605011
21
-25.360263
0
LINE
8
0
10
23.75173
20
-41.589036
11
37.33587
21
-38.202129
0
LINE
8
0
10
33.948964
20
-24.617989
11
20.364823
21
-28.004896
0
LINE
8
0
10
37.33587
20
-38.202129
11
33.948964
21
-24.617989
0
LINE
8
0
10
20.364823
20
-28.004896
11
23.75173
21
-41.589036
0
LINE
8
0
10
64.176455
20
-46.234912
11
77.760595
21
-42.848005
0
LINE
8
0
10
74.373688
20
-29.263865
11
60.789548
21
-32.650772
0
LINE
8
0
10
77.760595
20
-42.848005
11
74.373688
21
-29.263865
0
LINE
8
0
10
60.789548
20
-32.650772
11
64.176455
21
-46.234912
0
LINE
8
0
10
46.245355
20
-53.06162
11
59.829495
21
-49.674714
0
LINE
8
0
10
56.442588
20
-36.090574
11
42.858448
21
-39.47748
0
LINE
8
0
10
59.829495
20
-49.674714
11
56.442588
21
-36.090574
0
LINE
8
0
10
42.858448
20
-39.47748
11
46.245355
21
-53.06162
0
LINE
8
0
10
83.213623
20
-43.844396
11
96.797763
21
-40.457489
0
LINE
8
0
10
93.410856
20
-26.873349
11
79.826716
21
-30.260256
0
LINE
8
0
10
96.797763
20
-40.457489
11
93.410856
21
-26.873349
0
LINE
8
0
10
79.826716
20
-30.260256
11
83.213623
21
-43.844396
0
LINE
8
0
10
28.360342
20
-60.073169
11
41.944482
21
-56.686263
0
LINE
8
0
10
38.557576
20
-43.102122
11
24.973436
21
-46.489029
0
LINE
8
0
10
41.944482
20
-56.686263
11
38.557576
21
-43.102122
0
LINE
8
0
10
24.973436
20
-46.489029
11
28.360342
21
-60.073169
0
LINE
8
0
10
68.785067
20
-64.719045
11
82.369207
21
-61.332138
0
LINE
8
0
10
78.982301
20
-47.747998
11
65.39816
21
-51.134905
0
LINE
8
0
10
82.369207
20
-61.332138
11
78.982301
21
-47.747998
0
LINE
8
0
10
65.39816
20
-51.134905
11
68.785067
21
-64.719045
0
LINE
8
0
10
50.853967
20
-71.545754
11
64.438107
21
-68.158847
0
LINE
8
0
10
61.0512
20
-54.574707
11
47.46706
21
-57.961613
0
LINE
8
0
10
64.438107
20
-68.158847
11
61.0512
21
-54.574707
0
LINE
8
0
10
47.46706
20
-57.961613
11
50.853967
21
-71.545754
0
LINE
8
0
10
87.822235
20
-62.328529
11
101.406375
21
-58.941623
0
LINE
8
0
10
98.019469
20
-45.357482
11
84.435328
21
-48.744389
0
LINE
8
0
10
101.406375
20
-58.941623
11
98.019469
21
-45.357482
0
LINE
8
0
10
84.435328
20
-48.744389
11
87.822235
21
-62.328529
0
LINE
8
0
10
32.968952
20
-78.557304
11
46.553093
21
-75.170398
0
LINE
8
0
10
43.166186
20
-61.586257
11
29.582046
21
-64.973164
0
LINE
8
0
10
46.553093
20
-75.170398
11
43.166186
21
-61.586257
0
LINE
8
0
10
29.582046
20
-64.973164
11
32.968952
21
-78.557304
0
LINE
8
0
10
73.393679
20
-83.20318
11
86.977819
21
-79.816273
0
LINE
8
0
10
83.590913
20
-66.232133
11
70.006773
21
-69.61904
0
LINE
8
0
10
86.977819
20
-79.816273
11
83.590913
21
-66.232133
0
LINE
8
0
10
70.006773
20
-69.61904
11
73.393679
21
-83.20318
0
LINE
8
0
10
55.462579
20
-90.029889
11
69.046719
21
-86.642982
0
LINE
8
0
10
65.659813
20
-73.058842
11
52.075672
21
-76.445748
0
LINE
8
0
10
69.046719
20
-86.642982
11
65.659813
21
-73.058842
0
LINE
8
0
10
52.075672
20
-76.445748
11
55.462579
21
-90.029889
0
LINE
8
0
10
92.430847
20
-80.812664
11
106.014987
21
-77.425758
0
LINE
8
0
10
102.628081
20
-63.841617
11
89.043941
21
-67.228524
0
LINE
8
0
10
106.014987
20
-77.425758
11
102.628081
21
-63.841617
0
LINE
8
0
10
89.043941
20
-67.228524
11
92.430847
21
-80.812664
0
LINE
8
0
10
19.093432
20
-101.650049
11
32.677572
21
-98.263143
0
LINE
8
0
10
29.290665
20
-84.679003
11
15.706525
21
-88.065909
0
LINE
8
0
10
32.677572
20
-98.263143
11
29.290665
21
-84.679003
0
LINE
8
0
10
15.706525
20
-88.065909
11
19.093432
21
-101.650049
0
LINE
8
0
10
37.577565
20
-97.041437
11
51.161705
21
-93.654531
0
LINE
8
0
10
47.774798
20
-80.07039
11
34.190658
21
-83.457297
0
LINE
8
0
10
51.161705
20
-93.654531
11
47.774798
21
-80.07039
0
LINE
8
0
10
34.190658
20
-83.457297
11
37.577565
21
-97.041437
0
LINE
8
0
10
67.002741
20
-106.785792
11
80.586882
21
-103.398886
0
LINE
8
0
10
77.199975
20
-89.814745
11
63.615835
21
-93.201652
0
LINE
8
0
10
80.586882
20
-103.398886
11
77.199975
21
-89.814745
0
LINE
8
0
10
63.615835
20
-93.201652
11
67.002741
21
-106.785792
0
LINE
8
0
10
90.107909
20
-101.025027
11
103.692049
21
-97.63812
0
LINE
8
0
10
100.305143
20
-84.05398
11
86.721003
21
-87.440886
0
LINE
8
0
10
103.692049
20
-97.63812
11
100.305143
21
-84.05398
0
LINE
8
0
10
86.721003
20
-87.440886
11
90.107909
21
-101.025027
0
LINE
8
0
10
35.254627
20
-117.2538
11
48.838767
21
-113.866893
0
LINE
8
0
10
45.45186
20
-100.282753
11
31.86772
21
-103.669659
0
LINE
8
0
10
48.838767
20
-113.866893
11
45.45186
21
-100.282753
0
LINE
8
0
10
31.86772
20
-103.669659
11
35.254627
21
-117.2538
0
LINE
8
0
10
27.309193
20
-120.265432
11
34.101263
21
-118.571979
0
LINE
8
0
10
30.472435
20
-104.017543
11
23.680365
21
-105.710996
0
LINE
8
0
10
34.101263
20
-118.571979
11
30.472435
21
-104.017543
0
LINE
8
0
10
23.680365
20
-105.710996
11
27.309193
21
-120.265432
0
LINE
8
0
10
50.475974
20
-114.489305
11
57.268044
21
-112.795852
0
LINE
8
0
10
53.639216
20
-98.241416
11
46.847146
21
-99.934869
0
LINE
8
0
10
57.268044
20
-112.795852
11
53.639216
21
-98.241416
0
LINE
8
0
10
46.847146
20
-99.934869
11
50.475974
21
-114.489305
0
ENDSEC
0
EOF