0
SECTION
2
HEADER
9
$INSUNITS
70
4
0
ENDSEC
0
SECTION
2
TABLES
0
TABLE
2
LTYPE
0
LTYPE
72
65
70
64
2
CONTINUOUS
3
______
73
0
40
0
0
ENDTAB
0
TABLE
2
LAYER
0
ENDTAB
0
ENDSEC
0
SECTION
2
ENTITIES
0
LINE
8
0
10
12.05
20
-21.2875
11
26.05
21
-21.2875
0
LINE
8
0
10
26.05
20
-7.2875
11
12.05
21
-7.2875
0
LINE
8
0
10
26.05
20
-21.2875
11
26.05
21
-7.2875
0
LINE
8
0
10
12.05
20
-7.2875
11
12.05
21
-21.2875
0
LINE
8
0
10
50.15
20
-21.2875
11
64.15
21
-21.2875
0
LINE
8
0
10
64.15
20
-7.2875
11
50.15
21
-7.2875
0
LINE
8
0
10
64.15
20
-21.2875
11
64.15
21
-7.2875
0
LINE
8
0
10
50.15
20
-7.2875
11
50.15
21
-21.2875
0
LINE
8
0
10
69.2
20
-21.2875
11
83.2
21
-21.2875
0
LINE
8
0
10
83.2
20
-7.2875
11
69.2
21
-7.2875
0
LINE
8
0
10
83.2
20
-21.2875
11
83.2
21
-7.2875
0
LINE
8
0
10
69.2
20
-7.2875
11
69.2
21
-21.2875
0
LINE
8
0
10
264.4625
20
-21.2875
11
278.4625
21
-21.2875
0
LINE
8
0
10
278.4625
20
-7.2875
11
264.4625
21
-7.2875
0
LINE
8
0
10
278.4625
20
-21.2875
11
278.4625
21
-7.2875
0
LINE
8
0
10
264.4625
20
-7.2875
11
264.4625
21
-21.2875
0
LINE
8
0
10
283.5125
20
-21.2875
11
297.5125
21
-21.2875
0
LINE
8
0
10
297.5125
20
-7.2875
11
283.5125
21
-7.2875
0
LINE
8
0
10
297.5125
20
-21.2875
11
297.5125
21
-7.2875
0
LINE
8
0
10
283.5125
20
-7.2875
11
283.5125
21
-21.2875
0
LINE
8
0
10
302.5625
20
-21.2875
11
316.5625
21
-21.2875
0
LINE
8
0
10
316.5625
20
-7.2875
11
302.5625
21
-7.2875
0
LINE
8
0
10
316.5625
20
-21.2875
11
316.5625
21
-7.2875
0
LINE
8
0
10
302.5625
20
-7.2875
11
302.5625
21
-21.2875
0
LINE
8
0
10
331.1375
20
-21.2875
11
345.1375
21
-21.2875
0
LINE
8
0
10
345.1375
20
-7.2875
11
331.1375
21
-7.2875
0
LINE
8
0
10
345.1375
20
-21.2875
11
345.1375
21
-7.2875
0
LINE
8
0
10
331.1375
20
-7.2875
11
331.1375
21
-21.2875
0
LINE
8
0
10
322.6995
20
-22.2875
11
329.6995
21
-22.2875
0
LINE
8
0
10
329.6995
20
-7.2875
11
322.6995
21
-7.2875
0
LINE
8
0
10
329.6995
20
-22.2875
11
329.6995
21
-7.2875
0
LINE
8
0
10
322.6995
20
-7.2875
11
322.6995
21
-22.2875
0
LINE
8
0
10
346.5755
20
-22.2875
11
353.5755
21
-22.2875
0
LINE
8
0
10
353.5755
20
-7.2875
11
346.5755
21
-7.2875
0
LINE
8
0
10
353.5755
20
-22.2875
11
353.5755
21
-7.2875
0
LINE
8
0
10
346.5755
20
-7.2875
11
346.5755
21
-22.2875
0
LINE
8
0
10
7.2875
20
-40.3375
11
21.2875
21
-40.3375
0
LINE
8
0
10
21.2875
20
-26.3375
11
7.2875
21
-26.3375
0
LINE
8
0
10
21.2875
20
-40.3375
11
21.2875
21
-26.3375
0
LINE
8
0
10
7.2875
20
-26.3375
11
7.2875
21
-40.3375
0
LINE
8
0
10
40.625
20
-40.3375
11
54.625
21
-40.3375
0
LINE
8
0
10
54.625
20
-26.3375
11
40.625
21
-26.3375
0
LINE
8
0
10
54.625
20
-40.3375
11
54.625
21
-26.3375
0
LINE
8
0
10
40.625
20
-26.3375
11
40.625
21
-40.3375
0
LINE
8
0
10
64.4375
20
-40.3375
11
78.4375
21
-40.3375
0
LINE
8
0
10
78.4375
20
-26.3375
11
64.4375
21
-26.3375
0
LINE
8
0
10
78.4375
20
-40.3375
11
78.4375
21
-26.3375
0
LINE
8
0
10
64.4375
20
-26.3375
11
64.4375
21
-40.3375
0
LINE
8
0
10
269.225
20
-40.3375
11
283.225
21
-40.3375
0
LINE
8
0
10
283.225
20
-26.3375
11
269.225
21
-26.3375
0
LINE
8
0
10
283.225
20
-40.3375
11
283.225
21
-26.3375
0
LINE
8
0
10
269.225
20
-26.3375
11
269.225
21
-40.3375
0
LINE
8
0
10
288.275
20
-40.3375
11
302.275
21
-40.3375
0
LINE
8
0
10
302.275
20
-26.3375
11
288.275
21
-26.3375
0
LINE
8
0
10
302.275
20
-40.3375
11
302.275
21
-26.3375
0
LINE
8
0
10
288.275
20
-26.3375
11
288.275
21
-40.3375
0
LINE
8
0
10
307.325
20
-40.3375
11
321.325
21
-40.3375
0
LINE
8
0
10
321.325
20
-26.3375
11
307.325
21
-26.3375
0
LINE
8
0
10
321.325
20
-40.3375
11
321.325
21
-26.3375
0
LINE
8
0
10
307.325
20
-26.3375
11
307.325
21
-40.3375
0
LINE
8
0
10
331.1375
20
-40.3375
11
345.1375
21
-40.3375
0
LINE
8
0
10
345.1375
20
-26.3375
11
331.1375
21
-26.3375
0
LINE
8
0
10
345.1375
20
-40.3375
11
345.1375
21
-26.3375
0
LINE
8
0
10
331.1375
20
-26.3375
11
331.1375
21
-40.3375
0
LINE
8
0
10
2.525
20
-59.3875
11
16.525
21
-59.3875
0
LINE
8
0
10
16.525
20
-45.3875
11
2.525
21
-45.3875
0
LINE
8
0
10
16.525
20
-59.3875
11
16.525
21
-45.3875
0
LINE
8
0
10
2.525
20
-45.3875
11
2.525
21
-59.3875
0
LINE
8
0
10
33.48125
20
-59.3875
11
47.48125
21
-59.3875
0
LINE
8
0
10
47.48125
20
-45.3875
11
33.48125
21
-45.3875
0
LINE
8
0
10
47.48125
20
-59.3875
11
47.48125
21
-45.3875
0
LINE
8
0
10
33.48125
20
-45.3875
11
33.48125
21
-59.3875
0
LINE
8
0
10
59.675
20
-59.3875
11
73.675
21
-59.3875
0
LINE
8
0
10
73.675
20
-45.3875
11
59.675
21
-45.3875
0
LINE
8
0
10
73.675
20
-59.3875
11
73.675
21
-45.3875
0
LINE
8
0
10
59.675
20
-45.3875
11
59.675
21
-59.3875
0
LINE
8
0
10
273.9875
20
-59.3875
11
287.9875
21
-59.3875
0
LINE
8
0
10
287.9875
20
-45.3875
11
273.9875
21
-45.3875
0
LINE
8
0
10
287.9875
20
-59.3875
11
287.9875
21
-45.3875
0
LINE
8
0
10
273.9875
20
-45.3875
11
273.9875
21
-59.3875
0
LINE
8
0
10
293.0375
20
-59.3875
11
307.0375
21
-59.3875
0
LINE
8
0
10
307.0375
20
-45.3875
11
293.0375
21
-45.3875
0
LINE
8
0
10
307.0375
20
-59.3875
11
307.0375
21
-45.3875
0
LINE
8
0
10
293.0375
20
-45.3875
11
293.0375
21
-59.3875
0
LINE
8
0
10
323.99375
20
-59.3875
11
337.99375
21
-59.3875
0
LINE
8
0
10
337.99375
20
-45.3875
11
323.99375
21
-45.3875
0
LINE
8
0
10
337.99375
20
-59.3875
11
337.99375
21
-45.3875
0
LINE
8
0
10
323.99375
20
-45.3875
11
323.99375
21
-59.3875
0
LINE
8
0
10
315.55575
20
-60.3875
11
322.55575
21
-60.3875
0
LINE
8
0
10
322.55575
20
-45.3875
11
315.55575
21
-45.3875
0
LINE
8
0
10
322.55575
20
-60.3875
11
322.55575
21
-45.3875
0
LINE
8
0
10
315.55575
20
-45.3875
11
315.55575
21
-60.3875
0
LINE
8
0
10
339.43175
20
-60.3875
11
346.43175
21
-60.3875
0
LINE
8
0
10
346.43175
20
-45.3875
11
339.43175
21
-45.3875
0
LINE
8
0
10
346.43175
20
-60.3875
11
346.43175
21
-45.3875
0
LINE
8
0
10
339.43175
20
-45.3875
11
339.43175
21
-60.3875
0
LINE
8
0
10
26.3375
20
-78.4375
11
40.3375
21
-78.4375
0
LINE
8
0
10
40.3375
20
-64.4375
11
26.3375
21
-64.4375
0
LINE
8
0
10
40.3375
20
-78.4375
11
40.3375
21
-64.4375
0
LINE
8
0
10
26.3375
20
-64.4375
11
26.3375
21
-78.4375
0
LINE
8
0
10
17.8995
20
-79.4375
11
24.8995
21
-79.4375
0
LINE
8
0
10
24.8995
20
-64.4375
11
17.8995
21
-64.4375
0
LINE
8
0
10
24.8995
20
-79.4375
11
24.8995
21
-64.4375
0
LINE
8
0
10
17.8995
20
-64.4375
11
17.8995
21
-79.4375
0
LINE
8
0
10
41.7755
20
-79.4375
11
48.7755
21
-79.4375
0
LINE
8
0
10
48.7755
20
-64.4375
11
41.7755
21
-64.4375
0
LINE
8
0
10
48.7755
20
-79.4375
11
48.7755
21
-64.4375
0
LINE
8
0
10
41.7755
20
-64.4375
11
41.7755
21
-79.4375
0
LINE
8
0
10
54.9125
20
-78.4375
11
68.9125
21
-78.4375
0
LINE
8
0
10
68.9125
20
-64.4375
11
54.9125
21
-64.4375
0
LINE
8
0
10
68.9125
20
-78.4375
11
68.9125
21
-64.4375
0
LINE
8
0
10
54.9125
20
-64.4375
11
54.9125
21
-78.4375
0
LINE
8
0
10
278.75
20
-78.4375
11
292.75
21
-78.4375
0
LINE
8
0
10
292.75
20
-64.4375
11
278.75
21
-64.4375
0
LINE
8
0
10
292.75
20
-78.4375
11
292.75
21
-64.4375
0
LINE
8
0
10
278.75
20
-64.4375
11
278.75
21
-78.4375
0
LINE
8
0
10
304.94375
20
-78.4375
11
318.94375
21
-78.4375
0
LINE
8
0
10
318.94375
20
-64.4375
11
304.94375
21
-64.4375
0
LINE
8
0
10
318.94375
20
-78.4375
11
318.94375
21
-64.4375
0
LINE
8
0
10
304.94375
20
-64.4375
11
304.94375
21
-78.4375
0
LINE
8
0
10
331.1375
20
-78.4375
11
345.1375
21
-78.4375
0
LINE
8
0
10
345.1375
20
-64.4375
11
331.1375
21
-64.4375
0
LINE
8
0
10
345.1375
20
-78.4375
11
345.1375
21
-64.4375
0
LINE
8
0
10
331.1375
20
-64.4375
11
331.1375
21
-78.4375
0
LINE
8
0
10
28.71875
20
-97.4875
11
42.71875
21
-97.4875
0
LINE
8
0
10
42.71875
20
-83.4875
11
28.71875
21
-83.4875
0
LINE
8
0
10
42.71875
20
-97.4875
11
42.71875
21
-83.4875
0
LINE
8
0
10
28.71875
20
-83.4875
11
28.71875
21
-97.4875
0
LINE
8
0
10
290.65625
20
-97.4875
11
304.65625
21
-97.4875
0
LINE
8
0
10
304.65625
20
-83.4875
11
290.65625
21
-83.4875
0
LINE
8
0
10
304.65625
20
-97.4875
11
304.65625
21
-83.4875
0
LINE
8
0
10
290.65625
20
-83.4875
11
290.65625
21
-97.4875
0
LINE
8
0
10
312.0875
20
-97.4875
11
326.0875
21
-97.4875
0
LINE
8
0
10
326.0875
20
-83.4875
11
312.0875
21
-83.4875
0
LINE
8
0
10
326.0875
20
-97.4875
11
326.0875
21
-83.4875
0
LINE
8
0
10
312.0875
20
-83.4875
11
312.0875
21
-97.4875
0
LINE
8
0
10
331.1375
20
-97.4875
11
345.1375
21
-97.4875
0
LINE
8
0
10
345.1375
20
-83.4875
11
331.1375
21
-83.4875
0
LINE
8
0
10
345.1375
20
-97.4875
11
345.1375
21
-83.4875
0
LINE
8
0
10
331.1375
20
-83.4875
11
331.1375
21
-97.4875
0
LINE
8
0
10
350.1875
20
-97.4875
11
364.1875
21
-97.4875
0
LINE
8
0
10
364.1875
20
-83.4875
11
350.1875
21
-83.4875
0
LINE
8
0
10
364.1875
20
-97.4875
11
364.1875
21
-83.4875
0
LINE
8
0
10
350.1875
20
-83.4875
11
350.1875
21
-97.4875
0
LINE
8
0
10
107.799974
20
-24.265793
11
121.384114
21
-27.6527
0
LINE
8
0
10
124.771021
20
-14.06856
11
111.186881
21
-10.681653
0
LINE
8
0
10
121.384114
20
-27.6527
11
124.771021
21
-14.06856
0
LINE
8
0
10
111.186881
20
-10.681653
11
107.799974
21
-24.265793
0
LINE
8
0
10
88.739763
20
-21.967697
11
102.323904
21
-25.354603
0
LINE
8
0
10
105.71081
20
-11.770463
11
92.12667
21
-8.383556
0
LINE
8
0
10
102.323904
20
-25.354603
11
105.71081
21
-11.770463
0
LINE
8
0
10
92.12667
20
-8.383556
11
88.739763
21
-21.967697
0
LINE
8
0
10
125.70803
20
-31.184921
11
139.29217
21
-34.571828
0
LINE
8
0
10
142.679076
20
-20.987687
11
129.094936
21
-17.600781
0
LINE
8
0
10
139.29217
20
-34.571828
11
142.679076
21
-20.987687
0
LINE
8
0
10
129.094936
20
-17.600781
11
125.70803
21
-31.184921
0
LINE
8
0
10
143.616087
20
-38.104051
11
157.200227
21
-41.490957
0
LINE
8
0
10
160.587134
20
-27.906817
11
147.002994
21
-24.51991
0
LINE
8
0
10
157.200227
20
-41.490957
11
160.587134
21
-27.906817
0
LINE
8
0
10
147.002994
20
-24.51991
11
143.616087
21
-38.104051
0
LINE
8
0
10
103.191362
20
-42.749926
11
116.775502
21
-46.136833
0
LINE
8
0
10
120.162409
20
-32.552693
11
106.578269
21
-29.165786
0
LINE
8
0
10
116.775502
20
-46.136833
11
120.162409
21
-32.552693
0
LINE
8
0
10
106.578269
20
-29.165786
11
103.191362
21
-42.749926
0
LINE
8
0
10
84.131151
20
-40.451832
11
97.715291
21
-43.838738
0
LINE
8
0
10
101.102198
20
-30.254598
11
87.518058
21
-26.867691
0
LINE
8
0
10
97.715291
20
-43.838738
11
101.102198
21
-30.254598
0
LINE
8
0
10
87.518058
20
-26.867691
11
84.131151
21
-40.451832
0
LINE
8
0
10
121.099417
20
-49.669056
11
134.683558
21
-53.055963
0
LINE
8
0
10
138.070464
20
-39.471822
11
124.486324
21
-36.084916
0
LINE
8
0
10
134.683558
20
-53.055963
11
138.070464
21
-39.471822
0
LINE
8
0
10
124.486324
20
-36.084916
11
121.099417
21
-49.669056
0
LINE
8
0
10
139.007475
20
-56.588184
11
152.591615
21
-59.97509
0
LINE
8
0
10
155.978522
20
-46.39095
11
142.394381
21
-43.004043
0
LINE
8
0
10
152.591615
20
-59.97509
11
155.978522
21
-46.39095
0
LINE
8
0
10
142.394381
20
-43.004043
11
139.007475
21
-56.588184
0
LINE
8
0
10
98.58275
20
-61.23406
11
112.16689
21
-64.620966
0
LINE
8
0
10
115.553797
20
-51.036826
11
101.969656
21
-47.649919
0
LINE
8
0
10
112.16689
20
-64.620966
11
115.553797
21
-51.036826
0
LINE
8
0
10
101.969656
20
-47.649919
11
98.58275
21
-61.23406
0
LINE
8
0
10
79.522539
20
-58.935965
11
93.106679
21
-62.322871
0
LINE
8
0
10
96.493586
20
-48.738731
11
82.909446
21
-45.351824
0
LINE
8
0
10
93.106679
20
-62.322871
11
96.493586
21
-48.738731
0
LINE
8
0
10
82.909446
20
-45.351824
11
79.522539
21
-58.935965
0
LINE
8
0
10
116.490807
20
-68.153189
11
130.074947
21
-71.540096
0
LINE
8
0
10
133.461854
20
-57.955955
11
119.877714
21
-54.569049
0
LINE
8
0
10
130.074947
20
-71.540096
11
133.461854
21
-57.955955
0
LINE
8
0
10
119.877714
20
-54.569049
11
116.490807
21
-68.153189
0
LINE
8
0
10
134.398863
20
-75.072317
11
147.983003
21
-78.459223
0
LINE
8
0
10
151.369909
20
-64.875083
11
137.785769
21
-61.488177
0
LINE
8
0
10
147.983003
20
-78.459223
11
151.369909
21
-64.875083
0
LINE
8
0
10
137.785769
20
-61.488177
11
134.398863
21
-75.072317
0
LINE
8
0
10
93.974138
20
-79.718195
11
107.558278
21
-83.105101
0
LINE
8
0
10
110.945184
20
-69.520961
11
97.361044
21
-66.134054
0
LINE
8
0
10
107.558278
20
-83.105101
11
110.945184
21
-69.520961
0
LINE
8
0
10
97.361044
20
-66.134054
11
93.974138
21
-79.718195
0
LINE
8
0
10
74.913927
20
-77.420098
11
88.498067
21
-80.807004
0
LINE
8
0
10
91.884974
20
-67.222864
11
78.300833
21
-63.835958
0
LINE
8
0
10
88.498067
20
-80.807004
11
91.884974
21
-67.222864
0
LINE
8
0
10
78.300833
20
-63.835958
11
74.913927
21
-77.420098
0
LINE
8
0
10
111.882195
20
-86.637322
11
125.466335
21
-90.024229
0
LINE
8
0
10
128.853242
20
-76.440089
11
115.269102
21
-73.053182
0
LINE
8
0
10
125.466335
20
-90.024229
11
128.853242
21
-76.440089
0
LINE
8
0
10
115.269102
20
-73.053182
11
111.882195
21
-86.637322
0
LINE
8
0
10
129.79025
20
-93.556452
11
143.374391
21
-96.943358
0
LINE
8
0
10
146.761297
20
-83.359218
11
133.177157
21
-79.972311
0
LINE
8
0
10
143.374391
20
-96.943358
11
146.761297
21
-83.359218
0
LINE
8
0
10
133.177157
20
-79.972311
11
129.79025
21
-93.556452
0
LINE
8
0
10
148.274385
20
-98.165064
11
161.858526
21
-101.55197
0
LINE
8
0
10
165.245432
20
-87.96783
11
151.661292
21
-84.580924
0
LINE
8
0
10
161.858526
20
-101.55197
11
165.245432
21
-87.96783
0
LINE
8
0
10
151.661292
20
-84.580924
11
148.274385
21
-98.165064
0
LINE
8
0
10
81.857898
20
-98.784614
11
95.442038
21
-102.17152
0
LINE
8
0
10
98.828944
20
-88.58738
11
85.244804
21
-85.200474
0
LINE
8
0
10
95.442038
20
-102.17152
11
98.828944
21
-88.58738
0
LINE
8
0
10
85.244804
20
-85.200474
11
81.857898
21
-98.784614
0
LINE
8
0
10
104.963065
20
-104.545379
11
118.547206
21
-107.932286
0
LINE
8
0
10
121.934112
20
-94.348146
11
108.349972
21
-90.961239
0
LINE
8
0
10
118.547206
20
-107.932286
11
121.934112
21
-94.348146
0
LINE
8
0
10
108.349972
20
-90.961239
11
104.963065
21
-104.545379
0
LINE
8
0
10
134.423706
20
-114.34489
11
148.007846
21
-117.731797
0
LINE
8
0
10
151.394752
20
-104.147656
11
137.810612
21
-100.76075
0
LINE
8
0
10
148.007846
20
-117.731797
11
151.394752
21
-104.147656
0
LINE
8
0
10
137.810612
20
-100.76075
11
134.423706
21
-114.34489
0
LINE
8
0
10
125.994428
20
-113.273849
11
132.786499
21
-114.967302
0
LINE
8
0
10
136.415327
20
-100.412866
11
129.623257
21
-98.719413
0
LINE
8
0
10
132.786499
20
-114.967302
11
136.415327
21
-100.412866
0
LINE
8
0
10
129.623257
20
-98.719413
11
125.994428
21
-113.273849
0
LINE
8
0
10
149.161209
20
-119.049976
11
155.953279
21
-120.743429
0
LINE
8
0
10
159.582108
20
-106.188993
11
152.790038
21
-104.49554
0
LINE
8
0
10
155.953279
20
-120.743429
11
159.582108
21
-106.188993
0
LINE
8
0
10
152.790038
20
-104.49554
11
149.161209
21
-119.049976
0
LINE
8
0
10
226.2323
20
-27.658358
11
239.81644
21
-24.271451
0
LINE
8
0
10
236.429533
20
-10.687311
11
222.845393
21
-14.074218
0
LINE
8
0
10
239.81644
20
-24.271451
11
236.429533
21
-10.687311
0
LINE
8
0
10
222.845393
20
-14.074218
11
226.2323
21
-27.658358
0
LINE
8
0
10
208.324242
20
-34.577487
11
221.908383
21
-31.190581
0
LINE
8
0
10
218.521476
20
-17.606441
11
204.937336
21
-20.993347
0
LINE
8
0
10
221.908383
20
-31.190581
11
218.521476
21
-17.606441
0
LINE
8
0
10
204.937336
20
-20.993347
11
208.324242
21
-34.577487
0
LINE
8
0
10
245.292511
20
-25.360263
11
258.876651
21
-21.973356
0
LINE
8
0
10
255.489744
20
-8.389216
11
241.905604
21
-11.776123
0
LINE
8
0
10
258.876651
20
-21.973356
11
255.489744
21
-8.389216
0
LINE
8
0
10
241.905604
20
-11.776123
11
245.292511
21
-25.360263
0
LINE
8
0
10
190.416185
20
-41.496615
11
204.000325
21
-38.109708
0
LINE
8
0
10
200.613419
20
-24.525568
11
187.029279
21
-27.912475
0
LINE
8
0
10
204.000325
20
-38.109708
11
200.613419
21
-24.525568
0
LINE
8
0
10
187.029279
20
-27.912475
11
190.416185
21
-41.496615
0
LINE
8
0
10
230.840912
20
-46.142491
11
244.425052
21
-42.755584
0
LINE
8
0
10
241.038146
20
-29.171444
11
227.454005
21
-32.558351
0
LINE
8
0
10
244.425052
20
-42.755584
11
241.038146
21
-29.171444
0
LINE
8
0
10
227.454005
20
-32.558351
11
230.840912
21
-46.142491
0
LINE
8
0
10
212.932855
20
-53.06162
11
226.516995
21
-49.674714
0
LINE
8
0
10
223.130088
20
-36.090574
11
209.545948
21
-39.47748
0
LINE
8
0
10
226.516995
20
-49.674714
11
223.130088
21
-36.090574
0
LINE
8
0
10
209.545948
20
-39.47748
11
212.932855
21
-53.06162
0
LINE
8
0
10
249.901123
20
-43.844396
11
263.485263
21
-40.457489
0
LINE
8
0
10
260.098356
20
-26.873349
11
246.514216
21
-30.260256
0
LINE
8
0
10
263.485263
20
-40.457489
11
260.098356
21
-26.873349
0
LINE
8
0
10
246.514216
20
-30.260256
11
249.901123
21
-43.844396
0
LINE
8
0
10
195.024797
20
-59.98075
11
208.608938
21
-56.593843
0
LINE
8
0
10
205.222031
20
-43.009703
11
191.637891
21
-46.39661
0
LINE
8
0
10
208.608938
20
-56.593843
11
205.222031
21
-43.009703
0
LINE
8
0
10
191.637891
20
-46.39661
11
195.024797
21
-59.98075
0
LINE
8
0
10
235.449524
20
-64.626626
11
249.033664
21
-61.239719
0
LINE
8
0
10
245.646758
20
-47.655579
11
232.062618
21
-51.042486
0
LINE
8
0
10
249.033664
20
-61.239719
11
245.646758
21
-47.655579
0
LINE
8
0
10
232.062618
20
-51.042486
11
235.449524
21
-64.626626
0
LINE
8
0
10
217.541467
20
-71.545754
11
231.125607
21
-68.158847
0
LINE
8
0
10
227.7387
20
-54.574707
11
214.15456
21
-57.961613
0
LINE
8
0
10
231.125607
20
-68.158847
11
227.7387
21
-54.574707
0
LINE
8
0
10
214.15456
20
-57.961613
11
217.541467
21
-71.545754
0
LINE
8
0
10
254.509735
20
-62.328529
11
268.093875
21
-58.941623
0
LINE
8
0
10
264.706969
20
-45.357482
11
251.122828
21
-48.744389
0
LINE
8
0
10
268.093875
20
-58.941623
11
264.706969
21
-45.357482
0
LINE
8
0
10
251.122828
20
-48.744389
11
254.509735
21
-62.328529
0
LINE
8
0
10
199.63341
20
-78.464883
11
213.21755
21
-75.077976
0
LINE
8
0
10
209.830643
20
-61.493836
11
196.246503
21
-64.880743
0
LINE
8
0
10
213.21755
20
-75.077976
11
209.830643
21
-61.493836
0
LINE
8
0
10
196.246503
20
-64.880743
11
199.63341
21
-78.464883
0
LINE
8
0
10
240.058136
20
-83.110759
11
253.642277
21
-79.723852
0
LINE
8
0
10
250.25537
20
-66.139712
11
236.67123
21
-69.526619
0
LINE
8
0
10
253.642277
20
-79.723852
11
250.25537
21
-66.139712
0
LINE
8
0
10
236.67123
20
-69.526619
11
240.058136
21
-83.110759
0
LINE
8
0
10
222.150079
20
-90.029889
11
235.734219
21
-86.642982
0
LINE
8
0
10
232.347313
20
-73.058842
11
218.763172
21
-76.445748
0
LINE
8
0
10
235.734219
20
-86.642982
11
232.347313
21
-73.058842
0
LINE
8
0
10
218.763172
20
-76.445748
11
222.150079
21
-90.029889
0
LINE
8
0
10
259.118347
20
-80.812664
11
272.702487
21
-77.425758
0
LINE
8
0
10
269.315581
20
-63.841617
11
255.731441
21
-67.228524
0
LINE
8
0
10
272.702487
20
-77.425758
11
269.315581
21
-63.841617
0
LINE
8
0
10
255.731441
20
-67.228524
11
259.118347
21
-80.812664
0
LINE
8
0
10
185.757889
20
-101.557628
11
199.342029
21
-98.170722
0
LINE
8
0
10
195.955122
20
-84.586582
11
182.370982
21
-87.973488
0
LINE
8
0
10
199.342029
20
-98.170722
11
195.955122
21
-84.586582
0
LINE
8
0
10
182.370982
20
-87.973488
11
185.757889
21
-101.557628
0
LINE
8
0
10
204.242022
20
-96.949016
11
217.826162
21
-93.56211
0
LINE
8
0
10
214.439255
20
-79.977969
11
200.855115
21
-83.364876
0
LINE
8
0
10
217.826162
20
-93.56211
11
214.439255
21
-79.977969
0
LINE
8
0
10
200.855115
20
-83.364876
11
204.242022
21
-96.949016
0
LINE
8
0
10
233.690241
20
-106.785792
11
247.274382
21
-103.398886
0
LINE
8
0
10
243.887475
20
-89.814745
11
230.303335
21
-93.201652
0
LINE
8
0
10
247.274382
20
-103.398886
11
243.887475
21
-89.814745
0
LINE
8
0
10
230.303335
20
-93.201652
11
233.690241
21
-106.785792
0
LINE
8
0
10
256.795409
20
-101.025027
11
270.379549
21
-97.63812
0
LINE
8
0
10
266.992643
20
-84.05398
11
253.408503
21
-87.440886
0
LINE
8
0
10
270.379549
20
-97.63812
11
266.992643
21
-84.05398
0
LINE
8
0
10
253.408503
20
-87.440886
11
256.795409
21
-101.025027
0
LINE
8
0
10
201.919084
20
-117.16138
11
215.503224
21
-113.774474
0
LINE
8
0
10
212.116317
20
-100.190334
11
198.532177
21
-103.57724
0
LINE
8
0
10
215.503224
20
-113.774474
11
212.116317
21
-100.190334
0
LINE
8
0
10
198.532177
20
-103.57724
11
201.919084
21
-117.16138
0
LINE
8
0
10
193.97365
20
-120.173013
11
200.76572
21
-118.47956
0
LINE
8
0
10
197.136892
20
-103.925124
11
190.344822
21
-105.618577
0
LINE
8
0
10
200.76572
20
-118.47956
11
197.136892
21
-103.925124
0
LINE
8
0
10
190.344822
20
-105.618577
11
193.97365
21
-120.173013
0
LINE
8
0
10
217.140431
20
-114.396886
11
223.932501
21
-112.703433
0
LINE
8
0
10
220.303673
20
-98.148997
11
213.511603
21
-99.84245
0
LINE
8
0
10
223.932501
20
-112.703433
11
220.303673
21
-98.148997
0
LINE
8
0
10
213.511603
20
-99.84245
11
217.140431
21
-114.396886
0
ENDSEC
0
EOF