0
SECTION
2
HEADER
9
$INSUNITS
70
4
9
$ACADVER
1
AC1014
9
$HANDSEED
5
FFFF
0
ENDSEC
0
SECTION
2
TABLES
0
TABLE
2
VPORT
5
8
100
AcDbSymbolTable
0
ENDTAB
0
TABLE
2
LTYPE
5
5
100
AcDbSymbolTable
0
LTYPE
5
14
100
AcDbSymbolTableRecord
100
AcDbLinetypeTableRecord
2
BYBLOCK
70
0
0
LTYPE
5
15
100
AcDbSymbolTableRecord
100
AcDbLinetypeTableRecord
2
BYLAYER
70
0
0
ENDTAB
0
TABLE
2
LAYER
5
2
100
AcDbSymbolTable
70
2
0
LAYER
5
50
100
AcDbSymbolTableRecord
100
AcDbLayerTableRecord
2
0
70
0
6
CONTINUOUS
0
ENDTAB
0
TABLE
2
STYLE
5
3
100
AcDbSymbolTable
70
1
0
STYLE
5
11
100
AcDbSymbolTableRecord
100
AcDbTextStyleTableRecord
2
STANDARD
70
0
0
ENDTAB
0
TABLE
2
VIEW
5
6
100
AcDbSymbolTable
70
0
0
ENDTAB
0
TABLE
2
UCS
5
7
100
AcDbSymbolTable
70
0
0
ENDTAB
0
TABLE
2
APPID
5
9
100
AcDbSymbolTable
70
2
0
APPID
5
12
100
AcDbSymbolTableRecord
100
AcDbRegAppTableRecord
2
ACAD
70
0
0
ENDTAB
0
TABLE
2
DIMSTYLE
5
A
100
AcDbSymbolTable
70
1
0
ENDTAB
0
TABLE
2
BLOCK_RECORD
5
1
100
AcDbSymbolTable
70
1
0
BLOCK_RECORD
5
1F
100
AcDbSymbolTableRecord
100
AcDbBlockTableRecord
2
*MODEL_SPACE
0
BLOCK_RECORD
5
1B
100
AcDbSymbolTableRecord
100
AcDbBlockTableRecord
2
*PAPER_SPACE
0
ENDTAB
0
ENDSEC
0
SECTION
2
BLOCKS
0
BLOCK
5
20
100
AcDbEntity
100
AcDbBlockBegin
2
*MODEL_SPACE
0
ENDBLK
5
21
100
AcDbEntity
100
AcDbBlockEnd
0
BLOCK
5
1C
100
AcDbEntity
100
AcDbBlockBegin
2
*PAPER_SPACE
0
ENDBLK
5
1D
100
AcDbEntity
100
AcDbBlockEnd
0
ENDSEC
0
SECTION
2
ENTITIES
0
LWPOLYLINE
5
100
100
AcDbEntity
8
0
100
AcDbPolyline
90
28
70
1
43
0.0
10
190.69499826361658
20
-1.975820090871494e-06
10
102.98000004822217
20
-1.975820090871494e-06
42
0.41421356237309509
10
102.4750000482222
20
-0.50500197582006856
10
102.4750000482222
20
-1.7810005163585156
42
-0.41421356237309509
10
101.9700000482222
20
-2.2860005163585111
10
81.699874809395894
20
-2.286000516358512
42
0.061162620150483495
10
80.490265331397552
20
-2.4345218849785728
10
5.3698519861668883
20
-21.164144517099146
42
0.41421356237310664
10
5.0020232016753443
20
-21.776314416146349
10
9.3662941982933461
20
-39.280449318165324
42
-0.41421356237309381
10
8.9984654138017994
20
-39.892619217212541
10
5.3574307009511308
20
-40.800431130450292
42
0.41421356237310364
10
4.9896019164595895
20
-41.412601029497502
10
9.3538729130775824
20
-58.916735931516477
42
-0.41421356237309614
10
8.9860441285860322
20
-59.528905830563687
10
5.3450094157353618
20
-60.436717743801438
42
0.41421356237309803
10
4.9771806312438214
20
-61.048887642848641
10
9.4256772557562876
20
-78.890833087341818
42
0.15172016701648705
10
9.5811097390836721
20
-79.146934941471741
10
43.897547265727454
20
-109.49845503642669
42
0.24697251836434667
10
44.354284681447268
20
-109.61018196678829
10
76.49130655130449
20
-101.59752248664918
42
-0.068721243983410105
10
81.931801055544156
20
-101.01250086951356
10
175.53386739446879
20
-101.01250086951356
42
0.35538549396204133
10
178.00602809097194
20
-99.001355411835817
10
191.01166015214255
20
-36.431095218156614
42
0.051279451544218244
10
191.19999826361658
20
-34.599534473245633
10
191.19999826361658
20
-0.50500197582008644
42
0.41421356237309509
0
LINE
5
101
100
AcDbEntity
8
0
100
AcDbLine
10
118.99999994879458
20
-2.5250004885029895
30
0
11
105
21
-2.5250000000000004
31
0
0
LINE
5
102
100
AcDbEntity
8
0
100
AcDbLine
10
58.493109478612986
20
-10.521328236092021
30
0
11
44.908969310749036
21
-13.908234774487362
31
0
0
LINE
5
103
100
AcDbEntity
8
0
100
AcDbLine
10
7.9407021396335642
20
-23.125458996834706
30
0
11
11.327608678028911
21
-36.709599164698666
31
0
0
LINE
5
104
100
AcDbEntity
8
0
100
AcDbLine
10
21.51242102228175
20
-39.374839071790511
30
0
11
7.9282808544177996
21
-42.761745610185848
31
0
0
LINE
5
105
100
AcDbEntity
8
0
100
AcDbLine
10
7.9158595692020377
20
-62.398032223537008
30
0
11
11.302766107597385
21
-75.982172391400965
31
0
0
LINE
5
106
100
AcDbEntity
8
0
100
AcDbLine
10
21.499999737065988
20
-59.011125685141657
30
0
11
7.9158595692020377
21
-62.398032223537008
31
0
0
LINE
5
107
100
AcDbEntity
8
0
100
AcDbLine
10
11.302766107597385
20
-75.982172391400965
30
0
11
24.886906275461335
21
-72.595265853005614
31
0
0
LINE
5
108
100
AcDbEntity
8
0
100
AcDbLine
10
42.548767471691264
20
-93.02945774178869
30
0
11
45.935674010086615
21
-106.61359790965264
31
0
0
LINE
5
109
100
AcDbEntity
8
0
100
AcDbLine
10
45.935674010086615
20
-106.61359790965264
30
0
11
59.519814177950572
21
-103.22669137125729
31
0
0
LINE
5
110
100
AcDbEntity
8
0
100
AcDbLine
10
97.856249545267218
20
-95.011000114746608
30
0
11
111.85625046435753
21
-95.011000361327689
31
0
0
LINE
5
111
100
AcDbEntity
8
0
100
AcDbLine
10
144.18699910820973
20
-83.487501189595093
30
0
11
144.18699858462739
21
-98.487501429239671
31
0
0
LINE
5
112
100
AcDbEntity
8
0
100
AcDbLine
10
144.18699858462739
20
-98.487501429239671
30
0
11
151.18699843806377
21
-98.487501188343316
31
0
0
LINE
5
113
100
AcDbEntity
8
0
100
AcDbLine
10
105
20
-2.5250000000000004
30
0
11
104.99999951149701
21
-16.524999948794601
31
0
0
LINE
5
114
100
AcDbEntity
8
0
100
AcDbLine
10
118.99999946029162
20
-16.525000437297578
30
0
11
118.99999994879458
21
-2.5250004885029895
31
0
0
LINE
5
115
100
AcDbEntity
8
0
100
AcDbLine
10
157.09999820124511
20
-21.287500113534573
30
0
11
157.09999868974813
21
-7.2875001647399795
31
0
0
LINE
5
116
100
AcDbEntity
8
0
100
AcDbLine
10
99.949999035815097
20
-4.8110007995179318
30
0
11
85.949999087020501
21
-4.8110003110149444
31
0
0
LINE
5
117
100
AcDbEntity
8
0
100
AcDbLine
10
168.06299877356378
20
-98.487501197304695
30
0
11
175.06299862700016
21
-98.487500956408326
31
0
0
LINE
5
118
100
AcDbEntity
8
0
100
AcDbLine
10
175.06299862700016
20
-98.487500956408326
30
0
11
175.0629991505825
21
-83.487500716763776
31
0
0
LINE
5
119
100
AcDbEntity
8
0
100
AcDbLine
10
180.14999826361651
20
-35.525000488502968
30
0
11
162.14999826361651
21
-35.52500048850299
31
0
0
LWPOLYLINE
5
120
100
AcDbEntity
8
0
100
AcDbPolyline
90
31
70
1
43
0.0
10
276.62998139076836
20
3.0793101957193869e-07
10
291.01999990057243
20
3.0793101957193869e-07
42
-0.41421356237309509
10
291.52499990057242
20
-0.50499969206894035
10
291.52499990057242
20
-1.7810000278555589
42
0.41421356237309509
10
292.02999990057236
20
-2.2860000278555188
10
312.3001251393988
20
-2.2860000278555206
42
-0.061162620150484168
10
313.50973461739738
20
-2.4345213964755645
10
406.05957009372344
20
-25.509787039253247
42
-0.4142135623730307
10
406.427398878215
20
-26.121956938300475
10
401.8212059859971
20
-44.596387566595148
42
-0.41421356237309509
10
401.20903608694994
20
-44.964216351086669
10
395.25748467590472
20
-43.480327923952331
42
0.41421356237313006
10
394.64531477685767
20
-43.848156708443888
10
384.76220053687211
20
-83.487162866133957
42
0.41421356237311502
10
385.13002932136379
20
-84.099332765181146
10
387.51525879048182
20
-84.694037265039057
42
-0.41421356237303009
10
387.88308757497333
20
-85.306207164086274
10
383.5188165783552
20
-102.81034206610525
42
0.41421356237311502
10
383.88664536284688
20
-103.42251196515242
10
401.3907802648655
20
-107.78678296177041
42
-0.41421356237303758
10
401.75860904935701
20
-108.39895286081757
10
397.3943380527391
20
-125.90308776283663
42
-0.4142135623731375
10
396.78216815369194
20
-126.27091654732821
10
297.85893686041084
20
-101.6065848541804
42
0.061162620150484188
10
293.02049894841639
20
-101.01249937970019
10
220.75680445650249
20
-101.01249937970019
42
-0.34306163320694544
10
218.30959937698796
20
-99.109441739407146
10
202.42728708910903
20
-36.616069646779096
42
-0.062299168634834659
10
202.14999826361657
20
-34.399245394358225
10
202.14999826361657
20
-0.50499969206895368
42
-0.41421356237309509
10
202.65499826361656
20
3.079310417764021e-07
0
LINE
5
121
100
AcDbEntity
8
0
100
AcDbLine
10
288.9999999487946
20
-2.5249995114970201
30
0
11
275
21
-2.5250000000000004
31
0
0
LINE
5
122
100
AcDbEntity
8
0
100
AcDbLine
10
289.00000043729762
20
-16.524999460291617
30
0
11
288.9999999487946
21
-2.5249995114970201
31
0
0
LINE
5
123
100
AcDbEntity
8
0
100
AcDbLine
10
308.05000086177409
20
-4.8109998225119508
30
0
11
294.0500009129795
21
-4.81100031101494
31
0
0
LINE
5
124
100
AcDbEntity
8
0
100
AcDbLine
10
231.19999826361661
20
-2.5250004885029895
30
0
11
213.19999826361658
21
-2.5250004885029895
31
0
0
LINE
5
125
100
AcDbEntity
8
0
100
AcDbLine
10
349.09103063804548
20
-13.908234285984364
30
0
11
335.5068904701817
21
-10.521327747589012
31
0
0
LINE
5
126
100
AcDbEntity
8
0
100
AcDbLine
10
399.85989150626182
20
-42.02553741312849
30
0
11
403.48871994025671
21
-27.47110151898854
31
0
0
LINE
5
127
100
AcDbEntity
8
0
100
AcDbLine
10
383.71111718933025
20
-77.26557504255382
30
0
11
387.33994562332526
21
-62.711139148413864
31
0
0
LINE
5
128
100
AcDbEntity
8
0
100
AcDbLine
10
393.06782142232976
20
-40.332084143930814
30
0
11
399.85989150626182
21
-42.02553741312849
31
0
0
LINE
5
129
100
AcDbEntity
8
0
100
AcDbLine
10
384.94440863701499
20
-86.655351744774634
30
0
11
371.36026846915104
21
-83.268445206379269
31
0
0
LINE
5
130
100
AcDbEntity
8
0
100
AcDbLine
10
381.55750209861964
20
-100.23949191263858
30
0
11
384.94440863701499
21
-86.655351744774634
31
0
0
LINE
5
131
100
AcDbEntity
8
0
100
AcDbLine
10
398.819930111399
20
-109.74809744150603
30
0
11
385.23578994353511
21
-106.36119090311068
31
0
0
LINE
5
132
100
AcDbEntity
8
0
100
AcDbLine
10
395.43302357300377
20
-123.33223760937001
30
0
11
398.819930111399
21
-109.74809744150603
31
0
0
LINE
5
133
100
AcDbEntity
8
0
100
AcDbLine
10
363.36474981958202
20
-115.33671895980098
30
0
11
376.94888998744602
21
-118.72362549819633
31
0
0
LINE
5
134
100
AcDbEntity
8
0
100
AcDbLine
10
381.84888340513976
20
-119.94533107097466
30
0
11
395.43302357300377
21
-123.33223760937001
31
0
0
LINE
5
135
100
AcDbEntity
8
0
100
AcDbLine
10
245.19425022250073
20
-98.487498847050162
30
0
11
252.19425007593708
21
-98.487499087946503
31
0
0
LINE
5
136
100
AcDbEntity
8
0
100
AcDbLine
10
221.31825048027775
20
-83.487498617392518
30
0
11
221.31825003356431
21
-98.4874986151152
31
0
0
LINE
5
137
100
AcDbEntity
8
0
100
AcDbLine
10
221.31825003356431
20
-98.4874986151152
30
0
11
228.31824988700072
21
-98.48749885601157
31
0
0
LINE
5
138
100
AcDbEntity
8
0
100
AcDbLine
10
213.19999826361658
20
-35.525000488502968
30
0
11
231.19999826361661
21
-35.52500048850299
31
0
0
ENDSEC
0
SECTION
2
OBJECTS
0
DICTIONARY
5
C
100
AcDbDictionary
3
ACAD_GROUP
350
D
3
ACAD_MLINESTYLE
350
17
0
DICTIONARY
5
D
100
AcDbDictionary
0
DICTIONARY
5
1A
330
C
100
AcDbDictionary
0
DICTIONARY
5
17
100
AcDbDictionary
0
ENDSEC
0
EOF
