  0
SECTION
  2
HEADER
  9
$ANGBASE
  50
0.0
  9
$ANGDIR
  70
1
  9
$MEASUREMENT
  70
1
  0
ENDSEC
  0
SECTION
  2
TABLES
  0
TABLE
  2
LTYPE
  70
4
  0
LTYPE
  5
40F
  2
CONTINUOUS
  70
0
  3
Solid line
  72
65
  73
0
  40
0.0
  0
LTYPE
  5
410
  2
DASHDOT
 70
0
  3
Dash Dot ____ _ ____ _
 72
65
 73
4
 40
2.0
 49
1.25
 49
-0.25
 49
0.25
 49
-0.25
  0
LTYPE
  5
411
  2
DASHED
 70
0
  3
Dashed __ __ __ __ __
 72
65
 73
2
 40
0.75
 49
0.5
 49
-0.25
  0
LTYPE
  5
43B
  2
DOTTED
 70
0
  3
Dotted .  .  .  .
 72
65
 73
2
 40
0.2
 49
0.0
 49
-0.2
  0
ENDTAB
  0
TABLE
  2
STYLE
  70
4
  0
STYLE
  2
KICAD
  70
0
  40
0
  41
1
  42
1
  50
0
  71
0
  3
isocp.shx
  0
STYLE
  2
KICADB
  70
0
  40
0
  41
1
  42
1
  50
0
  71
0
  3
isocp.shx
  0
STYLE
  2
KICADI
  70
0
  40
0
  41
1
  42
1
  50
15
  71
0
  3
isocp.shx
  0
STYLE
  2
KICADBI
  70
0
  40
0
  41
1
  42
1
  50
15
  71
0
  3
isocp.shx
  0
ENDTAB
  0
TABLE
  2
LAYER
  70
1
  0
LAYER
  2
BLACK
  70
0
  62
7
  6
CONTINUOUS
  0
ENDTAB
  0
ENDSEC
  0
SECTION
  2
ENTITIES
0
LINE
8
BLACK
6
CONTINUOUS
10
146.6733830000000012
20
-115.5003519999999924
11
114.3261490000000009
21
-123.5654229999999956
0
LINE
8
BLACK
6
CONTINUOUS
10
114.3261490000000009
20
-123.5654229999999956
11
118.9347609999999946
21
-142.0495559999999955
0
LINE
8
BLACK
6
CONTINUOUS
10
118.9347609999999946
20
-142.0495559999999955
11
151.2819949999999949
21
-133.9844850000000065
0
LINE
8
BLACK
6
CONTINUOUS
10
151.2819949999999949
20
-133.9844850000000065
11
146.6733830000000012
21
-115.5003519999999924
0
LINE
8
BLACK
6
CONTINUOUS
10
137.902688999999981
20
-120.2894309999999933
11
124.3185489999999902
21
-123.6763369999999895
0
LINE
8
BLACK
6
CONTINUOUS
10
124.3185489999999902
20
-123.6763369999999895
11
127.7054550000000006
21
-137.2604769999999803
0
LINE
8
BLACK
6
CONTINUOUS
10
127.7054550000000006
20
-137.2604769999999803
11
141.2895949999999914
21
-133.8735709999999983
0
LINE
8
BLACK
6
CONTINUOUS
10
141.2895949999999914
20
-133.8735709999999983
11
137.902688999999981
21
-120.2894309999999933
0
LINE
8
BLACK
6
CONTINUOUS
10
146.6858059999999853
20
-95.864065999999994
11
118.9596059999999937
21
-102.7769839999999988
0
LINE
8
BLACK
6
CONTINUOUS
10
118.9596059999999937
20
-102.7769839999999988
11
123.5682179999999875
21
-121.2611179999999962
0
LINE
8
BLACK
6
CONTINUOUS
10
123.5682179999999875
20
-121.2611179999999962
11
151.294417999999979
21
-114.3481999999999914
0
LINE
8
BLACK
6
CONTINUOUS
10
151.294417999999979
20
-114.3481999999999914
11
146.6858059999999853
21
-95.864065999999994
0
LINE
8
BLACK
6
CONTINUOUS
10
140.2256289999999979
20
-100.0770689999999945
11
126.6414889999999929
21
-103.4639749999999907
0
LINE
8
BLACK
6
CONTINUOUS
10
126.6414889999999929
20
-103.4639749999999907
11
130.0283949999999891
21
-117.0481149999999957
0
LINE
8
BLACK
6
CONTINUOUS
10
130.0283949999999891
20
-117.0481149999999957
11
143.6125349999999798
21
-113.6612089999999995
0
LINE
8
BLACK
6
CONTINUOUS
10
143.6125349999999798
20
-113.6612089999999995
11
140.2256289999999979
21
-100.0770689999999945
0
LINE
8
BLACK
6
CONTINUOUS
10
226.8948849999999879
20
-147.2589590000000044
11
203.0823849999999879
21
-147.2589590000000044
0
LINE
8
BLACK
6
CONTINUOUS
10
203.0823849999999879
20
-147.2589590000000044
11
203.0823849999999879
21
-166.3089589999999873
0
LINE
8
BLACK
6
CONTINUOUS
10
203.0823849999999879
20
-166.3089589999999873
11
226.8948849999999879
21
-166.3089589999999873
0
LINE
8
BLACK
6
CONTINUOUS
10
226.8948849999999879
20
-166.3089589999999873
11
226.8948849999999879
21
-147.2589590000000044
0
LINE
8
BLACK
6
CONTINUOUS
10
221.9886349999999879
20
-149.7839589999999816
11
207.9886349999999879
21
-149.7839589999999816
0
LINE
8
BLACK
6
CONTINUOUS
10
207.9886349999999879
20
-149.7839589999999816
11
207.9886349999999879
21
-163.7839589999999816
0
LINE
8
BLACK
6
CONTINUOUS
10
207.9886349999999879
20
-163.7839589999999816
11
221.9886349999999879
21
-163.7839589999999816
0
LINE
8
BLACK
6
CONTINUOUS
10
221.9886349999999879
20
-163.7839589999999816
11
221.9886349999999879
21
-149.7839589999999816
0
LINE
8
BLACK
6
CONTINUOUS
10
203.0823859999999854
20
-147.2589590000000044
11
179.2698859999999854
21
-147.2589590000000044
0
LINE
8
BLACK
6
CONTINUOUS
10
179.2698859999999854
20
-147.2589590000000044
11
179.2698859999999854
21
-166.3089589999999873
0
LINE
8
BLACK
6
CONTINUOUS
10
179.2698859999999854
20
-166.3089589999999873
11
203.0823859999999854
21
-166.3089589999999873
0
LINE
8
BLACK
6
CONTINUOUS
10
203.0823859999999854
20
-166.3089589999999873
11
203.0823859999999854
21
-147.2589590000000044
0
LINE
8
BLACK
6
CONTINUOUS
10
198.1761359999999854
20
-149.7839589999999816
11
184.1761359999999854
21
-149.7839589999999816
0
LINE
8
BLACK
6
CONTINUOUS
10
184.1761359999999854
20
-149.7839589999999816
11
184.1761359999999854
21
-163.7839589999999816
0
LINE
8
BLACK
6
CONTINUOUS
10
184.1761359999999854
20
-163.7839589999999816
11
198.1761359999999854
21
-163.7839589999999816
0
LINE
8
BLACK
6
CONTINUOUS
10
198.1761359999999854
20
-163.7839589999999816
11
198.1761359999999854
21
-149.7839589999999816
0
LINE
8
BLACK
6
CONTINUOUS
10
146.6485389999999995
20
-154.7729269999999815
11
123.543374
21
-160.5336920000000021
0
LINE
8
BLACK
6
CONTINUOUS
10
123.543374
20
-160.5336920000000021
11
128.1519869999999912
21
-179.0178249999999878
0
LINE
8
BLACK
6
CONTINUOUS
10
128.1519869999999912
20
-179.0178249999999878
11
151.2571519999999907
21
-173.2570599999999956
0
LINE
8
BLACK
6
CONTINUOUS
10
151.2571519999999907
20
-173.2570599999999956
11
146.6485389999999995
21
-154.7729269999999815
0
LINE
8
BLACK
6
CONTINUOUS
10
142.4988799999999856
20
-158.4098529999999982
11
128.9147399999999948
21
-161.7967589999999802
0
LINE
8
BLACK
6
CONTINUOUS
10
128.9147399999999948
20
-161.7967589999999802
11
132.3016460000000052
21
-175.3808989999999994
0
LINE
8
BLACK
6
CONTINUOUS
10
132.3016460000000052
20
-175.3808989999999994
11
145.885785999999996
21
-171.993992999999989
0
LINE
8
BLACK
6
CONTINUOUS
10
145.885785999999996
20
-171.993992999999989
11
142.4988799999999856
21
-158.4098529999999982
0
LINE
8
BLACK
6
CONTINUOUS
10
128.2140929999999912
20
-80.8363919999999894
11
109.7299589999999938
21
-85.4450039999999973
0
LINE
8
BLACK
6
CONTINUOUS
10
109.7299589999999938
20
-85.4450039999999973
11
114.3385710000000017
21
-103.9291379999999947
0
LINE
8
BLACK
6
CONTINUOUS
10
114.3385710000000017
20
-103.9291379999999947
11
132.8227049999999849
21
-99.320526000000001
0
LINE
8
BLACK
6
CONTINUOUS
10
132.8227049999999849
20
-99.320526000000001
11
128.2140929999999912
21
-80.8363919999999894
0
LINE
8
BLACK
6
CONTINUOUS
10
126.3749490000000009
20
-83.8972419999999914
11
112.7908089999999959
21
-87.2841480000000018
0
LINE
8
BLACK
6
CONTINUOUS
10
112.7908089999999959
20
-87.2841480000000018
11
116.1777149999999921
21
-100.8682879999999926
0
LINE
8
BLACK
6
CONTINUOUS
10
116.1777149999999921
20
-100.8682879999999926
11
129.7618549999999971
21
-97.4813819999999964
0
LINE
8
BLACK
6
CONTINUOUS
10
129.7618549999999971
20
-97.4813819999999964
11
126.3749490000000009
21
-83.8972419999999914
0
LINE
8
BLACK
6
CONTINUOUS
10
146.6982270000000028
20
-76.2277789999999982
11
128.2140929999999912
21
-80.8363909999999919
0
LINE
8
BLACK
6
CONTINUOUS
10
128.2140929999999912
20
-80.8363909999999919
11
132.8227049999999849
21
-99.3205249999999893
0
LINE
8
BLACK
6
CONTINUOUS
10
132.8227049999999849
20
-99.3205249999999893
11
151.3068389999999965
21
-94.7119129999999956
0
LINE
8
BLACK
6
CONTINUOUS
10
151.3068389999999965
20
-94.7119129999999956
11
146.6982270000000028
21
-76.2277789999999982
0
LINE
8
BLACK
6
CONTINUOUS
10
144.8590829999999983
20
-79.2886290000000002
11
131.2749430000000075
21
-82.6755349999999964
0
LINE
8
BLACK
6
CONTINUOUS
10
131.2749430000000075
20
-82.6755349999999964
11
134.6618489999999895
21
-96.2596750000000014
0
LINE
8
BLACK
6
CONTINUOUS
10
134.6618489999999895
20
-96.2596750000000014
11
148.2459889999999803
21
-92.872768999999991
0
LINE
8
BLACK
6
CONTINUOUS
10
148.2459889999999803
20
-92.872768999999991
11
144.8590829999999983
21
-79.2886290000000002
0
LINE
8
BLACK
6
CONTINUOUS
10
165.1823599999999885
20
-71.6191680000000019
11
146.6982260000000053
21
-76.2277799999999957
0
LINE
8
BLACK
6
CONTINUOUS
10
146.6982260000000053
20
-76.2277799999999957
11
151.3068379999999991
21
-94.7119139999999931
0
LINE
8
BLACK
6
CONTINUOUS
10
151.3068379999999991
20
-94.7119139999999931
11
169.7909719999999822
21
-90.1033019999999993
0
LINE
8
BLACK
6
CONTINUOUS
10
169.7909719999999822
20
-90.1033019999999993
11
165.1823599999999885
21
-71.6191680000000019
0
LINE
8
BLACK
6
CONTINUOUS
10
163.343215999999984
20
-74.6800179999999898
11
149.7590759999999932
21
-78.0669240000000002
0
LINE
8
BLACK
6
CONTINUOUS
10
149.7590759999999932
20
-78.0669240000000002
11
153.1459820000000036
21
-91.651063999999991
0
LINE
8
BLACK
6
CONTINUOUS
10
153.1459820000000036
20
-91.651063999999991
11
166.7301219999999944
21
-88.2641579999999948
0
LINE
8
BLACK
6
CONTINUOUS
10
166.7301219999999944
20
-88.2641579999999948
11
163.343215999999984
21
-74.6800179999999898
0
LINE
8
BLACK
6
CONTINUOUS
10
188.7948849999999936
20
-71.058959999999999
11
169.7448849999999823
21
-71.058959999999999
0
LINE
8
BLACK
6
CONTINUOUS
10
169.7448849999999823
20
-71.058959999999999
11
169.7448849999999823
21
-90.1089599999999962
0
LINE
8
BLACK
6
CONTINUOUS
10
169.7448849999999823
20
-90.1089599999999962
11
188.7948849999999936
21
-90.1089599999999962
0
LINE
8
BLACK
6
CONTINUOUS
10
188.7948849999999936
20
-90.1089599999999962
11
188.7948849999999936
21
-71.058959999999999
0
LINE
8
BLACK
6
CONTINUOUS
10
186.2698849999999879
20
-73.5839599999999905
11
172.2698849999999879
21
-73.5839599999999905
0
LINE
8
BLACK
6
CONTINUOUS
10
172.2698849999999879
20
-73.5839599999999905
11
172.2698849999999879
21
-87.5839599999999905
0
LINE
8
BLACK
6
CONTINUOUS
10
172.2698849999999879
20
-87.5839599999999905
11
186.2698849999999879
21
-87.5839599999999905
0
LINE
8
BLACK
6
CONTINUOUS
10
186.2698849999999879
20
-87.5839599999999905
11
186.2698849999999879
21
-73.5839599999999905
0
LINE
8
BLACK
6
CONTINUOUS
10
207.8448849999999766
20
-68.7729590000000002
11
188.7948849999999936
21
-68.7729590000000002
0
LINE
8
BLACK
6
CONTINUOUS
10
188.7948849999999936
20
-68.7729590000000002
11
188.7948849999999936
21
-87.8229589999999973
0
LINE
8
BLACK
6
CONTINUOUS
10
188.7948849999999936
20
-87.8229589999999973
11
207.8448849999999766
21
-87.8229589999999973
0
LINE
8
BLACK
6
CONTINUOUS
10
207.8448849999999766
20
-87.8229589999999973
11
207.8448849999999766
21
-68.7729590000000002
0
LINE
8
BLACK
6
CONTINUOUS
10
205.3198849999999993
20
-71.2979589999999916
11
191.3198849999999993
21
-71.2979589999999916
0
LINE
8
BLACK
6
CONTINUOUS
10
191.3198849999999993
20
-71.2979589999999916
11
191.3198849999999993
21
-85.2979589999999916
0
LINE
8
BLACK
6
CONTINUOUS
10
191.3198849999999993
20
-85.2979589999999916
11
205.3198849999999993
21
-85.2979589999999916
0
LINE
8
BLACK
6
CONTINUOUS
10
205.3198849999999993
20
-85.2979589999999916
11
205.3198849999999993
21
-71.2979589999999916
0
LINE
8
BLACK
6
CONTINUOUS
10
226.8948879999999804
20
-71.0589629999999914
11
207.8448879999999974
21
-71.0589629999999914
0
LINE
8
BLACK
6
CONTINUOUS
10
207.8448879999999974
20
-71.0589629999999914
11
207.8448879999999974
21
-90.1089630000000028
0
LINE
8
BLACK
6
CONTINUOUS
10
207.8448879999999974
20
-90.1089630000000028
11
226.8948879999999804
21
-90.1089630000000028
0
LINE
8
BLACK
6
CONTINUOUS
10
226.8948879999999804
20
-90.1089630000000028
11
226.8948879999999804
21
-71.0589629999999914
0
LINE
8
BLACK
6
CONTINUOUS
10
224.3698880000000031
20
-73.5839629999999971
11
210.3698880000000031
21
-73.5839629999999971
0
LINE
8
BLACK
6
CONTINUOUS
10
210.3698880000000031
20
-73.5839629999999971
11
210.3698880000000031
21
-87.5839629999999971
0
LINE
8
BLACK
6
CONTINUOUS
10
210.3698880000000031
20
-87.5839629999999971
11
224.3698880000000031
21
-87.5839629999999971
0
LINE
8
BLACK
6
CONTINUOUS
10
224.3698880000000031
20
-87.5839629999999971
11
224.3698880000000031
21
-73.5839629999999971
0
LINE
8
BLACK
6
CONTINUOUS
10
245.9448829999999759
20
-73.5354579999999913
11
226.894882999999993
21
-73.5354579999999913
0
LINE
8
BLACK
6
CONTINUOUS
10
226.894882999999993
20
-73.5354579999999913
11
226.894882999999993
21
-92.5854580000000027
0
LINE
8
BLACK
6
CONTINUOUS
10
226.894882999999993
20
-92.5854580000000027
11
245.9448829999999759
21
-92.5854580000000027
0
LINE
8
BLACK
6
CONTINUOUS
10
245.9448829999999759
20
-92.5854580000000027
11
245.9448829999999759
21
-73.5354579999999913
0
LINE
8
BLACK
6
CONTINUOUS
10
243.4198829999999987
20
-76.060457999999997
11
229.4198829999999987
21
-76.060457999999997
0
LINE
8
BLACK
6
CONTINUOUS
10
229.4198829999999987
20
-76.060457999999997
11
229.4198829999999987
21
-90.060457999999997
0
LINE
8
BLACK
6
CONTINUOUS
10
229.4198829999999987
20
-90.060457999999997
11
243.4198829999999987
21
-90.060457999999997
0
LINE
8
BLACK
6
CONTINUOUS
10
243.4198829999999987
20
-90.060457999999997
11
243.4198829999999987
21
-76.060457999999997
0
LINE
8
BLACK
6
CONTINUOUS
10
82.0037569999999931
20
-92.3579220000000021
11
63.5196229999999957
21
-96.9665339999999958
0
LINE
8
BLACK
6
CONTINUOUS
10
63.5196229999999957
20
-96.9665339999999958
11
68.1282350000000037
21
-115.4506679999999932
0
LINE
8
BLACK
6
CONTINUOUS
10
68.1282350000000037
20
-115.4506679999999932
11
86.6123690000000011
21
-110.8420559999999995
0
LINE
8
BLACK
6
CONTINUOUS
10
86.6123690000000011
20
-110.8420559999999995
11
82.0037569999999931
21
-92.3579220000000021
0
LINE
8
BLACK
6
CONTINUOUS
10
80.1646130000000028
20
-95.4187719999999899
11
66.5804729999999978
21
-98.8056780000000003
0
LINE
8
BLACK
6
CONTINUOUS
10
66.5804729999999978
20
-98.8056780000000003
11
69.967378999999994
21
-112.3898179999999911
0
LINE
8
BLACK
6
CONTINUOUS
10
69.967378999999994
20
-112.3898179999999911
11
83.551518999999999
21
-109.0029119999999949
0
LINE
8
BLACK
6
CONTINUOUS
10
83.551518999999999
20
-109.0029119999999949
11
80.1646130000000028
21
-95.4187719999999899
0
LINE
8
BLACK
6
CONTINUOUS
10
165.1699349999999811
20
-91.2554540000000003
11
146.6858009999999979
21
-95.864065999999994
0
LINE
8
BLACK
6
CONTINUOUS
10
146.6858009999999979
20
-95.864065999999994
11
151.2944129999999916
21
-114.3481999999999914
0
LINE
8
BLACK
6
CONTINUOUS
10
151.2944129999999916
20
-114.3481999999999914
11
169.7785470000000032
21
-109.7395879999999977
0
LINE
8
BLACK
6
CONTINUOUS
10
169.7785470000000032
20
-109.7395879999999977
11
165.1699349999999811
21
-91.2554540000000003
0
LINE
8
BLACK
6
CONTINUOUS
10
163.3307910000000049
20
-94.3163040000000024
11
149.7466509999999857
21
-97.7032099999999986
0
LINE
8
BLACK
6
CONTINUOUS
10
149.7466509999999857
20
-97.7032099999999986
11
153.1335569999999962
21
-111.2873499999999893
0
LINE
8
BLACK
6
CONTINUOUS
10
153.1335569999999962
20
-111.2873499999999893
11
166.7176969999999869
21
-107.9004439999999931
0
LINE
8
BLACK
6
CONTINUOUS
10
166.7176969999999869
20
-107.9004439999999931
11
163.3307910000000049
21
-94.3163040000000024
0
LINE
8
BLACK
6
CONTINUOUS
10
188.7948859999999911
20
-90.1089609999999936
11
169.7448859999999797
21
-90.1089609999999936
0
LINE
8
BLACK
6
CONTINUOUS
10
169.7448859999999797
20
-90.1089609999999936
11
169.7448859999999797
21
-109.1589609999999908
0
LINE
8
BLACK
6
CONTINUOUS
10
169.7448859999999797
20
-109.1589609999999908
11
188.7948859999999911
21
-109.1589609999999908
0
LINE
8
BLACK
6
CONTINUOUS
10
188.7948859999999911
20
-109.1589609999999908
11
188.7948859999999911
21
-90.1089609999999936
0
LINE
8
BLACK
6
CONTINUOUS
10
186.2698859999999854
20
-92.6339609999999993
11
172.2698859999999854
21
-92.6339609999999993
0
LINE
8
BLACK
6
CONTINUOUS
10
172.2698859999999854
20
-92.6339609999999993
11
172.2698859999999854
21
-106.6339609999999993
0
LINE
8
BLACK
6
CONTINUOUS
10
172.2698859999999854
20
-106.6339609999999993
11
186.2698859999999854
21
-106.6339609999999993
0
LINE
8
BLACK
6
CONTINUOUS
10
186.2698859999999854
20
-106.6339609999999993
11
186.2698859999999854
21
-92.6339609999999993
0
LINE
8
BLACK
6
CONTINUOUS
10
207.8448849999999766
20
-87.8229570000000024
11
188.7948849999999936
21
-87.8229570000000024
0
LINE
8
BLACK
6
CONTINUOUS
10
188.7948849999999936
20
-87.8229570000000024
11
188.7948849999999936
21
-106.8729569999999995
0
LINE
8
BLACK
6
CONTINUOUS
10
188.7948849999999936
20
-106.8729569999999995
11
207.8448849999999766
21
-106.8729569999999995
0
LINE
8
BLACK
6
CONTINUOUS
10
207.8448849999999766
20
-106.8729569999999995
11
207.8448849999999766
21
-87.8229570000000024
0
LINE
8
BLACK
6
CONTINUOUS
10
205.3198849999999993
20
-90.3479569999999939
11
191.3198849999999993
21
-90.3479569999999939
0
LINE
8
BLACK
6
CONTINUOUS
10
191.3198849999999993
20
-90.3479569999999939
11
191.3198849999999993
21
-104.3479569999999939
0
LINE
8
BLACK
6
CONTINUOUS
10
191.3198849999999993
20
-104.3479569999999939
11
205.3198849999999993
21
-104.3479569999999939
0
LINE
8
BLACK
6
CONTINUOUS
10
205.3198849999999993
20
-104.3479569999999939
11
205.3198849999999993
21
-90.3479569999999939
0
LINE
8
BLACK
6
CONTINUOUS
10
226.8948859999999854
20
-90.1089580000000012
11
207.8448860000000025
21
-90.1089580000000012
0
LINE
8
BLACK
6
CONTINUOUS
10
207.8448860000000025
20
-90.1089580000000012
11
207.8448860000000025
21
-109.1589579999999984
0
LINE
8
BLACK
6
CONTINUOUS
10
207.8448860000000025
20
-109.1589579999999984
11
226.8948859999999854
21
-109.1589579999999984
0
LINE
8
BLACK
6
CONTINUOUS
10
226.8948859999999854
20
-109.1589579999999984
11
226.8948859999999854
21
-90.1089580000000012
0
LINE
8
BLACK
6
CONTINUOUS
10
224.3698859999999797
20
-92.6339579999999927
11
210.3698859999999797
21
-92.6339579999999927
0
LINE
8
BLACK
6
CONTINUOUS
10
210.3698859999999797
20
-92.6339579999999927
11
210.3698859999999797
21
-106.6339579999999927
0
LINE
8
BLACK
6
CONTINUOUS
10
210.3698859999999797
20
-106.6339579999999927
11
224.3698859999999797
21
-106.6339579999999927
0
LINE
8
BLACK
6
CONTINUOUS
10
224.3698859999999797
20
-106.6339579999999927
11
224.3698859999999797
21
-92.6339579999999927
0
LINE
8
BLACK
6
CONTINUOUS
10
245.9448840000000018
20
-92.5854590000000002
11
226.8948839999999905
21
-92.5854590000000002
0
LINE
8
BLACK
6
CONTINUOUS
10
226.8948839999999905
20
-92.5854590000000002
11
226.8948839999999905
21
-111.6354589999999973
0
LINE
8
BLACK
6
CONTINUOUS
10
226.8948839999999905
20
-111.6354589999999973
11
245.9448840000000018
21
-111.6354589999999973
0
LINE
8
BLACK
6
CONTINUOUS
10
245.9448840000000018
20
-111.6354589999999973
11
245.9448840000000018
21
-92.5854590000000002
0
LINE
8
BLACK
6
CONTINUOUS
10
243.4198839999999961
20
-95.1104589999999916
11
229.4198839999999961
21
-95.1104589999999916
0
LINE
8
BLACK
6
CONTINUOUS
10
229.4198839999999961
20
-95.1104589999999916
11
229.4198839999999961
21
-109.1104589999999916
0
LINE
8
BLACK
6
CONTINUOUS
10
229.4198839999999961
20
-109.1104589999999916
11
243.4198839999999961
21
-109.1104589999999916
0
LINE
8
BLACK
6
CONTINUOUS
10
243.4198839999999961
20
-109.1104589999999916
11
243.4198839999999961
21
-95.1104589999999916
0
LINE
8
BLACK
6
CONTINUOUS
10
100.4754679999999922
20
-107.38559699999999
11
81.9913339999999948
21
-111.9942089999999979
0
LINE
8
BLACK
6
CONTINUOUS
10
81.9913339999999948
20
-111.9942089999999979
11
86.5999460000000028
21
-130.4783429999999953
0
LINE
8
BLACK
6
CONTINUOUS
10
86.5999460000000028
20
-130.4783429999999953
11
105.0840800000000002
21
-125.8697309999999874
0
LINE
8
BLACK
6
CONTINUOUS
10
105.0840800000000002
20
-125.8697309999999874
11
100.4754679999999922
21
-107.38559699999999
0
LINE
8
BLACK
6
CONTINUOUS
10
98.6363240000000019
20
-110.446446999999992
11
85.0521839999999969
21
-113.8333529999999882
0
LINE
8
BLACK
6
CONTINUOUS
10
85.0521839999999969
20
-113.8333529999999882
11
88.4390899999999931
21
-127.4174929999999932
0
LINE
8
BLACK
6
CONTINUOUS
10
88.4390899999999931
20
-127.4174929999999932
11
102.0232299999999981
21
-124.030586999999997
0
LINE
8
BLACK
6
CONTINUOUS
10
102.0232299999999981
20
-124.030586999999997
11
98.6363240000000019
21
-110.446446999999992
0
LINE
8
BLACK
6
CONTINUOUS
10
165.1575169999999844
20
-110.8917409999999961
11
146.6733830000000012
21
-115.5003529999999898
0
LINE
8
BLACK
6
CONTINUOUS
10
146.6733830000000012
20
-115.5003529999999898
11
151.2819949999999949
21
-133.9844870000000014
0
LINE
8
BLACK
6
CONTINUOUS
10
151.2819949999999949
20
-133.9844870000000014
11
169.7661290000000065
21
-129.3758750000000077
0
LINE
8
BLACK
6
CONTINUOUS
10
169.7661290000000065
20
-129.3758750000000077
11
165.1575169999999844
21
-110.8917409999999961
0
LINE
8
BLACK
6
CONTINUOUS
10
163.3183729999999798
20
-113.9525909999999982
11
149.734232999999989
21
-117.3394969999999944
0
LINE
8
BLACK
6
CONTINUOUS
10
149.734232999999989
20
-117.3394969999999944
11
153.1211389999999994
21
-130.9236369999999852
0
LINE
8
BLACK
6
CONTINUOUS
10
153.1211389999999994
20
-130.9236369999999852
11
166.7052789999999902
21
-127.536730999999989
0
LINE
8
BLACK
6
CONTINUOUS
10
166.7052789999999902
20
-127.536730999999989
11
163.3183729999999798
21
-113.9525909999999982
0
LINE
8
BLACK
6
CONTINUOUS
10
188.7948849999999936
20
-109.1589609999999908
11
169.7448849999999823
21
-109.1589609999999908
0
LINE
8
BLACK
6
CONTINUOUS
10
169.7448849999999823
20
-109.1589609999999908
11
169.7448849999999823
21
-128.208960999999988
0
LINE
8
BLACK
6
CONTINUOUS
10
169.7448849999999823
20
-128.208960999999988
11
188.7948849999999936
21
-128.208960999999988
0
LINE
8
BLACK
6
CONTINUOUS
10
188.7948849999999936
20
-128.208960999999988
11
188.7948849999999936
21
-109.1589609999999908
0
LINE
8
BLACK
6
CONTINUOUS
10
186.2698849999999879
20
-111.6839609999999965
11
172.2698849999999879
21
-111.6839609999999965
0
LINE
8
BLACK
6
CONTINUOUS
10
172.2698849999999879
20
-111.6839609999999965
11
172.2698849999999879
21
-125.6839609999999965
0
LINE
8
BLACK
6
CONTINUOUS
10
172.2698849999999879
20
-125.6839609999999965
11
186.2698849999999879
21
-125.6839609999999965
0
LINE
8
BLACK
6
CONTINUOUS
10
186.2698849999999879
20
-125.6839609999999965
11
186.2698849999999879
21
-111.6839609999999965
0
LINE
8
BLACK
6
CONTINUOUS
10
207.8448829999999816
20
-106.872959999999992
11
188.7948829999999987
21
-106.872959999999992
0
LINE
8
BLACK
6
CONTINUOUS
10
188.7948829999999987
20
-106.872959999999992
11
188.7948829999999987
21
-125.9229599999999891
0
LINE
8
BLACK
6
CONTINUOUS
10
188.7948829999999987
20
-125.9229599999999891
11
207.8448829999999816
21
-125.9229599999999891
0
LINE
8
BLACK
6
CONTINUOUS
10
207.8448829999999816
20
-125.9229599999999891
11
207.8448829999999816
21
-106.872959999999992
0
LINE
8
BLACK
6
CONTINUOUS
10
205.3198830000000044
20
-109.3979599999999976
11
191.3198830000000044
21
-109.3979599999999976
0
LINE
8
BLACK
6
CONTINUOUS
10
191.3198830000000044
20
-109.3979599999999976
11
191.3198830000000044
21
-123.3979599999999976
0
LINE
8
BLACK
6
CONTINUOUS
10
191.3198830000000044
20
-123.3979599999999976
11
205.3198830000000044
21
-123.3979599999999976
0
LINE
8
BLACK
6
CONTINUOUS
10
205.3198830000000044
20
-123.3979599999999976
11
205.3198830000000044
21
-109.3979599999999976
0
LINE
8
BLACK
6
CONTINUOUS
10
226.8948859999999854
20
-109.158963
11
207.8448860000000025
21
-109.158963
0
LINE
8
BLACK
6
CONTINUOUS
10
207.8448860000000025
20
-109.158963
11
207.8448860000000025
21
-128.2089629999999829
0
LINE
8
BLACK
6
CONTINUOUS
10
207.8448860000000025
20
-128.2089629999999829
11
226.8948859999999854
21
-128.2089629999999829
0
LINE
8
BLACK
6
CONTINUOUS
10
226.8948859999999854
20
-128.2089629999999829
11
226.8948859999999854
21
-109.158963
0
LINE
8
BLACK
6
CONTINUOUS
10
224.3698859999999797
20
-111.6839629999999914
11
210.3698859999999797
21
-111.6839629999999914
0
LINE
8
BLACK
6
CONTINUOUS
10
210.3698859999999797
20
-111.6839629999999914
11
210.3698859999999797
21
-125.6839629999999914
0
LINE
8
BLACK
6
CONTINUOUS
10
210.3698859999999797
20
-125.6839629999999914
11
224.3698859999999797
21
-125.6839629999999914
0
LINE
8
BLACK
6
CONTINUOUS
10
224.3698859999999797
20
-125.6839629999999914
11
224.3698859999999797
21
-111.6839629999999914
0
LINE
8
BLACK
6
CONTINUOUS
10
245.9448859999999968
20
-111.6354579999999999
11
226.8948859999999854
21
-111.6354579999999999
0
LINE
8
BLACK
6
CONTINUOUS
10
226.8948859999999854
20
-111.6354579999999999
11
226.8948859999999854
21
-130.6854579999999828
0
LINE
8
BLACK
6
CONTINUOUS
10
226.8948859999999854
20
-130.6854579999999828
11
245.9448859999999968
21
-130.6854579999999828
0
LINE
8
BLACK
6
CONTINUOUS
10
245.9448859999999968
20
-130.6854579999999828
11
245.9448859999999968
21
-111.6354579999999999
0
LINE
8
BLACK
6
CONTINUOUS
10
243.4198859999999911
20
-114.1604579999999913
11
229.4198859999999911
21
-114.1604579999999913
0
LINE
8
BLACK
6
CONTINUOUS
10
229.4198859999999911
20
-114.1604579999999913
11
229.4198859999999911
21
-128.1604580000000055
0
LINE
8
BLACK
6
CONTINUOUS
10
229.4198859999999911
20
-128.1604580000000055
11
243.4198859999999911
21
-128.1604580000000055
0
LINE
8
BLACK
6
CONTINUOUS
10
243.4198859999999911
20
-128.1604580000000055
11
243.4198859999999911
21
-114.1604579999999913
0
LINE
8
BLACK
6
CONTINUOUS
10
105.0840819999999951
20
-125.8697289999999924
11
86.5999479999999977
21
-130.4783410000000003
0
LINE
8
BLACK
6
CONTINUOUS
10
86.5999479999999977
20
-130.4783410000000003
11
91.2085599999999914
21
-148.9624749999999835
0
LINE
8
BLACK
6
CONTINUOUS
10
91.2085599999999914
20
-148.9624749999999835
11
109.6926939999999888
21
-144.3538629999999898
0
LINE
8
BLACK
6
CONTINUOUS
10
109.6926939999999888
20
-144.3538629999999898
11
105.0840819999999951
21
-125.8697289999999924
0
LINE
8
BLACK
6
CONTINUOUS
10
103.2449379999999906
20
-128.9305789999999945
11
89.6607979999999998
21
-132.3174850000000049
0
LINE
8
BLACK
6
CONTINUOUS
10
89.6607979999999998
20
-132.3174850000000049
11
93.047703999999996
21
-145.9016249999999957
0
LINE
8
BLACK
6
CONTINUOUS
10
93.047703999999996
20
-145.9016249999999957
11
106.631844000000001
21
-142.5147189999999853
0
LINE
8
BLACK
6
CONTINUOUS
10
106.631844000000001
20
-142.5147189999999853
11
103.2449379999999906
21
-128.9305789999999945
0
LINE
8
BLACK
6
CONTINUOUS
10
137.4188959999999895
20
-137.4409440000000018
11
118.9347619999999921
21
-142.0495559999999955
0
LINE
8
BLACK
6
CONTINUOUS
10
118.9347619999999921
20
-142.0495559999999955
11
123.543374
21
-160.5336899999999787
0
LINE
8
BLACK
6
CONTINUOUS
10
123.543374
20
-160.5336899999999787
11
142.0275079999999832
21
-155.925077999999985
0
LINE
8
BLACK
6
CONTINUOUS
10
142.0275079999999832
20
-155.925077999999985
11
137.4188959999999895
21
-137.4409440000000018
0
LINE
8
BLACK
6
CONTINUOUS
10
135.5797519999999849
20
-140.5017939999999896
11
121.9956119999999942
21
-143.8887
0
LINE
8
BLACK
6
CONTINUOUS
10
121.9956119999999942
20
-143.8887
11
125.3825179999999904
21
-157.4728399999999908
0
LINE
8
BLACK
6
CONTINUOUS
10
125.3825179999999904
20
-157.4728399999999908
11
138.9666579999999954
21
-154.0859339999999804
0
LINE
8
BLACK
6
CONTINUOUS
10
138.9666579999999954
20
-154.0859339999999804
11
135.5797519999999849
21
-140.5017939999999896
0
LINE
8
BLACK
6
CONTINUOUS
10
165.1450959999999952
20
-130.5280259999999828
11
146.6609619999999836
21
-135.1366380000000049
0
LINE
8
BLACK
6
CONTINUOUS
10
146.6609619999999836
20
-135.1366380000000049
11
151.2695740000000058
21
-153.6207719999999881
0
LINE
8
BLACK
6
CONTINUOUS
10
151.2695740000000058
20
-153.6207719999999881
11
169.7537079999999889
21
-149.0121599999999944
0
LINE
8
BLACK
6
CONTINUOUS
10
169.7537079999999889
20
-149.0121599999999944
11
165.1450959999999952
21
-130.5280259999999828
0
LINE
8
BLACK
6
CONTINUOUS
10
163.3059519999999907
20
-133.5888759999999991
11
149.7218119999999999
21
-136.9757819999999811
0
LINE
8
BLACK
6
CONTINUOUS
10
149.7218119999999999
20
-136.9757819999999811
11
153.1087179999999819
21
-150.5599220000000003
0
LINE
8
BLACK
6
CONTINUOUS
10
153.1087179999999819
20
-150.5599220000000003
11
166.6928580000000011
21
-147.1730159999999898
0
LINE
8
BLACK
6
CONTINUOUS
10
166.6928580000000011
20
-147.1730159999999898
11
163.3059519999999907
21
-133.5888759999999991
0
LINE
8
BLACK
6
CONTINUOUS
10
188.7948839999999961
20
-128.208958999999993
11
169.7448839999999848
21
-128.208958999999993
0
LINE
8
BLACK
6
CONTINUOUS
10
169.7448839999999848
20
-128.208958999999993
11
169.7448839999999848
21
-147.2589590000000044
0
LINE
8
BLACK
6
CONTINUOUS
10
169.7448839999999848
20
-147.2589590000000044
11
188.7948839999999961
21
-147.2589590000000044
0
LINE
8
BLACK
6
CONTINUOUS
10
188.7948839999999961
20
-147.2589590000000044
11
188.7948839999999961
21
-128.208958999999993
0
LINE
8
BLACK
6
CONTINUOUS
10
186.2698839999999905
20
-130.7339589999999987
11
172.2698839999999905
21
-130.7339589999999987
0
LINE
8
BLACK
6
CONTINUOUS
10
172.2698839999999905
20
-130.7339589999999987
11
172.2698839999999905
21
-144.7339589999999987
0
LINE
8
BLACK
6
CONTINUOUS
10
172.2698839999999905
20
-144.7339589999999987
11
186.2698839999999905
21
-144.7339589999999987
0
LINE
8
BLACK
6
CONTINUOUS
10
186.2698839999999905
20
-144.7339589999999987
11
186.2698839999999905
21
-130.7339589999999987
0
LINE
8
BLACK
6
CONTINUOUS
10
207.8448849999999766
20
-125.9229610000000008
11
188.7948849999999936
21
-125.9229610000000008
0
LINE
8
BLACK
6
CONTINUOUS
10
188.7948849999999936
20
-125.9229610000000008
11
188.7948849999999936
21
-144.972960999999998
0
LINE
8
BLACK
6
CONTINUOUS
10
188.7948849999999936
20
-144.972960999999998
11
207.8448849999999766
21
-144.972960999999998
0
LINE
8
BLACK
6
CONTINUOUS
10
207.8448849999999766
20
-144.972960999999998
11
207.8448849999999766
21
-125.9229610000000008
0
LINE
8
BLACK
6
CONTINUOUS
10
205.3198849999999993
20
-128.4479609999999923
11
191.3198849999999993
21
-128.4479609999999923
0
LINE
8
BLACK
6
CONTINUOUS
10
191.3198849999999993
20
-128.4479609999999923
11
191.3198849999999993
21
-142.4479609999999923
0
LINE
8
BLACK
6
CONTINUOUS
10
191.3198849999999993
20
-142.4479609999999923
11
205.3198849999999993
21
-142.4479609999999923
0
LINE
8
BLACK
6
CONTINUOUS
10
205.3198849999999993
20
-142.4479609999999923
11
205.3198849999999993
21
-128.4479609999999923
0
LINE
8
BLACK
6
CONTINUOUS
10
226.8948849999999879
20
-128.2089569999999981
11
207.8448849999999766
21
-128.2089569999999981
0
LINE
8
BLACK
6
CONTINUOUS
10
207.8448849999999766
20
-128.2089569999999981
11
207.8448849999999766
21
-147.258956999999981
0
LINE
8
BLACK
6
CONTINUOUS
10
207.8448849999999766
20
-147.258956999999981
11
226.8948849999999879
21
-147.258956999999981
0
LINE
8
BLACK
6
CONTINUOUS
10
226.8948849999999879
20
-147.258956999999981
11
226.8948849999999879
21
-128.2089569999999981
0
LINE
8
BLACK
6
CONTINUOUS
10
224.3698849999999823
20
-130.7339570000000037
11
210.3698849999999823
21
-130.7339570000000037
0
LINE
8
BLACK
6
CONTINUOUS
10
210.3698849999999823
20
-130.7339570000000037
11
210.3698849999999823
21
-144.7339570000000037
0
LINE
8
BLACK
6
CONTINUOUS
10
210.3698849999999823
20
-144.7339570000000037
11
224.3698849999999823
21
-144.7339570000000037
0
LINE
8
BLACK
6
CONTINUOUS
10
224.3698849999999823
20
-144.7339570000000037
11
224.3698849999999823
21
-130.7339570000000037
0
LINE
8
BLACK
6
CONTINUOUS
10
245.9448869999999943
20
-130.6854589999999803
11
226.8948869999999829
21
-130.6854589999999803
0
LINE
8
BLACK
6
CONTINUOUS
10
226.8948869999999829
20
-130.6854589999999803
11
226.8948869999999829
21
-149.7354589999999916
0
LINE
8
BLACK
6
CONTINUOUS
10
226.8948869999999829
20
-149.7354589999999916
11
245.9448869999999943
21
-149.7354589999999916
0
LINE
8
BLACK
6
CONTINUOUS
10
245.9448869999999943
20
-149.7354589999999916
11
245.9448869999999943
21
-130.6854589999999803
0
LINE
8
BLACK
6
CONTINUOUS
10
243.4198869999999886
20
-133.210458999999986
11
229.4198869999999886
21
-133.210458999999986
0
LINE
8
BLACK
6
CONTINUOUS
10
229.4198869999999886
20
-133.210458999999986
11
229.4198869999999886
21
-147.210458999999986
0
LINE
8
BLACK
6
CONTINUOUS
10
229.4198869999999886
20
-147.210458999999986
11
243.4198869999999886
21
-147.210458999999986
0
LINE
8
BLACK
6
CONTINUOUS
10
243.4198869999999886
20
-147.210458999999986
11
243.4198869999999886
21
-133.210458999999986
0
LINE
8
BLACK
6
CONTINUOUS
10
100.4382079999999888
20
-166.2944559999999967
11
81.9540739999999914
21
-170.9030679999999904
0
LINE
8
BLACK
6
CONTINUOUS
10
81.9540739999999914
20
-170.9030679999999904
11
86.5626859999999994
21
-189.387202000000002
0
LINE
8
BLACK
6
CONTINUOUS
10
86.5626859999999994
20
-189.387202000000002
11
105.0468199999999968
21
-184.7785899999999799
0
LINE
8
BLACK
6
CONTINUOUS
10
105.0468199999999968
20
-184.7785899999999799
11
100.4382079999999888
21
-166.2944559999999967
0
LINE
8
BLACK
6
CONTINUOUS
10
98.5990639999999985
20
-169.3553059999999846
11
85.0149239999999935
21
-172.742211999999995
0
LINE
8
BLACK
6
CONTINUOUS
10
85.0149239999999935
20
-172.742211999999995
11
88.4018299999999897
21
-186.3263519999999858
0
LINE
8
BLACK
6
CONTINUOUS
10
88.4018299999999897
20
-186.3263519999999858
11
101.9859699999999947
21
-182.9394460000000038
0
LINE
8
BLACK
6
CONTINUOUS
10
101.9859699999999947
20
-182.9394460000000038
11
98.5990639999999985
21
-169.3553059999999846
0
LINE
8
BLACK
6
CONTINUOUS
10
255.4698839999999791
20
-149.7354579999999942
11
236.4198839999999961
21
-149.7354579999999942
0
LINE
8
BLACK
6
CONTINUOUS
10
236.4198839999999961
20
-149.7354579999999942
11
236.4198839999999961
21
-168.7854580000000055
0
LINE
8
BLACK
6
CONTINUOUS
10
236.4198839999999961
20
-168.7854580000000055
11
255.4698839999999791
21
-168.7854580000000055
0
LINE
8
BLACK
6
CONTINUOUS
10
255.4698839999999791
20
-168.7854580000000055
11
255.4698839999999791
21
-149.7354579999999942
0
LINE
8
BLACK
6
CONTINUOUS
10
252.9448840000000018
20
-152.2604579999999999
11
238.9448840000000018
21
-152.2604579999999999
0
LINE
8
BLACK
6
CONTINUOUS
10
238.9448840000000018
20
-152.2604579999999999
11
238.9448840000000018
21
-166.2604579999999999
0
LINE
8
BLACK
6
CONTINUOUS
10
238.9448840000000018
20
-166.2604579999999999
11
252.9448840000000018
21
-166.2604579999999999
0
LINE
8
BLACK
6
CONTINUOUS
10
252.9448840000000018
20
-166.2604579999999999
11
252.9448840000000018
21
-152.2604579999999999
0
LINE
8
BLACK
6
CONTINUOUS
10
264.9948860000000082
20
-130.6854610000000037
11
245.9448859999999968
21
-130.6854610000000037
0
LINE
8
BLACK
6
CONTINUOUS
10
245.9448859999999968
20
-130.6854610000000037
11
245.9448859999999968
21
-149.7354609999999866
0
LINE
8
BLACK
6
CONTINUOUS
10
245.9448859999999968
20
-149.7354609999999866
11
264.9948860000000082
21
-149.7354609999999866
0
LINE
8
BLACK
6
CONTINUOUS
10
264.9948860000000082
20
-149.7354609999999866
11
264.9948860000000082
21
-130.6854610000000037
0
LINE
8
BLACK
6
CONTINUOUS
10
262.469885999999974
20
-133.2104609999999809
11
248.4698860000000025
21
-133.2104609999999809
0
LINE
8
BLACK
6
CONTINUOUS
10
248.4698860000000025
20
-133.2104609999999809
11
248.4698860000000025
21
-147.2104609999999809
0
LINE
8
BLACK
6
CONTINUOUS
10
248.4698860000000025
20
-147.2104609999999809
11
262.469885999999974
21
-147.2104609999999809
0
LINE
8
BLACK
6
CONTINUOUS
10
262.469885999999974
20
-147.2104609999999809
11
262.469885999999974
21
-133.2104609999999809
0
LINE
8
BLACK
6
CONTINUOUS
10
253.8098839999999825
20
-72.7354589999999916
11
260.9098839999999768
21
-72.7354589999999916
0
LINE
8
BLACK
6
CONTINUOUS
10
260.9098839999999768
20
-72.7354589999999916
11
260.9098839999999768
21
-79.2354589999999916
0
LINE
8
BLACK
6
CONTINUOUS
10
260.9098839999999768
20
-79.2354589999999916
11
253.8098839999999825
21
-79.2354589999999916
0
LINE
8
BLACK
6
CONTINUOUS
10
253.8098839999999825
20
-79.2354589999999916
11
253.8098839999999825
21
-72.7354589999999916
0
LINE
8
BLACK
6
CONTINUOUS
10
266.2498840000000087
20
-73.535459000000003
11
248.4698839999999791
21
-73.535459000000003
0
LINE
8
BLACK
6
CONTINUOUS
10
248.4698839999999791
20
-73.535459000000003
11
248.4698839999999791
21
-106.555458999999999
0
LINE
8
BLACK
6
CONTINUOUS
10
248.4698839999999791
20
-106.555458999999999
11
266.2498840000000087
21
-106.555458999999999
0
LINE
8
BLACK
6
CONTINUOUS
10
266.2498840000000087
20
-106.555458999999999
11
266.2498840000000087
21
-73.535459000000003
0
ARC
8
BLACK
10
82.9424459999999897
20
-108.6383029999999934
40
0.5000101944140281
50
-75.99884650
51
13.99885052
0
ARC
8
BLACK
10
79.8004260000000016
20
-96.024879999999996
40
0.4999995393165188
50
13.99993255
51
104.00007146
0
ARC
8
BLACK
10
70.3315659999999951
20
-111.7837069999999926
40
0.5000011157216449
50
-165.99988680
51
-76.00010918
0
ARC
8
BLACK
10
67.1865829999999988
20
-99.1698650000000015
40
0.5000011157216449
50
-255.99988680
51
-166.00010918
0
LINE
8
BLACK
6
CONTINUOUS
10
80.2855739999999969
20
-95.9039199999999994
11
83.4305579999999907
21
-108.5177639999999997
0
LINE
8
BLACK
6
CONTINUOUS
10
83.0663709999999895
20
-109.123872999999989
11
70.4525270000000035
21
-112.268856999999997
0
LINE
8
BLACK
6
CONTINUOUS
10
67.065620999999993
20
-98.684716999999992
11
79.6794649999999933
21
-95.5397329999999982
0
LINE
8
BLACK
6
CONTINUOUS
10
69.8464179999999999
20
-111.9046699999999959
11
66.7014339999999919
21
-99.2908259999999956
0
ARC
8
BLACK
10
231.1636589999999956
20
-151.7604819999999961
40
0.5000255006502168
50
90.00292194
51
179.99707806
0
ARC
8
BLACK
10
231.1648639999999943
20
-164.7604379999999935
40
0.5000190003609862
50
-179.99782284
51
-90.00217716
0
ARC
8
BLACK
10
236.9136079999999822
20
-151.7604819999999961
40
0.5000255006502168
50
0.00292194
51
89.99707806
0
ARC
8
BLACK
10
236.9136089999999797
20
-164.7604319999999802
40
0.5000245006002205
50
-89.99719264
51
-0.00280736
0
ARC
8
BLACK
10
254.9761349999999993
20
-151.7604579999999999
40
0.500001000001
50
90.00011459
51
179.99988541
0
ARC
8
BLACK
10
254.9761349999999993
20
-164.7604560000000049
40
0.500001000001
50
-179.99988541
51
-90.00011459
0
ARC
8
BLACK
10
260.7261330000000044
20
-151.7604579999999999
40
0.500001000001
50
0.00011459
51
89.99988541
0
ARC
8
BLACK
10
260.7261330000000044
20
-164.7604560000000049
40
0.500001000001
50
-89.99988541
51
-0.00011459
0
LINE
8
BLACK
6
CONTINUOUS
10
230.6648449999999855
20
-164.7604570000000024
11
230.6636340000000018
21
-151.7604570000000024
0
LINE
8
BLACK
6
CONTINUOUS
10
236.9136340000000018
20
-151.2604570000000024
11
231.1636340000000018
21
-151.2604570000000024
0
LINE
8
BLACK
6
CONTINUOUS
10
236.9136340000000018
20
-165.2604570000000024
11
231.1648449999999855
21
-165.2604570000000024
0
LINE
8
BLACK
6
CONTINUOUS
10
237.4136340000000018
20
-164.7604570000000024
11
237.4136340000000018
21
-151.7604570000000024
0
LINE
8
BLACK
6
CONTINUOUS
10
254.4761340000000018
20
-164.7604570000000024
11
254.4761340000000018
21
-151.7604570000000024
0
LINE
8
BLACK
6
CONTINUOUS
10
260.7261340000000018
20
-151.2604570000000024
11
254.9761340000000018
21
-151.2604570000000024
0
LINE
8
BLACK
6
CONTINUOUS
10
260.7261340000000018
20
-165.2604570000000024
11
254.9761340000000018
21
-165.2604570000000024
0
LINE
8
BLACK
6
CONTINUOUS
10
261.2261340000000018
20
-164.7604570000000024
11
261.2261340000000018
21
-151.7604570000000024
0
ARC
8
BLACK
10
146.6377009999999927
20
-152.6886089999999854
40
0.5000258393616267
50
-75.99705391
51
13.99705793
0
ARC
8
BLACK
10
143.4915589999999952
20
-140.0750989999999945
40
0.500018833774195
50
14.00228232
51
103.99777715
0
ARC
8
BLACK
10
141.0585509999999942
20
-154.0796479999999917
40
0.5000255064537279
50
-165.99709205
51
-76.00290393
0
ARC
8
BLACK
10
137.9135770000000036
20
-141.4658509999999865
40
0.5000245048122164
50
-255.99720681
51
-166.00278917
0
ARC
8
BLACK
10
123.5325639999999936
20
-158.4493919999999889
40
0.5000011157216449
50
-75.99988680
51
13.99989082
0
ARC
8
BLACK
10
120.3875799999999998
20
-145.8355489999999861
40
0.500000630573995
50
14.00008533
51
103.99983523
0
ARC
8
BLACK
10
117.9533659999999884
20
-159.8404429999999934
40
0.5000007515341737
50
-165.99992854
51
-76.00006744
0
ARC
8
BLACK
10
114.8083809999999971
20
-147.2265999999999906
40
0.5000006305739841
50
-255.99991467
51
-166.00016477
0
LINE
8
BLACK
6
CONTINUOUS
10
143.9767209999999977
20
-139.9541150000000016
11
147.1228810000000067
21
-152.5676670000000001
0
LINE
8
BLACK
6
CONTINUOUS
10
141.1794940000000054
20
-154.5648269999999798
11
146.7586939999999913
21
-153.1737760000000037
0
LINE
8
BLACK
6
CONTINUOUS
10
137.7925869999999975
20
-140.9806859999999915
11
143.3706129999999916
21
-139.5899289999999837
0
LINE
8
BLACK
6
CONTINUOUS
10
137.4283999999999821
20
-141.5867949999999951
11
140.5733850000000018
21
-154.2006399999999928
0
LINE
8
BLACK
6
CONTINUOUS
10
120.8727289999999925
20
-145.714587999999992
11
124.017713999999998
21
-158.3284319999999923
0
LINE
8
BLACK
6
CONTINUOUS
10
118.0743269999999967
20
-160.3255920000000003
11
123.6535269999999969
21
-158.9345409999999958
0
LINE
8
BLACK
6
CONTINUOUS
10
114.6874199999999888
20
-146.7414519999999811
11
120.2666210000000007
21
-145.3504010000000051
0
LINE
8
BLACK
6
CONTINUOUS
10
114.3232330000000019
20
-147.3475599999999872
11
117.4682179999999931
21
-159.961404999999985
0
CIRCLE
8
BLACK
10
243.5636329999999816
20
-92.585456999999991
40
1.0999999999999999
0
CIRCLE
8
BLACK
10
305.4715850000000046
20
-25.1096129999999995
40
1.0999999999999999
0
CIRCLE
8
BLACK
10
305.4715840000000071
20
-15.5096119999999988
40
1.0999999999999999
0
CIRCLE
8
BLACK
10
305.4715850000000046
20
-18.7096129999999974
40
1.0999999999999999
0
CIRCLE
8
BLACK
10
305.4715860000000021
20
-21.9096130000000002
40
1.0999999999999999
0
LINE
8
BLACK
6
CONTINUOUS
10
256.0979790000000094
20
-73.9852779999999939
11
256.0979790000000094
21
-74.7948009999999925
0
LINE
8
BLACK
6
CONTINUOUS
10
256.0979790000000094
20
-74.7948009999999925
11
256.1455980000000068
21
-74.8900390000000016
0
LINE
8
BLACK
6
CONTINUOUS
10
256.1455980000000068
20
-74.8900390000000016
11
256.1932170000000042
21
-74.9376589999999965
0
LINE
8
BLACK
6
CONTINUOUS
10
256.1932170000000042
20
-74.9376589999999965
11
256.288454999999999
21
-74.9852779999999939
0
LINE
8
BLACK
6
CONTINUOUS
10
256.288454999999999
20
-74.9852779999999939
11
256.4789309999999887
21
-74.9852779999999939
0
LINE
8
BLACK
6
CONTINUOUS
10
256.4789309999999887
20
-74.9852779999999939
11
256.5741689999999835
21
-74.9376589999999965
0
LINE
8
BLACK
6
CONTINUOUS
10
256.5741689999999835
20
-74.9376589999999965
11
256.6217879999999809
21
-74.8900390000000016
0
LINE
8
BLACK
6
CONTINUOUS
10
256.6217879999999809
20
-74.8900390000000016
11
256.6694069999999783
21
-74.7948009999999925
0
LINE
8
BLACK
6
CONTINUOUS
10
256.6694069999999783
20
-74.7948009999999925
11
256.6694069999999783
21
-73.9852779999999939
0
LINE
8
BLACK
6
CONTINUOUS
10
257.0979790000000094
20
-74.9376589999999965
11
257.2408360000000016
21
-74.9852779999999939
0
LINE
8
BLACK
6
CONTINUOUS
10
257.2408360000000016
20
-74.9852779999999939
11
257.4789309999999887
21
-74.9852779999999939
0
LINE
8
BLACK
6
CONTINUOUS
10
257.4789309999999887
20
-74.9852779999999939
11
257.5741689999999835
21
-74.9376589999999965
0
LINE
8
BLACK
6
CONTINUOUS
10
257.5741689999999835
20
-74.9376589999999965
11
257.6217879999999809
21
-74.8900390000000016
0
LINE
8
BLACK
6
CONTINUOUS
10
257.6217879999999809
20
-74.8900390000000016
11
257.6694069999999783
21
-74.7948009999999925
0
LINE
8
BLACK
6
CONTINUOUS
10
257.6694069999999783
20
-74.7948009999999925
11
257.6694069999999783
21
-74.6995629999999977
0
LINE
8
BLACK
6
CONTINUOUS
10
257.6694069999999783
20
-74.6995629999999977
11
257.6217879999999809
21
-74.6043250000000029
0
LINE
8
BLACK
6
CONTINUOUS
10
257.6217879999999809
20
-74.6043250000000029
11
257.5741689999999835
21
-74.5567059999999913
0
LINE
8
BLACK
6
CONTINUOUS
10
257.5741689999999835
20
-74.5567059999999913
11
257.4789309999999887
21
-74.5090869999999938
0
LINE
8
BLACK
6
CONTINUOUS
10
257.4789309999999887
20
-74.5090869999999938
11
257.288454999999999
21
-74.4614679999999964
0
LINE
8
BLACK
6
CONTINUOUS
10
257.288454999999999
20
-74.4614679999999964
11
257.1932170000000042
21
-74.413848999999999
0
LINE
8
BLACK
6
CONTINUOUS
10
257.1932170000000042
20
-74.413848999999999
11
257.1455980000000068
21
-74.3662300000000016
0
LINE
8
BLACK
6
CONTINUOUS
10
257.1455980000000068
20
-74.3662300000000016
11
257.0979790000000094
21
-74.2709919999999926
0
LINE
8
BLACK
6
CONTINUOUS
10
257.0979790000000094
20
-74.2709919999999926
11
257.0979790000000094
21
-74.1757539999999977
0
LINE
8
BLACK
6
CONTINUOUS
10
257.0979790000000094
20
-74.1757539999999977
11
257.1455980000000068
21
-74.0805160000000029
0
LINE
8
BLACK
6
CONTINUOUS
10
257.1455980000000068
20
-74.0805160000000029
11
257.1932170000000042
21
-74.0328969999999913
0
LINE
8
BLACK
6
CONTINUOUS
10
257.1932170000000042
20
-74.0328969999999913
11
257.288454999999999
21
-73.9852779999999939
0
LINE
8
BLACK
6
CONTINUOUS
10
257.288454999999999
20
-73.9852779999999939
11
257.5265499999999861
21
-73.9852779999999939
0
LINE
8
BLACK
6
CONTINUOUS
10
257.5265499999999861
20
-73.9852779999999939
11
257.6694069999999783
21
-74.0328969999999913
0
LINE
8
BLACK
6
CONTINUOUS
10
258.4313119999999913
20
-74.4614679999999964
11
258.5741689999999835
21
-74.5090869999999938
0
LINE
8
BLACK
6
CONTINUOUS
10
258.5741689999999835
20
-74.5090869999999938
11
258.6217879999999809
21
-74.5567059999999913
0
LINE
8
BLACK
6
CONTINUOUS
10
258.6217879999999809
20
-74.5567059999999913
11
258.6694069999999783
21
-74.6519440000000003
0
LINE
8
BLACK
6
CONTINUOUS
10
258.6694069999999783
20
-74.6519440000000003
11
258.6694069999999783
21
-74.7948009999999925
0
LINE
8
BLACK
6
CONTINUOUS
10
258.6694069999999783
20
-74.7948009999999925
11
258.6217879999999809
21
-74.8900390000000016
0
LINE
8
BLACK
6
CONTINUOUS
10
258.6217879999999809
20
-74.8900390000000016
11
258.5741689999999835
21
-74.9376589999999965
0
LINE
8
BLACK
6
CONTINUOUS
10
258.5741689999999835
20
-74.9376589999999965
11
258.4789309999999887
21
-74.9852779999999939
0
LINE
8
BLACK
6
CONTINUOUS
10
258.4789309999999887
20
-74.9852779999999939
11
258.0979790000000094
21
-74.9852779999999939
0
LINE
8
BLACK
6
CONTINUOUS
10
258.0979790000000094
20
-74.9852779999999939
11
258.0979790000000094
21
-73.9852779999999939
0
LINE
8
BLACK
6
CONTINUOUS
10
258.0979790000000094
20
-73.9852779999999939
11
258.4313119999999913
21
-73.9852779999999939
0
LINE
8
BLACK
6
CONTINUOUS
10
258.4313119999999913
20
-73.9852779999999939
11
258.5265499999999861
21
-74.0328969999999913
0
LINE
8
BLACK
6
CONTINUOUS
10
258.5265499999999861
20
-74.0328969999999913
11
258.5741689999999835
21
-74.0805160000000029
0
LINE
8
BLACK
6
CONTINUOUS
10
258.5741689999999835
20
-74.0805160000000029
11
258.6217879999999809
21
-74.1757539999999977
0
LINE
8
BLACK
6
CONTINUOUS
10
258.6217879999999809
20
-74.1757539999999977
11
258.6217879999999809
21
-74.2709919999999926
0
LINE
8
BLACK
6
CONTINUOUS
10
258.6217879999999809
20
-74.2709919999999926
11
258.5741689999999835
21
-74.3662300000000016
0
LINE
8
BLACK
6
CONTINUOUS
10
258.5741689999999835
20
-74.3662300000000016
11
258.5265499999999861
21
-74.413848999999999
0
LINE
8
BLACK
6
CONTINUOUS
10
258.5265499999999861
20
-74.413848999999999
11
258.4313119999999913
21
-74.4614679999999964
0
LINE
8
BLACK
6
CONTINUOUS
10
258.4313119999999913
20
-74.4614679999999964
11
258.0979790000000094
21
-74.4614679999999964
0
LINE
8
BLACK
6
CONTINUOUS
10
256.6217889999999784
20
-75.3852779999999996
11
256.6217889999999784
21
-76.1948009999999982
0
LINE
8
BLACK
6
CONTINUOUS
10
256.6217889999999784
20
-76.1948009999999982
11
256.6694079999999758
21
-76.2900389999999931
0
LINE
8
BLACK
6
CONTINUOUS
10
256.6694079999999758
20
-76.2900389999999931
11
256.7170269999999732
21
-76.3376590000000022
0
LINE
8
BLACK
6
CONTINUOUS
10
256.7170269999999732
20
-76.3376590000000022
11
256.812264999999968
21
-76.3852779999999996
0
LINE
8
BLACK
6
CONTINUOUS
10
256.812264999999968
20
-76.3852779999999996
11
257.0027410000000145
21
-76.3852779999999996
0
LINE
8
BLACK
6
CONTINUOUS
10
257.0027410000000145
20
-76.3852779999999996
11
257.0979790000000094
21
-76.3376590000000022
0
LINE
8
BLACK
6
CONTINUOUS
10
257.0979790000000094
20
-76.3376590000000022
11
257.1455980000000068
21
-76.2900389999999931
0
LINE
8
BLACK
6
CONTINUOUS
10
257.1455980000000068
20
-76.2900389999999931
11
257.1932170000000042
21
-76.1948009999999982
0
LINE
8
BLACK
6
CONTINUOUS
10
257.1932170000000042
20
-76.1948009999999982
11
257.1932170000000042
21
-75.3852779999999996
0
LINE
8
BLACK
6
CONTINUOUS
10
257.6694079999999758
20
-75.7186109999999957
11
257.6694079999999758
21
-76.7186109999999957
0
LINE
8
BLACK
6
CONTINUOUS
10
257.6694079999999758
20
-75.7662299999999931
11
257.7646459999999706
21
-75.7186109999999957
0
LINE
8
BLACK
6
CONTINUOUS
10
257.7646459999999706
20
-75.7186109999999957
11
257.9551219999999603
21
-75.7186109999999957
0
LINE
8
BLACK
6
CONTINUOUS
10
257.9551219999999603
20
-75.7186109999999957
11
258.050360000000012
21
-75.7662299999999931
0
LINE
8
BLACK
6
CONTINUOUS
10
258.050360000000012
20
-75.7662299999999931
11
258.0979790000000094
21
-75.8138489999999905
0
LINE
8
BLACK
6
CONTINUOUS
10
258.0979790000000094
20
-75.8138489999999905
11
258.1455980000000068
21
-75.9090869999999995
0
LINE
8
BLACK
6
CONTINUOUS
10
258.1455980000000068
20
-75.9090869999999995
11
258.1455980000000068
21
-76.1948009999999982
0
LINE
8
BLACK
6
CONTINUOUS
10
258.1455980000000068
20
-76.1948009999999982
11
258.0979790000000094
21
-76.2900389999999931
0
LINE
8
BLACK
6
CONTINUOUS
10
258.0979790000000094
20
-76.2900389999999931
11
258.050360000000012
21
-76.3376590000000022
0
LINE
8
BLACK
6
CONTINUOUS
10
258.050360000000012
20
-76.3376590000000022
11
257.9551219999999603
21
-76.3852779999999996
0
LINE
8
BLACK
6
CONTINUOUS
10
257.9551219999999603
20
-76.3852779999999996
11
257.7646459999999706
21
-76.3852779999999996
0
LINE
8
BLACK
6
CONTINUOUS
10
257.7646459999999706
20
-76.3852779999999996
11
257.6694079999999758
21
-76.3376590000000022
0
LINE
8
BLACK
6
CONTINUOUS
10
253.8098839999999825
20
-79.2554590000000019
11
253.8098839999999825
21
-73.535459000000003
0
LINE
8
BLACK
6
CONTINUOUS
10
260.9098839999999768
20
-79.2554590000000019
11
253.8098839999999825
21
-79.2554590000000019
0
LINE
8
BLACK
6
CONTINUOUS
10
260.9098839999999768
20
-79.2554590000000019
11
260.9098839999999768
21
-73.535459000000003
0
LINE
8
BLACK
6
CONTINUOUS
10
248.4698839999999791
20
-73.535459000000003
11
266.2498840000000087
21
-73.535459000000003
0
LINE
8
BLACK
6
CONTINUOUS
10
266.2498840000000087
20
-73.535459000000003
11
266.2498840000000087
21
-106.555458999999999
0
LINE
8
BLACK
6
CONTINUOUS
10
266.2498840000000087
20
-106.555458999999999
11
248.4698839999999791
21
-106.555458999999999
0
LINE
8
BLACK
6
CONTINUOUS
10
248.4698839999999791
20
-106.555458999999999
11
248.4698839999999791
21
-73.535459000000003
0
LINE
8
BLACK
6
CONTINUOUS
10
88.1801219999999972
20
-97.8234899999999925
11
86.0842829999999992
21
-98.3460409999999996
0
LINE
8
BLACK
6
CONTINUOUS
10
88.1801219999999972
20
-97.8234899999999925
11
88.4051099999999934
21
-98.7258649999999989
0
LINE
8
BLACK
6
CONTINUOUS
10
88.9445949999999925
20
-100.8896249999999952
11
87.5279639999999972
21
-101.2428309999999954
0
LINE
8
BLACK
6
CONTINUOUS
10
88.9445949999999925
20
-100.8896249999999952
11
88.7196079999999938
21
-99.9872499999999889
0
LINE
8
BLACK
6
CONTINUOUS
10
87.2056269999999927
20
-96.1470289999999892
11
86.7649880000000024
21
-96.2568919999999935
0
LINE
8
BLACK
6
CONTINUOUS
10
86.8500019999999893
20
-94.7206939999999946
11
86.409362999999999
21
-94.8305569999999989
0
LINE
8
BLACK
6
CONTINUOUS
10
259.9848839999999655
20
-114.95046099999999
11
252.3048839999999871
21
-114.95046099999999
0
LINE
8
BLACK
6
CONTINUOUS
10
252.3048839999999871
20
-112.2904609999999934
11
252.3048839999999871
21
-114.95046099999999
0
LINE
8
BLACK
6
CONTINUOUS
10
259.9848839999999655
20
-112.2904609999999934
11
259.9848839999999655
21
-114.95046099999999
0
LINE
8
BLACK
6
CONTINUOUS
10
259.9848839999999655
20
-112.2904609999999934
11
252.3048839999999871
21
-112.2904609999999934
0
LINE
8
BLACK
6
CONTINUOUS
10
261.2548840000000041
20
-112.2904609999999934
11
262.5848839999999882
21
-112.2904609999999934
0
LINE
8
BLACK
6
CONTINUOUS
10
262.5848839999999882
20
-112.2904609999999934
11
262.5848839999999882
21
-113.6204609999999917
0
LINE
8
BLACK
6
CONTINUOUS
10
273.4961349999999811
20
-101.4349589999999921
11
273.4961349999999811
21
-101.1349589999999949
0
LINE
8
BLACK
6
CONTINUOUS
10
273.4961349999999811
20
-98.6349589999999949
11
273.4961349999999811
21
-98.9349589999999921
0
LINE
8
BLACK
6
CONTINUOUS
10
270.1961349999999698
20
-101.4349589999999921
11
273.4961349999999811
21
-101.4349589999999921
0
LINE
8
BLACK
6
CONTINUOUS
10
270.1961349999999698
20
-101.1349589999999949
11
270.1961349999999698
21
-101.4349589999999921
0
LINE
8
BLACK
6
CONTINUOUS
10
270.1961349999999698
20
-98.9349589999999921
11
270.1961349999999698
21
-98.6349589999999949
0
LINE
8
BLACK
6
CONTINUOUS
10
270.1961349999999698
20
-98.6349589999999949
11
273.4961349999999811
21
-98.6349589999999949
0
LINE
8
BLACK
6
CONTINUOUS
10
274.45539500000001
20
-92.7158699999999953
11
272.4047850000000039
21
-94.7664800000000014
0
LINE
8
BLACK
6
CONTINUOUS
10
274.0240599999999631
20
-92.2845349999999911
11
274.45539500000001
21
-92.7158699999999953
0
LINE
8
BLACK
6
CONTINUOUS
10
270.7642969999999991
20
-91.9946209999999951
11
271.3299829999999702
21
-91.4289359999999931
0
LINE
8
BLACK
6
CONTINUOUS
10
270.7642969999999991
20
-91.9946209999999951
11
270.1986119999999687
21
-92.5603069999999946
0
LINE
8
BLACK
6
CONTINUOUS
10
248.934882999999985
20
-109.7825249999999926
11
248.934882999999985
21
-109.3283969999999954
0
LINE
8
BLACK
6
CONTINUOUS
10
250.4048829999999839
20
-109.7825249999999926
11
250.4048829999999839
21
-109.3283969999999954
0
LINE
8
BLACK
6
CONTINUOUS
10
268.7748839999999859
20
-75.535459000000003
11
268.7748839999999859
21
-87.6354589999999973
0
LINE
8
BLACK
6
CONTINUOUS
10
269.0248839999999859
20
-75.535459000000003
11
269.0248839999999859
21
-73.535459000000003
0
LINE
8
BLACK
6
CONTINUOUS
10
274.6248840000000087
20
-73.535459000000003
11
269.0248839999999859
21
-73.535459000000003
0
LINE
8
BLACK
6
CONTINUOUS
10
274.6248840000000087
20
-75.535459000000003
11
274.6248840000000087
21
-73.535459000000003
0
LINE
8
BLACK
6
CONTINUOUS
10
274.8748840000000087
20
-75.535459000000003
11
268.7748839999999859
21
-75.535459000000003
0
LINE
8
BLACK
6
CONTINUOUS
10
274.8748840000000087
20
-75.535459000000003
11
274.8748840000000087
21
-87.6354589999999973
0
LINE
8
BLACK
6
CONTINUOUS
10
274.8748840000000087
20
-87.6354589999999973
11
268.7748839999999859
21
-87.6354589999999973
  0
ENDSEC
  0
EOF
