<?xml version="1.0" standalone="no"?>
 <!DOCTYPE svg PUBLIC "-//W3C//DTD SVG 1.1//EN" 
 "http://www.w3.org/Graphics/SVG/1.1/DTD/svg11.dtd"> 
<svg
  xmlns:svg="http://www.w3.org/2000/svg"
  xmlns="http://www.w3.org/2000/svg"
  xmlns:xlink="http://www.w3.org/1999/xlink"
  version="1.1"
  width="594.004400mm" height="419.989000mm" viewBox="0.000000 0.000000 594.004400 419.989000">
<title>SVG Image created as Win-split-left-User_Eco2.svg date 2024/03/06 09:51:47 </title>
  <desc>Image generated by PCBNEW </desc>
<g style="fill:#000000; fill-opacity:1.000000;stroke:#000000; stroke-opacity:1.000000;
stroke-linecap:round; stroke-linejoin:round;"
 transform="translate(0 0) scale(1 1)">
</g>
<g style="fill:#000000; fill-opacity:0.0; 
stroke:#000000; stroke-width:0.000000; stroke-opacity:1; 
stroke-linecap:round; stroke-linejoin:round;">
</g>
<g style="fill:#D8C852; fill-opacity:0.0; 
stroke:#D8C852; stroke-width:0.000000; stroke-opacity:1; 
stroke-linecap:round; stroke-linejoin:round;">
</g>
<g style="fill:#D8C852; fill-opacity:0.0; 
stroke:#D8C852; stroke-width:0.100000; stroke-opacity:1; 
stroke-linecap:round; stroke-linejoin:round;">
<path d="M264.994886 130.685461
L245.944886 130.685461
" />
<path d="M245.944886 130.685461
L245.944886 149.735461
" />
<path d="M245.944886 149.735461
L264.994886 149.735461
" />
<path d="M264.994886 149.735461
L264.994886 130.685461
" />
</g>
<g style="fill:#D8C852; fill-opacity:0.0; 
stroke:#D8C852; stroke-width:0.050000; stroke-opacity:1; 
stroke-linecap:round; stroke-linejoin:round;">
<path d="M262.469886 133.210461
L248.469886 133.210461
" />
<path d="M248.469886 133.210461
L248.469886 147.210461
" />
<path d="M248.469886 147.210461
L262.469886 147.210461
" />
<path d="M262.469886 147.210461
L262.469886 133.210461
" />
</g>
<g style="fill:#D8C852; fill-opacity:0.0; 
stroke:#D8C852; stroke-width:0.100000; stroke-opacity:1; 
stroke-linecap:round; stroke-linejoin:round;">
<path d="M255.469884 149.735458
L236.419884 149.735458
" />
<path d="M236.419884 149.735458
L236.419884 168.785458
" />
<path d="M236.419884 168.785458
L255.469884 168.785458
" />
<path d="M255.469884 168.785458
L255.469884 149.735458
" />
</g>
<g style="fill:#D8C852; fill-opacity:0.0; 
stroke:#D8C852; stroke-width:0.050000; stroke-opacity:1; 
stroke-linecap:round; stroke-linejoin:round;">
<path d="M252.944884 152.260458
L238.944884 152.260458
" />
<path d="M238.944884 152.260458
L238.944884 166.260458
" />
<path d="M238.944884 166.260458
L252.944884 166.260458
" />
<path d="M252.944884 166.260458
L252.944884 152.260458
" />
</g>
<g style="fill:#D8C852; fill-opacity:0.0; 
stroke:#D8C852; stroke-width:0.100000; stroke-opacity:1; 
stroke-linecap:round; stroke-linejoin:round;">
<path d="M100.438208 166.294456
L81.954074 170.903068
" />
<path d="M81.954074 170.903068
L86.562686 189.387202
" />
<path d="M86.562686 189.387202
L105.046820 184.778590
" />
<path d="M105.046820 184.778590
L100.438208 166.294456
" />
</g>
<g style="fill:#D8C852; fill-opacity:0.0; 
stroke:#D8C852; stroke-width:0.050000; stroke-opacity:1; 
stroke-linecap:round; stroke-linejoin:round;">
<path d="M98.599064 169.355306
L85.014924 172.742212
" />
<path d="M85.014924 172.742212
L88.401830 186.326352
" />
<path d="M88.401830 186.326352
L101.985970 182.939446
" />
<path d="M101.985970 182.939446
L98.599064 169.355306
" />
</g>
<g style="fill:#D8C852; fill-opacity:0.0; 
stroke:#D8C852; stroke-width:0.100000; stroke-opacity:1; 
stroke-linecap:round; stroke-linejoin:round;">
<path d="M245.944887 130.685459
L226.894887 130.685459
" />
<path d="M226.894887 130.685459
L226.894887 149.735459
" />
<path d="M226.894887 149.735459
L245.944887 149.735459
" />
<path d="M245.944887 149.735459
L245.944887 130.685459
" />
</g>
<g style="fill:#D8C852; fill-opacity:0.0; 
stroke:#D8C852; stroke-width:0.050000; stroke-opacity:1; 
stroke-linecap:round; stroke-linejoin:round;">
<path d="M243.419887 133.210459
L229.419887 133.210459
" />
<path d="M229.419887 133.210459
L229.419887 147.210459
" />
<path d="M229.419887 147.210459
L243.419887 147.210459
" />
<path d="M243.419887 147.210459
L243.419887 133.210459
" />
</g>
<g style="fill:#D8C852; fill-opacity:0.0; 
stroke:#D8C852; stroke-width:0.100000; stroke-opacity:1; 
stroke-linecap:round; stroke-linejoin:round;">
<path d="M226.894885 128.208957
L207.844885 128.208957
" />
<path d="M207.844885 128.208957
L207.844885 147.258957
" />
<path d="M207.844885 147.258957
L226.894885 147.258957
" />
<path d="M226.894885 147.258957
L226.894885 128.208957
" />
</g>
<g style="fill:#D8C852; fill-opacity:0.0; 
stroke:#D8C852; stroke-width:0.050000; stroke-opacity:1; 
stroke-linecap:round; stroke-linejoin:round;">
<path d="M224.369885 130.733957
L210.369885 130.733957
" />
<path d="M210.369885 130.733957
L210.369885 144.733957
" />
<path d="M210.369885 144.733957
L224.369885 144.733957
" />
<path d="M224.369885 144.733957
L224.369885 130.733957
" />
</g>
<g style="fill:#D8C852; fill-opacity:0.0; 
stroke:#D8C852; stroke-width:0.100000; stroke-opacity:1; 
stroke-linecap:round; stroke-linejoin:round;">
<path d="M207.844885 125.922961
L188.794885 125.922961
" />
<path d="M188.794885 125.922961
L188.794885 144.972961
" />
<path d="M188.794885 144.972961
L207.844885 144.972961
" />
<path d="M207.844885 144.972961
L207.844885 125.922961
" />
</g>
<g style="fill:#D8C852; fill-opacity:0.0; 
stroke:#D8C852; stroke-width:0.050000; stroke-opacity:1; 
stroke-linecap:round; stroke-linejoin:round;">
<path d="M205.319885 128.447961
L191.319885 128.447961
" />
<path d="M191.319885 128.447961
L191.319885 142.447961
" />
<path d="M191.319885 142.447961
L205.319885 142.447961
" />
<path d="M205.319885 142.447961
L205.319885 128.447961
" />
</g>
<g style="fill:#D8C852; fill-opacity:0.0; 
stroke:#D8C852; stroke-width:0.100000; stroke-opacity:1; 
stroke-linecap:round; stroke-linejoin:round;">
<path d="M188.794884 128.208959
L169.744884 128.208959
" />
<path d="M169.744884 128.208959
L169.744884 147.258959
" />
<path d="M169.744884 147.258959
L188.794884 147.258959
" />
<path d="M188.794884 147.258959
L188.794884 128.208959
" />
</g>
<g style="fill:#D8C852; fill-opacity:0.0; 
stroke:#D8C852; stroke-width:0.050000; stroke-opacity:1; 
stroke-linecap:round; stroke-linejoin:round;">
<path d="M186.269884 130.733959
L172.269884 130.733959
" />
<path d="M172.269884 130.733959
L172.269884 144.733959
" />
<path d="M172.269884 144.733959
L186.269884 144.733959
" />
<path d="M186.269884 144.733959
L186.269884 130.733959
" />
</g>
<g style="fill:#D8C852; fill-opacity:0.0; 
stroke:#D8C852; stroke-width:0.100000; stroke-opacity:1; 
stroke-linecap:round; stroke-linejoin:round;">
<path d="M165.145096 130.528026
L146.660962 135.136638
" />
<path d="M146.660962 135.136638
L151.269574 153.620772
" />
<path d="M151.269574 153.620772
L169.753708 149.012160
" />
<path d="M169.753708 149.012160
L165.145096 130.528026
" />
</g>
<g style="fill:#D8C852; fill-opacity:0.0; 
stroke:#D8C852; stroke-width:0.050000; stroke-opacity:1; 
stroke-linecap:round; stroke-linejoin:round;">
<path d="M163.305952 133.588876
L149.721812 136.975782
" />
<path d="M149.721812 136.975782
L153.108718 150.559922
" />
<path d="M153.108718 150.559922
L166.692858 147.173016
" />
<path d="M166.692858 147.173016
L163.305952 133.588876
" />
</g>
<g style="fill:#D8C852; fill-opacity:0.0; 
stroke:#D8C852; stroke-width:0.100000; stroke-opacity:1; 
stroke-linecap:round; stroke-linejoin:round;">
<path d="M137.418896 137.440944
L118.934762 142.049556
" />
<path d="M118.934762 142.049556
L123.543374 160.533690
" />
<path d="M123.543374 160.533690
L142.027508 155.925078
" />
<path d="M142.027508 155.925078
L137.418896 137.440944
" />
</g>
<g style="fill:#D8C852; fill-opacity:0.0; 
stroke:#D8C852; stroke-width:0.050000; stroke-opacity:1; 
stroke-linecap:round; stroke-linejoin:round;">
<path d="M135.579752 140.501794
L121.995612 143.888700
" />
<path d="M121.995612 143.888700
L125.382518 157.472840
" />
<path d="M125.382518 157.472840
L138.966658 154.085934
" />
<path d="M138.966658 154.085934
L135.579752 140.501794
" />
</g>
<g style="fill:#D8C852; fill-opacity:0.0; 
stroke:#D8C852; stroke-width:0.100000; stroke-opacity:1; 
stroke-linecap:round; stroke-linejoin:round;">
<path d="M105.084082 125.869729
L86.599948 130.478341
" />
<path d="M86.599948 130.478341
L91.208560 148.962475
" />
<path d="M91.208560 148.962475
L109.692694 144.353863
" />
<path d="M109.692694 144.353863
L105.084082 125.869729
" />
</g>
<g style="fill:#D8C852; fill-opacity:0.0; 
stroke:#D8C852; stroke-width:0.050000; stroke-opacity:1; 
stroke-linecap:round; stroke-linejoin:round;">
<path d="M103.244938 128.930579
L89.660798 132.317485
" />
<path d="M89.660798 132.317485
L93.047704 145.901625
" />
<path d="M93.047704 145.901625
L106.631844 142.514719
" />
<path d="M106.631844 142.514719
L103.244938 128.930579
" />
</g>
<g style="fill:#D8C852; fill-opacity:0.0; 
stroke:#D8C852; stroke-width:0.100000; stroke-opacity:1; 
stroke-linecap:round; stroke-linejoin:round;">
<path d="M245.944886 111.635458
L226.894886 111.635458
" />
<path d="M226.894886 111.635458
L226.894886 130.685458
" />
<path d="M226.894886 130.685458
L245.944886 130.685458
" />
<path d="M245.944886 130.685458
L245.944886 111.635458
" />
</g>
<g style="fill:#D8C852; fill-opacity:0.0; 
stroke:#D8C852; stroke-width:0.050000; stroke-opacity:1; 
stroke-linecap:round; stroke-linejoin:round;">
<path d="M243.419886 114.160458
L229.419886 114.160458
" />
<path d="M229.419886 114.160458
L229.419886 128.160458
" />
<path d="M229.419886 128.160458
L243.419886 128.160458
" />
<path d="M243.419886 128.160458
L243.419886 114.160458
" />
</g>
<g style="fill:#D8C852; fill-opacity:0.0; 
stroke:#D8C852; stroke-width:0.100000; stroke-opacity:1; 
stroke-linecap:round; stroke-linejoin:round;">
<path d="M226.894886 109.158963
L207.844886 109.158963
" />
<path d="M207.844886 109.158963
L207.844886 128.208963
" />
<path d="M207.844886 128.208963
L226.894886 128.208963
" />
<path d="M226.894886 128.208963
L226.894886 109.158963
" />
</g>
<g style="fill:#D8C852; fill-opacity:0.0; 
stroke:#D8C852; stroke-width:0.050000; stroke-opacity:1; 
stroke-linecap:round; stroke-linejoin:round;">
<path d="M224.369886 111.683963
L210.369886 111.683963
" />
<path d="M210.369886 111.683963
L210.369886 125.683963
" />
<path d="M210.369886 125.683963
L224.369886 125.683963
" />
<path d="M224.369886 125.683963
L224.369886 111.683963
" />
</g>
<g style="fill:#D8C852; fill-opacity:0.0; 
stroke:#D8C852; stroke-width:0.100000; stroke-opacity:1; 
stroke-linecap:round; stroke-linejoin:round;">
<path d="M207.844883 106.872960
L188.794883 106.872960
" />
<path d="M188.794883 106.872960
L188.794883 125.922960
" />
<path d="M188.794883 125.922960
L207.844883 125.922960
" />
<path d="M207.844883 125.922960
L207.844883 106.872960
" />
</g>
<g style="fill:#D8C852; fill-opacity:0.0; 
stroke:#D8C852; stroke-width:0.050000; stroke-opacity:1; 
stroke-linecap:round; stroke-linejoin:round;">
<path d="M205.319883 109.397960
L191.319883 109.397960
" />
<path d="M191.319883 109.397960
L191.319883 123.397960
" />
<path d="M191.319883 123.397960
L205.319883 123.397960
" />
<path d="M205.319883 123.397960
L205.319883 109.397960
" />
</g>
<g style="fill:#D8C852; fill-opacity:0.0; 
stroke:#D8C852; stroke-width:0.100000; stroke-opacity:1; 
stroke-linecap:round; stroke-linejoin:round;">
<path d="M188.794885 109.158961
L169.744885 109.158961
" />
<path d="M169.744885 109.158961
L169.744885 128.208961
" />
<path d="M169.744885 128.208961
L188.794885 128.208961
" />
<path d="M188.794885 128.208961
L188.794885 109.158961
" />
</g>
<g style="fill:#D8C852; fill-opacity:0.0; 
stroke:#D8C852; stroke-width:0.050000; stroke-opacity:1; 
stroke-linecap:round; stroke-linejoin:round;">
<path d="M186.269885 111.683961
L172.269885 111.683961
" />
<path d="M172.269885 111.683961
L172.269885 125.683961
" />
<path d="M172.269885 125.683961
L186.269885 125.683961
" />
<path d="M186.269885 125.683961
L186.269885 111.683961
" />
</g>
<g style="fill:#D8C852; fill-opacity:0.0; 
stroke:#D8C852; stroke-width:0.100000; stroke-opacity:1; 
stroke-linecap:round; stroke-linejoin:round;">
<path d="M165.157517 110.891741
L146.673383 115.500353
" />
<path d="M146.673383 115.500353
L151.281995 133.984487
" />
<path d="M151.281995 133.984487
L169.766129 129.375875
" />
<path d="M169.766129 129.375875
L165.157517 110.891741
" />
</g>
<g style="fill:#D8C852; fill-opacity:0.0; 
stroke:#D8C852; stroke-width:0.050000; stroke-opacity:1; 
stroke-linecap:round; stroke-linejoin:round;">
<path d="M163.318373 113.952591
L149.734233 117.339497
" />
<path d="M149.734233 117.339497
L153.121139 130.923637
" />
<path d="M153.121139 130.923637
L166.705279 127.536731
" />
<path d="M166.705279 127.536731
L163.318373 113.952591
" />
</g>
<g style="fill:#D8C852; fill-opacity:0.0; 
stroke:#D8C852; stroke-width:0.100000; stroke-opacity:1; 
stroke-linecap:round; stroke-linejoin:round;">
<path d="M100.475468 107.385597
L81.991334 111.994209
" />
<path d="M81.991334 111.994209
L86.599946 130.478343
" />
<path d="M86.599946 130.478343
L105.084080 125.869731
" />
<path d="M105.084080 125.869731
L100.475468 107.385597
" />
</g>
<g style="fill:#D8C852; fill-opacity:0.0; 
stroke:#D8C852; stroke-width:0.050000; stroke-opacity:1; 
stroke-linecap:round; stroke-linejoin:round;">
<path d="M98.636324 110.446447
L85.052184 113.833353
" />
<path d="M85.052184 113.833353
L88.439090 127.417493
" />
<path d="M88.439090 127.417493
L102.023230 124.030587
" />
<path d="M102.023230 124.030587
L98.636324 110.446447
" />
</g>
<g style="fill:#D8C852; fill-opacity:0.0; 
stroke:#D8C852; stroke-width:0.100000; stroke-opacity:1; 
stroke-linecap:round; stroke-linejoin:round;">
<path d="M245.944884 92.585459
L226.894884 92.585459
" />
<path d="M226.894884 92.585459
L226.894884 111.635459
" />
<path d="M226.894884 111.635459
L245.944884 111.635459
" />
<path d="M245.944884 111.635459
L245.944884 92.585459
" />
</g>
<g style="fill:#D8C852; fill-opacity:0.0; 
stroke:#D8C852; stroke-width:0.050000; stroke-opacity:1; 
stroke-linecap:round; stroke-linejoin:round;">
<path d="M243.419884 95.110459
L229.419884 95.110459
" />
<path d="M229.419884 95.110459
L229.419884 109.110459
" />
<path d="M229.419884 109.110459
L243.419884 109.110459
" />
<path d="M243.419884 109.110459
L243.419884 95.110459
" />
</g>
<g style="fill:#D8C852; fill-opacity:0.0; 
stroke:#D8C852; stroke-width:0.100000; stroke-opacity:1; 
stroke-linecap:round; stroke-linejoin:round;">
<path d="M226.894886 90.108958
L207.844886 90.108958
" />
<path d="M207.844886 90.108958
L207.844886 109.158958
" />
<path d="M207.844886 109.158958
L226.894886 109.158958
" />
<path d="M226.894886 109.158958
L226.894886 90.108958
" />
</g>
<g style="fill:#D8C852; fill-opacity:0.0; 
stroke:#D8C852; stroke-width:0.050000; stroke-opacity:1; 
stroke-linecap:round; stroke-linejoin:round;">
<path d="M224.369886 92.633958
L210.369886 92.633958
" />
<path d="M210.369886 92.633958
L210.369886 106.633958
" />
<path d="M210.369886 106.633958
L224.369886 106.633958
" />
<path d="M224.369886 106.633958
L224.369886 92.633958
" />
</g>
<g style="fill:#D8C852; fill-opacity:0.0; 
stroke:#D8C852; stroke-width:0.100000; stroke-opacity:1; 
stroke-linecap:round; stroke-linejoin:round;">
<path d="M207.844885 87.822957
L188.794885 87.822957
" />
<path d="M188.794885 87.822957
L188.794885 106.872957
" />
<path d="M188.794885 106.872957
L207.844885 106.872957
" />
<path d="M207.844885 106.872957
L207.844885 87.822957
" />
</g>
<g style="fill:#D8C852; fill-opacity:0.0; 
stroke:#D8C852; stroke-width:0.050000; stroke-opacity:1; 
stroke-linecap:round; stroke-linejoin:round;">
<path d="M205.319885 90.347957
L191.319885 90.347957
" />
<path d="M191.319885 90.347957
L191.319885 104.347957
" />
<path d="M191.319885 104.347957
L205.319885 104.347957
" />
<path d="M205.319885 104.347957
L205.319885 90.347957
" />
</g>
<g style="fill:#D8C852; fill-opacity:0.0; 
stroke:#D8C852; stroke-width:0.100000; stroke-opacity:1; 
stroke-linecap:round; stroke-linejoin:round;">
<path d="M188.794886 90.108961
L169.744886 90.108961
" />
<path d="M169.744886 90.108961
L169.744886 109.158961
" />
<path d="M169.744886 109.158961
L188.794886 109.158961
" />
<path d="M188.794886 109.158961
L188.794886 90.108961
" />
</g>
<g style="fill:#D8C852; fill-opacity:0.0; 
stroke:#D8C852; stroke-width:0.050000; stroke-opacity:1; 
stroke-linecap:round; stroke-linejoin:round;">
<path d="M186.269886 92.633961
L172.269886 92.633961
" />
<path d="M172.269886 92.633961
L172.269886 106.633961
" />
<path d="M172.269886 106.633961
L186.269886 106.633961
" />
<path d="M186.269886 106.633961
L186.269886 92.633961
" />
</g>
<g style="fill:#D8C852; fill-opacity:0.0; 
stroke:#D8C852; stroke-width:0.100000; stroke-opacity:1; 
stroke-linecap:round; stroke-linejoin:round;">
<path d="M165.169935 91.255454
L146.685801 95.864066
" />
<path d="M146.685801 95.864066
L151.294413 114.348200
" />
<path d="M151.294413 114.348200
L169.778547 109.739588
" />
<path d="M169.778547 109.739588
L165.169935 91.255454
" />
</g>
<g style="fill:#D8C852; fill-opacity:0.0; 
stroke:#D8C852; stroke-width:0.050000; stroke-opacity:1; 
stroke-linecap:round; stroke-linejoin:round;">
<path d="M163.330791 94.316304
L149.746651 97.703210
" />
<path d="M149.746651 97.703210
L153.133557 111.287350
" />
<path d="M153.133557 111.287350
L166.717697 107.900444
" />
<path d="M166.717697 107.900444
L163.330791 94.316304
" />
</g>
<g style="fill:#D8C852; fill-opacity:0.0; 
stroke:#D8C852; stroke-width:0.100000; stroke-opacity:1; 
stroke-linecap:round; stroke-linejoin:round;">
<path d="M82.003757 92.357922
L63.519623 96.966534
" />
<path d="M63.519623 96.966534
L68.128235 115.450668
" />
<path d="M68.128235 115.450668
L86.612369 110.842056
" />
<path d="M86.612369 110.842056
L82.003757 92.357922
" />
</g>
<g style="fill:#D8C852; fill-opacity:0.0; 
stroke:#D8C852; stroke-width:0.050000; stroke-opacity:1; 
stroke-linecap:round; stroke-linejoin:round;">
<path d="M80.164613 95.418772
L66.580473 98.805678
" />
<path d="M66.580473 98.805678
L69.967379 112.389818
" />
<path d="M69.967379 112.389818
L83.551519 109.002912
" />
<path d="M83.551519 109.002912
L80.164613 95.418772
" />
</g>
<g style="fill:#D8C852; fill-opacity:0.0; 
stroke:#D8C852; stroke-width:0.100000; stroke-opacity:1; 
stroke-linecap:round; stroke-linejoin:round;">
<path d="M245.944883 73.535458
L226.894883 73.535458
" />
<path d="M226.894883 73.535458
L226.894883 92.585458
" />
<path d="M226.894883 92.585458
L245.944883 92.585458
" />
<path d="M245.944883 92.585458
L245.944883 73.535458
" />
</g>
<g style="fill:#D8C852; fill-opacity:0.0; 
stroke:#D8C852; stroke-width:0.050000; stroke-opacity:1; 
stroke-linecap:round; stroke-linejoin:round;">
<path d="M243.419883 76.060458
L229.419883 76.060458
" />
<path d="M229.419883 76.060458
L229.419883 90.060458
" />
<path d="M229.419883 90.060458
L243.419883 90.060458
" />
<path d="M243.419883 90.060458
L243.419883 76.060458
" />
</g>
<g style="fill:#D8C852; fill-opacity:0.0; 
stroke:#D8C852; stroke-width:0.100000; stroke-opacity:1; 
stroke-linecap:round; stroke-linejoin:round;">
<path d="M226.894888 71.058963
L207.844888 71.058963
" />
<path d="M207.844888 71.058963
L207.844888 90.108963
" />
<path d="M207.844888 90.108963
L226.894888 90.108963
" />
<path d="M226.894888 90.108963
L226.894888 71.058963
" />
</g>
<g style="fill:#D8C852; fill-opacity:0.0; 
stroke:#D8C852; stroke-width:0.050000; stroke-opacity:1; 
stroke-linecap:round; stroke-linejoin:round;">
<path d="M224.369888 73.583963
L210.369888 73.583963
" />
<path d="M210.369888 73.583963
L210.369888 87.583963
" />
<path d="M210.369888 87.583963
L224.369888 87.583963
" />
<path d="M224.369888 87.583963
L224.369888 73.583963
" />
</g>
<g style="fill:#D8C852; fill-opacity:0.0; 
stroke:#D8C852; stroke-width:0.100000; stroke-opacity:1; 
stroke-linecap:round; stroke-linejoin:round;">
<path d="M207.844885 68.772959
L188.794885 68.772959
" />
<path d="M188.794885 68.772959
L188.794885 87.822959
" />
<path d="M188.794885 87.822959
L207.844885 87.822959
" />
<path d="M207.844885 87.822959
L207.844885 68.772959
" />
</g>
<g style="fill:#D8C852; fill-opacity:0.0; 
stroke:#D8C852; stroke-width:0.050000; stroke-opacity:1; 
stroke-linecap:round; stroke-linejoin:round;">
<path d="M205.319885 71.297959
L191.319885 71.297959
" />
<path d="M191.319885 71.297959
L191.319885 85.297959
" />
<path d="M191.319885 85.297959
L205.319885 85.297959
" />
<path d="M205.319885 85.297959
L205.319885 71.297959
" />
</g>
<g style="fill:#D8C852; fill-opacity:0.0; 
stroke:#D8C852; stroke-width:0.100000; stroke-opacity:1; 
stroke-linecap:round; stroke-linejoin:round;">
<path d="M188.794885 71.058960
L169.744885 71.058960
" />
<path d="M169.744885 71.058960
L169.744885 90.108960
" />
<path d="M169.744885 90.108960
L188.794885 90.108960
" />
<path d="M188.794885 90.108960
L188.794885 71.058960
" />
</g>
<g style="fill:#D8C852; fill-opacity:0.0; 
stroke:#D8C852; stroke-width:0.050000; stroke-opacity:1; 
stroke-linecap:round; stroke-linejoin:round;">
<path d="M186.269885 73.583960
L172.269885 73.583960
" />
<path d="M172.269885 73.583960
L172.269885 87.583960
" />
<path d="M172.269885 87.583960
L186.269885 87.583960
" />
<path d="M186.269885 87.583960
L186.269885 73.583960
" />
</g>
<g style="fill:#D8C852; fill-opacity:0.0; 
stroke:#D8C852; stroke-width:0.100000; stroke-opacity:1; 
stroke-linecap:round; stroke-linejoin:round;">
<path d="M165.182360 71.619168
L146.698226 76.227780
" />
<path d="M146.698226 76.227780
L151.306838 94.711914
" />
<path d="M151.306838 94.711914
L169.790972 90.103302
" />
<path d="M169.790972 90.103302
L165.182360 71.619168
" />
</g>
<g style="fill:#D8C852; fill-opacity:0.0; 
stroke:#D8C852; stroke-width:0.050000; stroke-opacity:1; 
stroke-linecap:round; stroke-linejoin:round;">
<path d="M163.343216 74.680018
L149.759076 78.066924
" />
<path d="M149.759076 78.066924
L153.145982 91.651064
" />
<path d="M153.145982 91.651064
L166.730122 88.264158
" />
<path d="M166.730122 88.264158
L163.343216 74.680018
" />
</g>
<g style="fill:#D8C852; fill-opacity:0.0; 
stroke:#D8C852; stroke-width:0.100000; stroke-opacity:1; 
stroke-linecap:round; stroke-linejoin:round;">
<path d="M146.698227 76.227779
L128.214093 80.836391
" />
<path d="M128.214093 80.836391
L132.822705 99.320525
" />
<path d="M132.822705 99.320525
L151.306839 94.711913
" />
<path d="M151.306839 94.711913
L146.698227 76.227779
" />
</g>
<g style="fill:#D8C852; fill-opacity:0.0; 
stroke:#D8C852; stroke-width:0.050000; stroke-opacity:1; 
stroke-linecap:round; stroke-linejoin:round;">
<path d="M144.859083 79.288629
L131.274943 82.675535
" />
<path d="M131.274943 82.675535
L134.661849 96.259675
" />
<path d="M134.661849 96.259675
L148.245989 92.872769
" />
<path d="M148.245989 92.872769
L144.859083 79.288629
" />
</g>
<g style="fill:#D8C852; fill-opacity:0.0; 
stroke:#D8C852; stroke-width:0.100000; stroke-opacity:1; 
stroke-linecap:round; stroke-linejoin:round;">
<path d="M128.214093 80.836392
L109.729959 85.445004
" />
<path d="M109.729959 85.445004
L114.338571 103.929138
" />
<path d="M114.338571 103.929138
L132.822705 99.320526
" />
<path d="M132.822705 99.320526
L128.214093 80.836392
" />
</g>
<g style="fill:#D8C852; fill-opacity:0.0; 
stroke:#D8C852; stroke-width:0.050000; stroke-opacity:1; 
stroke-linecap:round; stroke-linejoin:round;">
<path d="M126.374949 83.897242
L112.790809 87.284148
" />
<path d="M112.790809 87.284148
L116.177715 100.868288
" />
<path d="M116.177715 100.868288
L129.761855 97.481382
" />
<path d="M129.761855 97.481382
L126.374949 83.897242
" />
<path d="M221.988635 150.283959
L221.988635 163.283959
" />
<path d="M221.488635 163.783959
L208.488635 163.783959
" />
<path d="M208.488635 149.783959
L221.488635 149.783959
" />
<path d="M207.988635 163.283959
L207.988635 150.283959
" />
</g>
<g style="fill:#D8C852; fill-opacity:0.0; 
stroke:#D8C852; stroke-width:0.100000; stroke-opacity:1; 
stroke-linecap:round; stroke-linejoin:round;">
<path d="M226.894885 147.258959
L203.082385 147.258959
" />
<path d="M203.082385 147.258959
L203.082385 166.308959
" />
<path d="M203.082385 166.308959
L226.894885 166.308959
" />
<path d="M226.894885 166.308959
L226.894885 147.258959
" />
</g>
<g style="fill:#D8C852; fill-opacity:0.0; 
stroke:#D8C852; stroke-width:0.050000; stroke-opacity:1; 
stroke-linecap:round; stroke-linejoin:round;">
<path d="M221.988635 150.283959 A0.500001 0.500001 0.0 0 0 221.488635 149.783959" />
<path d="M221.485871 163.782843 A0.500001 0.500001 0.0 0 0 221.985871 163.282843" />
<path d="M208.488635 149.783959 A0.500000 0.500000 0.0 0 0 207.988635 150.283959" />
<path d="M207.988635 163.283959 A0.500000 0.500000 0.0 0 0 208.488635 163.783959" />
<path d="M198.176136 150.283959
L198.176136 163.283959
" />
<path d="M197.676136 163.783959
L184.676136 163.783959
" />
<path d="M184.676136 149.783959
L197.676136 149.783959
" />
<path d="M184.176136 163.283959
L184.176136 150.283959
" />
</g>
<g style="fill:#D8C852; fill-opacity:0.0; 
stroke:#D8C852; stroke-width:0.100000; stroke-opacity:1; 
stroke-linecap:round; stroke-linejoin:round;">
<path d="M203.082386 147.258959
L179.269886 147.258959
" />
<path d="M179.269886 147.258959
L179.269886 166.308959
" />
<path d="M179.269886 166.308959
L203.082386 166.308959
" />
<path d="M203.082386 166.308959
L203.082386 147.258959
" />
</g>
<g style="fill:#D8C852; fill-opacity:0.0; 
stroke:#D8C852; stroke-width:0.050000; stroke-opacity:1; 
stroke-linecap:round; stroke-linejoin:round;">
<path d="M198.176136 150.283959 A0.500001 0.500001 0.0 0 0 197.676136 149.783959" />
<path d="M197.673372 163.782843 A0.500001 0.500001 0.0 0 0 198.173372 163.282843" />
<path d="M184.676136 149.783959 A0.500000 0.500000 0.0 0 0 184.176136 150.283959" />
<path d="M184.176136 163.283959 A0.500000 0.500000 0.0 0 0 184.676136 163.783959" />
<path d="M142.619841 158.895001
L145.764825 171.508845
" />
<path d="M145.400638 172.114954
L132.786794 175.259938
" />
<path d="M129.399888 161.675798
L142.013732 158.530814
" />
<path d="M132.180685 174.895751
L129.035701 162.281907
" />
</g>
<g style="fill:#D8C852; fill-opacity:0.0; 
stroke:#D8C852; stroke-width:0.100000; stroke-opacity:1; 
stroke-linecap:round; stroke-linejoin:round;">
<path d="M146.648539 154.772927
L123.543374 160.533692
" />
<path d="M123.543374 160.533692
L128.151987 179.017825
" />
<path d="M128.151987 179.017825
L151.257152 173.257060
" />
<path d="M151.257152 173.257060
L146.648539 154.772927
" />
</g>
<g style="fill:#D8C852; fill-opacity:0.0; 
stroke:#D8C852; stroke-width:0.050000; stroke-opacity:1; 
stroke-linecap:round; stroke-linejoin:round;">
<path d="M142.619841 158.895001 A0.500001 0.500001 0.0 0 0 142.013732 158.530814" />
<path d="M145.397687 172.114539 A0.500002 0.500002 0.0 0 0 145.761874 171.508430" />
<path d="M129.399888 161.675797 A0.500000 0.500000 0.0 0 0 129.035701 162.281906" />
<path d="M132.180684 174.895750 A0.500000 0.500000 0.0 0 0 132.786793 175.259937" />
<path d="M138.023650 120.774579
L141.168634 133.388423
" />
<path d="M140.804447 133.994532
L128.190603 137.139516
" />
<path d="M124.803697 123.555376
L137.417541 120.410392
" />
<path d="M127.584494 136.775329
L124.439510 124.161485
" />
</g>
<g style="fill:#D8C852; fill-opacity:0.0; 
stroke:#D8C852; stroke-width:0.100000; stroke-opacity:1; 
stroke-linecap:round; stroke-linejoin:round;">
<path d="M146.673383 115.500352
L114.326149 123.565423
" />
<path d="M114.326149 123.565423
L118.934761 142.049556
" />
<path d="M118.934761 142.049556
L151.281995 133.984485
" />
<path d="M151.281995 133.984485
L146.673383 115.500352
" />
</g>
<g style="fill:#D8C852; fill-opacity:0.0; 
stroke:#D8C852; stroke-width:0.050000; stroke-opacity:1; 
stroke-linecap:round; stroke-linejoin:round;">
<path d="M138.023650 120.774579 A0.500001 0.500001 0.0 0 0 137.417541 120.410392" />
<path d="M140.801496 133.994117 A0.500002 0.500002 0.0 0 0 141.165683 133.388008" />
<path d="M124.803697 123.555375 A0.500000 0.500000 0.0 0 0 124.439510 124.161484" />
<path d="M127.584493 136.775328 A0.500000 0.500000 0.0 0 0 128.190602 137.139515" />
<path d="M140.346590 100.562217
L143.491574 113.176061
" />
<path d="M143.127387 113.782170
L130.513543 116.927154
" />
<path d="M127.126637 103.343014
L139.740481 100.198030
" />
<path d="M129.907434 116.562967
L126.762450 103.949123
" />
</g>
<g style="fill:#D8C852; fill-opacity:0.0; 
stroke:#D8C852; stroke-width:0.100000; stroke-opacity:1; 
stroke-linecap:round; stroke-linejoin:round;">
<path d="M146.685806 95.864066
L118.959606 102.776984
" />
<path d="M118.959606 102.776984
L123.568218 121.261118
" />
<path d="M123.568218 121.261118
L151.294418 114.348200
" />
<path d="M151.294418 114.348200
L146.685806 95.864066
" />
</g>
<g style="fill:#D8C852; fill-opacity:0.0; 
stroke:#D8C852; stroke-width:0.050000; stroke-opacity:1; 
stroke-linecap:round; stroke-linejoin:round;">
<path d="M140.346590 100.562217 A0.500001 0.500001 0.0 0 0 139.740481 100.198030" />
<path d="M143.124436 113.781755 A0.500002 0.500002 0.0 0 0 143.488623 113.175646" />
<path d="M127.126637 103.343013 A0.500000 0.500000 0.0 0 0 126.762450 103.949122" />
<path d="M129.907433 116.562966 A0.500000 0.500000 0.0 0 0 130.513542 116.927153" />
</g>
<g style="fill:#D8C852; fill-opacity:0.0; 
stroke:#D8C852; stroke-width:0.100000; stroke-opacity:1; 
stroke-linecap:round; stroke-linejoin:round;">
<path d="M253.809884 72.735459
L260.909884 72.735459
" />
<path d="M260.909884 72.735459
L260.909884 79.235459
" />
<path d="M260.909884 79.235459
L253.809884 79.235459
" />
<path d="M253.809884 79.235459
L253.809884 72.735459
" />
</g>
<g style="fill:#D8C852; fill-opacity:0.0; 
stroke:#D8C852; stroke-width:0.200000; stroke-opacity:1; 
stroke-linecap:round; stroke-linejoin:round;">
<path d="M266.249884 73.535459
L248.469884 73.535459
" />
<path d="M248.469884 73.535459
L248.469884 106.555459
" />
<path d="M248.469884 106.555459
L266.249884 106.555459
" />
<path d="M266.249884 106.555459
L266.249884 73.535459
" />
</g>
<g style="fill:#D8C852; fill-opacity:0.0; 
stroke:#D8C852; stroke-width:0.050000; stroke-opacity:1; 
stroke-linecap:round; stroke-linejoin:round;">
<path d="M83.063419 109.123458 A0.500010 0.500010 0.0 0 0 83.427606 108.517349" />
<path d="M80.285574 95.903920 A0.500000 0.500000 0.0 0 0 79.679465 95.539733" />
<path d="M69.846417 111.904669 A0.500001 0.500001 0.0 0 0 70.452526 112.268856" />
<path d="M67.065621 98.684716 A0.500001 0.500001 0.0 0 0 66.701434 99.290825" />
<path d="M80.285574 95.903920
L83.430558 108.517764
" />
<path d="M83.066371 109.123873
L70.452527 112.268857
" />
<path d="M67.065621 98.684717
L79.679465 95.539733
" />
<path d="M69.846418 111.904670
L66.701434 99.290826
" />
<path d="M231.163634 151.260457 A0.500026 0.500026 0.0 0 0 230.663634 151.760457" />
<path d="M230.664845 164.760457 A0.500019 0.500019 0.0 0 0 231.164845 165.260457" />
<path d="M237.413633 151.760457 A0.500026 0.500026 0.0 0 0 236.913633 151.260457" />
<path d="M236.913633 165.260456 A0.500025 0.500025 0.0 0 0 237.413633 164.760456" />
<path d="M254.976134 151.260457 A0.500001 0.500001 0.0 0 0 254.476134 151.760457" />
<path d="M254.476134 164.760457 A0.500001 0.500001 0.0 0 0 254.976134 165.260457" />
<path d="M261.226134 151.760457 A0.500001 0.500001 0.0 0 0 260.726134 151.260457" />
<path d="M260.726134 165.260457 A0.500001 0.500001 0.0 0 0 261.226134 164.760457" />
<path d="M230.664845 164.760457
L230.663634 151.760457
" />
<path d="M236.913634 151.260457
L231.163634 151.260457
" />
<path d="M236.913634 165.260457
L231.164845 165.260457
" />
<path d="M237.413634 164.760457
L237.413634 151.760457
" />
<path d="M254.476134 164.760457
L254.476134 151.760457
" />
<path d="M260.726134 151.260457
L254.976134 151.260457
" />
<path d="M260.726134 165.260457
L254.976134 165.260457
" />
<path d="M261.226134 164.760457
L261.226134 151.760457
" />
<path d="M146.758693 153.173776 A0.500026 0.500026 0.0 0 0 147.122880 152.567667" />
<path d="M143.976720 139.954114 A0.500019 0.500019 0.0 0 0 143.370612 139.589928" />
<path d="M140.573385 154.200640 A0.500026 0.500026 0.0 0 0 141.179494 154.564827" />
<path d="M137.792586 140.980685 A0.500025 0.500025 0.0 0 0 137.428399 141.586794" />
<path d="M123.653526 158.934541 A0.500001 0.500001 0.0 0 0 124.017713 158.328432" />
<path d="M120.872728 145.714587 A0.500001 0.500001 0.0 0 0 120.266620 145.350400" />
<path d="M117.468218 159.961405 A0.500001 0.500001 0.0 0 0 118.074327 160.325592" />
<path d="M114.687419 146.741452 A0.500001 0.500001 0.0 0 0 114.323232 147.347560" />
<path d="M143.976721 139.954115
L147.122881 152.567667
" />
<path d="M141.179494 154.564827
L146.758694 153.173776
" />
<path d="M137.792587 140.980686
L143.370613 139.589929
" />
<path d="M137.428400 141.586795
L140.573385 154.200640
" />
<path d="M120.872729 145.714588
L124.017714 158.328432
" />
<path d="M118.074327 160.325592
L123.653527 158.934541
" />
<path d="M114.687420 146.741452
L120.266621 145.350401
" />
<path d="M114.323233 147.347560
L117.468218 159.961405
" />
<g >
</g>
<g >
</g>
<g >
</g>
<g >
</g>
<g >
</g>
<g >
</g>
<g >
</g>
<g >
</g>
<g >
</g>
<g >
</g>
<g >
</g>
<g >
</g>
<g >
</g>
<g >
</g>
<g >
</g>
<g >
</g>
<g >
</g>
<g >
</g>
<g >
</g>
<g >
</g>
<g >
</g>
<g >
</g>
<g >
</g>
<g >
</g>
<g >
</g>
<g >
</g>
<g >
</g>
<g >
</g>
<g >
</g>
<g >
</g>
<g >
</g>
<g >
</g>
<g >
</g>
<g >
</g>
<g >
</g>
<g >
</g>
<g >
</g>
<g >
</g>
<g >
</g>
<g >
</g>
<g >
</g>
<g >
</g>
<g >
</g>
<g >
</g>
<g >
</g>
<g >
</g>
<g >
</g>
<g >
</g>
<g >
</g>
<g >
</g>
<g >
</g>
<g >
</g>
<g >
</g>
<g >
</g>
<g >
</g>
<g >
</g>
<g >
</g>
<g >
</g>
<g >
</g>
<g >
</g>
<g >
</g>
<g >
</g>
<g >
</g>
<g >
</g>
<g >
</g>
<g >
</g>
<g >
</g>
<g >
</g>
<g >
</g>
<g >
</g>
<g >
</g>
<g >
</g>
<g >
</g>
<g >
</g>
<g >
</g>
<g >
</g>
<g >
</g>
<g >
</g>
<g >
</g>
<g >
</g>
<g >
</g>
<g >
</g>
<g >
</g>
<g >
</g>
<g >
</g>
<g >
</g>
<g >
</g>
<g >
</g>
<g >
</g>
<g >
</g>
<g >
</g>
<g >
</g>
<g >
</g>
<g >
</g>
<g >
</g>
<g >
</g>
<g >
</g>
<g >
</g>
<g >
</g>
<g >
</g>
<g >
</g>
<g >
</g>
<g >
</g>
<g >
</g>
<g >
</g>
<g >
</g>
<g >
</g>
<g >
</g>
<g >
</g>
<g >
</g>
<g >
</g>
<g >
</g>
<g >
</g>
<g >
</g>
<g >
</g>
<g >
</g>
<g >
</g>
<g >
</g>
<g >
</g>
<g >
</g>
<g >
</g>
<g >
</g>
<g >
</g>
<g >
</g>
<g >
</g>
<g >
</g>
<g >
</g>
<g >
</g>
<g >
</g>
<g >
</g>
<g >
</g>
<g >
</g>
<g >
</g>
<g >
</g>
<g >
</g>
<g >
</g>
<g >
</g>
<g >
</g>
<g >
</g>
<g >
</g>
<g >
</g>
<g >
</g>
<g >
</g>
<g style="fill:#D8C852; fill-opacity:0.0; 
stroke:#D8C852; stroke-width:0.050000; stroke-opacity:1; 
stroke-linecap:round; stroke-linejoin:round;">
</g>
<g style="fill:#D8C852; fill-opacity:1.000000; 
stroke:#D8C852; stroke-width:0.000000; stroke-opacity:1; 
stroke-linecap:round; stroke-linejoin:round;">
<circle cx="243.563633" cy="92.585457" r="1.100000" /> 
</g>
<g style="fill:#D8C852; fill-opacity:1.000000; 
stroke:#D8C852; stroke-width:0.021200; stroke-opacity:1; 
stroke-linecap:round; stroke-linejoin:round;">
</g>
<g >
</g>
<g >
</g>
<g style="fill:#D8C852; fill-opacity:1.000000; 
stroke:#D8C852; stroke-width:0.021200; stroke-opacity:1; 
stroke-linecap:round; stroke-linejoin:round;">
</g>
<g style="fill:#D8C852; fill-opacity:1.000000; 
stroke:#D8C852; stroke-width:0.000000; stroke-opacity:1; 
stroke-linecap:round; stroke-linejoin:round;">
<circle cx="305.471585" cy="25.109613" r="1.100000" /> 
</g>
<g style="fill:#D8C852; fill-opacity:1.000000; 
stroke:#D8C852; stroke-width:0.021200; stroke-opacity:1; 
stroke-linecap:round; stroke-linejoin:round;">
</g>
<g >
</g>
<g >
</g>
<g >
</g>
<g style="fill:#D8C852; fill-opacity:1.000000; 
stroke:#D8C852; stroke-width:0.021200; stroke-opacity:1; 
stroke-linecap:round; stroke-linejoin:round;">
</g>
<g style="fill:#D8C852; fill-opacity:1.000000; 
stroke:#D8C852; stroke-width:0.000000; stroke-opacity:1; 
stroke-linecap:round; stroke-linejoin:round;">
<circle cx="305.471584" cy="15.509612" r="1.100000" /> 
</g>
<g style="fill:#D8C852; fill-opacity:1.000000; 
stroke:#D8C852; stroke-width:0.021200; stroke-opacity:1; 
stroke-linecap:round; stroke-linejoin:round;">
</g>
<g >
</g>
<g >
</g>
<g >
</g>
<g >
</g>
<g style="fill:#D8C852; fill-opacity:1.000000; 
stroke:#D8C852; stroke-width:0.021200; stroke-opacity:1; 
stroke-linecap:round; stroke-linejoin:round;">
</g>
<g style="fill:#D8C852; fill-opacity:1.000000; 
stroke:#D8C852; stroke-width:0.000000; stroke-opacity:1; 
stroke-linecap:round; stroke-linejoin:round;">
<circle cx="305.471585" cy="18.709613" r="1.100000" /> 
</g>
<g style="fill:#D8C852; fill-opacity:1.000000; 
stroke:#D8C852; stroke-width:0.021200; stroke-opacity:1; 
stroke-linecap:round; stroke-linejoin:round;">
</g>
<g >
</g>
<g >
</g>
<g >
</g>
<g style="fill:#D8C852; fill-opacity:1.000000; 
stroke:#D8C852; stroke-width:0.021200; stroke-opacity:1; 
stroke-linecap:round; stroke-linejoin:round;">
</g>
<g style="fill:#D8C852; fill-opacity:1.000000; 
stroke:#D8C852; stroke-width:0.000000; stroke-opacity:1; 
stroke-linecap:round; stroke-linejoin:round;">
<circle cx="305.471586" cy="21.909613" r="1.100000" /> 
</g>
<g style="fill:#D8C852; fill-opacity:1.000000; 
stroke:#D8C852; stroke-width:0.021200; stroke-opacity:1; 
stroke-linecap:round; stroke-linejoin:round;">
</g>
<g >
</g>
<g >
</g>
<g >
</g>
</g>
<g style="fill:#000000; fill-opacity:1.000000; 
stroke:#000000; stroke-width:0.021200; stroke-opacity:1; 
stroke-linecap:round; stroke-linejoin:round;">
</g>
<g style="fill:#F2EDA1; fill-opacity:1.000000; 
stroke:#F2EDA1; stroke-width:0.021200; stroke-opacity:1; 
stroke-linecap:round; stroke-linejoin:round;">
</g>
<g style="fill:#F2EDA1; fill-opacity:1.000000; 
stroke:#F2EDA1; stroke-width:0.150000; stroke-opacity:1; 
stroke-linecap:round; stroke-linejoin:round;">
</g>
<g style="fill:#F2EDA1; fill-opacity:0.0; 
stroke:#F2EDA1; stroke-width:0.150000; stroke-opacity:1; 
stroke-linecap:round; stroke-linejoin:round;">
<text x="257.359884" y="75.115459"
textLength="3.250000" font-size="1.333333" lengthAdjust="spacingAndGlyphs"
text-anchor="middle" opacity="0">USB</text>
<g class="stroked-text"><desc>USB</desc>
<path d="M256.097979 73.985278
L256.097979 74.794801
" />
<path d="M256.097979 74.794801
L256.145598 74.890039
" />
<path d="M256.145598 74.890039
L256.193217 74.937659
" />
<path d="M256.193217 74.937659
L256.288455 74.985278
" />
<path d="M256.288455 74.985278
L256.478931 74.985278
" />
<path d="M256.478931 74.985278
L256.574169 74.937659
" />
<path d="M256.574169 74.937659
L256.621788 74.890039
" />
<path d="M256.621788 74.890039
L256.669407 74.794801
" />
<path d="M256.669407 74.794801
L256.669407 73.985278
" />
<path d="M257.097979 74.937659
L257.240836 74.985278
" />
<path d="M257.240836 74.985278
L257.478931 74.985278
" />
<path d="M257.478931 74.985278
L257.574169 74.937659
" />
<path d="M257.574169 74.937659
L257.621788 74.890039
" />
<path d="M257.621788 74.890039
L257.669407 74.794801
" />
<path d="M257.669407 74.794801
L257.669407 74.699563
" />
<path d="M257.669407 74.699563
L257.621788 74.604325
" />
<path d="M257.621788 74.604325
L257.574169 74.556706
" />
<path d="M257.574169 74.556706
L257.478931 74.509087
" />
<path d="M257.478931 74.509087
L257.288455 74.461468
" />
<path d="M257.288455 74.461468
L257.193217 74.413849
" />
<path d="M257.193217 74.413849
L257.145598 74.366230
" />
<path d="M257.145598 74.366230
L257.097979 74.270992
" />
<path d="M257.097979 74.270992
L257.097979 74.175754
" />
<path d="M257.097979 74.175754
L257.145598 74.080516
" />
<path d="M257.145598 74.080516
L257.193217 74.032897
" />
<path d="M257.193217 74.032897
L257.288455 73.985278
" />
<path d="M257.288455 73.985278
L257.526550 73.985278
" />
<path d="M257.526550 73.985278
L257.669407 74.032897
" />
<path d="M258.431312 74.461468
L258.574169 74.509087
" />
<path d="M258.574169 74.509087
L258.621788 74.556706
" />
<path d="M258.621788 74.556706
L258.669407 74.651944
" />
<path d="M258.669407 74.651944
L258.669407 74.794801
" />
<path d="M258.669407 74.794801
L258.621788 74.890039
" />
<path d="M258.621788 74.890039
L258.574169 74.937659
" />
<path d="M258.574169 74.937659
L258.478931 74.985278
" />
<path d="M258.478931 74.985278
L258.097979 74.985278
" />
<path d="M258.097979 74.985278
L258.097979 73.985278
" />
<path d="M258.097979 73.985278
L258.431312 73.985278
" />
<path d="M258.431312 73.985278
L258.526550 74.032897
" />
<path d="M258.526550 74.032897
L258.574169 74.080516
" />
<path d="M258.574169 74.080516
L258.621788 74.175754
" />
<path d="M258.621788 74.175754
L258.621788 74.270992
" />
<path d="M258.621788 74.270992
L258.574169 74.366230
" />
<path d="M258.574169 74.366230
L258.526550 74.413849
" />
<path d="M258.526550 74.413849
L258.431312 74.461468
" />
<path d="M258.431312 74.461468
L258.097979 74.461468
" />
</g><text x="257.359884" y="76.515459"
textLength="2.202381" font-size="1.333333" lengthAdjust="spacingAndGlyphs"
text-anchor="middle" opacity="0">Up</text>
<g class="stroked-text"><desc>Up</desc>
<path d="M256.621789 75.385278
L256.621789 76.194801
" />
<path d="M256.621789 76.194801
L256.669408 76.290039
" />
<path d="M256.669408 76.290039
L256.717027 76.337659
" />
<path d="M256.717027 76.337659
L256.812265 76.385278
" />
<path d="M256.812265 76.385278
L257.002741 76.385278
" />
<path d="M257.002741 76.385278
L257.097979 76.337659
" />
<path d="M257.097979 76.337659
L257.145598 76.290039
" />
<path d="M257.145598 76.290039
L257.193217 76.194801
" />
<path d="M257.193217 76.194801
L257.193217 75.385278
" />
<path d="M257.669408 75.718611
L257.669408 76.718611
" />
<path d="M257.669408 75.766230
L257.764646 75.718611
" />
<path d="M257.764646 75.718611
L257.955122 75.718611
" />
<path d="M257.955122 75.718611
L258.050360 75.766230
" />
<path d="M258.050360 75.766230
L258.097979 75.813849
" />
<path d="M258.097979 75.813849
L258.145598 75.909087
" />
<path d="M258.145598 75.909087
L258.145598 76.194801
" />
<path d="M258.145598 76.194801
L258.097979 76.290039
" />
<path d="M258.097979 76.290039
L258.050360 76.337659
" />
<path d="M258.050360 76.337659
L257.955122 76.385278
" />
<path d="M257.955122 76.385278
L257.764646 76.385278
" />
<path d="M257.764646 76.385278
L257.669408 76.337659
" />
</g><path d="M253.809884 79.255459
L253.809884 73.535459
" />
<path d="M260.909884 79.255459
L253.809884 79.255459
" />
<path d="M260.909884 79.255459
L260.909884 73.535459
" />
<path d="M248.469884 73.535459
L266.249884 73.535459
" />
<path d="M266.249884 73.535459
L266.249884 106.555459
" />
<path d="M266.249884 106.555459
L248.469884 106.555459
" />
<path d="M248.469884 106.555459
L248.469884 73.535459
" />
</g>
<g style="fill:#F2EDA1; fill-opacity:0.0; 
stroke:#F2EDA1; stroke-width:0.120000; stroke-opacity:1; 
stroke-linecap:round; stroke-linejoin:round;">
<path d="M88.180122 97.823490
L86.084283 98.346041
" />
<path d="M88.180122 97.823490
L88.405110 98.725865
" />
<path d="M88.944595 100.889625
L87.527964 101.242831
" />
<path d="M88.944595 100.889625
L88.719608 99.987250
" />
<path d="M87.205627 96.147029
L86.764988 96.256892
" />
<path d="M86.850002 94.720694
L86.409363 94.830557
" />
<path d="M259.984884 114.950461
L252.304884 114.950461
" />
<path d="M252.304884 112.290461
L252.304884 114.950461
" />
<path d="M259.984884 112.290461
L259.984884 114.950461
" />
<path d="M259.984884 112.290461
L252.304884 112.290461
" />
<path d="M261.254884 112.290461
L262.584884 112.290461
" />
<path d="M262.584884 112.290461
L262.584884 113.620461
" />
<path d="M273.496135 101.434959
L273.496135 101.134959
" />
<path d="M273.496135 98.634959
L273.496135 98.934959
" />
<path d="M270.196135 101.434959
L273.496135 101.434959
" />
<path d="M270.196135 101.134959
L270.196135 101.434959
" />
<path d="M270.196135 98.934959
L270.196135 98.634959
" />
<path d="M270.196135 98.634959
L273.496135 98.634959
" />
<path d="M274.455395 92.715870
L272.404785 94.766480
" />
<path d="M274.024060 92.284535
L274.455395 92.715870
" />
<path d="M270.764297 91.994621
L271.329983 91.428936
" />
<path d="M270.764297 91.994621
L270.198612 92.560307
" />
<path d="M248.934883 109.782525
L248.934883 109.328397
" />
<path d="M250.404883 109.782525
L250.404883 109.328397
" />
</g>
<g style="fill:#F2EDA1; fill-opacity:0.0; 
stroke:#F2EDA1; stroke-width:0.150000; stroke-opacity:1; 
stroke-linecap:round; stroke-linejoin:round;">
<path d="M268.774884 75.535459
L268.774884 87.635459
" />
<path d="M269.024884 75.535459
L269.024884 73.535459
" />
<path d="M274.624884 73.535459
L269.024884 73.535459
" />
<path d="M274.624884 75.535459
L274.624884 73.535459
" />
<path d="M274.874884 75.535459
L268.774884 75.535459
" />
<path d="M274.874884 75.535459
L274.874884 87.635459
" />
<path d="M274.874884 87.635459
L268.774884 87.635459
" />
<g >
</g>
<g >
</g>
<g >
</g>
<g >
</g>
<g >
</g>
<g >
</g>
<g >
</g>
<g >
</g>
<g >
</g>
<g >
</g>
<g >
</g>
<g >
</g>
<g >
</g>
<g >
</g>
<g >
</g>
<g >
</g>
<g >
</g>
<g >
</g>
<g >
</g>
<g >
</g>
<g >
</g>
<g >
</g>
<g >
</g>
<g >
</g>
<g >
</g>
<g >
</g>
<g >
</g>
<g >
</g>
<g >
</g>
<g >
</g>
<g >
</g>
<g >
</g>
<g >
</g>
<g >
</g>
<g >
</g>
<g >
</g>
<g >
</g>
<g >
</g>
<g >
</g>
<g >
</g>
<g >
</g>
<g >
</g>
<g >
</g>
<g >
</g>
<g >
</g>
<g >
</g>
<g >
</g>
<g >
</g>
<g >
</g>
<g >
</g>
<g >
</g>
<g >
</g>
<g >
</g>
<g >
</g>
<g >
</g>
<g >
</g>
<g >
</g>
<g >
</g>
<g >
</g>
<g >
</g>
<g >
</g>
<g >
</g>
<g >
</g>
<g >
</g>
<g >
</g>
<g >
</g>
<g >
</g>
<g >
</g>
<g >
</g>
<g >
</g>
<g >
</g>
<g >
</g>
<g >
</g>
<g >
</g>
<g >
</g>
<g >
</g>
<g >
</g>
<g >
</g>
<g >
</g>
<g >
</g>
<g >
</g>
<g >
</g>
<g >
</g>
<g >
</g>
<g >
</g>
<g >
</g>
<g >
</g>
<g >
</g>
<g >
</g>
<g >
</g>
<g >
</g>
<g >
</g>
<g >
</g>
<g >
</g>
<g >
</g>
<g >
</g>
<g >
</g>
<g >
</g>
<g >
</g>
<g >
</g>
<g >
</g>
<g >
</g>
<g >
</g>
<g >
</g>
<g >
</g>
<g >
</g>
<g >
</g>
<g >
</g>
<g >
</g>
<g >
</g>
<g >
</g>
<g >
</g>
<g >
</g>
<g >
</g>
<g >
</g>
<g >
</g>
<g >
</g>
<g >
</g>
<g >
</g>
<g >
</g>
<g >
</g>
<g >
</g>
<g >
</g>
<g >
</g>
<g >
</g>
<g >
</g>
<g >
</g>
<g >
</g>
<g >
</g>
<g >
</g>
<g >
</g>
<g >
</g>
<g >
</g>
<g >
</g>
<g >
</g>
<g >
</g>
<g >
</g>
<g >
</g>
<g >
</g>
<g >
</g>
<g >
</g>
<g >
</g>
<g >
</g>
<g >
</g>
<g >
</g>
<g >
</g>
<g >
</g>
<g >
</g>
<g >
</g>
<g >
</g>
<g >
</g>
<g >
</g>
<g >
</g>
<g >
</g>
<g >
</g>
<g >
</g>
<g >
</g>
<g >
</g>
</g> 
</svg>
