<?xml version="1.0" standalone="no"?>
 <!DOCTYPE svg PUBLIC "-//W3C//DTD SVG 1.1//EN" 
 "http://www.w3.org/Graphics/SVG/1.1/DTD/svg11.dtd"> 
<svg
  xmlns:svg="http://www.w3.org/2000/svg"
  xmlns="http://www.w3.org/2000/svg"
  xmlns:xlink="http://www.w3.org/1999/xlink"
  version="1.1"
  width="594.004400mm" height="419.989000mm" viewBox="0.000000 0.000000 594.004400 419.989000">
<title>SVG Image created as Win-split-right-User_Eco2.svg date 2024/03/06 09:51:57 </title>
  <desc>Image generated by PCBNEW </desc>
<g style="fill:#000000; fill-opacity:1.000000;stroke:#000000; stroke-opacity:1.000000;
stroke-linecap:round; stroke-linejoin:round;"
 transform="translate(0 0) scale(1 1)">
</g>
<g style="fill:#000000; fill-opacity:0.0; 
stroke:#000000; stroke-width:0.000000; stroke-opacity:1; 
stroke-linecap:round; stroke-linejoin:round;">
</g>
<g style="fill:#D8C852; fill-opacity:0.0; 
stroke:#D8C852; stroke-width:0.000000; stroke-opacity:1; 
stroke-linecap:round; stroke-linejoin:round;">
</g>
<g style="fill:#D8C852; fill-opacity:0.0; 
stroke:#D8C852; stroke-width:0.100000; stroke-opacity:1; 
stroke-linecap:round; stroke-linejoin:round;">
<path d="M265.698535 114.876376
L247.214401 110.267764
" />
<path d="M247.214401 110.267764
L242.605789 128.751898
" />
<path d="M242.605789 128.751898
L261.089923 133.360510
" />
<path d="M261.089923 133.360510
L265.698535 114.876376
" />
</g>
<g style="fill:#D8C852; fill-opacity:0.0; 
stroke:#D8C852; stroke-width:0.050000; stroke-opacity:1; 
stroke-linecap:round; stroke-linejoin:round;">
<path d="M262.637685 116.715520
L249.053545 113.328614
" />
<path d="M249.053545 113.328614
L245.666639 126.912754
" />
<path d="M245.666639 126.912754
L259.250779 130.299660
" />
<path d="M259.250779 130.299660
L262.637685 116.715520
" />
</g>
<g style="fill:#D8C852; fill-opacity:0.0; 
stroke:#D8C852; stroke-width:0.100000; stroke-opacity:1; 
stroke-linecap:round; stroke-linejoin:round;">
<path d="M247.214399 110.267766
L228.730265 105.659154
" />
<path d="M228.730265 105.659154
L224.121653 124.143288
" />
<path d="M224.121653 124.143288
L242.605787 128.751900
" />
<path d="M242.605787 128.751900
L247.214399 110.267766
" />
</g>
<g style="fill:#D8C852; fill-opacity:0.0; 
stroke:#D8C852; stroke-width:0.050000; stroke-opacity:1; 
stroke-linecap:round; stroke-linejoin:round;">
<path d="M244.153549 112.106910
L230.569409 108.720004
" />
<path d="M230.569409 108.720004
L227.182503 122.304144
" />
<path d="M227.182503 122.304144
L240.766643 125.691050
" />
<path d="M240.766643 125.691050
L244.153549 112.106910
" />
</g>
<g style="fill:#D8C852; fill-opacity:0.0; 
stroke:#D8C852; stroke-width:0.100000; stroke-opacity:1; 
stroke-linecap:round; stroke-linejoin:round;">
<path d="M228.730266 105.659152
L210.246132 101.050540
" />
<path d="M210.246132 101.050540
L205.637520 119.534674
" />
<path d="M205.637520 119.534674
L224.121654 124.143286
" />
<path d="M224.121654 124.143286
L228.730266 105.659152
" />
</g>
<g style="fill:#D8C852; fill-opacity:0.0; 
stroke:#D8C852; stroke-width:0.050000; stroke-opacity:1; 
stroke-linecap:round; stroke-linejoin:round;">
<path d="M225.669416 107.498296
L212.085276 104.111390
" />
<path d="M212.085276 104.111390
L208.698370 117.695530
" />
<path d="M208.698370 117.695530
L222.282510 121.082436
" />
<path d="M222.282510 121.082436
L225.669416 107.498296
" />
</g>
<g style="fill:#D8C852; fill-opacity:0.0; 
stroke:#D8C852; stroke-width:0.100000; stroke-opacity:1; 
stroke-linecap:round; stroke-linejoin:round;">
<path d="M113.567886 93.703111
L94.517886 93.703111
" />
<path d="M94.517886 93.703111
L94.517886 112.753111
" />
<path d="M94.517886 112.753111
L113.567886 112.753111
" />
<path d="M113.567886 112.753111
L113.567886 93.703111
" />
</g>
<g style="fill:#D8C852; fill-opacity:0.0; 
stroke:#D8C852; stroke-width:0.050000; stroke-opacity:1; 
stroke-linecap:round; stroke-linejoin:round;">
<path d="M111.042886 96.228111
L97.042886 96.228111
" />
<path d="M97.042886 96.228111
L97.042886 110.228111
" />
<path d="M97.042886 110.228111
L111.042886 110.228111
" />
<path d="M111.042886 110.228111
L111.042886 96.228111
" />
</g>
<g style="fill:#D8C852; fill-opacity:0.0; 
stroke:#D8C852; stroke-width:0.100000; stroke-opacity:1; 
stroke-linecap:round; stroke-linejoin:round;">
<path d="M101.661635 74.653109
L82.611635 74.653109
" />
<path d="M82.611635 74.653109
L82.611635 93.703109
" />
<path d="M82.611635 93.703109
L101.661635 93.703109
" />
<path d="M101.661635 93.703109
L101.661635 74.653109
" />
</g>
<g style="fill:#D8C852; fill-opacity:0.0; 
stroke:#D8C852; stroke-width:0.050000; stroke-opacity:1; 
stroke-linecap:round; stroke-linejoin:round;">
<path d="M99.136635 77.178109
L85.136635 77.178109
" />
<path d="M85.136635 77.178109
L85.136635 91.178109
" />
<path d="M85.136635 91.178109
L99.136635 91.178109
" />
<path d="M99.136635 91.178109
L99.136635 77.178109
" />
</g>
<g style="fill:#D8C852; fill-opacity:0.0; 
stroke:#D8C852; stroke-width:0.100000; stroke-opacity:1; 
stroke-linecap:round; stroke-linejoin:round;">
<path d="M251.823011 91.783631
L233.338877 87.175019
" />
<path d="M233.338877 87.175019
L228.730265 105.659153
" />
<path d="M228.730265 105.659153
L247.214399 110.267765
" />
<path d="M247.214399 110.267765
L251.823011 91.783631
" />
</g>
<g style="fill:#D8C852; fill-opacity:0.0; 
stroke:#D8C852; stroke-width:0.050000; stroke-opacity:1; 
stroke-linecap:round; stroke-linejoin:round;">
<path d="M248.762161 93.622775
L235.178021 90.235869
" />
<path d="M235.178021 90.235869
L231.791115 103.820009
" />
<path d="M231.791115 103.820009
L245.375255 107.206915
" />
<path d="M245.375255 107.206915
L248.762161 93.622775
" />
</g>
<g style="fill:#D8C852; fill-opacity:0.0; 
stroke:#D8C852; stroke-width:0.100000; stroke-opacity:1; 
stroke-linecap:round; stroke-linejoin:round;">
<path d="M226.407328 85.446792
L207.923194 80.838180
" />
<path d="M207.923194 80.838180
L203.314582 99.322314
" />
<path d="M203.314582 99.322314
L221.798716 103.930926
" />
<path d="M221.798716 103.930926
L226.407328 85.446792
" />
</g>
<g style="fill:#D8C852; fill-opacity:0.0; 
stroke:#D8C852; stroke-width:0.050000; stroke-opacity:1; 
stroke-linecap:round; stroke-linejoin:round;">
<path d="M223.346478 87.285936
L209.762338 83.899030
" />
<path d="M209.762338 83.899030
L206.375432 97.483170
" />
<path d="M206.375432 97.483170
L219.959572 100.870076
" />
<path d="M219.959572 100.870076
L223.346478 87.285936
" />
</g>
<g style="fill:#D8C852; fill-opacity:0.0; 
stroke:#D8C852; stroke-width:0.100000; stroke-opacity:1; 
stroke-linecap:round; stroke-linejoin:round;">
<path d="M200.991644 79.109949
L182.507510 74.501337
" />
<path d="M182.507510 74.501337
L177.898898 92.985471
" />
<path d="M177.898898 92.985471
L196.383032 97.594083
" />
<path d="M196.383032 97.594083
L200.991644 79.109949
" />
</g>
<g style="fill:#D8C852; fill-opacity:0.0; 
stroke:#D8C852; stroke-width:0.050000; stroke-opacity:1; 
stroke-linecap:round; stroke-linejoin:round;">
<path d="M197.930794 80.949093
L184.346654 77.562187
" />
<path d="M184.346654 77.562187
L180.959748 91.146327
" />
<path d="M180.959748 91.146327
L194.543888 94.533233
" />
<path d="M194.543888 94.533233
L197.930794 80.949093
" />
</g>
<g style="fill:#D8C852; fill-opacity:0.0; 
stroke:#D8C852; stroke-width:0.100000; stroke-opacity:1; 
stroke-linecap:round; stroke-linejoin:round;">
<path d="M177.861635 72.176609
L158.811635 72.176609
" />
<path d="M158.811635 72.176609
L158.811635 91.226609
" />
<path d="M158.811635 91.226609
L177.861635 91.226609
" />
<path d="M177.861635 91.226609
L177.861635 72.176609
" />
</g>
<g style="fill:#D8C852; fill-opacity:0.0; 
stroke:#D8C852; stroke-width:0.050000; stroke-opacity:1; 
stroke-linecap:round; stroke-linejoin:round;">
<path d="M175.336635 74.701609
L161.336635 74.701609
" />
<path d="M161.336635 74.701609
L161.336635 88.701609
" />
<path d="M161.336635 88.701609
L175.336635 88.701609
" />
<path d="M175.336635 88.701609
L175.336635 74.701609
" />
</g>
<g style="fill:#D8C852; fill-opacity:0.0; 
stroke:#D8C852; stroke-width:0.100000; stroke-opacity:1; 
stroke-linecap:round; stroke-linejoin:round;">
<path d="M158.811636 69.890610
L139.761636 69.890610
" />
<path d="M139.761636 69.890610
L139.761636 88.940610
" />
<path d="M139.761636 88.940610
L158.811636 88.940610
" />
<path d="M158.811636 88.940610
L158.811636 69.890610
" />
</g>
<g style="fill:#D8C852; fill-opacity:0.0; 
stroke:#D8C852; stroke-width:0.050000; stroke-opacity:1; 
stroke-linecap:round; stroke-linejoin:round;">
<path d="M156.286636 72.415610
L142.286636 72.415610
" />
<path d="M142.286636 72.415610
L142.286636 86.415610
" />
<path d="M142.286636 86.415610
L156.286636 86.415610
" />
<path d="M156.286636 86.415610
L156.286636 72.415610
" />
</g>
<g style="fill:#D8C852; fill-opacity:0.0; 
stroke:#D8C852; stroke-width:0.100000; stroke-opacity:1; 
stroke-linecap:round; stroke-linejoin:round;">
<path d="M139.761635 72.176609
L120.711635 72.176609
" />
<path d="M120.711635 72.176609
L120.711635 91.226609
" />
<path d="M120.711635 91.226609
L139.761635 91.226609
" />
<path d="M139.761635 91.226609
L139.761635 72.176609
" />
</g>
<g style="fill:#D8C852; fill-opacity:0.0; 
stroke:#D8C852; stroke-width:0.050000; stroke-opacity:1; 
stroke-linecap:round; stroke-linejoin:round;">
<path d="M137.236635 74.701609
L123.236635 74.701609
" />
<path d="M123.236635 74.701609
L123.236635 88.701609
" />
<path d="M123.236635 88.701609
L137.236635 88.701609
" />
<path d="M137.236635 88.701609
L137.236635 74.701609
" />
</g>
<g style="fill:#D8C852; fill-opacity:0.0; 
stroke:#D8C852; stroke-width:0.100000; stroke-opacity:1; 
stroke-linecap:round; stroke-linejoin:round;">
<path d="M120.711634 74.653109
L101.661634 74.653109
" />
<path d="M101.661634 74.653109
L101.661634 93.703109
" />
<path d="M101.661634 93.703109
L120.711634 93.703109
" />
<path d="M120.711634 93.703109
L120.711634 74.653109
" />
</g>
<g style="fill:#D8C852; fill-opacity:0.0; 
stroke:#D8C852; stroke-width:0.050000; stroke-opacity:1; 
stroke-linecap:round; stroke-linejoin:round;">
<path d="M118.186634 77.178109
L104.186634 77.178109
" />
<path d="M104.186634 77.178109
L104.186634 91.178109
" />
<path d="M104.186634 91.178109
L118.186634 91.178109
" />
<path d="M118.186634 91.178109
L118.186634 77.178109
" />
</g>
<g style="fill:#D8C852; fill-opacity:0.0; 
stroke:#D8C852; stroke-width:0.100000; stroke-opacity:1; 
stroke-linecap:round; stroke-linejoin:round;">
<path d="M219.463355 64.082275
L200.979221 59.473663
" />
<path d="M200.979221 59.473663
L196.370609 77.957797
" />
<path d="M196.370609 77.957797
L214.854743 82.566409
" />
<path d="M214.854743 82.566409
L219.463355 64.082275
" />
</g>
<g style="fill:#D8C852; fill-opacity:0.0; 
stroke:#D8C852; stroke-width:0.050000; stroke-opacity:1; 
stroke-linecap:round; stroke-linejoin:round;">
<path d="M216.402505 65.921419
L202.818365 62.534513
" />
<path d="M202.818365 62.534513
L199.431459 76.118653
" />
<path d="M199.431459 76.118653
L213.015599 79.505559
" />
<path d="M213.015599 79.505559
L216.402505 65.921419
" />
</g>
<g style="fill:#D8C852; fill-opacity:0.0; 
stroke:#D8C852; stroke-width:0.100000; stroke-opacity:1; 
stroke-linecap:round; stroke-linejoin:round;">
<path d="M200.979223 59.473663
L182.495089 54.865051
" />
<path d="M182.495089 54.865051
L177.886477 73.349185
" />
<path d="M177.886477 73.349185
L196.370611 77.957797
" />
<path d="M196.370611 77.957797
L200.979223 59.473663
" />
</g>
<g style="fill:#D8C852; fill-opacity:0.0; 
stroke:#D8C852; stroke-width:0.050000; stroke-opacity:1; 
stroke-linecap:round; stroke-linejoin:round;">
<path d="M197.918373 61.312807
L184.334233 57.925901
" />
<path d="M184.334233 57.925901
L180.947327 71.510041
" />
<path d="M180.947327 71.510041
L194.531467 74.896947
" />
<path d="M194.531467 74.896947
L197.918373 61.312807
" />
</g>
<g style="fill:#D8C852; fill-opacity:0.0; 
stroke:#D8C852; stroke-width:0.100000; stroke-opacity:1; 
stroke-linecap:round; stroke-linejoin:round;">
<path d="M177.861636 53.126611
L158.811636 53.126611
" />
<path d="M158.811636 53.126611
L158.811636 72.176611
" />
<path d="M158.811636 72.176611
L177.861636 72.176611
" />
<path d="M177.861636 72.176611
L177.861636 53.126611
" />
</g>
<g style="fill:#D8C852; fill-opacity:0.0; 
stroke:#D8C852; stroke-width:0.050000; stroke-opacity:1; 
stroke-linecap:round; stroke-linejoin:round;">
<path d="M175.336636 55.651611
L161.336636 55.651611
" />
<path d="M161.336636 55.651611
L161.336636 69.651611
" />
<path d="M161.336636 69.651611
L175.336636 69.651611
" />
<path d="M175.336636 69.651611
L175.336636 55.651611
" />
</g>
<g style="fill:#D8C852; fill-opacity:0.0; 
stroke:#D8C852; stroke-width:0.100000; stroke-opacity:1; 
stroke-linecap:round; stroke-linejoin:round;">
<path d="M158.811636 50.840610
L139.761636 50.840610
" />
<path d="M139.761636 50.840610
L139.761636 69.890610
" />
<path d="M139.761636 69.890610
L158.811636 69.890610
" />
<path d="M158.811636 69.890610
L158.811636 50.840610
" />
</g>
<g style="fill:#D8C852; fill-opacity:0.0; 
stroke:#D8C852; stroke-width:0.050000; stroke-opacity:1; 
stroke-linecap:round; stroke-linejoin:round;">
<path d="M156.286636 53.365610
L142.286636 53.365610
" />
<path d="M142.286636 53.365610
L142.286636 67.365610
" />
<path d="M142.286636 67.365610
L156.286636 67.365610
" />
<path d="M156.286636 67.365610
L156.286636 53.365610
" />
</g>
<g style="fill:#D8C852; fill-opacity:0.0; 
stroke:#D8C852; stroke-width:0.100000; stroke-opacity:1; 
stroke-linecap:round; stroke-linejoin:round;">
<path d="M139.761635 53.126611
L120.711635 53.126611
" />
<path d="M120.711635 53.126611
L120.711635 72.176611
" />
<path d="M120.711635 72.176611
L139.761635 72.176611
" />
<path d="M139.761635 72.176611
L139.761635 53.126611
" />
</g>
<g style="fill:#D8C852; fill-opacity:0.0; 
stroke:#D8C852; stroke-width:0.050000; stroke-opacity:1; 
stroke-linecap:round; stroke-linejoin:round;">
<path d="M137.236635 55.651611
L123.236635 55.651611
" />
<path d="M123.236635 55.651611
L123.236635 69.651611
" />
<path d="M123.236635 69.651611
L137.236635 69.651611
" />
<path d="M137.236635 69.651611
L137.236635 55.651611
" />
</g>
<g style="fill:#D8C852; fill-opacity:0.0; 
stroke:#D8C852; stroke-width:0.100000; stroke-opacity:1; 
stroke-linecap:round; stroke-linejoin:round;">
<path d="M120.711635 55.603110
L101.661635 55.603110
" />
<path d="M101.661635 55.603110
L101.661635 74.653110
" />
<path d="M101.661635 74.653110
L120.711635 74.653110
" />
<path d="M120.711635 74.653110
L120.711635 55.603110
" />
</g>
<g style="fill:#D8C852; fill-opacity:0.0; 
stroke:#D8C852; stroke-width:0.050000; stroke-opacity:1; 
stroke-linecap:round; stroke-linejoin:round;">
<path d="M118.186635 58.128110
L104.186635 58.128110
" />
<path d="M104.186635 58.128110
L104.186635 72.128110
" />
<path d="M104.186635 72.128110
L118.186635 72.128110
" />
<path d="M118.186635 72.128110
L118.186635 58.128110
" />
</g>
<g style="fill:#D8C852; fill-opacity:0.0; 
stroke:#D8C852; stroke-width:0.100000; stroke-opacity:1; 
stroke-linecap:round; stroke-linejoin:round;">
<path d="M284.132982 40.939844
L265.648848 36.331232
" />
<path d="M265.648848 36.331232
L261.040236 54.815366
" />
<path d="M261.040236 54.815366
L279.524370 59.423978
" />
<path d="M279.524370 59.423978
L284.132982 40.939844
" />
</g>
<g style="fill:#D8C852; fill-opacity:0.0; 
stroke:#D8C852; stroke-width:0.050000; stroke-opacity:1; 
stroke-linecap:round; stroke-linejoin:round;">
<path d="M281.072132 42.778988
L267.487992 39.392082
" />
<path d="M267.487992 39.392082
L264.101086 52.976222
" />
<path d="M264.101086 52.976222
L277.685226 56.363128
" />
<path d="M277.685226 56.363128
L281.072132 42.778988
" />
</g>
<g style="fill:#D8C852; fill-opacity:0.0; 
stroke:#D8C852; stroke-width:0.100000; stroke-opacity:1; 
stroke-linecap:round; stroke-linejoin:round;">
<path d="M237.935070 49.054598
L219.450936 44.445986
" />
<path d="M219.450936 44.445986
L214.842324 62.930120
" />
<path d="M214.842324 62.930120
L233.326458 67.538732
" />
<path d="M233.326458 67.538732
L237.935070 49.054598
" />
</g>
<g style="fill:#D8C852; fill-opacity:0.0; 
stroke:#D8C852; stroke-width:0.050000; stroke-opacity:1; 
stroke-linecap:round; stroke-linejoin:round;">
<path d="M234.874220 50.893742
L221.290080 47.506836
" />
<path d="M221.290080 47.506836
L217.903174 61.090976
" />
<path d="M217.903174 61.090976
L231.487314 64.477882
" />
<path d="M231.487314 64.477882
L234.874220 50.893742
" />
</g>
<g style="fill:#D8C852; fill-opacity:0.0; 
stroke:#D8C852; stroke-width:0.100000; stroke-opacity:1; 
stroke-linecap:round; stroke-linejoin:round;">
<path d="M219.450934 44.445985
L200.966800 39.837373
" />
<path d="M200.966800 39.837373
L196.358188 58.321507
" />
<path d="M196.358188 58.321507
L214.842322 62.930119
" />
<path d="M214.842322 62.930119
L219.450934 44.445985
" />
</g>
<g style="fill:#D8C852; fill-opacity:0.0; 
stroke:#D8C852; stroke-width:0.050000; stroke-opacity:1; 
stroke-linecap:round; stroke-linejoin:round;">
<path d="M216.390084 46.285129
L202.805944 42.898223
" />
<path d="M202.805944 42.898223
L199.419038 56.482363
" />
<path d="M199.419038 56.482363
L213.003178 59.869269
" />
<path d="M213.003178 59.869269
L216.390084 46.285129
" />
</g>
<g style="fill:#D8C852; fill-opacity:0.0; 
stroke:#D8C852; stroke-width:0.100000; stroke-opacity:1; 
stroke-linecap:round; stroke-linejoin:round;">
<path d="M200.966800 39.837375
L182.482666 35.228763
" />
<path d="M182.482666 35.228763
L177.874054 53.712897
" />
<path d="M177.874054 53.712897
L196.358188 58.321509
" />
<path d="M196.358188 58.321509
L200.966800 39.837375
" />
</g>
<g style="fill:#D8C852; fill-opacity:0.0; 
stroke:#D8C852; stroke-width:0.050000; stroke-opacity:1; 
stroke-linecap:round; stroke-linejoin:round;">
<path d="M197.905950 41.676519
L184.321810 38.289613
" />
<path d="M184.321810 38.289613
L180.934904 51.873753
" />
<path d="M180.934904 51.873753
L194.519044 55.260659
" />
<path d="M194.519044 55.260659
L197.905950 41.676519
" />
</g>
<g style="fill:#D8C852; fill-opacity:0.0; 
stroke:#D8C852; stroke-width:0.100000; stroke-opacity:1; 
stroke-linecap:round; stroke-linejoin:round;">
<path d="M177.861635 34.076610
L158.811635 34.076610
" />
<path d="M158.811635 34.076610
L158.811635 53.126610
" />
<path d="M158.811635 53.126610
L177.861635 53.126610
" />
<path d="M177.861635 53.126610
L177.861635 34.076610
" />
</g>
<g style="fill:#D8C852; fill-opacity:0.0; 
stroke:#D8C852; stroke-width:0.050000; stroke-opacity:1; 
stroke-linecap:round; stroke-linejoin:round;">
<path d="M175.336635 36.601610
L161.336635 36.601610
" />
<path d="M161.336635 36.601610
L161.336635 50.601610
" />
<path d="M161.336635 50.601610
L175.336635 50.601610
" />
<path d="M175.336635 50.601610
L175.336635 36.601610
" />
</g>
<g style="fill:#D8C852; fill-opacity:0.0; 
stroke:#D8C852; stroke-width:0.100000; stroke-opacity:1; 
stroke-linecap:round; stroke-linejoin:round;">
<path d="M158.811634 31.790610
L139.761634 31.790610
" />
<path d="M139.761634 31.790610
L139.761634 50.840610
" />
<path d="M139.761634 50.840610
L158.811634 50.840610
" />
<path d="M158.811634 50.840610
L158.811634 31.790610
" />
</g>
<g style="fill:#D8C852; fill-opacity:0.0; 
stroke:#D8C852; stroke-width:0.050000; stroke-opacity:1; 
stroke-linecap:round; stroke-linejoin:round;">
<path d="M156.286634 34.315610
L142.286634 34.315610
" />
<path d="M142.286634 34.315610
L142.286634 48.315610
" />
<path d="M142.286634 48.315610
L156.286634 48.315610
" />
<path d="M156.286634 48.315610
L156.286634 34.315610
" />
</g>
<g style="fill:#D8C852; fill-opacity:0.0; 
stroke:#D8C852; stroke-width:0.100000; stroke-opacity:1; 
stroke-linecap:round; stroke-linejoin:round;">
<path d="M139.761637 34.076609
L120.711637 34.076609
" />
<path d="M120.711637 34.076609
L120.711637 53.126609
" />
<path d="M120.711637 53.126609
L139.761637 53.126609
" />
<path d="M139.761637 53.126609
L139.761637 34.076609
" />
</g>
<g style="fill:#D8C852; fill-opacity:0.0; 
stroke:#D8C852; stroke-width:0.050000; stroke-opacity:1; 
stroke-linecap:round; stroke-linejoin:round;">
<path d="M137.236637 36.601609
L123.236637 36.601609
" />
<path d="M123.236637 36.601609
L123.236637 50.601609
" />
<path d="M123.236637 50.601609
L137.236637 50.601609
" />
<path d="M137.236637 50.601609
L137.236637 36.601609
" />
</g>
<g style="fill:#D8C852; fill-opacity:0.0; 
stroke:#D8C852; stroke-width:0.100000; stroke-opacity:1; 
stroke-linecap:round; stroke-linejoin:round;">
<path d="M120.711635 36.553110
L101.661635 36.553110
" />
<path d="M101.661635 36.553110
L101.661635 55.603110
" />
<path d="M101.661635 55.603110
L120.711635 55.603110
" />
<path d="M120.711635 55.603110
L120.711635 36.553110
" />
</g>
<g style="fill:#D8C852; fill-opacity:0.0; 
stroke:#D8C852; stroke-width:0.050000; stroke-opacity:1; 
stroke-linecap:round; stroke-linejoin:round;">
<path d="M118.186635 39.078110
L104.186635 39.078110
" />
<path d="M104.186635 39.078110
L104.186635 53.078110
" />
<path d="M104.186635 53.078110
L118.186635 53.078110
" />
<path d="M118.186635 53.078110
L118.186635 39.078110
" />
</g>
<g style="fill:#D8C852; fill-opacity:0.0; 
stroke:#D8C852; stroke-width:0.100000; stroke-opacity:1; 
stroke-linecap:round; stroke-linejoin:round;">
<path d="M237.922648 29.418311
L219.438514 24.809699
" />
<path d="M219.438514 24.809699
L214.829902 43.293833
" />
<path d="M214.829902 43.293833
L233.314036 47.902445
" />
<path d="M233.314036 47.902445
L237.922648 29.418311
" />
</g>
<g style="fill:#D8C852; fill-opacity:0.0; 
stroke:#D8C852; stroke-width:0.050000; stroke-opacity:1; 
stroke-linecap:round; stroke-linejoin:round;">
<path d="M234.861798 31.257455
L221.277658 27.870549
" />
<path d="M221.277658 27.870549
L217.890752 41.454689
" />
<path d="M217.890752 41.454689
L231.474892 44.841595
" />
<path d="M231.474892 44.841595
L234.861798 31.257455
" />
</g>
<g style="fill:#D8C852; fill-opacity:0.0; 
stroke:#D8C852; stroke-width:0.100000; stroke-opacity:1; 
stroke-linecap:round; stroke-linejoin:round;">
<path d="M219.438515 24.809701
L200.954381 20.201089
" />
<path d="M200.954381 20.201089
L196.345769 38.685223
" />
<path d="M196.345769 38.685223
L214.829903 43.293835
" />
<path d="M214.829903 43.293835
L219.438515 24.809701
" />
</g>
<g style="fill:#D8C852; fill-opacity:0.0; 
stroke:#D8C852; stroke-width:0.050000; stroke-opacity:1; 
stroke-linecap:round; stroke-linejoin:round;">
<path d="M216.377665 26.648845
L202.793525 23.261939
" />
<path d="M202.793525 23.261939
L199.406619 36.846079
" />
<path d="M199.406619 36.846079
L212.990759 40.232985
" />
<path d="M212.990759 40.232985
L216.377665 26.648845
" />
</g>
<g style="fill:#D8C852; fill-opacity:0.0; 
stroke:#D8C852; stroke-width:0.100000; stroke-opacity:1; 
stroke-linecap:round; stroke-linejoin:round;">
<path d="M200.954379 20.201088
L182.470245 15.592476
" />
<path d="M182.470245 15.592476
L177.861633 34.076610
" />
<path d="M177.861633 34.076610
L196.345767 38.685222
" />
<path d="M196.345767 38.685222
L200.954379 20.201088
" />
</g>
<g style="fill:#D8C852; fill-opacity:0.0; 
stroke:#D8C852; stroke-width:0.050000; stroke-opacity:1; 
stroke-linecap:round; stroke-linejoin:round;">
<path d="M197.893529 22.040232
L184.309389 18.653326
" />
<path d="M184.309389 18.653326
L180.922483 32.237466
" />
<path d="M180.922483 32.237466
L194.506623 35.624372
" />
<path d="M194.506623 35.624372
L197.893529 22.040232
" />
</g>
<g style="fill:#D8C852; fill-opacity:0.0; 
stroke:#D8C852; stroke-width:0.100000; stroke-opacity:1; 
stroke-linecap:round; stroke-linejoin:round;">
<path d="M177.861635 15.026611
L158.811635 15.026611
" />
<path d="M158.811635 15.026611
L158.811635 34.076611
" />
<path d="M158.811635 34.076611
L177.861635 34.076611
" />
<path d="M177.861635 34.076611
L177.861635 15.026611
" />
</g>
<g style="fill:#D8C852; fill-opacity:0.0; 
stroke:#D8C852; stroke-width:0.050000; stroke-opacity:1; 
stroke-linecap:round; stroke-linejoin:round;">
<path d="M175.336635 17.551611
L161.336635 17.551611
" />
<path d="M161.336635 17.551611
L161.336635 31.551611
" />
<path d="M161.336635 31.551611
L175.336635 31.551611
" />
<path d="M175.336635 31.551611
L175.336635 17.551611
" />
</g>
<g style="fill:#D8C852; fill-opacity:0.0; 
stroke:#D8C852; stroke-width:0.100000; stroke-opacity:1; 
stroke-linecap:round; stroke-linejoin:round;">
<path d="M158.811635 12.740610
L139.761635 12.740610
" />
<path d="M139.761635 12.740610
L139.761635 31.790610
" />
<path d="M139.761635 31.790610
L158.811635 31.790610
" />
<path d="M158.811635 31.790610
L158.811635 12.740610
" />
</g>
<g style="fill:#D8C852; fill-opacity:0.0; 
stroke:#D8C852; stroke-width:0.050000; stroke-opacity:1; 
stroke-linecap:round; stroke-linejoin:round;">
<path d="M156.286635 15.265610
L142.286635 15.265610
" />
<path d="M142.286635 15.265610
L142.286635 29.265610
" />
<path d="M142.286635 29.265610
L156.286635 29.265610
" />
<path d="M156.286635 29.265610
L156.286635 15.265610
" />
</g>
<g style="fill:#D8C852; fill-opacity:0.0; 
stroke:#D8C852; stroke-width:0.100000; stroke-opacity:1; 
stroke-linecap:round; stroke-linejoin:round;">
<path d="M139.761636 15.026609
L120.711636 15.026609
" />
<path d="M120.711636 15.026609
L120.711636 34.076609
" />
<path d="M120.711636 34.076609
L139.761636 34.076609
" />
<path d="M139.761636 34.076609
L139.761636 15.026609
" />
</g>
<g style="fill:#D8C852; fill-opacity:0.0; 
stroke:#D8C852; stroke-width:0.050000; stroke-opacity:1; 
stroke-linecap:round; stroke-linejoin:round;">
<path d="M137.236636 17.551609
L123.236636 17.551609
" />
<path d="M123.236636 17.551609
L123.236636 31.551609
" />
<path d="M123.236636 31.551609
L137.236636 31.551609
" />
<path d="M137.236636 31.551609
L137.236636 17.551609
" />
</g>
<g style="fill:#D8C852; fill-opacity:0.0; 
stroke:#D8C852; stroke-width:0.100000; stroke-opacity:1; 
stroke-linecap:round; stroke-linejoin:round;">
<path d="M120.711635 17.503111
L101.661635 17.503111
" />
<path d="M101.661635 17.503111
L101.661635 36.553111
" />
<path d="M101.661635 36.553111
L120.711635 36.553111
" />
<path d="M120.711635 36.553111
L120.711635 17.503111
" />
</g>
<g style="fill:#D8C852; fill-opacity:0.0; 
stroke:#D8C852; stroke-width:0.050000; stroke-opacity:1; 
stroke-linecap:round; stroke-linejoin:round;">
<path d="M118.186635 20.028111
L104.186635 20.028111
" />
<path d="M104.186635 20.028111
L104.186635 34.028111
" />
<path d="M104.186635 34.028111
L118.186635 34.028111
" />
<path d="M118.186635 34.028111
L118.186635 20.028111
" />
<path d="M204.753805 102.798756
L201.608821 115.412600
" />
<path d="M201.002712 115.776787
L188.388868 112.631803
" />
<path d="M191.775774 99.047663
L204.389618 102.192647
" />
<path d="M188.024681 112.025694
L191.169665 99.411850
" />
</g>
<g style="fill:#D8C852; fill-opacity:0.0; 
stroke:#D8C852; stroke-width:0.100000; stroke-opacity:1; 
stroke-linecap:round; stroke-linejoin:round;">
<path d="M210.246133 101.050541
L187.140966 95.289776
" />
<path d="M187.140966 95.289776
L182.532353 113.773909
" />
<path d="M182.532353 113.773909
L205.637520 119.534674
" />
<path d="M205.637520 119.534674
L210.246133 101.050541
" />
</g>
<g style="fill:#D8C852; fill-opacity:0.0; 
stroke:#D8C852; stroke-width:0.050000; stroke-opacity:1; 
stroke-linecap:round; stroke-linejoin:round;">
<path d="M204.753804 102.798755 A0.500001 0.500001 0.0 0 0 204.389617 102.192646" />
<path d="M201.000300 115.775035 A0.500001 0.500001 0.0 0 0 201.606409 115.410848" />
<path d="M191.775773 99.047663 A0.500000 0.500000 0.0 0 0 191.169664 99.411850" />
<path d="M188.024681 112.025694 A0.500000 0.500000 0.0 0 0 188.388868 112.631803" />
<path d="M168.192886 94.251609
L168.192886 107.251609
" />
<path d="M167.692886 107.751609
L154.692886 107.751609
" />
<path d="M154.692886 93.751609
L167.692886 93.751609
" />
<path d="M154.192886 107.251609
L154.192886 94.251609
" />
</g>
<g style="fill:#D8C852; fill-opacity:0.0; 
stroke:#D8C852; stroke-width:0.100000; stroke-opacity:1; 
stroke-linecap:round; stroke-linejoin:round;">
<path d="M173.099136 91.226609
L149.286636 91.226609
" />
<path d="M149.286636 91.226609
L149.286636 110.276609
" />
<path d="M149.286636 110.276609
L173.099136 110.276609
" />
<path d="M173.099136 110.276609
L173.099136 91.226609
" />
</g>
<g style="fill:#D8C852; fill-opacity:0.0; 
stroke:#D8C852; stroke-width:0.050000; stroke-opacity:1; 
stroke-linecap:round; stroke-linejoin:round;">
<path d="M168.192886 94.251609 A0.500001 0.500001 0.0 0 0 167.692886 93.751609" />
<path d="M167.690122 107.750493 A0.500001 0.500001 0.0 0 0 168.190122 107.250493" />
<path d="M154.692886 93.751609 A0.500000 0.500000 0.0 0 0 154.192886 94.251609" />
<path d="M154.192886 107.251609 A0.500000 0.500000 0.0 0 0 154.692886 107.751609" />
<path d="M144.380384 94.251611
L144.380384 107.251611
" />
<path d="M143.880384 107.751611
L130.880384 107.751611
" />
<path d="M130.880384 93.751611
L143.880384 93.751611
" />
<path d="M130.380384 107.251611
L130.380384 94.251611
" />
</g>
<g style="fill:#D8C852; fill-opacity:0.0; 
stroke:#D8C852; stroke-width:0.100000; stroke-opacity:1; 
stroke-linecap:round; stroke-linejoin:round;">
<path d="M149.286634 91.226611
L125.474134 91.226611
" />
<path d="M125.474134 91.226611
L125.474134 110.276611
" />
<path d="M125.474134 110.276611
L149.286634 110.276611
" />
<path d="M149.286634 110.276611
L149.286634 91.226611
" />
</g>
<g style="fill:#D8C852; fill-opacity:0.0; 
stroke:#D8C852; stroke-width:0.050000; stroke-opacity:1; 
stroke-linecap:round; stroke-linejoin:round;">
<path d="M144.380384 94.251611 A0.500001 0.500001 0.0 0 0 143.880384 93.751611" />
<path d="M143.877620 107.750495 A0.500001 0.500001 0.0 0 0 144.377620 107.250495" />
<path d="M130.880384 93.751611 A0.500000 0.500000 0.0 0 0 130.380384 94.251611" />
<path d="M130.380384 107.251611 A0.500000 0.500000 0.0 0 0 130.880384 107.751611" />
<path d="M257.858425 57.139655
L254.713441 69.753499
" />
<path d="M254.107332 70.117686
L241.493488 66.972702
" />
<path d="M244.880394 53.388562
L257.494238 56.533546
" />
<path d="M241.129301 66.366593
L244.274285 53.752749
" />
</g>
<g style="fill:#D8C852; fill-opacity:0.0; 
stroke:#D8C852; stroke-width:0.100000; stroke-opacity:1; 
stroke-linecap:round; stroke-linejoin:round;">
<path d="M265.661269 55.967516
L237.935069 49.054598
" />
<path d="M237.935069 49.054598
L233.326457 67.538732
" />
<path d="M233.326457 67.538732
L261.052657 74.451650
" />
<path d="M261.052657 74.451650
L265.661269 55.967516
" />
</g>
<g style="fill:#D8C852; fill-opacity:0.0; 
stroke:#D8C852; stroke-width:0.050000; stroke-opacity:1; 
stroke-linecap:round; stroke-linejoin:round;">
<path d="M257.858424 57.139654 A0.500001 0.500001 0.0 0 0 257.494237 56.533545" />
<path d="M254.104920 70.115934 A0.500001 0.500001 0.0 0 0 254.711029 69.751747" />
<path d="M244.880393 53.388562 A0.500000 0.500000 0.0 0 0 244.274284 53.752749" />
<path d="M241.129301 66.366593 A0.500000 0.500000 0.0 0 0 241.493488 66.972702" />
<path d="M246.318263 73.895560
L243.173279 86.509404
" />
<path d="M242.567170 86.873591
L229.953326 83.728607
" />
<path d="M233.340232 70.144467
L245.954076 73.289451
" />
<path d="M229.589139 83.122498
L232.734123 70.508654
" />
</g>
<g style="fill:#D8C852; fill-opacity:0.0; 
stroke:#D8C852; stroke-width:0.100000; stroke-opacity:1; 
stroke-linecap:round; stroke-linejoin:round;">
<path d="M251.810591 72.147345
L228.705424 66.386580
" />
<path d="M228.705424 66.386580
L224.096811 84.870713
" />
<path d="M224.096811 84.870713
L247.201978 90.631478
" />
<path d="M247.201978 90.631478
L251.810591 72.147345
" />
</g>
<g style="fill:#D8C852; fill-opacity:0.0; 
stroke:#D8C852; stroke-width:0.050000; stroke-opacity:1; 
stroke-linecap:round; stroke-linejoin:round;">
<path d="M246.318262 73.895559 A0.500001 0.500001 0.0 0 0 245.954075 73.289450" />
<path d="M242.564758 86.871839 A0.500001 0.500001 0.0 0 0 243.170867 86.507652" />
<path d="M233.340231 70.144467 A0.500000 0.500000 0.0 0 0 232.734122 70.508654" />
<path d="M229.589139 83.122498 A0.500000 0.500000 0.0 0 0 229.953326 83.728607" />
<path d="M257.846003 37.503370
L254.701019 50.117214
" />
<path d="M254.094910 50.481401
L241.481066 47.336417
" />
<path d="M244.867972 33.752277
L257.481816 36.897261
" />
<path d="M241.116879 46.730308
L244.261863 34.116464
" />
</g>
<g style="fill:#D8C852; fill-opacity:0.0; 
stroke:#D8C852; stroke-width:0.100000; stroke-opacity:1; 
stroke-linecap:round; stroke-linejoin:round;">
<path d="M265.648847 36.331231
L237.922647 29.418313
" />
<path d="M237.922647 29.418313
L233.314035 47.902447
" />
<path d="M233.314035 47.902447
L261.040235 54.815365
" />
<path d="M261.040235 54.815365
L265.648847 36.331231
" />
</g>
<g style="fill:#D8C852; fill-opacity:0.0; 
stroke:#D8C852; stroke-width:0.050000; stroke-opacity:1; 
stroke-linecap:round; stroke-linejoin:round;">
<path d="M257.846002 37.503369 A0.500001 0.500001 0.0 0 0 257.481815 36.897260" />
<path d="M254.092498 50.479649 A0.500001 0.500001 0.0 0 0 254.698607 50.115462" />
<path d="M244.867971 33.752277 A0.500000 0.500000 0.0 0 0 244.261862 34.116464" />
<path d="M241.116879 46.730308 A0.500000 0.500000 0.0 0 0 241.481066 47.336417" />
</g>
<g style="fill:#D8C852; fill-opacity:0.0; 
stroke:#D8C852; stroke-width:0.100000; stroke-opacity:1; 
stroke-linecap:round; stroke-linejoin:round;">
<path d="M86.696635 16.703111
L93.796635 16.703111
" />
<path d="M93.796635 16.703111
L93.796635 23.203111
" />
<path d="M93.796635 23.203111
L86.696635 23.203111
" />
<path d="M86.696635 23.203111
L86.696635 16.703111
" />
</g>
<g style="fill:#D8C852; fill-opacity:0.0; 
stroke:#D8C852; stroke-width:0.200000; stroke-opacity:1; 
stroke-linecap:round; stroke-linejoin:round;">
<path d="M99.136635 17.503111
L81.356635 17.503111
" />
<path d="M81.356635 17.503111
L81.356635 50.523111
" />
<path d="M81.356635 50.523111
L99.136635 50.523111
" />
<path d="M99.136635 50.523111
L99.136635 17.503111
" />
</g>
<g style="fill:#D8C852; fill-opacity:0.0; 
stroke:#D8C852; stroke-width:0.050000; stroke-opacity:1; 
stroke-linecap:round; stroke-linejoin:round;">
<path d="M224.456940 69.475535
L221.311955 82.089379
" />
<path d="M225.063048 69.111348
L230.642249 70.502398
" />
<path d="M221.676142 82.695488
L227.255342 84.086539
" />
<path d="M231.006436 71.108507
L227.861451 83.722352
" />
<path d="M247.562107 75.236300
L244.417122 87.850144
" />
<path d="M248.168215 74.872113
L253.746241 76.262871
" />
<path d="M244.781309 88.456253
L250.360509 89.847304
" />
<path d="M254.110428 76.868979
L250.966618 89.483117
" />
<path d="M225.063048 69.111347 A0.500001 0.500001 0.0 0 0 224.456940 69.475534" />
<path d="M221.311955 82.089379 A0.500001 0.500001 0.0 0 0 221.676142 82.695488" />
<path d="M231.006435 71.108506 A0.500001 0.500001 0.0 0 0 230.642248 70.502397" />
<path d="M227.255341 84.086539 A0.500001 0.500001 0.0 0 0 227.861450 83.722352" />
<path d="M248.168215 74.872113 A0.500024 0.500024 0.0 0 0 247.562107 75.236300" />
<path d="M244.417122 87.850144 A0.500026 0.500026 0.0 0 0 244.781309 88.456253" />
<path d="M254.110427 76.868978 A0.500019 0.500019 0.0 0 0 253.746240 76.262870" />
<path d="M250.360508 89.847304 A0.500026 0.500026 0.0 0 0 250.966617 89.483117" />
<path d="M119.324136 108.728110
L119.324136 95.728110
" />
<path d="M118.824136 109.228110
L113.074136 109.228110
" />
<path d="M118.824136 95.228110
L113.074136 95.228110
" />
<path d="M112.574136 108.728110
L112.574136 95.728110
" />
<path d="M95.511636 108.728110
L95.511636 95.728110
" />
<path d="M95.011636 109.228110
L89.262847 109.228110
" />
<path d="M95.011636 95.228110
L89.261636 95.228110
" />
<path d="M88.762847 108.728110
L88.761636 95.728110
" />
<path d="M118.824136 109.228110 A0.500001 0.500001 0.0 0 0 119.324136 108.728110" />
<path d="M119.324136 95.728110 A0.500001 0.500001 0.0 0 0 118.824136 95.228110" />
<path d="M112.574136 108.728110 A0.500001 0.500001 0.0 0 0 113.074136 109.228110" />
<path d="M113.074136 95.228110 A0.500001 0.500001 0.0 0 0 112.574136 95.728110" />
<path d="M95.011635 109.228109 A0.500025 0.500025 0.0 0 0 95.511635 108.728109" />
<path d="M95.511635 95.728109 A0.500026 0.500026 0.0 0 0 95.011635 95.228109" />
<path d="M88.762847 108.728110 A0.500019 0.500019 0.0 0 0 89.262847 109.228110" />
<path d="M89.261635 95.228109 A0.500026 0.500026 0.0 0 0 88.761635 95.728109" />
<g >
</g>
<g >
</g>
<g >
</g>
<g >
</g>
<g >
</g>
<g >
</g>
<g >
</g>
<g >
</g>
<g >
</g>
<g >
</g>
<g >
</g>
<g >
</g>
<g >
</g>
<g >
</g>
<g >
</g>
<g >
</g>
<g >
</g>
<g >
</g>
<g >
</g>
<g >
</g>
<g >
</g>
<g >
</g>
<g >
</g>
<g >
</g>
<g >
</g>
<g >
</g>
<g >
</g>
<g >
</g>
<g >
</g>
<g >
</g>
<g >
</g>
<g >
</g>
<g >
</g>
<g >
</g>
<g >
</g>
<g >
</g>
<g >
</g>
<g >
</g>
<g >
</g>
<g >
</g>
<g >
</g>
<g >
</g>
<g >
</g>
<g >
</g>
<g >
</g>
<g >
</g>
<g >
</g>
<g >
</g>
<g >
</g>
<g >
</g>
<g >
</g>
<g >
</g>
<g >
</g>
<g >
</g>
<g >
</g>
<g >
</g>
<g >
</g>
<g >
</g>
<g >
</g>
<g >
</g>
<g >
</g>
<g >
</g>
<g >
</g>
<g >
</g>
<g >
</g>
<g >
</g>
<g >
</g>
<g >
</g>
<g >
</g>
<g >
</g>
<g >
</g>
<g >
</g>
<g >
</g>
<g >
</g>
<g >
</g>
<g >
</g>
<g >
</g>
<g >
</g>
<g >
</g>
<g >
</g>
<g >
</g>
<g style="fill:#D8C852; fill-opacity:0.0; 
stroke:#D8C852; stroke-width:0.050000; stroke-opacity:1; 
stroke-linecap:round; stroke-linejoin:round;">
</g>
<g style="fill:#D8C852; fill-opacity:1.000000; 
stroke:#D8C852; stroke-width:0.000000; stroke-opacity:1; 
stroke-linecap:round; stroke-linejoin:round;">
<circle cx="23.861635" cy="19.303111" r="1.100000" /> 
</g>
<g style="fill:#D8C852; fill-opacity:1.000000; 
stroke:#D8C852; stroke-width:0.021200; stroke-opacity:1; 
stroke-linecap:round; stroke-linejoin:round;">
</g>
<g >
</g>
<g style="fill:#D8C852; fill-opacity:1.000000; 
stroke:#D8C852; stroke-width:0.021200; stroke-opacity:1; 
stroke-linecap:round; stroke-linejoin:round;">
</g>
<g style="fill:#D8C852; fill-opacity:1.000000; 
stroke:#D8C852; stroke-width:0.000000; stroke-opacity:1; 
stroke-linecap:round; stroke-linejoin:round;">
<circle cx="23.861635" cy="16.103111" r="1.100000" /> 
</g>
<g style="fill:#D8C852; fill-opacity:1.000000; 
stroke:#D8C852; stroke-width:0.021200; stroke-opacity:1; 
stroke-linecap:round; stroke-linejoin:round;">
</g>
<g >
</g>
<g >
</g>
<g >
</g>
<g style="fill:#D8C852; fill-opacity:1.000000; 
stroke:#D8C852; stroke-width:0.021200; stroke-opacity:1; 
stroke-linecap:round; stroke-linejoin:round;">
</g>
<g style="fill:#D8C852; fill-opacity:1.000000; 
stroke:#D8C852; stroke-width:0.000000; stroke-opacity:1; 
stroke-linecap:round; stroke-linejoin:round;">
<circle cx="104.042886" cy="36.553109" r="1.100000" /> 
</g>
<g style="fill:#D8C852; fill-opacity:1.000000; 
stroke:#D8C852; stroke-width:0.021200; stroke-opacity:1; 
stroke-linecap:round; stroke-linejoin:round;">
</g>
<g >
</g>
<g >
</g>
<g >
</g>
<g style="fill:#D8C852; fill-opacity:1.000000; 
stroke:#D8C852; stroke-width:0.021200; stroke-opacity:1; 
stroke-linecap:round; stroke-linejoin:round;">
</g>
<g style="fill:#D8C852; fill-opacity:1.000000; 
stroke:#D8C852; stroke-width:0.000000; stroke-opacity:1; 
stroke-linecap:round; stroke-linejoin:round;">
<circle cx="23.861635" cy="22.503111" r="1.100000" /> 
</g>
<g style="fill:#D8C852; fill-opacity:1.000000; 
stroke:#D8C852; stroke-width:0.021200; stroke-opacity:1; 
stroke-linecap:round; stroke-linejoin:round;">
</g>
<g >
</g>
<g style="fill:#D8C852; fill-opacity:1.000000; 
stroke:#D8C852; stroke-width:0.021200; stroke-opacity:1; 
stroke-linecap:round; stroke-linejoin:round;">
</g>
<g style="fill:#D8C852; fill-opacity:1.000000; 
stroke:#D8C852; stroke-width:0.000000; stroke-opacity:1; 
stroke-linecap:round; stroke-linejoin:round;">
<circle cx="23.861635" cy="25.703111" r="1.100000" /> 
</g>
<g style="fill:#D8C852; fill-opacity:1.000000; 
stroke:#D8C852; stroke-width:0.021200; stroke-opacity:1; 
stroke-linecap:round; stroke-linejoin:round;">
</g>
<g >
</g>
<g >
</g>
<g >
</g>
<g >
</g>
<g >
</g>
<g >
</g>
<g >
</g>
<g >
</g>
<g >
</g>
<g >
</g>
<g >
</g>
<g >
</g>
<g >
</g>
<g >
</g>
<g >
</g>
<g >
</g>
<g >
</g>
<g >
</g>
<g >
</g>
<g >
</g>
<g >
</g>
<g >
</g>
<g >
</g>
<g >
</g>
<g >
</g>
<g >
</g>
<g >
</g>
<g >
</g>
<g >
</g>
<g >
</g>
<g >
</g>
<g >
</g>
<g >
</g>
<g >
</g>
<g >
</g>
<g >
</g>
<g >
</g>
<g >
</g>
<g >
</g>
<g >
</g>
<g >
</g>
<g >
</g>
<g >
</g>
<g >
</g>
<g >
</g>
<g >
</g>
<g >
</g>
<g >
</g>
<g >
</g>
<g >
</g>
<g >
</g>
<g >
</g>
<g >
</g>
<g >
</g>
<g >
</g>
<g >
</g>
<g >
</g>
<g >
</g>
<g >
</g>
<g >
</g>
<g >
</g>
<g >
</g>
<g >
</g>
<g >
</g>
<g >
</g>
<g >
</g>
<g >
</g>
<g >
</g>
<g >
</g>
<g >
</g>
<g >
</g>
<g >
</g>
<g >
</g>
<g >
</g>
<g >
</g>
<g >
</g>
<g >
</g>
<g >
</g>
<g >
</g>
<g >
</g>
<g >
</g>
<g >
</g>
<g >
</g>
<g >
</g>
<g >
</g>
<g >
</g>
</g>
<g style="fill:#000000; fill-opacity:1.000000; 
stroke:#000000; stroke-width:0.021200; stroke-opacity:1; 
stroke-linecap:round; stroke-linejoin:round;">
</g>
<g style="fill:#F2EDA1; fill-opacity:1.000000; 
stroke:#F2EDA1; stroke-width:0.021200; stroke-opacity:1; 
stroke-linecap:round; stroke-linejoin:round;">
</g>
<g style="fill:#F2EDA1; fill-opacity:1.000000; 
stroke:#F2EDA1; stroke-width:0.150000; stroke-opacity:1; 
stroke-linecap:round; stroke-linejoin:round;">
</g>
<g style="fill:#F2EDA1; fill-opacity:0.0; 
stroke:#F2EDA1; stroke-width:0.150000; stroke-opacity:1; 
stroke-linecap:round; stroke-linejoin:round;">
<text x="90.246635" y="19.083111"
textLength="3.250000" font-size="1.333333" lengthAdjust="spacingAndGlyphs"
text-anchor="middle" opacity="0">USB</text>
<g class="stroked-text"><desc>USB</desc>
<path d="M88.984730 17.952930
L88.984730 18.762453
" />
<path d="M88.984730 18.762453
L89.032349 18.857691
" />
<path d="M89.032349 18.857691
L89.079968 18.905311
" />
<path d="M89.079968 18.905311
L89.175206 18.952930
" />
<path d="M89.175206 18.952930
L89.365682 18.952930
" />
<path d="M89.365682 18.952930
L89.460920 18.905311
" />
<path d="M89.460920 18.905311
L89.508539 18.857691
" />
<path d="M89.508539 18.857691
L89.556158 18.762453
" />
<path d="M89.556158 18.762453
L89.556158 17.952930
" />
<path d="M89.984730 18.905311
L90.127587 18.952930
" />
<path d="M90.127587 18.952930
L90.365682 18.952930
" />
<path d="M90.365682 18.952930
L90.460920 18.905311
" />
<path d="M90.460920 18.905311
L90.508539 18.857691
" />
<path d="M90.508539 18.857691
L90.556158 18.762453
" />
<path d="M90.556158 18.762453
L90.556158 18.667215
" />
<path d="M90.556158 18.667215
L90.508539 18.571977
" />
<path d="M90.508539 18.571977
L90.460920 18.524358
" />
<path d="M90.460920 18.524358
L90.365682 18.476739
" />
<path d="M90.365682 18.476739
L90.175206 18.429120
" />
<path d="M90.175206 18.429120
L90.079968 18.381501
" />
<path d="M90.079968 18.381501
L90.032349 18.333882
" />
<path d="M90.032349 18.333882
L89.984730 18.238644
" />
<path d="M89.984730 18.238644
L89.984730 18.143406
" />
<path d="M89.984730 18.143406
L90.032349 18.048168
" />
<path d="M90.032349 18.048168
L90.079968 18.000549
" />
<path d="M90.079968 18.000549
L90.175206 17.952930
" />
<path d="M90.175206 17.952930
L90.413301 17.952930
" />
<path d="M90.413301 17.952930
L90.556158 18.000549
" />
<path d="M91.318063 18.429120
L91.460920 18.476739
" />
<path d="M91.460920 18.476739
L91.508539 18.524358
" />
<path d="M91.508539 18.524358
L91.556158 18.619596
" />
<path d="M91.556158 18.619596
L91.556158 18.762453
" />
<path d="M91.556158 18.762453
L91.508539 18.857691
" />
<path d="M91.508539 18.857691
L91.460920 18.905311
" />
<path d="M91.460920 18.905311
L91.365682 18.952930
" />
<path d="M91.365682 18.952930
L90.984730 18.952930
" />
<path d="M90.984730 18.952930
L90.984730 17.952930
" />
<path d="M90.984730 17.952930
L91.318063 17.952930
" />
<path d="M91.318063 17.952930
L91.413301 18.000549
" />
<path d="M91.413301 18.000549
L91.460920 18.048168
" />
<path d="M91.460920 18.048168
L91.508539 18.143406
" />
<path d="M91.508539 18.143406
L91.508539 18.238644
" />
<path d="M91.508539 18.238644
L91.460920 18.333882
" />
<path d="M91.460920 18.333882
L91.413301 18.381501
" />
<path d="M91.413301 18.381501
L91.318063 18.429120
" />
<path d="M91.318063 18.429120
L90.984730 18.429120
" />
</g><text x="90.246635" y="20.483111"
textLength="4.107143" font-size="1.333333" lengthAdjust="spacingAndGlyphs"
text-anchor="middle" opacity="0">Down</text>
<g class="stroked-text"><desc>Down</desc>
<path d="M88.556159 20.352930
L88.556159 19.352930
" />
<path d="M88.556159 19.352930
L88.794254 19.352930
" />
<path d="M88.794254 19.352930
L88.937111 19.400549
" />
<path d="M88.937111 19.400549
L89.032349 19.495787
" />
<path d="M89.032349 19.495787
L89.079968 19.591025
" />
<path d="M89.079968 19.591025
L89.127587 19.781501
" />
<path d="M89.127587 19.781501
L89.127587 19.924358
" />
<path d="M89.127587 19.924358
L89.079968 20.114834
" />
<path d="M89.079968 20.114834
L89.032349 20.210072
" />
<path d="M89.032349 20.210072
L88.937111 20.305311
" />
<path d="M88.937111 20.305311
L88.794254 20.352930
" />
<path d="M88.794254 20.352930
L88.556159 20.352930
" />
<path d="M89.699016 20.352930
L89.603778 20.305311
" />
<path d="M89.603778 20.305311
L89.556159 20.257691
" />
<path d="M89.556159 20.257691
L89.508540 20.162453
" />
<path d="M89.508540 20.162453
L89.508540 19.876739
" />
<path d="M89.508540 19.876739
L89.556159 19.781501
" />
<path d="M89.556159 19.781501
L89.603778 19.733882
" />
<path d="M89.603778 19.733882
L89.699016 19.686263
" />
<path d="M89.699016 19.686263
L89.841873 19.686263
" />
<path d="M89.841873 19.686263
L89.937111 19.733882
" />
<path d="M89.937111 19.733882
L89.984730 19.781501
" />
<path d="M89.984730 19.781501
L90.032349 19.876739
" />
<path d="M90.032349 19.876739
L90.032349 20.162453
" />
<path d="M90.032349 20.162453
L89.984730 20.257691
" />
<path d="M89.984730 20.257691
L89.937111 20.305311
" />
<path d="M89.937111 20.305311
L89.841873 20.352930
" />
<path d="M89.841873 20.352930
L89.699016 20.352930
" />
<path d="M90.365683 19.686263
L90.556159 20.352930
" />
<path d="M90.556159 20.352930
L90.746635 19.876739
" />
<path d="M90.746635 19.876739
L90.937111 20.352930
" />
<path d="M90.937111 20.352930
L91.127587 19.686263
" />
<path d="M91.508540 19.686263
L91.508540 20.352930
" />
<path d="M91.508540 19.781501
L91.556159 19.733882
" />
<path d="M91.556159 19.733882
L91.651397 19.686263
" />
<path d="M91.651397 19.686263
L91.794254 19.686263
" />
<path d="M91.794254 19.686263
L91.889492 19.733882
" />
<path d="M91.889492 19.733882
L91.937111 19.829120
" />
<path d="M91.937111 19.829120
L91.937111 20.352930
" />
</g><path d="M86.696635 23.173111
L86.696635 17.503111
" />
<path d="M93.796635 23.173111
L86.696635 23.173111
" />
<path d="M93.796635 23.173111
L93.796635 17.503111
" />
<path d="M81.356635 17.503111
L99.136635 17.503111
" />
<path d="M99.136635 17.503111
L99.136635 50.523111
" />
<path d="M99.136635 50.523111
L81.356635 50.523111
" />
<path d="M81.356635 50.523111
L81.356635 17.503111
" />
</g>
<g style="fill:#F2EDA1; fill-opacity:0.0; 
stroke:#F2EDA1; stroke-width:0.120000; stroke-opacity:1; 
stroke-linecap:round; stroke-linejoin:round;">
<path d="M97.121634 53.635175
L97.121634 53.181047
" />
<path d="M98.591634 53.635175
L98.591634 53.181047
" />
<path d="M77.452885 45.402611
L74.152885 45.402611
" />
<path d="M77.452885 45.102611
L77.452885 45.402611
" />
<path d="M77.452885 42.902611
L77.452885 42.602611
" />
<path d="M77.452885 42.602611
L74.152885 42.602611
" />
<path d="M74.152885 45.402611
L74.152885 45.102611
" />
<path d="M74.152885 42.602611
L74.152885 42.902611
" />
<path d="M95.386635 56.279362
L95.386635 57.609362
" />
<path d="M94.056635 56.279362
L95.386635 56.279362
" />
<path d="M92.786635 56.279362
L85.106635 56.279362
" />
<path d="M92.786635 56.279362
L92.786635 58.939362
" />
<path d="M85.106635 56.279362
L85.106635 58.939362
" />
<path d="M92.786635 58.939362
L85.106635 58.939362
" />
</g>
<g style="fill:#F2EDA1; fill-opacity:0.0; 
stroke:#F2EDA1; stroke-width:0.150000; stroke-opacity:1; 
stroke-linecap:round; stroke-linejoin:round;">
<path d="M72.731635 19.503111
L72.731635 31.603111
" />
<path d="M72.981635 19.503111
L72.981635 17.503111
" />
<path d="M78.581635 17.503111
L72.981635 17.503111
" />
<path d="M78.581635 19.503111
L78.581635 17.503111
" />
<path d="M78.831635 19.503111
L72.731635 19.503111
" />
<path d="M78.831635 19.503111
L78.831635 31.603111
" />
<path d="M78.831635 31.603111
L72.731635 31.603111
" />
</g>
<g style="fill:#F2EDA1; fill-opacity:0.0; 
stroke:#F2EDA1; stroke-width:0.120000; stroke-opacity:1; 
stroke-linecap:round; stroke-linejoin:round;">
<path d="M73.236124 37.447199
L75.286734 35.396589
" />
<path d="M73.667459 37.878534
L73.236124 37.447199
" />
<path d="M76.927222 38.168448
L76.361536 38.734133
" />
<path d="M76.927222 38.168448
L77.492907 37.602762
" />
<g >
</g>
<g >
</g>
<g >
</g>
<g >
</g>
<g >
</g>
<g >
</g>
<g >
</g>
<g >
</g>
<g >
</g>
<g >
</g>
<g >
</g>
<g >
</g>
<g >
</g>
<g >
</g>
<g >
</g>
<g >
</g>
<g >
</g>
<g >
</g>
<g >
</g>
<g >
</g>
<g >
</g>
<g >
</g>
<g >
</g>
<g >
</g>
<g >
</g>
<g >
</g>
<g >
</g>
<g >
</g>
<g >
</g>
<g >
</g>
<g >
</g>
<g >
</g>
<g >
</g>
<g >
</g>
<g >
</g>
<g >
</g>
<g >
</g>
<g >
</g>
<g >
</g>
<g >
</g>
<g >
</g>
<g >
</g>
<g >
</g>
<g >
</g>
<g >
</g>
<g >
</g>
<g >
</g>
<g >
</g>
<g >
</g>
<g >
</g>
<g >
</g>
<g >
</g>
<g >
</g>
<g >
</g>
<g >
</g>
<g >
</g>
<g >
</g>
<g >
</g>
<g >
</g>
<g >
</g>
<g >
</g>
<g >
</g>
<g >
</g>
<g >
</g>
<g >
</g>
<g >
</g>
<g >
</g>
<g >
</g>
<g >
</g>
<g >
</g>
<g >
</g>
<g >
</g>
<g >
</g>
<g >
</g>
<g >
</g>
<g >
</g>
<g >
</g>
<g >
</g>
<g >
</g>
<g >
</g>
<g >
</g>
<g >
</g>
<g >
</g>
<g >
</g>
<g >
</g>
<g >
</g>
<g >
</g>
<g >
</g>
<g >
</g>
<g >
</g>
<g >
</g>
<g >
</g>
<g >
</g>
<g >
</g>
<g >
</g>
<g >
</g>
<g >
</g>
<g >
</g>
<g >
</g>
<g >
</g>
<g >
</g>
<g >
</g>
<g >
</g>
<g >
</g>
<g >
</g>
<g >
</g>
<g >
</g>
<g >
</g>
<g >
</g>
<g >
</g>
<g >
</g>
<g >
</g>
<g >
</g>
<g >
</g>
<g >
</g>
<g >
</g>
<g >
</g>
<g >
</g>
<g >
</g>
<g >
</g>
<g >
</g>
<g >
</g>
<g >
</g>
<g >
</g>
<g >
</g>
<g >
</g>
<g >
</g>
<g >
</g>
<g >
</g>
<g >
</g>
<g >
</g>
<g >
</g>
<g >
</g>
<g >
</g>
<g >
</g>
<g >
</g>
<g >
</g>
<g >
</g>
<g >
</g>
<g >
</g>
<g >
</g>
<g >
</g>
<g >
</g>
<g >
</g>
<g >
</g>
<g >
</g>
<g >
</g>
<g >
</g>
<g >
</g>
<g >
</g>
<g >
</g>
<g >
</g>
<g >
</g>
<g >
</g>
<g >
</g>
<g >
</g>
<g >
</g>
<g >
</g>
<g >
</g>
<g >
</g>
<g >
</g>
<g >
</g>
<g >
</g>
<g >
</g>
<g >
</g>
<g >
</g>
<g >
</g>
<g >
</g>
<g >
</g>
<g >
</g>
<g >
</g>
<g >
</g>
<g >
</g>
<g >
</g>
<g >
</g>
</g> 
</svg>
