  0
SECTION
  2
HEADER
  9
$ANGBASE
  50
0.0
  9
$ANGDIR
  70
1
  9
$MEASUREMENT
  70
1
  0
ENDSEC
  0
SECTION
  2
TABLES
  0
TABLE
  2
LTYPE
  70
4
  0
LTYPE
  5
40F
  2
CONTINUOUS
  70
0
  3
Solid line
  72
65
  73
0
  40
0.0
  0
LTYPE
  5
410
  2
DASHDOT
 70
0
  3
Dash Dot ____ _ ____ _
 72
65
 73
4
 40
2.0
 49
1.25
 49
-0.25
 49
0.25
 49
-0.25
  0
LTYPE
  5
411
  2
DASHED
 70
0
  3
Dashed __ __ __ __ __
 72
65
 73
2
 40
0.75
 49
0.5
 49
-0.25
  0
LTYPE
  5
43B
  2
DOTTED
 70
0
  3
Dotted .  .  .  .
 72
65
 73
2
 40
0.2
 49
0.0
 49
-0.2
  0
ENDTAB
  0
TABLE
  2
STYLE
  70
4
  0
STYLE
  2
KICAD
  70
0
  40
0
  41
1
  42
1
  50
0
  71
0
  3
isocp.shx
  0
STYLE
  2
KICADB
  70
0
  40
0
  41
1
  42
1
  50
0
  71
0
  3
isocp.shx
  0
STYLE
  2
KICADI
  70
0
  40
0
  41
1
  42
1
  50
15
  71
0
  3
isocp.shx
  0
STYLE
  2
KICADBI
  70
0
  40
0
  41
1
  42
1
  50
15
  71
0
  3
isocp.shx
  0
ENDTAB
  0
TABLE
  2
LAYER
  70
1
  0
LAYER
  2
BLACK
  70
0
  62
7
  6
CONTINUOUS
  0
ENDTAB
  0
ENDSEC
  0
SECTION
  2
ENTITIES
0
LINE
8
BLACK
6
CONTINUOUS
10
210.2461329999999862
20
-101.0505409999999955
11
187.1409659999999917
21
-95.2897759999999892
0
LINE
8
BLACK
6
CONTINUOUS
10
187.1409659999999917
20
-95.2897759999999892
11
182.5323530000000005
21
-113.7739089999999891
0
LINE
8
BLACK
6
CONTINUOUS
10
182.5323530000000005
20
-113.7739089999999891
11
205.637519999999995
21
-119.5346739999999954
0
LINE
8
BLACK
6
CONTINUOUS
10
205.637519999999995
20
-119.5346739999999954
11
210.2461329999999862
21
-101.0505409999999955
0
LINE
8
BLACK
6
CONTINUOUS
10
204.8747659999999939
20
-102.3136080000000021
11
191.2906260000000032
21
-98.9267019999999917
0
LINE
8
BLACK
6
CONTINUOUS
10
191.2906260000000032
20
-98.9267019999999917
11
187.9037199999999928
21
-112.5108419999999967
0
LINE
8
BLACK
6
CONTINUOUS
10
187.9037199999999928
20
-112.5108419999999967
11
201.4878599999999835
21
-115.8977479999999929
0
LINE
8
BLACK
6
CONTINUOUS
10
201.4878599999999835
20
-115.8977479999999929
11
204.8747659999999939
21
-102.3136080000000021
0
LINE
8
BLACK
6
CONTINUOUS
10
173.0991359999999872
20
-91.2266089999999963
11
149.2866359999999872
21
-91.2266089999999963
0
LINE
8
BLACK
6
CONTINUOUS
10
149.2866359999999872
20
-91.2266089999999963
11
149.2866359999999872
21
-110.2766089999999934
0
LINE
8
BLACK
6
CONTINUOUS
10
149.2866359999999872
20
-110.2766089999999934
11
173.0991359999999872
21
-110.2766089999999934
0
LINE
8
BLACK
6
CONTINUOUS
10
173.0991359999999872
20
-110.2766089999999934
11
173.0991359999999872
21
-91.2266089999999963
0
LINE
8
BLACK
6
CONTINUOUS
10
168.1928859999999872
20
-93.751609000000002
11
154.1928859999999872
21
-93.751609000000002
0
LINE
8
BLACK
6
CONTINUOUS
10
154.1928859999999872
20
-93.751609000000002
11
154.1928859999999872
21
-107.751609000000002
0
LINE
8
BLACK
6
CONTINUOUS
10
154.1928859999999872
20
-107.751609000000002
11
168.1928859999999872
21
-107.751609000000002
0
LINE
8
BLACK
6
CONTINUOUS
10
168.1928859999999872
20
-107.751609000000002
11
168.1928859999999872
21
-93.751609000000002
0
LINE
8
BLACK
6
CONTINUOUS
10
149.2866339999999923
20
-91.2266109999999912
11
125.4741339999999923
21
-91.2266109999999912
0
LINE
8
BLACK
6
CONTINUOUS
10
125.4741339999999923
20
-91.2266109999999912
11
125.4741339999999923
21
-110.2766109999999884
0
LINE
8
BLACK
6
CONTINUOUS
10
125.4741339999999923
20
-110.2766109999999884
11
149.2866339999999923
21
-110.2766109999999884
0
LINE
8
BLACK
6
CONTINUOUS
10
149.2866339999999923
20
-110.2766109999999884
11
149.2866339999999923
21
-91.2266109999999912
0
LINE
8
BLACK
6
CONTINUOUS
10
144.3803839999999923
20
-93.7516109999999969
11
130.3803839999999923
21
-93.7516109999999969
0
LINE
8
BLACK
6
CONTINUOUS
10
130.3803839999999923
20
-93.7516109999999969
11
130.3803839999999923
21
-107.7516109999999969
0
LINE
8
BLACK
6
CONTINUOUS
10
130.3803839999999923
20
-107.7516109999999969
11
144.3803839999999923
21
-107.7516109999999969
0
LINE
8
BLACK
6
CONTINUOUS
10
144.3803839999999923
20
-107.7516109999999969
11
144.3803839999999923
21
-93.7516109999999969
0
LINE
8
BLACK
6
CONTINUOUS
10
251.8105909999999881
20
-72.1473450000000014
11
228.7054239999999936
21
-66.386579999999995
0
LINE
8
BLACK
6
CONTINUOUS
10
228.7054239999999936
20
-66.386579999999995
11
224.0968110000000024
21
-84.870712999999995
0
LINE
8
BLACK
6
CONTINUOUS
10
224.0968110000000024
20
-84.870712999999995
11
247.2019779999999969
21
-90.6314780000000013
0
LINE
8
BLACK
6
CONTINUOUS
10
247.2019779999999969
20
-90.6314780000000013
11
251.8105909999999881
21
-72.1473450000000014
0
LINE
8
BLACK
6
CONTINUOUS
10
246.4392239999999958
20
-73.4104119999999938
11
232.8550839999999766
21
-70.0235059999999976
0
LINE
8
BLACK
6
CONTINUOUS
10
232.8550839999999766
20
-70.0235059999999976
11
229.4681779999999947
21
-83.6076460000000026
0
LINE
8
BLACK
6
CONTINUOUS
10
229.4681779999999947
20
-83.6076460000000026
11
243.0523179999999854
21
-86.9945519999999988
0
LINE
8
BLACK
6
CONTINUOUS
10
243.0523179999999854
20
-86.9945519999999988
11
246.4392239999999958
21
-73.4104119999999938
0
LINE
8
BLACK
6
CONTINUOUS
10
265.6612690000000043
20
-55.9675159999999963
11
237.9350689999999986
21
-49.0545979999999986
0
LINE
8
BLACK
6
CONTINUOUS
10
237.9350689999999986
20
-49.0545979999999986
11
233.3264569999999765
21
-67.538731999999996
0
LINE
8
BLACK
6
CONTINUOUS
10
233.3264569999999765
20
-67.538731999999996
11
261.0526570000000106
21
-74.4516500000000008
0
LINE
8
BLACK
6
CONTINUOUS
10
261.0526570000000106
20
-74.4516500000000008
11
265.6612690000000043
21
-55.9675159999999963
0
LINE
8
BLACK
6
CONTINUOUS
10
257.9793859999999768
20
-56.6545069999999953
11
244.395245999999986
21
-53.2676009999999991
0
LINE
8
BLACK
6
CONTINUOUS
10
244.395245999999986
20
-53.2676009999999991
11
241.0083399999999756
21
-66.8517410000000041
0
LINE
8
BLACK
6
CONTINUOUS
10
241.0083399999999756
20
-66.8517410000000041
11
254.5924799999999948
21
-70.2386470000000003
0
LINE
8
BLACK
6
CONTINUOUS
10
254.5924799999999948
20
-70.2386470000000003
11
257.9793859999999768
21
-56.6545069999999953
0
LINE
8
BLACK
6
CONTINUOUS
10
265.6488469999999893
20
-36.3312309999999954
11
237.9226469999999836
21
-29.4183129999999977
0
LINE
8
BLACK
6
CONTINUOUS
10
237.9226469999999836
20
-29.4183129999999977
11
233.3140349999999899
21
-47.9024469999999951
0
LINE
8
BLACK
6
CONTINUOUS
10
233.3140349999999899
20
-47.9024469999999951
11
261.0402349999999956
21
-54.8153649999999999
0
LINE
8
BLACK
6
CONTINUOUS
10
261.0402349999999956
20
-54.8153649999999999
11
265.6488469999999893
21
-36.3312309999999954
0
LINE
8
BLACK
6
CONTINUOUS
10
257.9669639999999617
20
-37.0182220000000015
11
244.3828239999999994
21
-33.6313159999999982
0
LINE
8
BLACK
6
CONTINUOUS
10
244.3828239999999994
20
-33.6313159999999982
11
240.995917999999989
21
-47.2154559999999961
0
LINE
8
BLACK
6
CONTINUOUS
10
240.995917999999989
20
-47.2154559999999961
11
254.5800579999999798
21
-50.6023619999999994
0
LINE
8
BLACK
6
CONTINUOUS
10
254.5800579999999798
20
-50.6023619999999994
11
257.9669639999999617
21
-37.0182220000000015
0
LINE
8
BLACK
6
CONTINUOUS
10
265.6985349999999926
20
-114.8763759999999934
11
247.214400999999981
21
-110.2677639999999997
0
LINE
8
BLACK
6
CONTINUOUS
10
247.214400999999981
20
-110.2677639999999997
11
242.6057889999999873
21
-128.7518979999999829
0
LINE
8
BLACK
6
CONTINUOUS
10
242.6057889999999873
20
-128.7518979999999829
11
261.0899229999999989
21
-133.360510000000005
0
LINE
8
BLACK
6
CONTINUOUS
10
261.0899229999999989
20
-133.360510000000005
11
265.6985349999999926
21
-114.8763759999999934
0
LINE
8
BLACK
6
CONTINUOUS
10
262.6376849999999763
20
-116.7155199999999979
11
249.0535449999999855
21
-113.3286140000000017
0
LINE
8
BLACK
6
CONTINUOUS
10
249.0535449999999855
20
-113.3286140000000017
11
245.6666389999999751
21
-126.9127539999999925
0
LINE
8
BLACK
6
CONTINUOUS
10
245.6666389999999751
20
-126.9127539999999925
11
259.2507789999999659
21
-130.2996599999999887
0
LINE
8
BLACK
6
CONTINUOUS
10
259.2507789999999659
20
-130.2996599999999887
11
262.6376849999999763
21
-116.7155199999999979
0
LINE
8
BLACK
6
CONTINUOUS
10
247.214398999999986
20
-110.2677659999999946
11
228.7302650000000028
21
-105.6591540000000009
0
LINE
8
BLACK
6
CONTINUOUS
10
228.7302650000000028
20
-105.6591540000000009
11
224.1216529999999807
21
-124.1432879999999983
0
LINE
8
BLACK
6
CONTINUOUS
10
224.1216529999999807
20
-124.1432879999999983
11
242.6057869999999923
21
-128.7519000000000062
0
LINE
8
BLACK
6
CONTINUOUS
10
242.6057869999999923
20
-128.7519000000000062
11
247.214398999999986
21
-110.2677659999999946
0
LINE
8
BLACK
6
CONTINUOUS
10
244.1535489999999982
20
-112.1069099999999992
11
230.569408999999979
21
-108.7200039999999888
0
LINE
8
BLACK
6
CONTINUOUS
10
230.569408999999979
20
-108.7200039999999888
11
227.182502999999997
21
-122.3041439999999938
0
LINE
8
BLACK
6
CONTINUOUS
10
227.182502999999997
20
-122.3041439999999938
11
240.7666429999999878
21
-125.69104999999999
0
LINE
8
BLACK
6
CONTINUOUS
10
240.7666429999999878
20
-125.69104999999999
11
244.1535489999999982
21
-112.1069099999999992
0
LINE
8
BLACK
6
CONTINUOUS
10
228.7302660000000003
20
-105.6591519999999917
11
210.2461319999999887
21
-101.050539999999998
0
LINE
8
BLACK
6
CONTINUOUS
10
210.2461319999999887
20
-101.050539999999998
11
205.637519999999995
21
-119.5346739999999954
0
LINE
8
BLACK
6
CONTINUOUS
10
205.637519999999995
20
-119.5346739999999954
11
224.1216539999999782
21
-124.1432859999999891
0
LINE
8
BLACK
6
CONTINUOUS
10
224.1216539999999782
20
-124.1432859999999891
11
228.7302660000000003
21
-105.6591519999999917
0
LINE
8
BLACK
6
CONTINUOUS
10
225.669415999999984
20
-107.4982959999999963
11
212.0852759999999932
21
-104.1113900000000001
0
LINE
8
BLACK
6
CONTINUOUS
10
212.0852759999999932
20
-104.1113900000000001
11
208.6983699999999828
21
-117.6955299999999909
0
LINE
8
BLACK
6
CONTINUOUS
10
208.6983699999999828
20
-117.6955299999999909
11
222.282510000000002
21
-121.0824360000000013
0
LINE
8
BLACK
6
CONTINUOUS
10
222.282510000000002
20
-121.0824360000000013
11
225.669415999999984
21
-107.4982959999999963
0
LINE
8
BLACK
6
CONTINUOUS
10
113.5678860000000014
20
-93.7031109999999927
11
94.5178859999999901
21
-93.7031109999999927
0
LINE
8
BLACK
6
CONTINUOUS
10
94.5178859999999901
20
-93.7031109999999927
11
94.5178859999999901
21
-112.7531109999999899
0
LINE
8
BLACK
6
CONTINUOUS
10
94.5178859999999901
20
-112.7531109999999899
11
113.5678860000000014
21
-112.7531109999999899
0
LINE
8
BLACK
6
CONTINUOUS
10
113.5678860000000014
20
-112.7531109999999899
11
113.5678860000000014
21
-93.7031109999999927
0
LINE
8
BLACK
6
CONTINUOUS
10
111.0428859999999958
20
-96.2281109999999984
11
97.0428859999999958
21
-96.2281109999999984
0
LINE
8
BLACK
6
CONTINUOUS
10
97.0428859999999958
20
-96.2281109999999984
11
97.0428859999999958
21
-110.2281109999999984
0
LINE
8
BLACK
6
CONTINUOUS
10
97.0428859999999958
20
-110.2281109999999984
11
111.0428859999999958
21
-110.2281109999999984
0
LINE
8
BLACK
6
CONTINUOUS
10
111.0428859999999958
20
-110.2281109999999984
11
111.0428859999999958
21
-96.2281109999999984
0
LINE
8
BLACK
6
CONTINUOUS
10
101.6616349999999898
20
-74.6531090000000006
11
82.6116349999999926
21
-74.6531090000000006
0
LINE
8
BLACK
6
CONTINUOUS
10
82.6116349999999926
20
-74.6531090000000006
11
82.6116349999999926
21
-93.7031089999999978
0
LINE
8
BLACK
6
CONTINUOUS
10
82.6116349999999926
20
-93.7031089999999978
11
101.6616349999999898
21
-93.7031089999999978
0
LINE
8
BLACK
6
CONTINUOUS
10
101.6616349999999898
20
-93.7031089999999978
11
101.6616349999999898
21
-74.6531090000000006
0
LINE
8
BLACK
6
CONTINUOUS
10
99.1366349999999983
20
-77.1781089999999921
11
85.1366349999999983
21
-77.1781089999999921
0
LINE
8
BLACK
6
CONTINUOUS
10
85.1366349999999983
20
-77.1781089999999921
11
85.1366349999999983
21
-91.1781089999999921
0
LINE
8
BLACK
6
CONTINUOUS
10
85.1366349999999983
20
-91.1781089999999921
11
99.1366349999999983
21
-91.1781089999999921
0
LINE
8
BLACK
6
CONTINUOUS
10
99.1366349999999983
20
-91.1781089999999921
11
99.1366349999999983
21
-77.1781089999999921
0
LINE
8
BLACK
6
CONTINUOUS
10
251.8230109999999797
20
-91.7836309999999997
11
233.3388769999999965
21
-87.1750189999999918
0
LINE
8
BLACK
6
CONTINUOUS
10
233.3388769999999965
20
-87.1750189999999918
11
228.7302650000000028
21
-105.6591529999999892
0
LINE
8
BLACK
6
CONTINUOUS
10
228.7302650000000028
20
-105.6591529999999892
11
247.214398999999986
21
-110.2677649999999971
0
LINE
8
BLACK
6
CONTINUOUS
10
247.214398999999986
20
-110.2677649999999971
11
251.8230109999999797
21
-91.7836309999999997
0
LINE
8
BLACK
6
CONTINUOUS
10
248.7621609999999919
20
-93.6227749999999901
11
235.1780210000000011
21
-90.2358689999999939
0
LINE
8
BLACK
6
CONTINUOUS
10
235.1780210000000011
20
-90.2358689999999939
11
231.7911149999999907
21
-103.8200089999999989
0
LINE
8
BLACK
6
CONTINUOUS
10
231.7911149999999907
20
-103.8200089999999989
11
245.3752549999999815
21
-107.2069149999999951
0
LINE
8
BLACK
6
CONTINUOUS
10
245.3752549999999815
20
-107.2069149999999951
11
248.7621609999999919
21
-93.6227749999999901
0
LINE
8
BLACK
6
CONTINUOUS
10
226.4073279999999784
20
-85.4467920000000021
11
207.9231939999999952
21
-80.8381799999999942
0
LINE
8
BLACK
6
CONTINUOUS
10
207.9231939999999952
20
-80.8381799999999942
11
203.3145820000000015
21
-99.3223139999999916
0
LINE
8
BLACK
6
CONTINUOUS
10
203.3145820000000015
20
-99.3223139999999916
11
221.7987159999999847
21
-103.9309259999999995
0
LINE
8
BLACK
6
CONTINUOUS
10
221.7987159999999847
20
-103.9309259999999995
11
226.4073279999999784
21
-85.4467920000000021
0
LINE
8
BLACK
6
CONTINUOUS
10
223.3464779999999905
20
-87.2859359999999924
11
209.7623379999999997
21
-83.8990299999999962
0
LINE
8
BLACK
6
CONTINUOUS
10
209.7623379999999997
20
-83.8990299999999962
11
206.3754319999999893
21
-97.4831700000000012
0
LINE
8
BLACK
6
CONTINUOUS
10
206.3754319999999893
20
-97.4831700000000012
11
219.9595719999999801
21
-100.8700759999999974
0
LINE
8
BLACK
6
CONTINUOUS
10
219.9595719999999801
20
-100.8700759999999974
11
223.3464779999999905
21
-87.2859359999999924
0
LINE
8
BLACK
6
CONTINUOUS
10
200.9916439999999795
20
-79.1099490000000003
11
182.5075099999999964
21
-74.5013369999999924
0
LINE
8
BLACK
6
CONTINUOUS
10
182.5075099999999964
20
-74.5013369999999924
11
177.8988980000000026
21
-92.9854709999999898
0
LINE
8
BLACK
6
CONTINUOUS
10
177.8988980000000026
20
-92.9854709999999898
11
196.3830319999999858
21
-97.5940829999999977
0
LINE
8
BLACK
6
CONTINUOUS
10
196.3830319999999858
20
-97.5940829999999977
11
200.9916439999999795
21
-79.1099490000000003
0
LINE
8
BLACK
6
CONTINUOUS
10
197.9307939999999917
20
-80.9490929999999906
11
184.3466540000000009
21
-77.5621869999999944
0
LINE
8
BLACK
6
CONTINUOUS
10
184.3466540000000009
20
-77.5621869999999944
11
180.9597479999999905
21
-91.1463269999999994
0
LINE
8
BLACK
6
CONTINUOUS
10
180.9597479999999905
20
-91.1463269999999994
11
194.5438879999999813
21
-94.5332329999999956
0
LINE
8
BLACK
6
CONTINUOUS
10
194.5438879999999813
20
-94.5332329999999956
11
197.9307939999999917
21
-80.9490929999999906
0
LINE
8
BLACK
6
CONTINUOUS
10
177.8616349999999784
20
-72.1766089999999991
11
158.8116349999999954
21
-72.1766089999999991
0
LINE
8
BLACK
6
CONTINUOUS
10
158.8116349999999954
20
-72.1766089999999991
11
158.8116349999999954
21
-91.2266089999999963
0
LINE
8
BLACK
6
CONTINUOUS
10
158.8116349999999954
20
-91.2266089999999963
11
177.8616349999999784
21
-91.2266089999999963
0
LINE
8
BLACK
6
CONTINUOUS
10
177.8616349999999784
20
-91.2266089999999963
11
177.8616349999999784
21
-72.1766089999999991
0
LINE
8
BLACK
6
CONTINUOUS
10
175.3366350000000011
20
-74.7016089999999906
11
161.3366350000000011
21
-74.7016089999999906
0
LINE
8
BLACK
6
CONTINUOUS
10
161.3366350000000011
20
-74.7016089999999906
11
161.3366350000000011
21
-88.7016089999999906
0
LINE
8
BLACK
6
CONTINUOUS
10
161.3366350000000011
20
-88.7016089999999906
11
175.3366350000000011
21
-88.7016089999999906
0
LINE
8
BLACK
6
CONTINUOUS
10
175.3366350000000011
20
-88.7016089999999906
11
175.3366350000000011
21
-74.7016089999999906
0
LINE
8
BLACK
6
CONTINUOUS
10
158.8116359999999929
20
-69.8906099999999952
11
139.7616359999999815
21
-69.8906099999999952
0
LINE
8
BLACK
6
CONTINUOUS
10
139.7616359999999815
20
-69.8906099999999952
11
139.7616359999999815
21
-88.9406099999999924
0
LINE
8
BLACK
6
CONTINUOUS
10
139.7616359999999815
20
-88.9406099999999924
11
158.8116359999999929
21
-88.9406099999999924
0
LINE
8
BLACK
6
CONTINUOUS
10
158.8116359999999929
20
-88.9406099999999924
11
158.8116359999999929
21
-69.8906099999999952
0
LINE
8
BLACK
6
CONTINUOUS
10
156.2866359999999872
20
-72.4156100000000009
11
142.2866359999999872
21
-72.4156100000000009
0
LINE
8
BLACK
6
CONTINUOUS
10
142.2866359999999872
20
-72.4156100000000009
11
142.2866359999999872
21
-86.4156100000000009
0
LINE
8
BLACK
6
CONTINUOUS
10
142.2866359999999872
20
-86.4156100000000009
11
156.2866359999999872
21
-86.4156100000000009
0
LINE
8
BLACK
6
CONTINUOUS
10
156.2866359999999872
20
-86.4156100000000009
11
156.2866359999999872
21
-72.4156100000000009
0
LINE
8
BLACK
6
CONTINUOUS
10
139.7616349999999841
20
-72.1766089999999991
11
120.7116350000000011
21
-72.1766089999999991
0
LINE
8
BLACK
6
CONTINUOUS
10
120.7116350000000011
20
-72.1766089999999991
11
120.7116350000000011
21
-91.2266089999999963
0
LINE
8
BLACK
6
CONTINUOUS
10
120.7116350000000011
20
-91.2266089999999963
11
139.7616349999999841
21
-91.2266089999999963
0
LINE
8
BLACK
6
CONTINUOUS
10
139.7616349999999841
20
-91.2266089999999963
11
139.7616349999999841
21
-72.1766089999999991
0
LINE
8
BLACK
6
CONTINUOUS
10
137.2366350000000068
20
-74.7016089999999906
11
123.2366349999999926
21
-74.7016089999999906
0
LINE
8
BLACK
6
CONTINUOUS
10
123.2366349999999926
20
-74.7016089999999906
11
123.2366349999999926
21
-88.7016089999999906
0
LINE
8
BLACK
6
CONTINUOUS
10
123.2366349999999926
20
-88.7016089999999906
11
137.2366350000000068
21
-88.7016089999999906
0
LINE
8
BLACK
6
CONTINUOUS
10
137.2366350000000068
20
-88.7016089999999906
11
137.2366350000000068
21
-74.7016089999999906
0
LINE
8
BLACK
6
CONTINUOUS
10
120.7116339999999894
20
-74.6531090000000006
11
101.6616339999999923
21
-74.6531090000000006
0
LINE
8
BLACK
6
CONTINUOUS
10
101.6616339999999923
20
-74.6531090000000006
11
101.6616339999999923
21
-93.7031089999999978
0
LINE
8
BLACK
6
CONTINUOUS
10
101.6616339999999923
20
-93.7031089999999978
11
120.7116339999999894
21
-93.7031089999999978
0
LINE
8
BLACK
6
CONTINUOUS
10
120.7116339999999894
20
-93.7031089999999978
11
120.7116339999999894
21
-74.6531090000000006
0
LINE
8
BLACK
6
CONTINUOUS
10
118.186633999999998
20
-77.1781089999999921
11
104.186633999999998
21
-77.1781089999999921
0
LINE
8
BLACK
6
CONTINUOUS
10
104.186633999999998
20
-77.1781089999999921
11
104.186633999999998
21
-91.1781089999999921
0
LINE
8
BLACK
6
CONTINUOUS
10
104.186633999999998
20
-91.1781089999999921
11
118.186633999999998
21
-91.1781089999999921
0
LINE
8
BLACK
6
CONTINUOUS
10
118.186633999999998
20
-91.1781089999999921
11
118.186633999999998
21
-77.1781089999999921
0
LINE
8
BLACK
6
CONTINUOUS
10
219.4633549999999786
20
-64.0822749999999957
11
200.9792209999999955
21
-59.4736629999999948
0
LINE
8
BLACK
6
CONTINUOUS
10
200.9792209999999955
20
-59.4736629999999948
11
196.3706090000000017
21
-77.9577969999999993
0
LINE
8
BLACK
6
CONTINUOUS
10
196.3706090000000017
20
-77.9577969999999993
11
214.8547429999999849
21
-82.5664089999999931
0
LINE
8
BLACK
6
CONTINUOUS
10
214.8547429999999849
20
-82.5664089999999931
11
219.4633549999999786
21
-64.0822749999999957
0
LINE
8
BLACK
6
CONTINUOUS
10
216.4025049999999908
20
-65.9214190000000002
11
202.818365
21
-62.5345129999999969
0
LINE
8
BLACK
6
CONTINUOUS
10
202.818365
20
-62.5345129999999969
11
199.4314589999999896
21
-76.1186529999999948
0
LINE
8
BLACK
6
CONTINUOUS
10
199.4314589999999896
20
-76.1186529999999948
11
213.0155989999999804
21
-79.505558999999991
0
LINE
8
BLACK
6
CONTINUOUS
10
213.0155989999999804
20
-79.505558999999991
11
216.4025049999999908
21
-65.9214190000000002
0
LINE
8
BLACK
6
CONTINUOUS
10
200.9792229999999904
20
-59.4736629999999948
11
182.4950889999999788
21
-54.865050999999994
0
LINE
8
BLACK
6
CONTINUOUS
10
182.4950889999999788
20
-54.865050999999994
11
177.8864769999999851
21
-73.3491849999999914
0
LINE
8
BLACK
6
CONTINUOUS
10
177.8864769999999851
20
-73.3491849999999914
11
196.3706109999999967
21
-77.9577969999999993
0
LINE
8
BLACK
6
CONTINUOUS
10
196.3706109999999967
20
-77.9577969999999993
11
200.9792229999999904
21
-59.4736629999999948
0
LINE
8
BLACK
6
CONTINUOUS
10
197.9183730000000025
20
-61.3128069999999994
11
184.3342329999999833
21
-57.9259009999999961
0
LINE
8
BLACK
6
CONTINUOUS
10
184.3342329999999833
20
-57.9259009999999961
11
180.9473270000000014
21
-71.5100410000000011
0
LINE
8
BLACK
6
CONTINUOUS
10
180.9473270000000014
20
-71.5100410000000011
11
194.5314669999999921
21
-74.8969469999999973
0
LINE
8
BLACK
6
CONTINUOUS
10
194.5314669999999921
20
-74.8969469999999973
11
197.9183730000000025
21
-61.3128069999999994
0
LINE
8
BLACK
6
CONTINUOUS
10
177.8616360000000043
20
-53.1266109999999969
11
158.8116359999999929
21
-53.1266109999999969
0
LINE
8
BLACK
6
CONTINUOUS
10
158.8116359999999929
20
-53.1266109999999969
11
158.8116359999999929
21
-72.1766109999999941
0
LINE
8
BLACK
6
CONTINUOUS
10
158.8116359999999929
20
-72.1766109999999941
11
177.8616360000000043
21
-72.1766109999999941
0
LINE
8
BLACK
6
CONTINUOUS
10
177.8616360000000043
20
-72.1766109999999941
11
177.8616360000000043
21
-53.1266109999999969
0
LINE
8
BLACK
6
CONTINUOUS
10
175.3366359999999986
20
-55.6516109999999955
11
161.3366359999999986
21
-55.6516109999999955
0
LINE
8
BLACK
6
CONTINUOUS
10
161.3366359999999986
20
-55.6516109999999955
11
161.3366359999999986
21
-69.6516110000000026
0
LINE
8
BLACK
6
CONTINUOUS
10
161.3366359999999986
20
-69.6516110000000026
11
175.3366359999999986
21
-69.6516110000000026
0
LINE
8
BLACK
6
CONTINUOUS
10
175.3366359999999986
20
-69.6516110000000026
11
175.3366359999999986
21
-55.6516109999999955
0
LINE
8
BLACK
6
CONTINUOUS
10
158.8116359999999929
20
-50.8406099999999981
11
139.7616359999999815
21
-50.8406099999999981
0
LINE
8
BLACK
6
CONTINUOUS
10
139.7616359999999815
20
-50.8406099999999981
11
139.7616359999999815
21
-69.8906099999999952
0
LINE
8
BLACK
6
CONTINUOUS
10
139.7616359999999815
20
-69.8906099999999952
11
158.8116359999999929
21
-69.8906099999999952
0
LINE
8
BLACK
6
CONTINUOUS
10
158.8116359999999929
20
-69.8906099999999952
11
158.8116359999999929
21
-50.8406099999999981
0
LINE
8
BLACK
6
CONTINUOUS
10
156.2866359999999872
20
-53.3656099999999967
11
142.2866359999999872
21
-53.3656099999999967
0
LINE
8
BLACK
6
CONTINUOUS
10
142.2866359999999872
20
-53.3656099999999967
11
142.2866359999999872
21
-67.3656100000000038
0
LINE
8
BLACK
6
CONTINUOUS
10
142.2866359999999872
20
-67.3656100000000038
11
156.2866359999999872
21
-67.3656100000000038
0
LINE
8
BLACK
6
CONTINUOUS
10
156.2866359999999872
20
-67.3656100000000038
11
156.2866359999999872
21
-53.3656099999999967
0
LINE
8
BLACK
6
CONTINUOUS
10
139.7616349999999841
20
-53.1266109999999969
11
120.7116350000000011
21
-53.1266109999999969
0
LINE
8
BLACK
6
CONTINUOUS
10
120.7116350000000011
20
-53.1266109999999969
11
120.7116350000000011
21
-72.1766109999999941
0
LINE
8
BLACK
6
CONTINUOUS
10
120.7116350000000011
20
-72.1766109999999941
11
139.7616349999999841
21
-72.1766109999999941
0
LINE
8
BLACK
6
CONTINUOUS
10
139.7616349999999841
20
-72.1766109999999941
11
139.7616349999999841
21
-53.1266109999999969
0
LINE
8
BLACK
6
CONTINUOUS
10
137.2366350000000068
20
-55.6516109999999955
11
123.2366349999999926
21
-55.6516109999999955
0
LINE
8
BLACK
6
CONTINUOUS
10
123.2366349999999926
20
-55.6516109999999955
11
123.2366349999999926
21
-69.6516110000000026
0
LINE
8
BLACK
6
CONTINUOUS
10
123.2366349999999926
20
-69.6516110000000026
11
137.2366350000000068
21
-69.6516110000000026
0
LINE
8
BLACK
6
CONTINUOUS
10
137.2366350000000068
20
-69.6516110000000026
11
137.2366350000000068
21
-55.6516109999999955
0
LINE
8
BLACK
6
CONTINUOUS
10
120.7116350000000011
20
-55.6031100000000009
11
101.6616349999999898
21
-55.6031100000000009
0
LINE
8
BLACK
6
CONTINUOUS
10
101.6616349999999898
20
-55.6031100000000009
11
101.6616349999999898
21
-74.6531099999999981
0
LINE
8
BLACK
6
CONTINUOUS
10
101.6616349999999898
20
-74.6531099999999981
11
120.7116350000000011
21
-74.6531099999999981
0
LINE
8
BLACK
6
CONTINUOUS
10
120.7116350000000011
20
-74.6531099999999981
11
120.7116350000000011
21
-55.6031100000000009
0
LINE
8
BLACK
6
CONTINUOUS
10
118.1866349999999954
20
-58.1281099999999995
11
104.1866349999999954
21
-58.1281099999999995
0
LINE
8
BLACK
6
CONTINUOUS
10
104.1866349999999954
20
-58.1281099999999995
11
104.1866349999999954
21
-72.1281099999999924
0
LINE
8
BLACK
6
CONTINUOUS
10
104.1866349999999954
20
-72.1281099999999924
11
118.1866349999999954
21
-72.1281099999999924
0
LINE
8
BLACK
6
CONTINUOUS
10
118.1866349999999954
20
-72.1281099999999924
11
118.1866349999999954
21
-58.1281099999999995
0
LINE
8
BLACK
6
CONTINUOUS
10
284.13298199999997
20
-40.9398440000000008
11
265.6488479999999868
21
-36.331232
0
LINE
8
BLACK
6
CONTINUOUS
10
265.6488479999999868
20
-36.331232
11
261.0402359999999931
21
-54.8153659999999974
0
LINE
8
BLACK
6
CONTINUOUS
10
261.0402359999999931
20
-54.8153659999999974
11
279.5243699999999762
21
-59.4239779999999982
0
LINE
8
BLACK
6
CONTINUOUS
10
279.5243699999999762
20
-59.4239779999999982
11
284.13298199999997
21
-40.9398440000000008
0
LINE
8
BLACK
6
CONTINUOUS
10
281.0721320000000105
20
-42.7789879999999982
11
267.4879919999999629
21
-39.3920819999999949
0
LINE
8
BLACK
6
CONTINUOUS
10
267.4879919999999629
20
-39.3920819999999949
11
264.1010860000000093
21
-52.9762219999999999
0
LINE
8
BLACK
6
CONTINUOUS
10
264.1010860000000093
20
-52.9762219999999999
11
277.6852260000000001
21
-56.3631279999999961
0
LINE
8
BLACK
6
CONTINUOUS
10
277.6852260000000001
20
-56.3631279999999961
11
281.0721320000000105
21
-42.7789879999999982
0
LINE
8
BLACK
6
CONTINUOUS
10
237.9350699999999961
20
-49.0545979999999986
11
219.4509359999999845
21
-44.4459859999999978
0
LINE
8
BLACK
6
CONTINUOUS
10
219.4509359999999845
20
-44.4459859999999978
11
214.8423239999999907
21
-62.9301199999999952
0
LINE
8
BLACK
6
CONTINUOUS
10
214.8423239999999907
20
-62.9301199999999952
11
233.3264580000000024
21
-67.538731999999996
0
LINE
8
BLACK
6
CONTINUOUS
10
233.3264580000000024
20
-67.538731999999996
11
237.9350699999999961
21
-49.0545979999999986
0
LINE
8
BLACK
6
CONTINUOUS
10
234.8742199999999798
20
-50.893741999999996
11
221.290079999999989
21
-47.5068359999999998
0
LINE
8
BLACK
6
CONTINUOUS
10
221.290079999999989
20
-47.5068359999999998
11
217.9031739999999786
21
-61.0909759999999977
0
LINE
8
BLACK
6
CONTINUOUS
10
217.9031739999999786
20
-61.0909759999999977
11
231.4873139999999978
21
-64.4778819999999939
0
LINE
8
BLACK
6
CONTINUOUS
10
231.4873139999999978
20
-64.4778819999999939
11
234.8742199999999798
21
-50.893741999999996
0
LINE
8
BLACK
6
CONTINUOUS
10
219.4509339999999895
20
-44.4459850000000003
11
200.9667999999999779
21
-39.8373729999999995
0
LINE
8
BLACK
6
CONTINUOUS
10
200.9667999999999779
20
-39.8373729999999995
11
196.3581879999999842
21
-58.3215069999999969
0
LINE
8
BLACK
6
CONTINUOUS
10
196.3581879999999842
20
-58.3215069999999969
11
214.8423219999999958
21
-62.9301189999999977
0
LINE
8
BLACK
6
CONTINUOUS
10
214.8423219999999958
20
-62.9301189999999977
11
219.4509339999999895
21
-44.4459850000000003
0
LINE
8
BLACK
6
CONTINUOUS
10
216.3900840000000017
20
-46.2851289999999977
11
202.8059439999999825
21
-42.8982230000000015
0
LINE
8
BLACK
6
CONTINUOUS
10
202.8059439999999825
20
-42.8982230000000015
11
199.4190380000000005
21
-56.4823629999999994
0
LINE
8
BLACK
6
CONTINUOUS
10
199.4190380000000005
20
-56.4823629999999994
11
213.0031779999999912
21
-59.8692689999999956
0
LINE
8
BLACK
6
CONTINUOUS
10
213.0031779999999912
20
-59.8692689999999956
11
216.3900840000000017
21
-46.2851289999999977
0
LINE
8
BLACK
6
CONTINUOUS
10
200.9667999999999779
20
-39.8373750000000015
11
182.4826659999999947
21
-35.2287630000000007
0
LINE
8
BLACK
6
CONTINUOUS
10
182.4826659999999947
20
-35.2287630000000007
11
177.874054000000001
21
-53.7128969999999981
0
LINE
8
BLACK
6
CONTINUOUS
10
177.874054000000001
20
-53.7128969999999981
11
196.3581879999999842
21
-58.3215089999999989
0
LINE
8
BLACK
6
CONTINUOUS
10
196.3581879999999842
20
-58.3215089999999989
11
200.9667999999999779
21
-39.8373750000000015
0
LINE
8
BLACK
6
CONTINUOUS
10
197.90594999999999
20
-41.676518999999999
11
184.3218099999999993
21
-38.2896129999999957
0
LINE
8
BLACK
6
CONTINUOUS
10
184.3218099999999993
20
-38.2896129999999957
11
180.9349039999999889
21
-51.8737530000000007
0
LINE
8
BLACK
6
CONTINUOUS
10
180.9349039999999889
20
-51.8737530000000007
11
194.5190439999999796
21
-55.2606589999999969
0
LINE
8
BLACK
6
CONTINUOUS
10
194.5190439999999796
20
-55.2606589999999969
11
197.90594999999999
21
-41.676518999999999
0
LINE
8
BLACK
6
CONTINUOUS
10
177.8616349999999784
20
-34.0766099999999952
11
158.8116349999999954
21
-34.0766099999999952
0
LINE
8
BLACK
6
CONTINUOUS
10
158.8116349999999954
20
-34.0766099999999952
11
158.8116349999999954
21
-53.1266099999999994
0
LINE
8
BLACK
6
CONTINUOUS
10
158.8116349999999954
20
-53.1266099999999994
11
177.8616349999999784
21
-53.1266099999999994
0
LINE
8
BLACK
6
CONTINUOUS
10
177.8616349999999784
20
-53.1266099999999994
11
177.8616349999999784
21
-34.0766099999999952
0
LINE
8
BLACK
6
CONTINUOUS
10
175.3366350000000011
20
-36.6016100000000009
11
161.3366350000000011
21
-36.6016100000000009
0
LINE
8
BLACK
6
CONTINUOUS
10
161.3366350000000011
20
-36.6016100000000009
11
161.3366350000000011
21
-50.6016100000000009
0
LINE
8
BLACK
6
CONTINUOUS
10
161.3366350000000011
20
-50.6016100000000009
11
175.3366350000000011
21
-50.6016100000000009
0
LINE
8
BLACK
6
CONTINUOUS
10
175.3366350000000011
20
-50.6016100000000009
11
175.3366350000000011
21
-36.6016100000000009
0
LINE
8
BLACK
6
CONTINUOUS
10
158.811633999999998
20
-31.7906099999999974
11
139.7616339999999866
21
-31.7906099999999974
0
LINE
8
BLACK
6
CONTINUOUS
10
139.7616339999999866
20
-31.7906099999999974
11
139.7616339999999866
21
-50.8406099999999981
0
LINE
8
BLACK
6
CONTINUOUS
10
139.7616339999999866
20
-50.8406099999999981
11
158.811633999999998
21
-50.8406099999999981
0
LINE
8
BLACK
6
CONTINUOUS
10
158.811633999999998
20
-50.8406099999999981
11
158.811633999999998
21
-31.7906099999999974
0
LINE
8
BLACK
6
CONTINUOUS
10
156.2866339999999923
20
-34.3156099999999995
11
142.2866339999999923
21
-34.3156099999999995
0
LINE
8
BLACK
6
CONTINUOUS
10
142.2866339999999923
20
-34.3156099999999995
11
142.2866339999999923
21
-48.3156099999999995
0
LINE
8
BLACK
6
CONTINUOUS
10
142.2866339999999923
20
-48.3156099999999995
11
156.2866339999999923
21
-48.3156099999999995
0
LINE
8
BLACK
6
CONTINUOUS
10
156.2866339999999923
20
-48.3156099999999995
11
156.2866339999999923
21
-34.3156099999999995
0
LINE
8
BLACK
6
CONTINUOUS
10
139.7616370000000074
20
-34.0766089999999977
11
120.7116369999999961
21
-34.0766089999999977
0
LINE
8
BLACK
6
CONTINUOUS
10
120.7116369999999961
20
-34.0766089999999977
11
120.7116369999999961
21
-53.1266089999999949
0
LINE
8
BLACK
6
CONTINUOUS
10
120.7116369999999961
20
-53.1266089999999949
11
139.7616370000000074
21
-53.1266089999999949
0
LINE
8
BLACK
6
CONTINUOUS
10
139.7616370000000074
20
-53.1266089999999949
11
139.7616370000000074
21
-34.0766089999999977
0
LINE
8
BLACK
6
CONTINUOUS
10
137.2366370000000018
20
-36.6016089999999963
11
123.2366369999999876
21
-36.6016089999999963
0
LINE
8
BLACK
6
CONTINUOUS
10
123.2366369999999876
20
-36.6016089999999963
11
123.2366369999999876
21
-50.6016089999999963
0
LINE
8
BLACK
6
CONTINUOUS
10
123.2366369999999876
20
-50.6016089999999963
11
137.2366370000000018
21
-50.6016089999999963
0
LINE
8
BLACK
6
CONTINUOUS
10
137.2366370000000018
20
-50.6016089999999963
11
137.2366370000000018
21
-36.6016089999999963
0
LINE
8
BLACK
6
CONTINUOUS
10
120.7116350000000011
20
-36.5531099999999967
11
101.6616349999999898
21
-36.5531099999999967
0
LINE
8
BLACK
6
CONTINUOUS
10
101.6616349999999898
20
-36.5531099999999967
11
101.6616349999999898
21
-55.6031100000000009
0
LINE
8
BLACK
6
CONTINUOUS
10
101.6616349999999898
20
-55.6031100000000009
11
120.7116350000000011
21
-55.6031100000000009
0
LINE
8
BLACK
6
CONTINUOUS
10
120.7116350000000011
20
-55.6031100000000009
11
120.7116350000000011
21
-36.5531099999999967
0
LINE
8
BLACK
6
CONTINUOUS
10
118.1866349999999954
20
-39.0781099999999952
11
104.1866349999999954
21
-39.0781099999999952
0
LINE
8
BLACK
6
CONTINUOUS
10
104.1866349999999954
20
-39.0781099999999952
11
104.1866349999999954
21
-53.0781099999999952
0
LINE
8
BLACK
6
CONTINUOUS
10
104.1866349999999954
20
-53.0781099999999952
11
118.1866349999999954
21
-53.0781099999999952
0
LINE
8
BLACK
6
CONTINUOUS
10
118.1866349999999954
20
-53.0781099999999952
11
118.1866349999999954
21
-39.0781099999999952
0
LINE
8
BLACK
6
CONTINUOUS
10
237.922647999999981
20
-29.4183109999999992
11
219.4385139999999978
21
-24.8096989999999984
0
LINE
8
BLACK
6
CONTINUOUS
10
219.4385139999999978
20
-24.8096989999999984
11
214.8299020000000041
21
-43.2938329999999993
0
LINE
8
BLACK
6
CONTINUOUS
10
214.8299020000000041
20
-43.2938329999999993
11
233.3140359999999873
21
-47.9024450000000002
0
LINE
8
BLACK
6
CONTINUOUS
10
233.3140359999999873
20
-47.9024450000000002
11
237.922647999999981
21
-29.4183109999999992
0
LINE
8
BLACK
6
CONTINUOUS
10
234.8617979999999932
20
-31.2574550000000002
11
221.2776580000000024
21
-27.8705490000000005
0
LINE
8
BLACK
6
CONTINUOUS
10
221.2776580000000024
20
-27.8705490000000005
11
217.890751999999992
21
-41.4546889999999948
0
LINE
8
BLACK
6
CONTINUOUS
10
217.890751999999992
20
-41.4546889999999948
11
231.4748919999999828
21
-44.8415949999999981
0
LINE
8
BLACK
6
CONTINUOUS
10
231.4748919999999828
20
-44.8415949999999981
11
234.8617979999999932
21
-31.2574550000000002
0
LINE
8
BLACK
6
CONTINUOUS
10
219.4385149999999953
20
-24.8097010000000004
11
200.9543809999999837
21
-20.2010889999999996
0
LINE
8
BLACK
6
CONTINUOUS
10
200.9543809999999837
20
-20.2010889999999996
11
196.34576899999999
21
-38.6852230000000006
0
LINE
8
BLACK
6
CONTINUOUS
10
196.34576899999999
20
-38.6852230000000006
11
214.8299030000000016
21
-43.2938350000000014
0
LINE
8
BLACK
6
CONTINUOUS
10
214.8299030000000016
20
-43.2938350000000014
11
219.4385149999999953
21
-24.8097010000000004
0
LINE
8
BLACK
6
CONTINUOUS
10
216.377664999999979
20
-26.6488449999999979
11
202.7935249999999883
21
-23.2619389999999981
0
LINE
8
BLACK
6
CONTINUOUS
10
202.7935249999999883
20
-23.2619389999999981
11
199.4066189999999779
21
-36.846078999999996
0
LINE
8
BLACK
6
CONTINUOUS
10
199.4066189999999779
20
-36.846078999999996
11
212.9907589999999971
21
-40.2329849999999993
0
LINE
8
BLACK
6
CONTINUOUS
10
212.9907589999999971
20
-40.2329849999999993
11
216.377664999999979
21
-26.6488449999999979
0
LINE
8
BLACK
6
CONTINUOUS
10
200.9543789999999888
20
-20.2010879999999986
11
182.4702450000000056
21
-15.5924759999999996
0
LINE
8
BLACK
6
CONTINUOUS
10
182.4702450000000056
20
-15.5924759999999996
11
177.8616329999999834
21
-34.0766099999999952
0
LINE
8
BLACK
6
CONTINUOUS
10
177.8616329999999834
20
-34.0766099999999952
11
196.3457669999999951
21
-38.685221999999996
0
LINE
8
BLACK
6
CONTINUOUS
10
196.3457669999999951
20
-38.685221999999996
11
200.9543789999999888
21
-20.2010879999999986
0
LINE
8
BLACK
6
CONTINUOUS
10
197.8935290000000009
20
-22.0402319999999996
11
184.3093889999999817
21
-18.6533259999999999
0
LINE
8
BLACK
6
CONTINUOUS
10
184.3093889999999817
20
-18.6533259999999999
11
180.9224829999999997
21
-32.2374659999999977
0
LINE
8
BLACK
6
CONTINUOUS
10
180.9224829999999997
20
-32.2374659999999977
11
194.5066229999999905
21
-35.624372000000001
0
LINE
8
BLACK
6
CONTINUOUS
10
194.5066229999999905
20
-35.624372000000001
11
197.8935290000000009
21
-22.0402319999999996
0
LINE
8
BLACK
6
CONTINUOUS
10
177.8616349999999784
20
-15.0266109999999991
11
158.8116349999999954
21
-15.0266109999999991
0
LINE
8
BLACK
6
CONTINUOUS
10
158.8116349999999954
20
-15.0266109999999991
11
158.8116349999999954
21
-34.0766109999999998
0
LINE
8
BLACK
6
CONTINUOUS
10
158.8116349999999954
20
-34.0766109999999998
11
177.8616349999999784
21
-34.0766109999999998
0
LINE
8
BLACK
6
CONTINUOUS
10
177.8616349999999784
20
-34.0766109999999998
11
177.8616349999999784
21
-15.0266109999999991
0
LINE
8
BLACK
6
CONTINUOUS
10
175.3366350000000011
20
-17.5516109999999976
11
161.3366350000000011
21
-17.5516109999999976
0
LINE
8
BLACK
6
CONTINUOUS
10
161.3366350000000011
20
-17.5516109999999976
11
161.3366350000000011
21
-31.5516109999999976
0
LINE
8
BLACK
6
CONTINUOUS
10
161.3366350000000011
20
-31.5516109999999976
11
175.3366350000000011
21
-31.5516109999999976
0
LINE
8
BLACK
6
CONTINUOUS
10
175.3366350000000011
20
-31.5516109999999976
11
175.3366350000000011
21
-17.5516109999999976
0
LINE
8
BLACK
6
CONTINUOUS
10
158.8116349999999954
20
-12.7406100000000002
11
139.7616349999999841
21
-12.7406100000000002
0
LINE
8
BLACK
6
CONTINUOUS
10
139.7616349999999841
20
-12.7406100000000002
11
139.7616349999999841
21
-31.7906099999999974
0
LINE
8
BLACK
6
CONTINUOUS
10
139.7616349999999841
20
-31.7906099999999974
11
158.8116349999999954
21
-31.7906099999999974
0
LINE
8
BLACK
6
CONTINUOUS
10
158.8116349999999954
20
-31.7906099999999974
11
158.8116349999999954
21
-12.7406100000000002
0
LINE
8
BLACK
6
CONTINUOUS
10
156.2866349999999898
20
-15.2656099999999988
11
142.2866349999999898
21
-15.2656099999999988
0
LINE
8
BLACK
6
CONTINUOUS
10
142.2866349999999898
20
-15.2656099999999988
11
142.2866349999999898
21
-29.2656099999999988
0
LINE
8
BLACK
6
CONTINUOUS
10
142.2866349999999898
20
-29.2656099999999988
11
156.2866349999999898
21
-29.2656099999999988
0
LINE
8
BLACK
6
CONTINUOUS
10
156.2866349999999898
20
-29.2656099999999988
11
156.2866349999999898
21
-15.2656099999999988
0
LINE
8
BLACK
6
CONTINUOUS
10
139.7616359999999815
20
-15.0266089999999988
11
120.7116359999999986
21
-15.0266089999999988
0
LINE
8
BLACK
6
CONTINUOUS
10
120.7116359999999986
20
-15.0266089999999988
11
120.7116359999999986
21
-34.0766089999999977
0
LINE
8
BLACK
6
CONTINUOUS
10
120.7116359999999986
20
-34.0766089999999977
11
139.7616359999999815
21
-34.0766089999999977
0
LINE
8
BLACK
6
CONTINUOUS
10
139.7616359999999815
20
-34.0766089999999977
11
139.7616359999999815
21
-15.0266089999999988
0
LINE
8
BLACK
6
CONTINUOUS
10
137.2366360000000043
20
-17.5516089999999991
11
123.2366359999999901
21
-17.5516089999999991
0
LINE
8
BLACK
6
CONTINUOUS
10
123.2366359999999901
20
-17.5516089999999991
11
123.2366359999999901
21
-31.5516089999999991
0
LINE
8
BLACK
6
CONTINUOUS
10
123.2366359999999901
20
-31.5516089999999991
11
137.2366360000000043
21
-31.5516089999999991
0
LINE
8
BLACK
6
CONTINUOUS
10
137.2366360000000043
20
-31.5516089999999991
11
137.2366360000000043
21
-17.5516089999999991
0
LINE
8
BLACK
6
CONTINUOUS
10
120.7116350000000011
20
-17.5031110000000005
11
101.6616349999999898
21
-17.5031110000000005
0
LINE
8
BLACK
6
CONTINUOUS
10
101.6616349999999898
20
-17.5031110000000005
11
101.6616349999999898
21
-36.5531110000000012
0
LINE
8
BLACK
6
CONTINUOUS
10
101.6616349999999898
20
-36.5531110000000012
11
120.7116350000000011
21
-36.5531110000000012
0
LINE
8
BLACK
6
CONTINUOUS
10
120.7116350000000011
20
-36.5531110000000012
11
120.7116350000000011
21
-17.5031110000000005
0
LINE
8
BLACK
6
CONTINUOUS
10
118.1866349999999954
20
-20.0281109999999991
11
104.1866349999999954
21
-20.0281109999999991
0
LINE
8
BLACK
6
CONTINUOUS
10
104.1866349999999954
20
-20.0281109999999991
11
104.1866349999999954
21
-34.0281109999999956
0
LINE
8
BLACK
6
CONTINUOUS
10
104.1866349999999954
20
-34.0281109999999956
11
118.1866349999999954
21
-34.0281109999999956
0
LINE
8
BLACK
6
CONTINUOUS
10
118.1866349999999954
20
-34.0281109999999956
11
118.1866349999999954
21
-20.0281109999999991
0
LINE
8
BLACK
6
CONTINUOUS
10
86.6966350000000006
20
-16.7031109999999998
11
93.7966349999999949
21
-16.7031109999999998
0
LINE
8
BLACK
6
CONTINUOUS
10
93.7966349999999949
20
-16.7031109999999998
11
93.7966349999999949
21
-23.2031109999999998
0
LINE
8
BLACK
6
CONTINUOUS
10
93.7966349999999949
20
-23.2031109999999998
11
86.6966350000000006
21
-23.2031109999999998
0
LINE
8
BLACK
6
CONTINUOUS
10
86.6966350000000006
20
-23.2031109999999998
11
86.6966350000000006
21
-16.7031109999999998
0
LINE
8
BLACK
6
CONTINUOUS
10
99.1366349999999983
20
-17.5031110000000005
11
81.3566349999999971
21
-17.5031110000000005
0
LINE
8
BLACK
6
CONTINUOUS
10
81.3566349999999971
20
-17.5031110000000005
11
81.3566349999999971
21
-50.5231110000000001
0
LINE
8
BLACK
6
CONTINUOUS
10
81.3566349999999971
20
-50.5231110000000001
11
99.1366349999999983
21
-50.5231110000000001
0
LINE
8
BLACK
6
CONTINUOUS
10
99.1366349999999983
20
-50.5231110000000001
11
99.1366349999999983
21
-17.5031110000000005
0
LINE
8
BLACK
6
CONTINUOUS
10
224.456940000000003
20
-69.4755349999999936
11
221.3119549999999833
21
-82.0893789999999939
0
LINE
8
BLACK
6
CONTINUOUS
10
225.0630479999999807
20
-69.1113479999999925
11
230.6422489999999925
21
-70.5023979999999995
0
LINE
8
BLACK
6
CONTINUOUS
10
221.6761419999999987
20
-82.6954879999999974
11
227.2553419999999846
21
-84.0865390000000019
0
LINE
8
BLACK
6
CONTINUOUS
10
231.0064359999999795
20
-71.108507000000003
11
227.8614509999999882
21
-83.7223520000000008
0
LINE
8
BLACK
6
CONTINUOUS
10
247.5621069999999975
20
-75.2363
11
244.4171219999999778
21
-87.8501440000000002
0
LINE
8
BLACK
6
CONTINUOUS
10
248.1682149999999751
20
-74.8721129999999988
11
253.7462409999999977
21
-76.2628709999999899
0
LINE
8
BLACK
6
CONTINUOUS
10
244.7813089999999931
20
-88.4562529999999896
11
250.3605089999999791
21
-89.8473039999999941
0
LINE
8
BLACK
6
CONTINUOUS
10
254.1104279999999846
20
-76.8689789999999959
11
250.9666179999999827
21
-89.4831169999999929
0
ARC
8
BLACK
10
224.942087999999984
20
-69.5964960000000019
40
0.5000006305739697
50
76.00016477
51
165.99991467
0
ARC
8
BLACK
10
221.7971039999999903
20
-82.2103389999999905
40
0.5000011157216375
50
-193.99989082
51
-104.00011320
0
ARC
8
BLACK
10
230.5212860000000035
20
-70.9875459999999947
40
0.5000011157216375
50
-13.99989082
51
75.99988680
0
ARC
8
BLACK
10
227.3763019999999813
20
-83.601389999999995
40
0.500000751534173
50
-103.99993256
51
-14.00007146
0
ARC
8
BLACK
10
248.0472719999999924
20
-75.3572899999999919
40
0.5000241732572449
50
76.00286236
51
165.99721709
0
ARC
8
BLACK
10
244.9023009999999942
20
-87.9710859999999997
40
0.5000258393616208
50
-193.99705793
51
-104.00294609
0
ARC
8
BLACK
10
253.6252559999999789
20
-76.7480319999999949
40
0.5000190509094377
50
-13.99772454
51
75.99780399
0
ARC
8
BLACK
10
250.4814509999999927
20
-89.3621249999999918
40
0.5000255064537149
50
-103.99709607
51
-14.00290795
0
LINE
8
BLACK
6
CONTINUOUS
10
119.3241359999999958
20
-108.7281100000000009
11
119.3241359999999958
21
-95.7281100000000009
0
LINE
8
BLACK
6
CONTINUOUS
10
118.8241359999999958
20
-109.2281100000000009
11
113.0741359999999958
21
-109.2281100000000009
0
LINE
8
BLACK
6
CONTINUOUS
10
118.8241359999999958
20
-95.2281100000000009
11
113.0741359999999958
21
-95.2281100000000009
0
LINE
8
BLACK
6
CONTINUOUS
10
112.5741359999999958
20
-108.7281100000000009
11
112.5741359999999958
21
-95.7281100000000009
0
LINE
8
BLACK
6
CONTINUOUS
10
95.5116359999999958
20
-108.7281100000000009
11
95.5116359999999958
21
-95.7281100000000009
0
LINE
8
BLACK
6
CONTINUOUS
10
95.0116359999999958
20
-109.2281100000000009
11
89.2628469999999936
21
-109.2281100000000009
0
LINE
8
BLACK
6
CONTINUOUS
10
95.0116359999999958
20
-95.2281100000000009
11
89.2616359999999958
21
-95.2281100000000009
0
LINE
8
BLACK
6
CONTINUOUS
10
88.7628469999999936
20
-108.7281100000000009
11
88.7616359999999958
21
-95.7281100000000009
0
ARC
8
BLACK
10
118.8241349999999983
20
-108.7281089999999892
40
0.500001000001
50
-89.99988541
51
-0.00011459
0
ARC
8
BLACK
10
118.8241349999999983
20
-95.7281109999999984
40
0.500001000001
50
0.00011459
51
89.99988541
0
ARC
8
BLACK
10
113.0741369999999932
20
-108.7281089999999892
40
0.500001000001
50
-179.99988541
51
-90.00011459
0
ARC
8
BLACK
10
113.0741369999999932
20
-95.7281109999999984
40
0.500001000001
50
90.00011459
51
179.99988541
0
ARC
8
BLACK
10
95.011611000000002
20
-108.728084999999993
40
0.5000245006002205
50
-89.99719264
51
-0.00280736
0
ARC
8
BLACK
10
95.0116099999999904
20
-95.7281349999999946
40
0.5000255006502168
50
0.00292194
51
89.99707806
0
ARC
8
BLACK
10
89.2628660000000025
20
-108.7280909999999921
40
0.5000190003609862
50
-179.99782284
51
-90.00217716
0
ARC
8
BLACK
10
89.2616609999999895
20
-95.7281349999999946
40
0.5000255006502168
50
90.00292194
51
179.99707806
0
CIRCLE
8
BLACK
10
23.8616349999999997
20
-19.3031109999999977
40
1.0999999999999999
0
CIRCLE
8
BLACK
10
23.8616349999999997
20
-16.1031109999999984
40
1.0999999999999999
0
CIRCLE
8
BLACK
10
104.0428859999999958
20
-36.5531089999999992
40
1.0999999999999999
0
CIRCLE
8
BLACK
10
23.8616349999999997
20
-22.5031110000000005
40
1.0999999999999999
0
CIRCLE
8
BLACK
10
23.8616349999999997
20
-25.7031109999999998
40
1.0999999999999999
0
LINE
8
BLACK
6
CONTINUOUS
10
88.984729999999999
20
-17.9529299999999985
11
88.984729999999999
21
-18.7624530000000007
0
LINE
8
BLACK
6
CONTINUOUS
10
88.984729999999999
20
-18.7624530000000007
11
89.0323489999999964
21
-18.8576909999999991
0
LINE
8
BLACK
6
CONTINUOUS
10
89.0323489999999964
20
-18.8576909999999991
11
89.0799679999999938
21
-18.9053109999999975
0
LINE
8
BLACK
6
CONTINUOUS
10
89.0799679999999938
20
-18.9053109999999975
11
89.1752060000000029
21
-18.9529299999999985
0
LINE
8
BLACK
6
CONTINUOUS
10
89.1752060000000029
20
-18.9529299999999985
11
89.3656819999999925
21
-18.9529299999999985
0
LINE
8
BLACK
6
CONTINUOUS
10
89.3656819999999925
20
-18.9529299999999985
11
89.4609200000000016
21
-18.9053109999999975
0
LINE
8
BLACK
6
CONTINUOUS
10
89.4609200000000016
20
-18.9053109999999975
11
89.508538999999999
21
-18.8576909999999991
0
LINE
8
BLACK
6
CONTINUOUS
10
89.508538999999999
20
-18.8576909999999991
11
89.5561579999999964
21
-18.7624530000000007
0
LINE
8
BLACK
6
CONTINUOUS
10
89.5561579999999964
20
-18.7624530000000007
11
89.5561579999999964
21
-17.9529299999999985
0
LINE
8
BLACK
6
CONTINUOUS
10
89.984729999999999
20
-18.9053109999999975
11
90.1275869999999912
21
-18.9529299999999985
0
LINE
8
BLACK
6
CONTINUOUS
10
90.1275869999999912
20
-18.9529299999999985
11
90.3656819999999925
21
-18.9529299999999985
0
LINE
8
BLACK
6
CONTINUOUS
10
90.3656819999999925
20
-18.9529299999999985
11
90.4609200000000016
21
-18.9053109999999975
0
LINE
8
BLACK
6
CONTINUOUS
10
90.4609200000000016
20
-18.9053109999999975
11
90.508538999999999
21
-18.8576909999999991
0
LINE
8
BLACK
6
CONTINUOUS
10
90.508538999999999
20
-18.8576909999999991
11
90.5561579999999964
21
-18.7624530000000007
0
LINE
8
BLACK
6
CONTINUOUS
10
90.5561579999999964
20
-18.7624530000000007
11
90.5561579999999964
21
-18.6672149999999988
0
LINE
8
BLACK
6
CONTINUOUS
10
90.5561579999999964
20
-18.6672149999999988
11
90.508538999999999
21
-18.5719770000000004
0
LINE
8
BLACK
6
CONTINUOUS
10
90.508538999999999
20
-18.5719770000000004
11
90.4609200000000016
21
-18.5243579999999994
0
LINE
8
BLACK
6
CONTINUOUS
10
90.4609200000000016
20
-18.5243579999999994
11
90.3656819999999925
21
-18.4767389999999985
0
LINE
8
BLACK
6
CONTINUOUS
10
90.3656819999999925
20
-18.4767389999999985
11
90.1752060000000029
21
-18.4291199999999975
0
LINE
8
BLACK
6
CONTINUOUS
10
90.1752060000000029
20
-18.4291199999999975
11
90.0799679999999938
21
-18.3815010000000001
0
LINE
8
BLACK
6
CONTINUOUS
10
90.0799679999999938
20
-18.3815010000000001
11
90.0323489999999964
21
-18.3338819999999991
0
LINE
8
BLACK
6
CONTINUOUS
10
90.0323489999999964
20
-18.3338819999999991
11
89.984729999999999
21
-18.2386440000000007
0
LINE
8
BLACK
6
CONTINUOUS
10
89.984729999999999
20
-18.2386440000000007
11
89.984729999999999
21
-18.1434059999999988
0
LINE
8
BLACK
6
CONTINUOUS
10
89.984729999999999
20
-18.1434059999999988
11
90.0323489999999964
21
-18.0481680000000004
0
LINE
8
BLACK
6
CONTINUOUS
10
90.0323489999999964
20
-18.0481680000000004
11
90.0799679999999938
21
-18.0005489999999995
0
LINE
8
BLACK
6
CONTINUOUS
10
90.0799679999999938
20
-18.0005489999999995
11
90.1752060000000029
21
-17.9529299999999985
0
LINE
8
BLACK
6
CONTINUOUS
10
90.1752060000000029
20
-17.9529299999999985
11
90.4133009999999899
21
-17.9529299999999985
0
LINE
8
BLACK
6
CONTINUOUS
10
90.4133009999999899
20
-17.9529299999999985
11
90.5561579999999964
21
-18.0005489999999995
0
LINE
8
BLACK
6
CONTINUOUS
10
91.3180629999999951
20
-18.4291199999999975
11
91.4609200000000016
21
-18.4767389999999985
0
LINE
8
BLACK
6
CONTINUOUS
10
91.4609200000000016
20
-18.4767389999999985
11
91.508538999999999
21
-18.5243579999999994
0
LINE
8
BLACK
6
CONTINUOUS
10
91.508538999999999
20
-18.5243579999999994
11
91.5561579999999964
21
-18.6195959999999978
0
LINE
8
BLACK
6
CONTINUOUS
10
91.5561579999999964
20
-18.6195959999999978
11
91.5561579999999964
21
-18.7624530000000007
0
LINE
8
BLACK
6
CONTINUOUS
10
91.5561579999999964
20
-18.7624530000000007
11
91.508538999999999
21
-18.8576909999999991
0
LINE
8
BLACK
6
CONTINUOUS
10
91.508538999999999
20
-18.8576909999999991
11
91.4609200000000016
21
-18.9053109999999975
0
LINE
8
BLACK
6
CONTINUOUS
10
91.4609200000000016
20
-18.9053109999999975
11
91.3656819999999925
21
-18.9529299999999985
0
LINE
8
BLACK
6
CONTINUOUS
10
91.3656819999999925
20
-18.9529299999999985
11
90.984729999999999
21
-18.9529299999999985
0
LINE
8
BLACK
6
CONTINUOUS
10
90.984729999999999
20
-18.9529299999999985
11
90.984729999999999
21
-17.9529299999999985
0
LINE
8
BLACK
6
CONTINUOUS
10
90.984729999999999
20
-17.9529299999999985
11
91.3180629999999951
21
-17.9529299999999985
0
LINE
8
BLACK
6
CONTINUOUS
10
91.3180629999999951
20
-17.9529299999999985
11
91.4133009999999899
21
-18.0005489999999995
0
LINE
8
BLACK
6
CONTINUOUS
10
91.4133009999999899
20
-18.0005489999999995
11
91.4609200000000016
21
-18.0481680000000004
0
LINE
8
BLACK
6
CONTINUOUS
10
91.4609200000000016
20
-18.0481680000000004
11
91.508538999999999
21
-18.1434059999999988
0
LINE
8
BLACK
6
CONTINUOUS
10
91.508538999999999
20
-18.1434059999999988
11
91.508538999999999
21
-18.2386440000000007
0
LINE
8
BLACK
6
CONTINUOUS
10
91.508538999999999
20
-18.2386440000000007
11
91.4609200000000016
21
-18.3338819999999991
0
LINE
8
BLACK
6
CONTINUOUS
10
91.4609200000000016
20
-18.3338819999999991
11
91.4133009999999899
21
-18.3815010000000001
0
LINE
8
BLACK
6
CONTINUOUS
10
91.4133009999999899
20
-18.3815010000000001
11
91.3180629999999951
21
-18.4291199999999975
0
LINE
8
BLACK
6
CONTINUOUS
10
91.3180629999999951
20
-18.4291199999999975
11
90.984729999999999
21
-18.4291199999999975
0
LINE
8
BLACK
6
CONTINUOUS
10
88.5561589999999939
20
-20.3529300000000006
11
88.5561589999999939
21
-19.3529300000000006
0
LINE
8
BLACK
6
CONTINUOUS
10
88.5561589999999939
20
-19.3529300000000006
11
88.7942539999999951
21
-19.3529300000000006
0
LINE
8
BLACK
6
CONTINUOUS
10
88.7942539999999951
20
-19.3529300000000006
11
88.9371110000000016
21
-19.400548999999998
0
LINE
8
BLACK
6
CONTINUOUS
10
88.9371110000000016
20
-19.400548999999998
11
89.0323489999999964
21
-19.495787
0
LINE
8
BLACK
6
CONTINUOUS
10
89.0323489999999964
20
-19.495787
11
89.0799679999999938
21
-19.5910249999999984
0
LINE
8
BLACK
6
CONTINUOUS
10
89.0799679999999938
20
-19.5910249999999984
11
89.1275869999999912
21
-19.7815009999999987
0
LINE
8
BLACK
6
CONTINUOUS
10
89.1275869999999912
20
-19.7815009999999987
11
89.1275869999999912
21
-19.924357999999998
0
LINE
8
BLACK
6
CONTINUOUS
10
89.1275869999999912
20
-19.924357999999998
11
89.0799679999999938
21
-20.1148339999999983
0
LINE
8
BLACK
6
CONTINUOUS
10
89.0799679999999938
20
-20.1148339999999983
11
89.0323489999999964
21
-20.2100720000000003
0
LINE
8
BLACK
6
CONTINUOUS
10
89.0323489999999964
20
-20.2100720000000003
11
88.9371110000000016
21
-20.3053109999999997
0
LINE
8
BLACK
6
CONTINUOUS
10
88.9371110000000016
20
-20.3053109999999997
11
88.7942539999999951
21
-20.3529300000000006
0
LINE
8
BLACK
6
CONTINUOUS
10
88.7942539999999951
20
-20.3529300000000006
11
88.5561589999999939
21
-20.3529300000000006
0
LINE
8
BLACK
6
CONTINUOUS
10
89.6990160000000003
20
-20.3529300000000006
11
89.6037779999999913
21
-20.3053109999999997
0
LINE
8
BLACK
6
CONTINUOUS
10
89.6037779999999913
20
-20.3053109999999997
11
89.5561589999999939
21
-20.2576909999999977
0
LINE
8
BLACK
6
CONTINUOUS
10
89.5561589999999939
20
-20.2576909999999977
11
89.5085399999999964
21
-20.1624529999999993
0
LINE
8
BLACK
6
CONTINUOUS
10
89.5085399999999964
20
-20.1624529999999993
11
89.5085399999999964
21
-19.8767390000000006
0
LINE
8
BLACK
6
CONTINUOUS
10
89.5085399999999964
20
-19.8767390000000006
11
89.5561589999999939
21
-19.7815009999999987
0
LINE
8
BLACK
6
CONTINUOUS
10
89.5561589999999939
20
-19.7815009999999987
11
89.6037779999999913
21
-19.7338819999999977
0
LINE
8
BLACK
6
CONTINUOUS
10
89.6037779999999913
20
-19.7338819999999977
11
89.6990160000000003
21
-19.6862630000000003
0
LINE
8
BLACK
6
CONTINUOUS
10
89.6990160000000003
20
-19.6862630000000003
11
89.8418729999999925
21
-19.6862630000000003
0
LINE
8
BLACK
6
CONTINUOUS
10
89.8418729999999925
20
-19.6862630000000003
11
89.9371110000000016
21
-19.7338819999999977
0
LINE
8
BLACK
6
CONTINUOUS
10
89.9371110000000016
20
-19.7338819999999977
11
89.984729999999999
21
-19.7815009999999987
0
LINE
8
BLACK
6
CONTINUOUS
10
89.984729999999999
20
-19.7815009999999987
11
90.0323489999999964
21
-19.8767390000000006
0
LINE
8
BLACK
6
CONTINUOUS
10
90.0323489999999964
20
-19.8767390000000006
11
90.0323489999999964
21
-20.1624529999999993
0
LINE
8
BLACK
6
CONTINUOUS
10
90.0323489999999964
20
-20.1624529999999993
11
89.984729999999999
21
-20.2576909999999977
0
LINE
8
BLACK
6
CONTINUOUS
10
89.984729999999999
20
-20.2576909999999977
11
89.9371110000000016
21
-20.3053109999999997
0
LINE
8
BLACK
6
CONTINUOUS
10
89.9371110000000016
20
-20.3053109999999997
11
89.8418729999999925
21
-20.3529300000000006
0
LINE
8
BLACK
6
CONTINUOUS
10
89.8418729999999925
20
-20.3529300000000006
11
89.6990160000000003
21
-20.3529300000000006
0
LINE
8
BLACK
6
CONTINUOUS
10
90.36568299999999
20
-19.6862630000000003
11
90.5561589999999939
21
-20.3529300000000006
0
LINE
8
BLACK
6
CONTINUOUS
10
90.5561589999999939
20
-20.3529300000000006
11
90.7466349999999977
21
-19.8767390000000006
0
LINE
8
BLACK
6
CONTINUOUS
10
90.7466349999999977
20
-19.8767390000000006
11
90.9371110000000016
21
-20.3529300000000006
0
LINE
8
BLACK
6
CONTINUOUS
10
90.9371110000000016
20
-20.3529300000000006
11
91.1275869999999912
21
-19.6862630000000003
0
LINE
8
BLACK
6
CONTINUOUS
10
91.5085399999999964
20
-19.6862630000000003
11
91.5085399999999964
21
-20.3529300000000006
0
LINE
8
BLACK
6
CONTINUOUS
10
91.5085399999999964
20
-19.7815009999999987
11
91.5561589999999939
21
-19.7338819999999977
0
LINE
8
BLACK
6
CONTINUOUS
10
91.5561589999999939
20
-19.7338819999999977
11
91.6513970000000029
21
-19.6862630000000003
0
LINE
8
BLACK
6
CONTINUOUS
10
91.6513970000000029
20
-19.6862630000000003
11
91.7942539999999951
21
-19.6862630000000003
0
LINE
8
BLACK
6
CONTINUOUS
10
91.7942539999999951
20
-19.6862630000000003
11
91.88949199999999
21
-19.7338819999999977
0
LINE
8
BLACK
6
CONTINUOUS
10
91.88949199999999
20
-19.7338819999999977
11
91.9371110000000016
21
-19.8291199999999996
0
LINE
8
BLACK
6
CONTINUOUS
10
91.9371110000000016
20
-19.8291199999999996
11
91.9371110000000016
21
-20.3529300000000006
0
LINE
8
BLACK
6
CONTINUOUS
10
86.6966350000000006
20
-23.1731109999999987
11
86.6966350000000006
21
-17.5031110000000005
0
LINE
8
BLACK
6
CONTINUOUS
10
93.7966349999999949
20
-23.1731109999999987
11
86.6966350000000006
21
-23.1731109999999987
0
LINE
8
BLACK
6
CONTINUOUS
10
93.7966349999999949
20
-23.1731109999999987
11
93.7966349999999949
21
-17.5031110000000005
0
LINE
8
BLACK
6
CONTINUOUS
10
81.3566349999999971
20
-17.5031110000000005
11
99.1366349999999983
21
-17.5031110000000005
0
LINE
8
BLACK
6
CONTINUOUS
10
99.1366349999999983
20
-17.5031110000000005
11
99.1366349999999983
21
-50.5231110000000001
0
LINE
8
BLACK
6
CONTINUOUS
10
99.1366349999999983
20
-50.5231110000000001
11
81.3566349999999971
21
-50.5231110000000001
0
LINE
8
BLACK
6
CONTINUOUS
10
81.3566349999999971
20
-50.5231110000000001
11
81.3566349999999971
21
-17.5031110000000005
0
LINE
8
BLACK
6
CONTINUOUS
10
97.1216340000000002
20
-53.6351749999999967
11
97.1216340000000002
21
-53.1810469999999995
0
LINE
8
BLACK
6
CONTINUOUS
10
98.5916339999999991
20
-53.6351749999999967
11
98.5916339999999991
21
-53.1810469999999995
0
LINE
8
BLACK
6
CONTINUOUS
10
77.4528849999999949
20
-45.4026110000000003
11
74.1528849999999977
21
-45.4026110000000003
0
LINE
8
BLACK
6
CONTINUOUS
10
77.4528849999999949
20
-45.102610999999996
11
77.4528849999999949
21
-45.4026110000000003
0
LINE
8
BLACK
6
CONTINUOUS
10
77.4528849999999949
20
-42.9026110000000003
11
77.4528849999999949
21
-42.602610999999996
0
LINE
8
BLACK
6
CONTINUOUS
10
77.4528849999999949
20
-42.602610999999996
11
74.1528849999999977
21
-42.602610999999996
0
LINE
8
BLACK
6
CONTINUOUS
10
74.1528849999999977
20
-45.4026110000000003
11
74.1528849999999977
21
-45.102610999999996
0
LINE
8
BLACK
6
CONTINUOUS
10
74.1528849999999977
20
-42.602610999999996
11
74.1528849999999977
21
-42.9026110000000003
0
LINE
8
BLACK
6
CONTINUOUS
10
95.3866349999999983
20
-56.279361999999999
11
95.3866349999999983
21
-57.6093619999999973
0
LINE
8
BLACK
6
CONTINUOUS
10
94.056635
20
-56.279361999999999
11
95.3866349999999983
21
-56.279361999999999
0
LINE
8
BLACK
6
CONTINUOUS
10
92.7866349999999898
20
-56.279361999999999
11
85.1066349999999971
21
-56.279361999999999
0
LINE
8
BLACK
6
CONTINUOUS
10
92.7866349999999898
20
-56.279361999999999
11
92.7866349999999898
21
-58.9393619999999956
0
LINE
8
BLACK
6
CONTINUOUS
10
85.1066349999999971
20
-56.279361999999999
11
85.1066349999999971
21
-58.9393619999999956
0
LINE
8
BLACK
6
CONTINUOUS
10
92.7866349999999898
20
-58.9393619999999956
11
85.1066349999999971
21
-58.9393619999999956
0
LINE
8
BLACK
6
CONTINUOUS
10
72.7316349999999971
20
-19.5031110000000005
11
72.7316349999999971
21
-31.6031109999999984
0
LINE
8
BLACK
6
CONTINUOUS
10
72.9816349999999971
20
-19.5031110000000005
11
72.9816349999999971
21
-17.5031110000000005
0
LINE
8
BLACK
6
CONTINUOUS
10
78.5816349999999915
20
-17.5031110000000005
11
72.9816349999999971
21
-17.5031110000000005
0
LINE
8
BLACK
6
CONTINUOUS
10
78.5816349999999915
20
-19.5031110000000005
11
78.5816349999999915
21
-17.5031110000000005
0
LINE
8
BLACK
6
CONTINUOUS
10
78.8316349999999915
20
-19.5031110000000005
11
72.7316349999999971
21
-19.5031110000000005
0
LINE
8
BLACK
6
CONTINUOUS
10
78.8316349999999915
20
-19.5031110000000005
11
78.8316349999999915
21
-31.6031109999999984
0
LINE
8
BLACK
6
CONTINUOUS
10
78.8316349999999915
20
-31.6031109999999984
11
72.7316349999999971
21
-31.6031109999999984
0
LINE
8
BLACK
6
CONTINUOUS
10
73.2361240000000038
20
-37.4471989999999977
11
75.2867339999999956
21
-35.3965889999999987
0
LINE
8
BLACK
6
CONTINUOUS
10
73.6674589999999938
20
-37.8785339999999948
11
73.2361240000000038
21
-37.4471989999999977
0
LINE
8
BLACK
6
CONTINUOUS
10
76.9272220000000004
20
-38.1684479999999979
11
76.361536000000001
21
-38.7341329999999999
0
LINE
8
BLACK
6
CONTINUOUS
10
76.9272220000000004
20
-38.1684479999999979
11
77.4929070000000024
21
-37.6027619999999985
  0
ENDSEC
  0
EOF
