<?xml version="1.0"?>
<!-- Generated by SVGo -->
<svg width="376.237mm" height="139.433mm"
     viewBox="0.000 0.000 376.237 139.433"
     xmlns="http://www.w3.org/2000/svg" 
     xmlns:xlink="http://www.w3.org/1999/xlink">
<polygon points="366.237,5.001 366.629,5.016 367.019,5.062 367.404,5.139 367.782,5.245 368.150,5.381 368.506,5.545 368.849,5.737 369.175,5.955 369.484,6.198 369.772,6.465 370.039,6.753 370.282,7.062 370.500,7.388 370.692,7.731 370.856,8.087 370.992,8.455 371.098,8.833 371.175,9.218 371.221,9.608 371.236,10.001 371.237,129.432 371.221,129.825 371.175,130.215 371.098,130.599 370.992,130.978 370.856,131.346 370.692,131.703 370.500,132.045 370.282,132.372 370.039,132.680 369.772,132.968 369.484,133.235 369.175,133.478 368.849,133.696 368.506,133.888 368.150,134.052 367.782,134.188 367.404,134.295 367.019,134.371 366.629,134.418 366.237,134.433 10.001,134.433 9.608,134.418 9.218,134.371 8.833,134.295 8.455,134.188 8.087,134.052 7.731,133.888 7.388,133.696 7.062,133.478 6.753,133.235 6.465,132.968 6.198,132.680 5.955,132.372 5.737,132.045 5.545,131.703 5.381,131.346 5.245,130.978 5.139,130.599 5.062,130.215 5.016,129.825 5.000,129.432 5.001,10.001 5.016,9.608 5.062,9.218 5.139,8.833 5.245,8.455 5.381,8.087 5.545,7.731 5.737,7.388 5.955,7.062 6.198,6.753 6.465,6.465 6.753,6.198 7.062,5.955 7.388,5.737 7.731,5.545 8.087,5.381 8.455,5.245 8.833,5.139 9.218,5.062 9.608,5.016 10.001,5.000" style="fill:none;stroke-width:0.050000mm;stroke:black"/>
<polygon points="203.161,108.477 203.833,111.637 202.341,111.954 202.216,111.367 202.999,111.201 202.354,108.168 201.572,108.335 201.364,107.357 187.670,110.267 187.878,111.246 187.095,111.412 187.740,114.444 188.522,114.278 188.647,114.865 187.155,115.182 186.484,112.022 179.881,113.426 180.553,116.585 179.746,116.757 180.328,119.496 181.135,119.324 182.439,125.457 184.126,125.098 184.375,126.272 187.603,125.586 187.354,124.412 189.041,124.054 188.112,119.681 189.603,119.364 189.728,119.951 188.946,120.117 189.590,123.150 190.373,122.983 190.581,123.961 204.275,121.051 204.067,120.073 204.849,119.906 204.205,116.874 203.422,117.040 203.297,116.453 204.789,116.136 205.719,120.509 207.406,120.150 207.655,121.324 210.883,120.638 210.634,119.464 212.321,119.105 211.017,112.972 211.824,112.801 211.242,110.062 210.435,110.233 209.764,107.074" style="fill:none;stroke-width:0.050000mm;stroke:black"/>
<polygon points="126.932,106.715 125.244,106.356 123.941,112.489 123.134,112.318 122.552,115.057 123.359,115.228 122.687,118.387 129.289,119.791 129.961,116.631 131.453,116.948 131.328,117.535 130.545,117.369 129.901,120.401 130.682,120.568 130.476,121.546 144.170,124.457 144.378,123.478 145.160,123.645 145.805,120.613 145.022,120.446 145.147,119.859 146.638,120.176 145.967,123.336 152.569,124.739 153.241,121.580 154.048,121.751 154.630,119.012 153.823,118.841 155.127,112.708 153.439,112.349 153.689,111.176 150.461,110.489 150.212,111.663 148.524,111.305 147.595,115.677 146.103,115.360 146.228,114.773 147.010,114.939 147.655,111.907 146.872,111.741 147.080,110.763 133.386,107.852 133.178,108.830 132.396,108.664 131.751,111.696 132.534,111.862 132.409,112.449 130.917,112.132 131.847,107.760 130.158,107.401 130.408,106.227 127.181,105.541" style="fill:none;stroke-width:0.050000mm;stroke:black"/>
<polygon points="103.374,100.158 102.591,99.991 101.947,103.024 102.729,103.190 101.523,108.863 100.741,108.697 100.096,111.729 100.879,111.895 100.671,112.874 114.365,115.784 114.573,114.806 115.356,114.973 116.000,111.940 115.218,111.774 116.423,106.101 117.206,106.267 117.850,103.235 117.068,103.068 117.276,102.090 103.582,99.180" style="fill:none;stroke-width:0.050000mm;stroke:black"/>
<polygon points="219.804,101.100 220.011,102.078 219.229,102.245 219.873,105.277 220.656,105.111 221.862,110.784 221.079,110.950 221.724,113.982 222.506,113.816 222.714,114.794 236.408,111.883 236.200,110.905 236.983,110.739 236.338,107.707 235.556,107.873 234.350,102.200 235.133,102.033 234.488,99.001 233.706,99.168 233.498,98.189" style="fill:none;stroke-width:0.050000mm;stroke:black"/>
<polygon points="307.800,99.203 307.800,100.203 307.000,100.203 307.000,103.303 307.800,103.303 307.800,109.103 307.000,109.103 307.000,112.203 307.800,112.203 307.800,113.203 321.800,113.203 321.800,112.203 322.600,112.203 322.600,109.103 321.800,109.103 321.800,103.303 322.600,103.303 322.600,100.203 321.800,100.203 321.800,99.203" style="fill:none;stroke-width:0.050000mm;stroke:black"/>
<polygon points="326.850,99.203 326.850,100.203 326.050,100.203 326.050,103.303 326.850,103.303 326.850,109.103 326.050,109.103 326.050,112.203 326.850,112.203 326.850,113.203 340.850,113.203 340.850,112.203 341.651,112.203 341.651,109.103 340.850,109.103 340.850,103.303 341.651,103.303 341.651,100.203 340.850,100.203 340.850,99.203" style="fill:none;stroke-width:0.050000mm;stroke:black"/>
<polygon points="345.901,99.203 345.901,100.203 345.100,100.203 345.100,103.303 345.901,103.303 345.901,109.103 345.100,109.103 345.100,112.203 345.901,112.203 345.901,113.203 359.901,113.203 359.901,112.203 360.701,112.203 360.701,109.103 359.901,109.103 359.901,103.303 360.701,103.303 360.701,100.203 359.901,100.203 359.901,99.203" style="fill:none;stroke-width:0.050000mm;stroke:black"/>
<polygon points="146.456,92.177 145.673,92.010 145.029,95.042 145.811,95.209 144.606,100.882 143.823,100.716 143.178,103.748 143.961,103.914 143.753,104.892 157.447,107.803 157.655,106.825 158.438,106.991 159.082,103.959 158.300,103.793 159.505,98.120 160.288,98.286 160.933,95.254 160.150,95.087 160.358,94.109 146.664,91.198" style="fill:none;stroke-width:0.050000mm;stroke:black"/>
<polygon points="172.063,94.109 172.271,95.087 171.488,95.254 172.133,98.286 172.916,98.120 174.121,103.793 173.339,103.959 173.983,106.991 174.766,106.825 174.974,107.803 188.668,104.892 188.460,103.914 189.243,103.748 188.598,100.716 187.815,100.882 186.610,95.209 187.392,95.042 186.748,92.010 185.965,92.177 185.757,91.198" style="fill:none;stroke-width:0.050000mm;stroke:black"/>
<polygon points="24.432,92.726 24.432,93.726 23.632,93.726 23.632,96.826 24.432,96.826 24.432,102.626 23.632,102.626 23.632,105.726 24.432,105.726 24.432,106.726 38.432,106.726 38.432,105.726 39.232,105.726 39.232,102.626 38.432,102.626 38.432,96.826 39.232,96.826 39.232,93.726 38.432,93.726 38.432,92.726" style="fill:none;stroke-width:0.050000mm;stroke:black"/>
<polygon points="48.244,92.726 48.244,93.726 47.444,93.726 47.444,96.826 48.244,96.826 48.244,102.626 47.444,102.626 47.444,105.726 48.244,105.726 48.244,106.726 62.244,106.726 62.244,105.726 63.044,105.726 63.044,102.626 62.244,102.626 62.244,96.826 63.044,96.826 63.044,93.726 62.244,93.726 62.244,92.726" style="fill:none;stroke-width:0.050000mm;stroke:black"/>
<polygon points="279.702,92.726 279.702,93.726 278.902,93.726 278.902,96.826 279.702,96.826 279.702,102.626 278.902,102.626 278.902,105.726 279.702,105.726 279.702,106.726 293.702,106.726 293.702,105.726 294.502,105.726 294.502,102.626 293.702,102.626 293.702,96.826 294.502,96.826 294.502,93.726 293.702,93.726 293.702,92.726" style="fill:none;stroke-width:0.050000mm;stroke:black"/>
<polygon points="127.822,88.216 127.040,88.049 126.395,91.082 127.178,91.248 125.972,96.921 125.189,96.755 124.545,99.787 125.327,99.954 125.119,100.932 138.813,103.843 139.021,102.864 139.804,103.031 140.448,99.998 139.666,99.832 140.872,94.159 141.654,94.325 142.299,91.293 141.516,91.127 141.724,90.148 128.030,87.238" style="fill:none;stroke-width:0.050000mm;stroke:black"/>
<polygon points="190.697,90.148 190.905,91.127 190.122,91.293 190.767,94.325 191.549,94.159 192.755,99.832 191.973,99.998 192.617,103.031 193.400,102.864 193.608,103.843 207.302,100.932 207.094,99.954 207.876,99.787 207.232,96.755 206.449,96.921 205.243,91.248 206.026,91.082 205.381,88.049 204.599,88.216 204.391,87.238" style="fill:none;stroke-width:0.050000mm;stroke:black"/>
<polygon points="109.664,82.019 108.881,81.853 108.237,84.885 109.019,85.051 107.813,90.725 107.031,90.558 106.386,93.591 107.169,93.757 106.961,94.735 120.655,97.646 120.863,96.668 121.645,96.834 122.290,93.802 121.507,93.635 122.713,87.962 123.496,88.128 124.140,85.096 123.358,84.930 123.566,83.952 109.872,81.041" style="fill:none;stroke-width:0.050000mm;stroke:black"/>
<polygon points="208.855,83.952 209.063,84.930 208.281,85.096 208.925,88.128 209.708,87.962 210.914,93.635 210.131,93.802 210.776,96.834 211.558,96.668 211.766,97.646 225.460,94.735 225.252,93.757 226.035,93.591 225.390,90.558 224.608,90.725 223.402,85.051 224.184,84.885 223.540,81.853 222.757,82.019 222.549,81.041" style="fill:none;stroke-width:0.050000mm;stroke:black"/>
<polygon points="326.851,80.153 326.851,81.153 326.051,81.153 326.051,84.253 326.851,84.253 326.851,90.053 326.051,90.053 326.051,93.153 326.851,93.153 326.851,94.153 340.851,94.153 340.851,93.153 341.651,93.153 341.651,90.053 340.851,90.053 340.851,84.253 341.651,84.253 341.651,81.153 340.851,81.153 340.851,80.153" style="fill:none;stroke-width:0.050000mm;stroke:black"/>
<polygon points="91.545,75.636 90.762,75.470 90.118,78.502 90.900,78.668 89.695,84.341 88.912,84.175 88.268,87.207 89.050,87.374 88.842,88.352 102.536,91.263 102.744,90.284 103.527,90.451 104.171,87.419 103.389,87.252 104.595,81.579 105.377,81.745 106.022,78.713 105.239,78.547 105.447,77.569 91.753,74.658" style="fill:none;stroke-width:0.050000mm;stroke:black"/>
<polygon points="226.974,77.569 227.182,78.547 226.399,78.713 227.044,81.745 227.826,81.579 229.032,87.252 228.250,87.419 228.894,90.451 229.677,90.284 229.885,91.263 243.579,88.352 243.371,87.374 244.153,87.207 243.509,84.175 242.726,84.341 241.521,78.668 242.303,78.502 241.659,75.470 240.876,75.636 240.668,74.658" style="fill:none;stroke-width:0.050000mm;stroke:black"/>
<polygon points="72.396,74.098 71.614,73.931 70.969,76.964 71.752,77.130 70.546,82.803 69.763,82.637 69.119,85.669 69.901,85.835 69.694,86.814 83.388,89.724 83.596,88.746 84.378,88.912 85.023,85.880 84.240,85.714 85.446,80.041 86.228,80.207 86.873,77.175 86.090,77.008 86.298,76.030 72.604,73.119" style="fill:none;stroke-width:0.050000mm;stroke:black"/>
<polygon points="246.123,76.030 246.331,77.008 245.548,77.175 246.193,80.207 246.975,80.041 248.181,85.714 247.398,85.880 248.043,88.912 248.825,88.746 249.033,89.724 262.727,86.814 262.520,85.835 263.302,85.669 262.658,82.637 261.875,82.803 260.669,77.130 261.452,76.964 260.806,73.931 260.025,74.098 259.816,73.119" style="fill:none;stroke-width:0.050000mm;stroke:black"/>
<polygon points="22.050,73.676 22.050,74.676 21.250,74.676 21.250,77.776 22.050,77.776 22.050,78.376 20.526,78.376 20.526,75.146 13.775,75.146 13.775,78.376 12.950,78.376 12.950,81.176 13.775,81.176 13.775,87.446 15.500,87.446 15.500,88.646 18.800,88.646 18.800,87.446 20.526,87.446 20.526,82.976 22.050,82.976 22.050,83.576 21.250,83.576 21.250,86.676 22.050,86.676 22.050,87.676 36.051,87.676 36.051,86.676 36.850,86.676 36.850,83.576 36.051,83.576 36.051,82.976 37.575,82.976 37.575,87.446 39.301,87.446 39.301,88.646 42.600,88.646 42.600,87.446 44.325,87.446 44.325,81.176 45.151,81.176 45.151,78.376 44.325,78.376 44.325,75.146 37.575,75.146 37.575,78.376 36.051,78.376 36.051,77.776 36.850,77.776 36.850,74.676 36.051,74.676 36.051,73.676" style="fill:none;stroke-width:0.050000mm;stroke:black"/>
<polygon points="50.626,73.676 50.626,74.676 49.826,74.676 49.826,77.776 50.626,77.776 50.626,83.576 49.826,83.576 49.826,86.676 50.626,86.676 50.626,87.676 64.626,87.676 64.626,86.676 65.426,86.676 65.426,83.576 64.626,83.576 64.626,77.776 65.426,77.776 65.426,74.676 64.626,74.676 64.626,73.676" style="fill:none;stroke-width:0.050000mm;stroke:black"/>
<polygon points="267.796,73.676 267.796,74.676 266.996,74.676 266.996,77.776 267.796,77.776 267.796,83.576 266.996,83.576 266.996,86.676 267.796,86.676 267.796,87.676 281.796,87.676 281.796,86.676 282.596,86.676 282.596,83.576 281.796,83.576 281.796,77.776 282.596,77.776 282.596,74.676 281.796,74.676 281.796,73.676" style="fill:none;stroke-width:0.050000mm;stroke:black"/>
<polygon points="293.989,73.676 293.989,74.676 293.189,74.676 293.189,77.776 293.989,77.776 293.989,83.576 293.189,83.576 293.189,86.676 293.989,86.676 293.989,87.676 307.989,87.676 307.989,86.676 308.789,86.676 308.789,83.576 307.989,83.576 307.989,77.776 308.789,77.776 308.789,74.676 307.989,74.676 307.989,73.676" style="fill:none;stroke-width:0.050000mm;stroke:black"/>
<polygon points="131.783,69.582 131.000,69.416 130.355,72.448 131.138,72.614 129.932,78.288 129.150,78.121 128.506,81.154 129.288,81.320 129.080,82.298 142.774,85.209 142.982,84.231 143.765,84.397 144.409,81.365 143.627,81.198 144.833,75.525 145.615,75.691 146.260,72.659 145.477,72.493 145.685,71.515 131.991,68.604" style="fill:none;stroke-width:0.050000mm;stroke:black"/>
<polygon points="186.736,71.515 186.944,72.493 186.161,72.659 186.806,75.691 187.588,75.525 188.794,81.198 188.012,81.365 188.656,84.397 189.439,84.231 189.647,85.209 203.341,82.298 203.133,81.320 203.915,81.154 203.271,78.121 202.488,78.288 201.283,72.614 202.065,72.448 201.421,69.416 200.638,69.582 200.430,68.604" style="fill:none;stroke-width:0.050000mm;stroke:black"/>
<polygon points="113.625,63.385 112.842,63.219 112.197,66.251 112.980,66.418 111.774,72.091 110.992,71.925 110.347,74.957 111.130,75.123 110.922,76.101 124.616,79.012 124.824,78.034 125.606,78.200 126.251,75.168 125.468,75.002 126.674,69.328 127.457,69.495 128.101,66.462 127.319,66.296 127.527,65.317 113.832,62.407" style="fill:none;stroke-width:0.050000mm;stroke:black"/>
<polygon points="204.894,65.317 205.102,66.296 204.320,66.462 204.964,69.495 205.747,69.328 206.953,75.002 206.170,75.168 206.815,78.200 207.597,78.034 207.805,79.012 221.499,76.101 221.291,75.123 222.074,74.957 221.429,71.925 220.647,72.091 219.441,66.418 220.224,66.251 219.579,63.219 218.796,63.385 218.589,62.407" style="fill:none;stroke-width:0.050000mm;stroke:black"/>
<polygon points="95.506,57.002 94.723,56.836 94.079,59.868 94.861,60.035 93.655,65.708 92.873,65.541 92.228,68.574 93.011,68.740 92.803,69.718 106.497,72.629 106.705,71.651 107.487,71.817 108.132,68.785 107.349,68.619 108.555,62.945 109.338,63.112 109.982,60.079 109.200,59.913 109.408,58.935 95.714,56.024" style="fill:none;stroke-width:0.050000mm;stroke:black"/>
<polygon points="223.013,58.935 223.221,59.913 222.439,60.079 223.083,63.112 223.866,62.945 225.072,68.619 224.289,68.785 224.934,71.817 225.716,71.651 225.924,72.629 239.618,69.718 239.410,68.740 240.193,68.574 239.548,65.541 238.766,65.708 237.560,60.035 238.342,59.868 237.698,56.836 236.915,57.002 236.707,56.024" style="fill:none;stroke-width:0.050000mm;stroke:black"/>
<polygon points="76.357,55.464 75.575,55.298 74.930,58.330 75.713,58.496 74.507,64.169 73.724,64.002 73.080,67.035 73.862,67.202 73.654,68.180 87.348,71.091 87.556,70.112 88.339,70.279 88.983,67.247 88.201,67.080 89.407,61.407 90.189,61.573 90.834,58.541 90.051,58.375 90.259,57.397 76.565,54.486" style="fill:none;stroke-width:0.050000mm;stroke:black"/>
<polygon points="242.162,57.397 242.370,58.375 241.587,58.541 242.232,61.573 243.014,61.407 244.220,67.080 243.438,67.247 244.082,70.279 244.865,70.112 245.073,71.091 258.767,68.180 258.559,67.202 259.340,67.035 258.697,64.002 257.914,64.169 256.708,58.496 257.491,58.330 256.846,55.298 256.064,55.464 255.856,54.486" style="fill:none;stroke-width:0.050000mm;stroke:black"/>
<polygon points="314.944,54.626 314.944,55.626 314.144,55.626 314.144,58.726 314.944,58.726 314.944,59.326 313.419,59.326 313.419,56.096 306.669,56.096 306.669,59.326 305.844,59.326 305.844,62.126 306.669,62.126 306.669,68.396 308.394,68.396 308.394,69.596 311.694,69.596 311.694,68.396 313.419,68.396 313.419,63.926 314.944,63.926 314.944,64.526 314.144,64.526 314.144,67.626 314.944,67.626 314.944,68.626 328.944,68.626 328.944,67.626 329.744,67.626 329.744,64.526 328.944,64.526 328.944,63.926 330.469,63.926 330.469,68.396 332.194,68.396 332.194,69.596 335.494,69.596 335.494,68.396 337.219,68.396 337.219,62.126 338.044,62.126 338.044,59.326 337.219,59.326 337.219,56.096 330.469,56.096 330.469,59.326 328.944,59.326 328.944,58.726 329.744,58.726 329.744,55.626 328.944,55.626 328.944,54.626" style="fill:none;stroke-width:0.050000mm;stroke:black"/>
<polygon points="28.242,54.626 28.242,55.626 27.442,55.626 27.442,58.726 28.242,58.726 28.242,64.526 27.442,64.526 27.442,67.626 28.242,67.626 28.242,68.626 42.242,68.626 42.242,67.626 43.042,67.626 43.042,64.526 42.242,64.526 42.242,58.726 43.042,58.726 43.042,55.626 42.242,55.626 42.242,54.626" style="fill:none;stroke-width:0.050000mm;stroke:black"/>
<polygon points="54.435,54.626 54.435,55.626 53.635,55.626 53.635,58.726 54.435,58.726 54.435,64.526 53.635,64.526 53.635,67.626 54.435,67.626 54.435,68.626 68.435,68.626 68.435,67.626 69.235,67.626 69.235,64.526 68.435,64.526 68.435,58.726 69.235,58.726 69.235,55.626 68.435,55.626 68.435,54.626" style="fill:none;stroke-width:0.050000mm;stroke:black"/>
<polygon points="264.938,54.626 264.938,55.626 264.138,55.626 264.138,58.726 264.938,58.726 264.938,64.526 264.138,64.526 264.138,67.626 264.938,67.626 264.938,68.626 278.938,68.626 278.938,67.626 279.738,67.626 279.738,64.526 278.938,64.526 278.938,58.726 279.738,58.726 279.738,55.626 278.938,55.626 278.938,54.626" style="fill:none;stroke-width:0.050000mm;stroke:black"/>
<polygon points="283.988,54.626 283.988,55.626 283.188,55.626 283.188,58.726 283.988,58.726 283.988,64.526 283.188,64.526 283.188,67.626 283.988,67.626 283.988,68.626 297.988,68.626 297.988,67.626 298.788,67.626 298.788,64.526 297.988,64.526 297.988,58.726 298.788,58.726 298.788,55.626 297.988,55.626 297.988,54.626" style="fill:none;stroke-width:0.050000mm;stroke:black"/>
<polygon points="349.711,54.626 349.711,55.626 348.911,55.626 348.911,58.726 349.711,58.726 349.711,64.526 348.911,64.526 348.911,67.626 349.711,67.626 349.711,68.626 363.711,68.626 363.711,67.626 364.511,67.626 364.511,64.526 363.711,64.526 363.711,58.726 364.511,58.726 364.511,55.626 363.711,55.626 363.711,54.626" style="fill:none;stroke-width:0.050000mm;stroke:black"/>
<polygon points="135.744,50.948 134.961,50.782 134.317,53.814 135.099,53.981 133.893,59.654 133.111,59.488 132.466,62.520 133.249,62.686 133.041,63.664 146.735,66.575 146.943,65.597 147.725,65.763 148.370,62.731 147.587,62.565 148.793,56.891 149.576,57.058 150.220,54.025 149.438,53.859 149.646,52.881 135.952,49.970" style="fill:none;stroke-width:0.050000mm;stroke:black"/>
<polygon points="182.775,52.881 182.983,53.859 182.201,54.025 182.845,57.058 183.628,56.891 184.834,62.565 184.051,62.731 184.696,65.763 185.478,65.597 185.686,66.575 199.380,63.664 199.172,62.686 199.955,62.520 199.310,59.488 198.528,59.654 197.322,53.981 198.104,53.814 197.460,50.782 196.677,50.948 196.469,49.970" style="fill:none;stroke-width:0.050000mm;stroke:black"/>
<polygon points="117.585,44.752 116.803,44.585 116.158,47.618 116.941,47.784 115.735,53.457 114.952,53.291 114.308,56.323 115.090,56.489 114.882,57.468 128.575,60.378 128.783,59.400 129.567,59.567 130.211,56.534 129.429,56.368 130.634,50.695 131.417,50.861 132.062,47.829 131.279,47.662 131.487,46.684 117.793,43.773" style="fill:none;stroke-width:0.050000mm;stroke:black"/>
<polygon points="200.934,46.684 201.142,47.662 200.359,47.829 201.004,50.861 201.786,50.695 202.992,56.368 202.210,56.534 202.854,59.567 203.637,59.400 203.845,60.378 217.539,57.468 217.331,56.489 218.113,56.323 217.469,53.291 216.686,53.457 215.480,47.784 216.263,47.618 215.618,44.585 214.836,44.752 214.628,43.773" style="fill:none;stroke-width:0.050000mm;stroke:black"/>
<polygon points="99.466,38.369 98.684,38.202 98.039,41.234 98.822,41.401 97.616,47.074 96.834,46.908 96.189,49.940 96.971,50.106 96.764,51.084 110.458,53.995 110.666,53.017 111.448,53.183 112.093,50.151 111.310,49.985 112.516,44.312 113.298,44.478 113.943,41.446 113.161,41.279 113.368,40.301 99.674,37.390" style="fill:none;stroke-width:0.050000mm;stroke:black"/>
<polygon points="219.053,40.301 219.260,41.279 218.478,41.446 219.123,44.478 219.905,44.312 221.111,49.985 220.328,50.151 220.973,53.183 221.755,53.017 221.963,53.995 235.657,51.084 235.450,50.106 236.232,49.940 235.587,46.908 234.805,47.074 233.599,41.401 234.382,41.234 233.737,38.202 232.955,38.369 232.747,37.390" style="fill:none;stroke-width:0.050000mm;stroke:black"/>
<polygon points="80.318,36.830 79.535,36.664 78.891,39.696 79.673,39.862 78.467,45.536 77.685,45.369 77.040,48.402 77.823,48.568 77.615,49.546 91.309,52.457 91.517,51.479 92.299,51.645 92.944,48.613 92.161,48.446 93.367,42.773 94.150,42.940 94.794,39.907 94.012,39.741 94.220,38.763 80.526,35.852" style="fill:none;stroke-width:0.050000mm;stroke:black"/>
<polygon points="238.201,38.763 238.409,39.741 237.627,39.907 238.271,42.940 239.054,42.773 240.260,48.446 239.477,48.613 240.122,51.645 240.904,51.479 241.112,52.457 254.806,49.546 254.598,48.568 255.381,48.402 254.736,45.369 253.954,45.536 252.748,39.862 253.530,39.696 252.886,36.664 252.103,36.830 251.895,35.852" style="fill:none;stroke-width:0.050000mm;stroke:black"/>
<polygon points="35.004,35.576 35.004,36.576 34.204,36.576 34.204,39.676 35.004,39.676 35.004,45.476 34.204,45.476 34.204,48.576 35.004,48.576 35.004,49.576 49.004,49.576 49.004,48.576 49.804,48.576 49.804,45.476 49.004,45.476 49.004,39.676 49.804,39.676 49.804,36.576 49.004,36.576 49.004,35.576" style="fill:none;stroke-width:0.050000mm;stroke:black"/>
<polygon points="58.817,35.576 58.817,36.576 58.017,36.576 58.017,39.676 58.817,39.676 58.817,45.476 58.017,45.476 58.017,48.576 58.817,48.576 58.817,49.576 72.817,49.576 72.817,48.576 73.617,48.576 73.617,45.476 72.817,45.476 72.817,39.676 73.617,39.676 73.617,36.576 72.817,36.576 72.817,35.576" style="fill:none;stroke-width:0.050000mm;stroke:black"/>
<polygon points="260.176,35.576 260.176,36.576 259.376,36.576 259.376,39.676 260.176,39.676 260.176,45.476 259.376,45.476 259.376,48.576 260.176,48.576 260.176,49.576 274.176,49.576 274.176,48.576 274.976,48.576 274.976,45.476 274.176,45.476 274.176,39.676 274.976,39.676 274.976,36.576 274.176,36.576 274.176,35.576" style="fill:none;stroke-width:0.050000mm;stroke:black"/>
<polygon points="279.226,35.576 279.226,36.576 278.426,36.576 278.426,39.676 279.226,39.676 279.226,45.476 278.426,45.476 278.426,48.576 279.226,48.576 279.226,49.576 293.226,49.576 293.226,48.576 294.026,48.576 294.026,45.476 293.226,45.476 293.226,39.676 294.026,39.676 294.026,36.576 293.226,36.576 293.226,35.576" style="fill:none;stroke-width:0.050000mm;stroke:black"/>
<polygon points="298.276,35.576 298.276,36.576 297.476,36.576 297.476,39.676 298.276,39.676 298.276,45.476 297.476,45.476 297.476,48.576 298.276,48.576 298.276,49.576 312.276,49.576 312.276,48.576 313.076,48.576 313.076,45.476 312.276,45.476 312.276,39.676 313.076,39.676 313.076,36.576 312.276,36.576 312.276,35.576" style="fill:none;stroke-width:0.050000mm;stroke:black"/>
<polygon points="322.088,35.576 322.088,36.576 321.288,36.576 321.288,39.676 322.088,39.676 322.088,45.476 321.288,45.476 321.288,48.576 322.088,48.576 322.088,49.576 336.088,49.576 336.088,48.576 336.888,48.576 336.888,45.476 336.088,45.476 336.088,39.676 336.888,39.676 336.888,36.576 336.088,36.576 336.088,35.576" style="fill:none;stroke-width:0.050000mm;stroke:black"/>
<polygon points="349.711,35.576 349.711,36.576 348.911,36.576 348.911,39.676 349.711,39.676 349.711,45.476 348.911,45.476 348.911,48.576 349.711,48.576 349.711,49.576 363.711,49.576 363.711,48.576 364.511,48.576 364.511,45.476 363.711,45.476 363.711,39.676 364.511,39.676 364.511,36.576 363.711,36.576 363.711,35.576" style="fill:none;stroke-width:0.050000mm;stroke:black"/>
<polygon points="139.704,32.315 138.922,32.148 138.277,35.181 139.060,35.347 137.854,41.020 137.071,40.854 136.427,43.886 137.209,44.052 137.002,45.031 150.696,47.941 150.904,46.963 151.686,47.130 152.331,44.097 151.548,43.931 152.754,38.258 153.536,38.424 154.181,35.392 153.398,35.225 153.606,34.247 139.912,31.337" style="fill:none;stroke-width:0.050000mm;stroke:black"/>
<polygon points="178.815,34.247 179.023,35.225 178.240,35.392 178.885,38.424 179.667,38.258 180.873,43.931 180.090,44.097 180.735,47.130 181.517,46.963 181.725,47.941 195.419,45.031 195.212,44.052 195.994,43.886 195.350,40.854 194.567,41.020 193.361,35.347 194.144,35.181 193.499,32.148 192.717,32.315 192.509,31.337" style="fill:none;stroke-width:0.050000mm;stroke:black"/>
<polygon points="121.546,26.118 120.763,25.952 120.119,28.984 120.901,29.150 119.696,34.823 118.913,34.657 118.269,37.689 119.051,37.856 118.843,38.834 132.537,41.745 132.745,40.766 133.528,40.933 134.172,37.901 133.390,37.734 134.596,32.061 135.378,32.227 136.023,29.195 135.240,29.029 135.448,28.051 121.754,25.140" style="fill:none;stroke-width:0.050000mm;stroke:black"/>
<polygon points="196.973,28.051 197.181,29.029 196.398,29.195 197.043,32.227 197.825,32.061 199.031,37.734 198.249,37.901 198.893,40.933 199.676,40.766 199.884,41.745 213.578,38.834 213.370,37.856 214.152,37.689 213.508,34.657 212.725,34.823 211.520,29.150 212.302,28.984 211.658,25.952 210.875,26.118 210.667,25.140" style="fill:none;stroke-width:0.050000mm;stroke:black"/>
<polygon points="103.427,19.735 102.645,19.568 102.000,22.601 102.783,22.767 101.577,28.440 100.794,28.274 100.150,31.306 100.932,31.473 100.724,32.451 114.418,35.362 114.626,34.383 115.409,34.550 116.053,31.517 115.271,31.351 116.477,25.678 117.259,25.844 117.904,22.812 117.121,22.646 117.329,21.667 103.635,18.757" style="fill:none;stroke-width:0.050000mm;stroke:black"/>
<polygon points="215.092,21.667 215.300,22.646 214.517,22.812 215.162,25.844 215.944,25.678 217.150,31.351 216.368,31.517 217.012,34.550 217.795,34.383 218.003,35.362 231.697,32.451 231.489,31.473 232.271,31.306 231.627,28.274 230.844,28.440 229.638,22.767 230.421,22.601 229.776,19.568 228.994,19.735 228.786,18.757" style="fill:none;stroke-width:0.050000mm;stroke:black"/>
<polygon points="84.279,18.196 83.496,18.030 82.852,21.062 83.634,21.229 82.428,26.902 81.646,26.736 81.001,29.768 81.784,29.934 81.576,30.912 95.270,33.823 95.478,32.845 96.260,33.011 96.905,29.979 96.122,29.813 97.328,24.140 98.111,24.306 98.755,21.274 97.973,21.107 98.181,20.129 84.486,17.218" style="fill:none;stroke-width:0.050000mm;stroke:black"/>
<polygon points="234.240,20.129 234.448,21.107 233.666,21.274 234.310,24.306 235.093,24.140 236.299,29.813 235.516,29.979 236.161,33.011 236.943,32.845 237.151,33.823 250.845,30.912 250.637,29.934 251.420,29.768 250.775,26.736 249.993,26.902 248.787,21.229 249.569,21.062 248.925,18.030 248.142,18.196 247.935,17.218" style="fill:none;stroke-width:0.050000mm;stroke:black"/>
<polygon points="43.577,16.526 43.577,17.526 42.777,17.526 42.777,20.626 43.577,20.626 43.577,26.426 42.777,26.426 42.777,29.526 43.577,29.526 43.577,30.526 57.577,30.526 57.577,29.526 58.377,29.526 58.377,26.426 57.577,26.426 57.577,20.626 58.377,20.626 58.377,17.526 57.577,17.526 57.577,16.526" style="fill:none;stroke-width:0.050000mm;stroke:black"/>
<polygon points="62.627,16.526 62.627,17.526 61.827,17.526 61.827,20.626 62.627,20.626 62.627,26.426 61.827,26.426 61.827,29.526 62.627,29.526 62.627,30.526 76.627,30.526 76.627,29.526 77.427,29.526 77.427,26.426 76.627,26.426 76.627,20.626 77.427,20.626 77.427,17.526 76.627,17.526 76.627,16.526" style="fill:none;stroke-width:0.050000mm;stroke:black"/>
<polygon points="256.366,16.526 256.366,17.526 255.566,17.526 255.566,20.626 256.366,20.626 256.366,26.426 255.566,26.426 255.566,29.526 256.366,29.526 256.366,30.526 270.366,30.526 270.366,29.526 271.166,29.526 271.166,26.426 270.366,26.426 270.366,20.626 271.166,20.626 271.166,17.526 270.366,17.526 270.366,16.526" style="fill:none;stroke-width:0.050000mm;stroke:black"/>
<polygon points="275.416,16.526 275.416,17.526 274.616,17.526 274.616,20.626 275.416,20.626 275.416,26.426 274.616,26.426 274.616,29.526 275.416,29.526 275.416,30.526 289.416,30.526 289.416,29.526 290.216,29.526 290.216,26.426 289.416,26.426 289.416,20.626 290.216,20.626 290.216,17.526 289.416,17.526 289.416,16.526" style="fill:none;stroke-width:0.050000mm;stroke:black"/>
<polygon points="294.466,16.526 294.466,17.526 293.666,17.526 293.666,20.626 294.466,20.626 294.466,26.426 293.666,26.426 293.666,29.526 294.466,29.526 294.466,30.526 308.466,30.526 308.466,29.526 309.266,29.526 309.266,26.426 308.466,26.426 308.466,20.626 309.266,20.626 309.266,17.526 308.466,17.526 308.466,16.526" style="fill:none;stroke-width:0.050000mm;stroke:black"/>
<polygon points="318.278,16.526 318.278,17.526 317.478,17.526 317.478,20.626 318.278,20.626 318.278,26.426 317.478,26.426 317.478,29.526 318.278,29.526 318.278,30.526 332.278,30.526 332.278,29.526 333.078,29.526 333.078,26.426 332.278,26.426 332.278,20.626 333.078,20.626 333.078,17.526 332.278,17.526 332.278,16.526" style="fill:none;stroke-width:0.050000mm;stroke:black"/>
<polygon points="345.901,16.526 345.901,17.526 345.101,17.526 345.101,20.626 345.901,20.626 345.901,26.426 345.101,26.426 345.101,29.526 345.901,29.526 345.901,30.526 359.901,30.526 359.901,29.526 360.701,29.526 360.701,26.426 359.901,26.426 359.901,20.626 360.701,20.626 360.701,17.526 359.901,17.526 359.901,16.526" style="fill:none;stroke-width:0.050000mm;stroke:black"/>
</svg>
