<?xml version="1.0" encoding="UTF-8" standalone="no"?>
<!-- Created with Inkscape (http://www.inkscape.org/) -->

<svg
   width="297mm"
   height="210mm"
   viewBox="0 0 1122.5197 793.70081"
   version="1.1"
   id="svg5"
   xml:space="preserve"
   inkscape:export-filename="win-split--left.pdf"
   inkscape:export-xdpi="96"
   inkscape:export-ydpi="96"
   inkscape:version="1.2.1 (9c6d41e, 2022-07-14)"
   sodipodi:docname="left-right.svg"
   xmlns:inkscape="http://www.inkscape.org/namespaces/inkscape"
   xmlns:sodipodi="http://sodipodi.sourceforge.net/DTD/sodipodi-0.dtd"
   xmlns="http://www.w3.org/2000/svg"
   xmlns:svg="http://www.w3.org/2000/svg"><sodipodi:namedview
     id="namedview7"
     pagecolor="#ffffff"
     bordercolor="#000000"
     borderopacity="0.25"
     inkscape:showpageshadow="2"
     inkscape:pageopacity="0.0"
     inkscape:pagecheckerboard="0"
     inkscape:deskcolor="#d1d1d1"
     inkscape:document-units="mm"
     showgrid="false"
     inkscape:zoom="1.1100028"
     inkscape:cx="528.37704"
     inkscape:cy="398.64764"
     inkscape:window-width="1452"
     inkscape:window-height="1539"
     inkscape:window-x="2383"
     inkscape:window-y="29"
     inkscape:window-maximized="0"
     inkscape:current-layer="layer2" /><defs
     id="defs2" /><g
     inkscape:label="Right"
     inkscape:groupmode="layer"
     id="layer1"
     transform="translate(-109.70788,-1.7972454)"
     style="display:none"><g
       id="g531"
       transform="matrix(3.7795276,0,0,3.7795276,-321.91988,154.05174)"><polygon
         points="362.951,5 362.951,124.432 5.001,124.432 5.001,5 "
         style="fill:none;stroke:#000000;stroke-width:0.05mm"
         id="polygon312"
         transform="matrix(0.56026396,0,0,1.0003977,159.62639,-0.02573747)" /><polygon
         points="196.364,102.356 182.67,105.266 183.647,109.864 182.155,110.181 181.484,107.021 179.797,107.38 179.605,106.48 176.377,107.166 176.569,108.066 174.881,108.425 175.553,111.584 174.746,111.756 175.328,114.495 176.135,114.323 177.439,120.456 179.126,120.097 179.33,121.056 182.558,120.37 182.354,119.411 184.041,119.053 183.112,114.68 184.604,114.363 185.581,118.96 199.275,116.05 198.298,111.452 199.789,111.135 200.719,115.508 202.406,115.149 202.61,116.108 205.837,115.422 205.634,114.463 207.321,114.104 206.017,107.971 206.824,107.8 206.242,105.061 205.435,105.232 204.764,102.073 203.076,102.432 202.885,101.532 199.657,102.218 199.849,103.118 198.161,103.476 198.833,106.636 197.341,106.953 "
         style="fill:none;stroke:#000000;stroke-width:0.05mm"
         id="polygon314" /><polygon
         points="217.714,109.793 231.408,106.882 228.498,93.188 214.804,96.099 "
         style="fill:none;stroke:#000000;stroke-width:0.05mm"
         id="polygon320" /><polygon
         points="302.8,108.202 316.8,108.202 316.8,94.202 302.8,94.202 "
         style="fill:none;stroke:#000000;stroke-width:0.05mm"
         id="polygon322" /><polygon
         points="321.85,108.202 335.85,108.202 335.85,94.202 321.85,94.202 "
         style="fill:none;stroke:#000000;stroke-width:0.05mm"
         id="polygon324" /><polygon
         points="340.901,108.202 354.901,108.202 354.901,94.202 340.901,94.202 "
         style="fill:none;stroke:#000000;stroke-width:0.05mm"
         id="polygon326" /><polygon
         points="241.006,104.842 254.701,101.932 251.79,88.237 238.096,91.148 "
         style="fill:none;stroke:#000000;stroke-width:0.05mm"
         id="polygon330" /><polygon
         points="169.974,102.802 183.668,99.891 180.757,86.197 167.063,89.108 "
         style="fill:none;stroke:#000000;stroke-width:0.05mm"
         id="polygon334" /><polygon
         points="274.702,101.725 288.702,101.725 288.702,87.725 274.702,87.725 "
         style="fill:none;stroke:#000000;stroke-width:0.05mm"
         id="polygon338" /><polygon
         points="188.608,98.842 202.302,95.931 199.391,82.237 185.697,85.147 "
         style="fill:none;stroke:#000000;stroke-width:0.05mm"
         id="polygon342" /><polygon
         points="206.766,92.645 220.46,89.734 217.549,76.04 203.855,78.951 "
         style="fill:none;stroke:#000000;stroke-width:0.05mm"
         id="polygon346" /><polygon
         points="321.851,89.152 335.851,89.152 335.851,75.152 321.851,75.152 "
         style="fill:none;stroke:#000000;stroke-width:0.05mm"
         id="polygon348" /><polygon
         points="224.885,86.262 238.579,83.351 235.668,69.657 221.974,72.568 "
         style="fill:none;stroke:#000000;stroke-width:0.05mm"
         id="polygon352" /><polygon
         points="244.033,84.723 257.727,81.813 254.817,68.118 241.123,71.029 "
         style="fill:none;stroke:#000000;stroke-width:0.05mm"
         id="polygon356" /><polygon
         points="262.796,82.675 276.796,82.675 276.796,68.675 262.796,68.675 "
         style="fill:none;stroke:#000000;stroke-width:0.05mm"
         id="polygon362" /><polygon
         points="288.989,82.675 302.989,82.675 302.989,68.675 288.989,68.675 "
         style="fill:none;stroke:#000000;stroke-width:0.05mm"
         id="polygon364" /><polygon
         points="184.647,80.208 198.341,77.297 195.43,63.603 181.736,66.514 "
         style="fill:none;stroke:#000000;stroke-width:0.05mm"
         id="polygon368" /><polygon
         points="202.805,74.011 216.499,71.1 213.589,57.406 199.894,60.317 "
         style="fill:none;stroke:#000000;stroke-width:0.05mm"
         id="polygon372" /><polygon
         points="220.924,67.628 234.618,64.717 231.707,51.023 218.013,53.934 "
         style="fill:none;stroke:#000000;stroke-width:0.05mm"
         id="polygon376" /><polygon
         points="240.073,66.09 253.767,63.179 250.856,49.485 237.162,52.396 "
         style="fill:none;stroke:#000000;stroke-width:0.05mm"
         id="polygon380" /><polygon
         points="306.694,50.175 303.394,50.175 303.394,51.095 301.669,51.095 301.669,54.325 300.844,54.325 300.844,57.125 301.669,57.125 301.669,63.395 303.394,63.395 303.394,64.375 306.694,64.375 306.694,63.395 308.419,63.395 308.419,58.925 309.944,58.925 309.944,63.625 323.944,63.625 323.944,58.925 325.469,58.925 325.469,63.395 327.194,63.395 327.194,64.375 330.494,64.375 330.494,63.395 332.219,63.395 332.219,57.125 333.044,57.125 333.044,54.325 332.219,54.325 332.219,51.095 330.494,51.095 330.494,50.175 327.194,50.175 327.194,51.095 325.469,51.095 325.469,54.325 323.944,54.325 323.944,49.625 309.944,49.625 309.944,54.325 308.419,54.325 308.419,51.095 306.694,51.095 "
         style="fill:none;stroke:#000000;stroke-width:0.05mm"
         id="polygon382" /><polygon
         points="259.938,63.625 273.938,63.625 273.938,49.625 259.938,49.625 "
         style="fill:none;stroke:#000000;stroke-width:0.05mm"
         id="polygon388" /><polygon
         points="278.988,63.625 292.988,63.625 292.988,49.625 278.988,49.625 "
         style="fill:none;stroke:#000000;stroke-width:0.05mm"
         id="polygon390" /><polygon
         points="346.425,63.625 360.425,63.625 360.425,49.625 346.425,49.625 "
         style="fill:none;stroke:#000000;stroke-width:0.05mm"
         id="polygon392" /><polygon
         points="180.686,61.574 194.38,58.663 191.469,44.969 177.775,47.88 "
         style="fill:none;stroke:#000000;stroke-width:0.05mm"
         id="polygon396" /><polygon
         points="198.845,55.377 212.539,52.467 209.628,38.772 195.934,41.683 "
         style="fill:none;stroke:#000000;stroke-width:0.05mm"
         id="polygon400" /><polygon
         points="216.963,48.994 230.657,46.083 227.747,32.389 214.053,35.3 "
         style="fill:none;stroke:#000000;stroke-width:0.05mm"
         id="polygon404" /><polygon
         points="236.112,47.456 249.806,44.545 246.895,30.851 233.201,33.762 "
         style="fill:none;stroke:#000000;stroke-width:0.05mm"
         id="polygon408" /><polygon
         points="255.176,44.575 269.176,44.575 269.176,30.575 255.176,30.575 "
         style="fill:none;stroke:#000000;stroke-width:0.05mm"
         id="polygon414" /><polygon
         points="274.226,44.575 288.226,44.575 288.226,30.575 274.226,30.575 "
         style="fill:none;stroke:#000000;stroke-width:0.05mm"
         id="polygon416" /><polygon
         points="293.276,44.575 307.276,44.575 307.276,30.575 293.276,30.575 "
         style="fill:none;stroke:#000000;stroke-width:0.05mm"
         id="polygon418" /><polygon
         points="317.088,44.575 331.088,44.575 331.088,30.575 317.088,30.575 "
         style="fill:none;stroke:#000000;stroke-width:0.05mm"
         id="polygon420" /><polygon
         points="346.425,44.575 360.425,44.575 360.425,30.575 346.425,30.575 "
         style="fill:none;stroke:#000000;stroke-width:0.05mm"
         id="polygon422" /><polygon
         points="176.725,42.94 190.419,40.03 187.509,26.336 173.815,29.246 "
         style="fill:none;stroke:#000000;stroke-width:0.05mm"
         id="polygon426" /><polygon
         points="194.884,36.744 208.578,33.833 205.667,20.139 191.973,23.05 "
         style="fill:none;stroke:#000000;stroke-width:0.05mm"
         id="polygon430" /><polygon
         points="213.003,30.361 226.697,27.45 223.786,13.756 210.092,16.666 "
         style="fill:none;stroke:#000000;stroke-width:0.05mm"
         id="polygon434" /><polygon
         points="232.151,28.822 245.845,25.911 242.935,12.217 229.24,15.128 "
         style="fill:none;stroke:#000000;stroke-width:0.05mm"
         id="polygon438" /><polygon
         points="251.366,25.525 265.366,25.525 265.366,11.525 251.366,11.525 "
         style="fill:none;stroke:#000000;stroke-width:0.05mm"
         id="polygon444" /><polygon
         points="270.416,25.525 284.416,25.525 284.416,11.525 270.416,11.525 "
         style="fill:none;stroke:#000000;stroke-width:0.05mm"
         id="polygon446" /><polygon
         points="289.466,25.525 303.466,25.525 303.466,11.525 289.466,11.525 "
         style="fill:none;stroke:#000000;stroke-width:0.05mm"
         id="polygon448" /><polygon
         points="313.278,25.525 327.278,25.525 327.278,11.525 313.278,11.525 "
         style="fill:none;stroke:#000000;stroke-width:0.05mm"
         id="polygon450" /><polygon
         points="342.615,25.525 356.615,25.525 356.615,11.525 342.615,11.525 "
         style="fill:none;stroke:#000000;stroke-width:0.05mm"
         id="polygon452" /></g></g><g
     inkscape:groupmode="layer"
     id="layer2"
     inkscape:label="Left"
     transform="translate(419.21195,-1.7972555)"><g
       id="g1254"
       transform="matrix(3.7795276,0,0,3.7795276,-167.86621,154.05174)"><polygon
         points="5.001,124.432 5.001,5 362.951,5 362.951,124.432 "
         style="fill:none;stroke:#000000;stroke-width:0.05mm"
         id="polygon1035"
         transform="matrix(0.43039302,0,0,1.000544,2.8161215,-0.03520276)" /><polygon
         points="117.552,110.056 118.359,110.227 117.687,113.386 119.374,113.745 119.183,114.645 122.411,115.331 122.602,114.431 124.289,114.79 124.961,111.63 126.453,111.947 125.476,116.545 139.17,119.456 140.147,114.858 141.638,115.175 140.967,118.335 142.654,118.693 142.463,119.593 145.691,120.279 145.882,119.38 147.569,119.738 148.241,116.579 149.048,116.75 149.63,114.011 148.823,113.84 150.127,107.707 148.439,107.348 148.643,106.39 145.415,105.704 145.212,106.662 143.524,106.304 142.595,110.676 141.103,110.359 142.08,105.762 128.385,102.851 127.409,107.448 125.917,107.131 126.847,102.759 125.159,102.4 125.363,101.441 122.135,100.755 121.932,101.714 120.244,101.355 118.941,107.488 118.134,107.317 "
         style="fill:none;stroke:#000000;stroke-width:0.05mm"
         id="polygon1039" /><polygon
         points="95.671,107.873 109.365,110.783 112.276,97.089 98.582,94.179 "
         style="fill:none;stroke:#000000;stroke-width:0.05mm"
         id="polygon1041" /><polygon
         points="72.379,102.922 86.073,105.832 88.984,92.138 75.29,89.228 "
         style="fill:none;stroke:#000000;stroke-width:0.05mm"
         id="polygon1051" /><polygon
         points="138.753,99.891 152.447,102.802 155.358,89.108 141.664,86.197 "
         style="fill:none;stroke:#000000;stroke-width:0.05mm"
         id="polygon1055" /><polygon
         points="19.432,87.725 19.432,101.725 33.432,101.725 33.432,87.725 "
         style="fill:none;stroke:#000000;stroke-width:0.05mm"
         id="polygon1059" /><polygon
         points="120.119,95.931 133.813,98.842 136.724,85.147 123.03,82.237 "
         style="fill:none;stroke:#000000;stroke-width:0.05mm"
         id="polygon1063" /><polygon
         points="101.961,89.734 115.655,92.645 118.566,78.951 104.872,76.04 "
         style="fill:none;stroke:#000000;stroke-width:0.05mm"
         id="polygon1067" /><polygon
         points="83.842,83.351 97.536,86.262 100.447,72.568 86.753,69.657 "
         style="fill:none;stroke:#000000;stroke-width:0.05mm"
         id="polygon1073" /><polygon
         points="64.694,81.813 78.388,84.723 81.298,71.029 67.604,68.118 "
         style="fill:none;stroke:#000000;stroke-width:0.05mm"
         id="polygon1077" /><polygon
         points="13.801,70.145 13.801,69.225 10.501,69.225 10.501,70.145 8.776,70.145 8.776,73.375 7.951,73.375 7.951,76.175 8.776,76.175 8.776,82.445 10.501,82.445 10.501,83.425 13.801,83.425 13.801,82.445 15.526,82.445 15.526,77.975 17.051,77.975 17.051,82.675 31.051,82.675 31.051,77.975 32.576,77.975 32.576,82.445 34.301,82.445 34.301,83.425 37.601,83.425 37.601,82.445 39.326,82.445 39.326,76.175 40.151,76.175 40.151,73.375 39.326,73.375 39.326,70.145 37.601,70.145 37.601,69.225 34.301,69.225 34.301,70.145 32.576,70.145 32.576,73.375 31.051,73.375 31.051,68.675 17.051,68.675 17.051,73.375 15.526,73.375 15.526,70.145 "
         style="fill:none;stroke:#000000;stroke-width:0.05mm"
         id="polygon1081" /><polygon
         points="45.626,68.675 45.626,82.675 59.626,82.675 59.626,68.675 "
         style="fill:none;stroke:#000000;stroke-width:0.05mm"
         id="polygon1083" /><polygon
         points="124.08,77.297 137.774,80.208 140.685,66.514 126.991,63.603 "
         style="fill:none;stroke:#000000;stroke-width:0.05mm"
         id="polygon1089" /><polygon
         points="105.922,71.1 119.616,74.011 122.527,60.317 108.832,57.406 "
         style="fill:none;stroke:#000000;stroke-width:0.05mm"
         id="polygon1093" /><polygon
         points="87.803,64.717 101.497,67.628 104.408,53.934 90.714,51.023 "
         style="fill:none;stroke:#000000;stroke-width:0.05mm"
         id="polygon1097" /><polygon
         points="68.654,63.179 82.348,66.09 85.259,52.396 71.565,49.485 "
         style="fill:none;stroke:#000000;stroke-width:0.05mm"
         id="polygon1101" /><polygon
         points="23.242,49.625 23.242,63.625 37.242,63.625 37.242,49.625 "
         style="fill:none;stroke:#000000;stroke-width:0.05mm"
         id="polygon1107" /><polygon
         points="49.435,49.625 49.435,63.625 63.435,63.625 63.435,49.625 "
         style="fill:none;stroke:#000000;stroke-width:0.05mm"
         id="polygon1109" /><polygon
         points="128.04,58.663 141.735,61.574 144.646,47.88 130.952,44.969 "
         style="fill:none;stroke:#000000;stroke-width:0.05mm"
         id="polygon1117" /><polygon
         points="109.882,52.467 123.576,55.377 126.487,41.683 112.793,38.772 "
         style="fill:none;stroke:#000000;stroke-width:0.05mm"
         id="polygon1121" /><polygon
         points="91.764,46.083 105.458,48.994 108.368,35.3 94.674,32.389 "
         style="fill:none;stroke:#000000;stroke-width:0.05mm"
         id="polygon1125" /><polygon
         points="72.615,44.545 86.309,47.456 89.22,33.762 75.526,30.851 "
         style="fill:none;stroke:#000000;stroke-width:0.05mm"
         id="polygon1129" /><polygon
         points="30.004,30.575 30.004,44.575 44.004,44.575 44.004,30.575 "
         style="fill:none;stroke:#000000;stroke-width:0.05mm"
         id="polygon1133" /><polygon
         points="53.817,30.575 53.817,44.575 67.817,44.575 67.817,30.575 "
         style="fill:none;stroke:#000000;stroke-width:0.05mm"
         id="polygon1135" /><polygon
         points="132.002,40.03 145.696,42.94 148.606,29.246 134.912,26.336 "
         style="fill:none;stroke:#000000;stroke-width:0.05mm"
         id="polygon1147" /><polygon
         points="113.843,33.833 127.537,36.744 130.448,23.05 116.754,20.139 "
         style="fill:none;stroke:#000000;stroke-width:0.05mm"
         id="polygon1151" /><polygon
         points="95.724,27.45 109.418,30.361 112.329,16.666 98.635,13.756 "
         style="fill:none;stroke:#000000;stroke-width:0.05mm"
         id="polygon1155" /><polygon
         points="76.576,25.911 90.27,28.822 93.181,15.128 79.486,12.217 "
         style="fill:none;stroke:#000000;stroke-width:0.05mm"
         id="polygon1159" /><polygon
         points="38.577,11.525 38.577,25.525 52.577,25.525 52.577,11.525 "
         style="fill:none;stroke:#000000;stroke-width:0.05mm"
         id="polygon1163" /><polygon
         points="57.627,11.525 57.627,25.525 71.627,25.525 71.627,11.525 "
         style="fill:none;stroke:#000000;stroke-width:0.05mm"
         id="polygon1165" /></g></g></svg>
